<?xml version="1.0" standalone="no"?>
<!DOCTYPE svg PUBLIC "-//W3C//DTD SVG 1.1//EN" "http://www.w3.org/Graphics/SVG/1.1/DTD/svg11.dtd" >
<svg>
<metadata>
Created by FontForge 20090914 at Fri Sep 16 19:00:13 2016
 By www-data
Copyright (C) 1990 ParaGraph JV.
</metadata>
<defs>
<font id="AdverGothic" horiz-adv-x="0" >
  <font-face 
    font-family="Adver Gothic"
    font-weight="400"
    font-stretch="normal"
    units-per-em="2048"
    panose-1="2 11 5 0 0 0 0 0 0 0"
    ascent="1638"
    descent="-410"
    x-height="1180"
    cap-height="1520"
    bbox="-29.001 -459 3428.01 1864"
    underline-thickness="56"
    underline-position="-196"
    unicode-range="U+0020-U+2219"
  />
<missing-glyph horiz-adv-x="1536" 
d="M256 0v1280h1024v-1280h-1024zM1247 33v1214h-958v-1214h958z" />
    <glyph glyph-name=".notdef" horiz-adv-x="1536" 
d="M256 0v1280h1024v-1280h-1024zM1247 33v1214h-958v-1214h958z" />
    <glyph glyph-name="space" unicode=" " horiz-adv-x="719" 
 />
    <glyph glyph-name="exclam" unicode="!" horiz-adv-x="575" 
d="M72 1520h432l-68 -1067h-295zM84 170c0 36 9.16699 69.6631 27.5 100.996s43.333 56.5 75 75.5s65.834 28.5 102.501 28.5s70.5 -9.16699 101.5 -27.5s55.667 -43.166 74 -74.499s27.5 -65.666 27.5 -102.999s-9.16699 -71.666 -27.5 -102.999s-43 -56.166 -74 -74.499
s-64.833 -27.5 -101.5 -27.5s-70.834 9.5 -102.501 28.5s-56.667 44.167 -75 75.5s-27.5 65 -27.5 101z" />
    <glyph glyph-name="quotedbl" unicode="&#x22;" horiz-adv-x="1042" 
d="M115 1520h338l-115 -539h-109zM590 1520h338l-115 -539h-108z" />
    <glyph glyph-name="numbersign" unicode="#" horiz-adv-x="1896" 
d="M1186 0h-187l72 381h-397l-72 -381h-188l71 381h-370l37 174h370l78 410h-371l37 176h371l72 379h186l-72 -379h398l71 379h189l-74 -379h375l-37 -176h-373l-78 -410h371l-37 -174h-371zM1108 555l76 410h-398l-75 -410h397z" />
    <glyph glyph-name="dollar" unicode="$" horiz-adv-x="1485" 
d="M643 1655l229.002 0.00195312v-107c80 -8.66699 154.167 -27 222.5 -55s141.166 -69 218.499 -123l-160 -264c-84 58 -177.667 96.333 -281 115v-273c113.333 -24 206.166 -56 278.499 -96s127.833 -83.667 166.5 -131s65.334 -95.166 80.001 -143.499
s22 -95.5 22 -141.5c0 -54 -10 -108.5 -30 -163.5s-51.833 -105.5 -95.5 -151.5s-100.334 -83.333 -170.001 -112s-153.5 -43.334 -251.5 -44.001v-98h-229v98c-198.667 15.333 -398 77 -598 185l158 280l166 -80c33.333 -15.333 73.333 -29.833 120 -43.5
s98 -23.834 154 -30.501v367c-106 26 -197.833 58.167 -275.5 96.5s-139.167 89.166 -184.5 152.499s-68 142 -68 236c0 100 25.333 181.833 76 245.5s116.167 109.667 196.5 138s165.5 42.5 255.5 42.5v101zM643.002 1237h-29c-26.667 0 -52 -9.66699 -76 -29
s-36 -46.666 -36 -81.999c0 -33.333 11 -60.333 33 -81s58 -35.334 108 -44.001v236zM872.002 596.002v-330c42 0 78.5 13 109.5 39s46.5 61 46.5 105c0 96.667 -52 158.667 -156 186z" />
    <glyph glyph-name="percent" unicode="%" horiz-adv-x="2456" 
d="M66 1135c0 56.667 10.6689 111.834 32.002 165.501s52 102.167 92 145.5s88 77.666 144 102.999s117.333 38 184 38c62 0 120.667 -11.667 176 -35s104 -56 146 -98s74.667 -90.167 98 -144.5s35 -112.5 35 -174.5c0 -82.667 -20.833 -159 -62.5 -229
s-97.334 -125.167 -167.001 -165.5s-144.834 -60.5 -225.501 -60.5c-79.333 0 -153.833 20.167 -223.5 60.5s-125.167 95.5 -166.5 165.5s-62 146.333 -62 229zM315.002 1135c0 -60.667 20.6699 -110 62.0029 -148s88.333 -57 141 -57c56 0 104.167 19.833 144.5 59.5
s60.5 88.167 60.5 145.5c0 37.333 -9.16699 71.5 -27.5 102.5s-43.333 55.333 -75 73s-65.834 26.5 -102.501 26.5s-70.334 -8.66699 -101.001 -26s-55.334 -41.5 -74.001 -72.5s-28 -65.5 -28 -103.5zM1540 1632h272l-897 -1814h-272zM1483 385
c0 82.667 20.835 158.999 62.502 228.999s97.167 125.167 166.5 165.5s144.333 60.5 225 60.5c79.333 0 153.666 -20.167 222.999 -60.5s125 -95.5 167 -165.5s63 -146.333 63 -229c0 -62 -11.5 -120.167 -34.5 -174.5s-55.333 -102.5 -97 -144.5
s-90.334 -74.833 -146.001 -98.5s-114.167 -35.5 -175.5 -35.5c-82 0 -158 20.5 -228 61.5s-125.167 96.333 -165.5 166s-60.5 144.834 -60.5 225.501zM1733.01 384.999c0 -56.667 20.001 -104.667 60.001 -144s88 -59 144 -59c55.333 0 103 19.333 143 58s60 87 60 145
c0 38 -9 72.667 -27 104s-42.833 56 -74.5 74s-65.5 27 -101.5 27c-56.667 0 -104.834 -19.833 -144.501 -59.5s-59.5 -88.167 -59.5 -145.5z" />
    <glyph glyph-name="ampersand" unicode="&#x26;" horiz-adv-x="1782" 
d="M1386 811l264.999 -239.999l-97.5 -106.5c-27 -28.333 -49.333 -51 -67 -68l-44.5 -42.5l340 -354h-512l-123 129l-31 -21c-4 -2.66699 -12.667 -8 -26 -16c-147.333 -84.667 -299.666 -127 -456.999 -127c-115.333 0 -216 18.167 -302 54.5s-151.667 86.833 -197 151.5
s-68 138 -68 220s15.333 153.167 46 213.5s73.167 110.833 127.5 151.5s120.5 76.667 198.5 108c-102 88.667 -153 187 -153 295c0 71.333 18.333 137 55 197s92.167 108 166.5 144s164.166 54 269.499 54c87.333 0 165.5 -15.167 234.5 -45.5s123 -74.833 162 -133.5
s58.5 -129.334 58.5 -212.001c0 -55.333 -16.667 -114.333 -50 -177s-100.666 -121 -201.999 -175l203 -209c77.333 70 145.333 139.667 204 209zM704.999 1083l68.999 -75c38.667 19.333 67.834 39 87.501 59s29.5 47.333 29.5 82c0 26 -9.66699 51 -29 75
s-45.333 36 -78 36c-27.333 0 -52.5 -9.5 -75.5 -28.5s-34.5 -43.833 -34.5 -74.5c0 -10 1 -18.5 3 -25.5s4.66699 -13.667 8 -20s6.5 -11.333 9.5 -15zM908.998 379.001l-244.998 260.001c-36.667 -15.333 -69.167 -32.5 -97.5 -51.5s-51 -41.5 -68 -67.5
s-25.5 -56.667 -25.5 -92c0 -58 21 -96.667 63 -116s86.667 -29 134 -29c37.333 0 78.166 8.66699 122.499 26s83.166 40.666 116.499 69.999z" />
    <glyph glyph-name="quotesingle" unicode="'" horiz-adv-x="567" 
d="M115 1520h338l-115 -539h-109z" />
    <glyph glyph-name="parenleft" unicode="(" horiz-adv-x="793" 
d="M403 1520l332.001 -0.000976562c-44.667 -92.667 -82.834 -179.167 -114.501 -259.5s-57.5 -156.333 -77.5 -228s-35 -141.5 -45 -209.5s-15 -137 -15 -207c0 -69.333 5 -138.166 15 -206.499s25 -138.333 45 -210s45.5 -146.667 76.5 -225s69.5 -165.5 115.5 -261.5
h-332c-58 82.667 -111.167 174.334 -159.5 275.001s-86.666 205.167 -114.999 313.5s-42.5 213.166 -42.5 314.499c0 94 12.333 191.5 37 292.5s59.667 201.167 105 300.5s103.666 203 174.999 311z" />
    <glyph glyph-name="parenright" unicode=")" horiz-adv-x="793" 
d="M57 1520l332.001 -0.00292969c212 -319.333 318 -620.666 318 -903.999c0 -101.333 -14.167 -206.166 -42.5 -314.499s-66.333 -212 -114 -311s-101.5 -191.5 -161.5 -277.5h-332c46 96 84.667 183 116 261s57.166 152.833 77.499 224.5s35.166 141.667 44.499 210
s14 137.5 14 207.5c0 69.333 -4.66699 138.333 -14 207s-24.166 138.834 -44.499 210.501s-46.5 147.5 -78.5 227.5s-70.333 166.333 -115 259z" />
    <glyph glyph-name="asterisk" unicode="*" horiz-adv-x="834" 
d="M383 1298l-57 119v137h180v-137l-55 -119l41 -24l75 108l117 68l92 -156l-117 -67l-133 -13v-49l133 -10l117 -68l-92 -157l-117 67l-75 111l-41 -25l55 -120v-136h-180v136l57 120l-43 25l-76 -111l-117 -67l-90 157l117 68l131 10v49l-131 13l-117 67l90 156l117 -68
l76 -108z" />
    <glyph glyph-name="plus" unicode="+" horiz-adv-x="1548" 
d="M631 72v544h-545v287h545v545h287v-545h544v-287h-544v-544h-287z" />
    <glyph glyph-name="comma" unicode="," horiz-adv-x="580" 
d="M356 -145h-254.002c18.667 16.667 39 39.834 61 69.501s37.333 55.5 46 77.5c-39.333 11.333 -69.666 31.666 -90.999 60.999s-32 64.333 -32 105c0 62 20.333 112 61 150s88 57 142 57c42.667 0 79.334 -9.66699 110.001 -29s54.167 -44.5 70.5 -75.5
s24.5 -64.5 24.5 -100.5c0 -56 -12 -108 -36 -156s-58 -101 -102 -159z" />
    <glyph glyph-name="hyphen" unicode="-" horiz-adv-x="852" 
d="M86 770h680v-340h-680v340z" />
    <glyph glyph-name="period" unicode="." horiz-adv-x="580" 
d="M86 170c0 56 19.833 104.167 59.5 144.5s87.5 60.5 143.5 60.5c35.333 0 69 -9.33301 101 -28s57.333 -43.834 76 -75.501s28 -65.5 28 -101.5c0 -56 -20.167 -104.167 -60.5 -144.5s-88.5 -60.5 -144.5 -60.5c-38 0 -72.333 9.16699 -103 27.5s-55 43.333 -73 75
s-27 65.834 -27 102.501z" />
    <glyph glyph-name="slash" unicode="/" horiz-adv-x="1112" 
d="M868 1632h273l-897 -1814h-273z" />
    <glyph glyph-name="zero" unicode="0" horiz-adv-x="1583" 
d="M86 760c0 142.667 20.832 265.997 62.499 369.997s97 186.833 166 248.5s144.667 106.334 227 134.001s165.5 41.5 249.5 41.5c93.333 0 182.166 -15.167 266.499 -45.5s159.5 -77.5 225.5 -141.5s118.167 -147 156.5 -249s57.5 -221.333 57.5 -358
c0 -136 -19 -255 -57 -357s-90.167 -185.333 -156.5 -250s-141.666 -112.167 -225.999 -142.5s-173.166 -45.5 -266.499 -45.5c-84 0 -166.667 13.667 -248 41s-157 72.333 -227 135s-125.833 145.834 -167.5 249.501s-62.5 226.834 -62.5 369.501zM484.999 759.997
c0 -117.333 15 -211.83 45 -283.497s68.167 -121.834 114.5 -150.501s95.166 -43 146.499 -43c87.333 0 160.333 38.167 219 114.5s88 197.166 88 362.499c0 110.667 -14 202 -42 274s-65.5 123.833 -112.5 155.5s-97.833 47.5 -152.5 47.5
c-51.333 0 -100.166 -14.333 -146.499 -43s-84.5 -78.834 -114.5 -150.501s-45 -166.167 -45 -283.5z" />
    <glyph glyph-name="one" unicode="1" horiz-adv-x="897" 
d="M754 1520v-1520h-432v1090h-236v247c93.333 1.33301 173 15.5 239 42.5s115.333 73.833 148 140.5h281z" />
    <glyph glyph-name="two" unicode="2" horiz-adv-x="1415" 
d="M496 954l-385 97.002c18.667 93.333 55.5 178.333 110.5 255s128.833 137.167 221.5 181.5s203 66.5 331 66.5c104 0 193.333 -14.333 268 -43s134.167 -66.667 178.5 -114s76.666 -100.166 96.999 -158.499s30.5 -118.833 30.5 -181.5
c0 -96.667 -19.5 -176.167 -58.5 -238.5s-86.333 -111.166 -142 -146.499s-134.5 -75.666 -236.5 -120.999c-106.667 -47.333 -181.167 -85.333 -223.5 -114s-72.833 -61 -91.5 -97h770v-340h-1317c10 129.333 37.333 240.166 82 332.499s110.167 173.166 196.5 242.499
s198.5 135.666 336.5 198.999c72 33.333 123.5 58.166 154.5 74.499s60.333 40 88 71s41.5 68.5 41.5 112.5c0 47.333 -13.167 89.166 -39.5 125.499s-79.166 54.5 -158.499 54.5c-144 0 -228.667 -86 -254 -258z" />
    <glyph glyph-name="three" unicode="3" horiz-adv-x="1376" 
d="M365 1014l-321.999 128.999c33.333 73.333 78.666 141 135.999 203s129.833 112.167 217.5 150.5s189.5 57.5 305.5 57.5c114.667 0 213.834 -18 297.501 -54s147.167 -85.333 190.5 -148s65 -132.334 65 -209.001c0 -85.333 -22 -153.666 -66 -204.999
s-96.333 -89.666 -157 -114.999v-10c48 -15.333 93 -39.333 135 -72s76.5 -77 103.5 -133s40.5 -120.667 40.5 -194c0 -66 -16.833 -132.833 -50.5 -200.5s-97 -126 -190 -175s-221.167 -73.5 -384.5 -73.5c-48 0 -97.333 2.83301 -148 8.5s-105.834 19.334 -165.501 41.001
s-119.167 55 -178.5 100s-115.666 106.5 -168.999 184.5l299 180c96 -130.667 209.333 -196 340 -196c73.333 0 132.833 16.167 178.5 48.5s68.5 76.166 68.5 131.499c0 62 -24.667 108.5 -74 139.5s-113.333 46.5 -192 46.5h-141v295h176c29.333 0 57.333 2.66699 84 8
s51 18 73 38s33 49.667 33 89c0 22.667 -5.83301 46 -17.5 70s-31.667 44.667 -60 62s-65.833 26 -112.5 26c-72.667 0 -133.834 -18.833 -183.501 -56.5s-93.5 -93.167 -131.5 -166.5z" />
    <glyph glyph-name="four" unicode="4" horiz-adv-x="1470" 
d="M287 1520l399 -0.000976562c-49.333 -143.333 -89.5 -284.166 -120.5 -422.499s-54.833 -287.833 -71.5 -448.5h311v729l385 142v-871h215v-342h-215v-307h-385v307h-739c6.66699 100.667 15 195.667 25 285s24 186.833 42 292.5s39.167 209 63.5 310
s54.5 209.5 90.5 325.5z" />
    <glyph glyph-name="five" unicode="5" horiz-adv-x="1370" 
d="M1167 1520l-0.000976562 -318.001h-667l-23 -190c91.333 35.333 185 53 281 53c88 0 166 -14 234 -42s125.167 -67.333 171.5 -118s81.5 -110.667 105.5 -180s36 -143.666 36 -222.999c0 -90 -20.667 -176 -62 -258s-106.666 -149 -195.999 -201s-200 -78 -332 -78
c-86 0 -165.833 7.83301 -239.5 23.5s-148 48.834 -223 99.501s-144.167 123.667 -207.5 219l303 189c22 -50.667 56.833 -98.834 104.5 -144.501s113.167 -68.5 196.5 -68.5c52.667 0 98.667 11 138 33s68.833 51.5 88.5 88.5s29.5 76.833 29.5 119.5
c0 44 -11.667 84.833 -35 122.5s-57.5 67.667 -102.5 90s-96.167 33.5 -153.5 33.5c-112 0 -212.333 -43 -301 -129l-213 141l101 738h966z" />
    <glyph glyph-name="six" unicode="6" horiz-adv-x="1481" 
d="M1225 1489v-339.994c-105.333 58.667 -212 88 -320 88c-128 0 -233.333 -39.333 -316 -118s-124 -211.334 -124 -398.001c0 -166.667 31 -281 93 -343s133.333 -93 214 -93c86.667 0 150.667 20.667 192 62s62 92.333 62 153c0 67.333 -21.833 121.666 -65.5 162.999
s-106.5 62 -188.5 62c-77.333 0 -152.333 -27.333 -225 -82c-1.33301 19.333 -2 45.333 -2 78c0 106.667 15.667 192 47 256c57.333 24.667 111.5 41.667 162.5 51s97.167 14 138.5 14c110 0 204.5 -22.833 283.5 -68.5s138.5 -109.834 178.5 -192.501
s60 -176.334 60 -281.001c0 -78.667 -13.667 -151 -41 -217s-67.5 -122.5 -120.5 -169.5s-118.667 -83.5 -197 -109.5s-166.166 -39 -263.499 -39c-82 0 -175.833 14.667 -281.5 44s-206.334 102.166 -302.001 218.499s-143.5 288.833 -143.5 517.5
c0 44.667 6.66699 106.167 20 184.5s44.5 166.166 93.5 263.499s127.167 181.833 234.5 253.5s246.333 107.5 417 107.5c134.667 0 266 -21.667 394 -65z" />
    <glyph glyph-name="seven" unicode="7" horiz-adv-x="1364" 
d="M25 1520l1339 0.00292969c-27.333 -108.667 -58.333 -216.834 -93 -324.501s-76.834 -224.334 -126.501 -350.001s-106 -257.5 -169 -395.5s-135.5 -288 -217.5 -450h-449c80.667 146.667 171.834 327.167 273.501 541.5s187.5 427.166 257.5 638.499h-428v-277h-387v617
z" />
    <glyph glyph-name="eight" unicode="8" horiz-adv-x="1419" 
d="M348 817l0.000976562 8c-41.333 17.333 -77.833 40.333 -109.5 69s-57.167 63.834 -76.5 105.501s-29 88.167 -29 139.5c0 69.333 18.833 135.5 56.5 198.5s99.834 114.833 186.501 155.5s197.667 61 333 61c136 0 247 -20.333 333 -61s147.833 -92.5 185.5 -155.5
s56.5 -129.167 56.5 -198.5c0 -84 -21 -151.167 -63 -201.5s-92 -87.833 -150 -112.5v-8c55.333 -14 104.166 -37.333 146.499 -70s75.666 -73.667 99.999 -123s36.5 -105 36.5 -167c0 -67.333 -13.833 -136.833 -41.5 -208.5s-89 -136.834 -184 -195.501
s-234.833 -88 -419.5 -88c-164.667 0 -295.167 25 -391.5 75s-162.333 112 -198 186s-53.5 151 -53.5 231c0 100.667 28 181.5 84 242.5s122 100.167 198 117.5zM520.001 1092c0 -38 14.668 -71.833 44.001 -101.5s77.666 -44.5 144.999 -44.5
c51.333 0 95.833 11.833 133.5 35.5s56.5 60.5 56.5 110.5c0 49.333 -18.833 85.833 -56.5 109.5s-82.167 35.5 -133.5 35.5c-68 0 -116.5 -14.667 -145.5 -44s-43.5 -63 -43.5 -101zM457.002 479c0 -56.667 21.8311 -103.5 65.498 -140.5s105.834 -55.5 186.501 -55.5
s142.834 18.333 186.501 55s65.5 83.667 65.5 141c0 55.333 -22 101.666 -66 138.999s-106 56 -186 56s-142 -18.667 -186 -56s-66 -83.666 -66 -138.999z" />
    <glyph glyph-name="nine" unicode="9" horiz-adv-x="1481" 
d="M256 31l0.00488281 339.999c99.333 -58.667 205.666 -88 318.999 -88c152 0 263.5 46.833 334.5 140.5s106.5 218.834 106.5 375.501c0 114.667 -16.333 204.667 -49 270s-72.167 109.333 -118.5 132s-92.833 34 -139.5 34c-98.667 0 -165.667 -23.167 -201 -69.5
s-53 -94.833 -53 -145.5c0 -44 9.66699 -83 29 -117s48.333 -60.5 87 -79.5s84.667 -28.5 138 -28.5c80.667 0 155 27.333 223 82c1.33301 -18 2 -46.667 2 -86c0 -104.667 -15 -187.334 -45 -248.001c-102 -44 -202.333 -66 -301 -66c-110 0 -204.5 23 -283.5 69
s-138.5 110 -178.5 192s-60 176 -60 282c0 161.333 56.667 290.666 170 387.999s271.666 146 474.999 146c79.333 0 170 -14.667 272 -44s199.5 -102.166 292.5 -218.499s139.5 -288.833 139.5 -517.5c0 -111.333 -15.833 -215.166 -47.5 -311.499
s-79.334 -182 -143.001 -257s-144.334 -133.833 -242.001 -176.5s-208.834 -64 -333.501 -64c-137.333 0 -268.333 22 -393 66z" />
    <glyph glyph-name="colon" unicode=":" horiz-adv-x="582" 
d="M86 795c0 30 8.1709 60.667 24.5039 92s40.166 57.5 71.499 78.5s67.666 31.5 108.999 31.5s77.666 -10.5 108.999 -31.5s55.166 -47.167 71.499 -78.5s24.5 -62 24.5 -92s-8.16699 -61.167 -24.5 -93.5s-40 -59 -71 -80s-67.5 -31.5 -109.5 -31.5
c-62 0 -111.667 22.167 -149 66.5s-56 90.5 -56 138.5zM86.0039 170c0 33.333 8.66602 65.834 25.999 97.501s41.833 57.5 73.5 77.5s66.834 30 105.501 30c36 0 69.5 -9.16699 100.5 -27.5s56.167 -43.333 75.5 -75s29 -65.834 29 -102.501s-9.66699 -70.834 -29 -102.501
s-44.5 -56.667 -75.5 -75s-64.5 -27.5 -100.5 -27.5s-69.667 9.16699 -101 27.5s-56.5 43.333 -75.5 75s-28.5 65.834 -28.5 102.501z" />
    <glyph glyph-name="semicolon" unicode=";" horiz-adv-x="580" 
d="M86 795c0 36.667 8.83398 70.499 26.501 101.499s42 55.5 73 73.5s65.5 27 103.5 27c41.333 0 77.666 -10.5 108.999 -31.5s55.166 -47.167 71.499 -78.5s24.5 -62 24.5 -92s-8.16699 -61.167 -24.5 -93.5s-40 -59 -71 -80s-67.5 -31.5 -109.5 -31.5
c-37.333 0 -71.666 9.16699 -102.999 27.5s-55.833 43.333 -73.5 75s-26.5 65.834 -26.5 102.501zM358.001 -145.001h-254.001c52 57.333 87 106.333 105 147c-40 11.333 -70.5 33 -91.5 65s-31.5 65.667 -31.5 101c0 50 17 97 51 141s84.667 66 152 66
c42.667 0 79.334 -9.66699 110.001 -29s54.167 -44.5 70.5 -75.5s24.5 -64.5 24.5 -100.5c0 -38.667 -6.83301 -76.334 -20.5 -113.001s-29.5 -69.667 -47.5 -99s-40.667 -63.666 -68 -102.999z" />
    <glyph glyph-name="less" unicode="&#x3c;" horiz-adv-x="1579" 
d="M55 688l1403 596l66 -170l-973 -426l973 -426l-66 -170z" />
    <glyph glyph-name="equal" unicode="=" horiz-adv-x="1548" 
d="M86 1206h1376v-286h-1376v286zM86 600h1376v-287h-1376v287z" />
    <glyph glyph-name="greater" unicode="&#x3e;" horiz-adv-x="1579" 
d="M1524 688l-1403 -596l-66 170l973 426l-973 426l66 170z" />
    <glyph glyph-name="question" unicode="?" horiz-adv-x="1212" 
d="M57 989l0.00195312 77.999c0 71.333 15.667 143.833 47 217.5s87 137 167 190s187 79.5 321 79.5c113.333 0 210.166 -17.667 290.499 -53s141 -85.166 182 -149.499s61.5 -138.166 61.5 -221.499c0 -62 -11 -115.667 -33 -161s-48.5 -82.166 -79.5 -110.499
s-69.833 -58.5 -116.5 -90.5c-35.333 -24.667 -65.5 -49.667 -90.5 -75s-45.5 -57.333 -61.5 -96s-24 -86.667 -24 -144h-340v86c0 61.333 8.16699 114.166 24.5 158.499s37.666 83.166 63.999 116.499s61 67.666 104 102.999l75.5 62c24 21.333 43 42.333 57 63
s21 45.334 21 74.001c0 79.333 -45.667 119 -137 119c-114.667 0 -172 -66.333 -172 -199c0 -21.333 0.666992 -37 2 -47h-363zM354.002 169.999c0 56 19.832 104.166 59.499 144.499s87.5 60.5 143.5 60.5c36.667 0 70.834 -9.5 102.501 -28.5s56.667 -44.167 75 -75.5
s27.5 -65 27.5 -101c0 -55.333 -20 -103.333 -60 -144s-88.333 -61 -145 -61c-38 0 -72.333 9.16699 -103 27.5s-55 43.333 -73 75s-27 65.834 -27 102.501z" />
    <glyph glyph-name="at" unicode="@" horiz-adv-x="2157" 
d="M1489 88l101.998 -184.001c-86.667 -56 -169.667 -94.333 -249 -115s-167 -31 -263 -31c-154 0 -291.833 25 -413.5 75s-224.5 120 -308.5 210s-147.5 194.5 -190.5 313.5s-64.5 244.5 -64.5 376.5c0 146.667 25.5 280.167 76.5 400.5s122.167 223.666 213.5 309.999
s196 152 314 197s242.333 67.5 373 67.5c175.333 0 326.5 -29.667 453.5 -89s228.667 -137.666 305 -234.999s131.5 -202.333 165.5 -315s51 -224.667 51 -336c0 -91.333 -19.167 -179 -57.5 -263s-95 -152.333 -170 -205s-162.833 -79 -263.5 -79
c-47.333 0 -89.833 6 -127.5 18s-69.834 41 -96.501 87c-0.666992 -0.666992 -1.16699 -1.5 -1.5 -2.5s-1.16602 -2.16699 -2.49902 -3.5c-12 -17.333 -30.667 -34.666 -56 -51.999s-59.5 -31.833 -102.5 -43.5s-93.833 -17.5 -152.5 -17.5c-100.667 0 -186 21.667 -256 65
s-123 105 -159 185s-54 173.333 -54 280c0 72 10.167 139.667 30.5 203s49.833 119.5 88.5 168.5s86.5 87.5 143.5 115.5s120.5 42 190.5 42c116.667 0 206 -29.333 268 -88l2 53h266v-670c0 -48 4.5 -79.667 13.5 -95s26.5 -23 52.5 -23
c71.333 0 126.666 32.667 165.999 98s59 141 59 227c0 126 -20.167 238 -60.5 336s-96.333 179.833 -168 245.5s-152.167 114.167 -241.5 145.5s-184.666 47 -285.999 47c-133.333 0 -258.166 -32.333 -374.499 -97s-209.166 -155.667 -278.499 -273s-104 -252 -104 -404
c0 -125.333 20.667 -237 62 -335s98.166 -179.667 170.499 -245s153.833 -114 244.5 -146s184 -48 280 -48c152.667 0 289.334 43 410.001 129zM1270 697.999c0 77.333 -10 139 -30 185s-46.167 78.333 -78.5 97s-68.5 28 -108.5 28
c-81.333 0 -139.666 -30.667 -174.999 -92s-53 -134 -53 -218c0 -104 20.5 -180.833 61.5 -230.5s95.833 -74.5 164.5 -74.5c91.333 0 150.666 34.5 177.999 103.5s41 136.167 41 201.5z" />
    <glyph glyph-name="A" unicode="A" horiz-adv-x="1477" 
d="M532 1520l412.002 -0.00488281c75.333 -119.333 142 -244.666 200 -375.999s109 -265.166 153 -401.499s80.667 -267.333 110 -393s52.666 -242.167 69.999 -349.5h-433c-5.33301 27.333 -12 65 -20 113c-9.33301 58.667 -18.333 106.334 -27 143.001h-428
c21.333 102 47.333 207.667 78 317h264c-16.667 66.667 -36 129.834 -58 189.501s-43.833 113.334 -65.5 161.001l-46.5 100.5c-48.667 -106 -92.834 -216 -132.501 -330s-74.5 -231.167 -104.5 -351.5s-54 -234.5 -72 -342.5h-432c24 125.333 54.833 259.5 92.5 402.5
s80.667 284.667 129 425s98.5 269.333 150.5 387s105.333 219.5 160 305.5z" />
    <glyph glyph-name="B" unicode="B" horiz-adv-x="1528" 
d="M123 1520l781.999 0.00195312c96.667 0 177.667 -13 243 -39s115.833 -58.833 151.5 -98.5s60.834 -81.834 75.501 -126.501s22 -88.667 22 -132c0 -72.667 -20.667 -134.834 -62 -186.501s-92.333 -91.167 -153 -118.5v-4c104.667 -36.667 177.5 -89 218.5 -157
s61.5 -146.667 61.5 -236c0 -56 -10.667 -109 -32 -159s-54 -94.5 -98 -133.5s-101.833 -70.333 -173.5 -94s-156.167 -35.5 -253.5 -35.5h-782v1520zM634.999 635.002v316.998h158c130.667 0 196 43 196 129c0 51.333 -18.167 84.333 -54.5 99s-87.166 22 -152.499 22h-227
v-885h238c85.333 0 144.166 16.333 176.499 49s48.5 68.334 48.5 107.001c0 68.667 -22.333 112.834 -67 132.501s-99 29.5 -163 29.5h-153z" />
    <glyph glyph-name="C" unicode="C" horiz-adv-x="1237" 
d="M1194 1520l0.00195312 -330.002c-71.333 20.667 -139.666 31 -204.999 31c-76.667 0 -144.667 -11 -204 -33s-109.333 -53.333 -150 -94s-71.334 -89 -92.001 -145s-31 -117.667 -31 -185c0 -94.667 15 -173 45 -235s68.833 -109.5 116.5 -142.5s96 -55.5 145 -67.5
s94.167 -18 135.5 -18c80.667 0 160.667 13 240 39v-340c-102.667 -23.333 -213.334 -35 -332.001 -35c-186 0 -338.833 38.167 -458.5 114.5s-205.834 174.833 -258.501 295.5s-79 250.334 -79 389.001c0 154.667 33.333 291.834 100 411.501s163.5 212.667 290.5 279
s277.167 99.5 450.5 99.5c94 0 189.667 -11.333 287 -34z" />
    <glyph glyph-name="D" unicode="D" horiz-adv-x="1565" 
d="M123 1520l384.999 0.000976562c101.333 0 201.833 -5.83301 301.5 -17.5s203.167 -41.5 310.5 -89.5s197.333 -125.167 270 -231.5s109 -245.5 109 -417.5c0 -147.333 -25.667 -273.333 -77 -378s-119.333 -187.667 -204 -249s-176.667 -105.333 -276 -132
s-201.666 -40 -306.999 -40v342c148 0 257.333 41.667 328 125c61.333 74 92 183.333 92 328c0 133.333 -38.5 236.666 -115.5 309.999s-182.5 110 -316.5 110h-68v-1180h-432v1520z" />
    <glyph glyph-name="E" unicode="E" horiz-adv-x="1204" 
d="M1112 1520v-340h-557v-840h596v-340h-1028v1520h989zM1204 1055v-340h-569v340h569z" />
    <glyph glyph-name="F" unicode="F" horiz-adv-x="1202" 
d="M1110 1520v-340h-555v-1180h-432v1520h987zM1202 1055v-340h-567v340h567z" />
    <glyph glyph-name="G" unicode="G" horiz-adv-x="1563" 
d="M825 1022l652 -0.00195312v-959c-44 -22.667 -90 -41.167 -138 -55.5s-101.5 -25 -160.5 -32s-126.167 -10.5 -201.5 -10.5c-200.667 0 -369.167 33.833 -505.5 101.5s-238 161.334 -305 281.001s-100.5 255.834 -100.5 408.501c0 154.667 33.5 292.5 100.5 413.5
s166.833 215.333 299.5 283s294 101.5 484 101.5c42.667 0 92 -2.33301 148 -7s119.333 -13.667 190 -27v-338c-106.667 20 -200.667 30 -282 30c-74.667 0 -141.834 -8.66699 -201.501 -26s-111.5 -44.333 -155.5 -81s-78.167 -84 -102.5 -142s-36.5 -126.333 -36.5 -205
c0 -82 13.667 -152.5 41 -211.5s64.333 -106.167 111 -141.5s96.834 -60.5 150.501 -75.5s108.5 -22.5 164.5 -22.5c18 0 40.333 1.33301 67 4v394h-219v317z" />
    <glyph glyph-name="H" unicode="H" horiz-adv-x="1608" 
d="M123 1520h432v-1520h-432v1520zM1053 1520h432v-1520h-432v750h-418v342h418v428z" />
    <glyph glyph-name="I" unicode="I" horiz-adv-x="678" 
d="M123 1520h432v-1520h-432v1520z" />
    <glyph glyph-name="J" unicode="J" horiz-adv-x="903" 
d="M356 1520l432 -0.000976562v-953c0 -125.333 -16 -228.166 -48 -308.499s-74 -141.833 -126 -184.5s-107 -71.5 -165 -86.5s-117.667 -22.5 -179 -22.5c-110.667 0 -210.334 11.667 -299.001 35v340c51.333 -22 105.333 -33 162 -33c48.667 0 88.834 6.33301 120.501 19
s56.667 40.5 75 83.5s27.5 105.833 27.5 188.5v922z" />
    <glyph glyph-name="K" unicode="K" horiz-adv-x="1520" 
d="M123 1520l431.998 -0.000976562v-308c73.333 24 149.333 64.333 228 121s139.334 119 182.001 187h518c-18.667 -38.667 -46.167 -83.167 -82.5 -133.5s-75.666 -98.166 -117.999 -143.499s-88.5 -88.333 -138.5 -129s-100.333 -74.667 -151 -102
c68 -70 130.667 -146 188 -228s108 -166.333 152 -253s82.167 -176 114.5 -268s56.5 -179.667 72.5 -263h-445c-15.333 85.333 -39.5 168.833 -72.5 250.5s-69.833 156.667 -110.5 225s-83.167 131 -127.5 188s-89.5 109.5 -135.5 157.5
c-24 -12.667 -48.667 -22.667 -74 -30v-791h-432v1520z" />
    <glyph glyph-name="L" unicode="L" horiz-adv-x="1116" 
d="M123 1520h432v-1180h590v-340h-1022v1520z" />
    <glyph glyph-name="M" unicode="M" horiz-adv-x="1956" 
d="M1114 252h-272c-8 48.667 -19.167 100.167 -33.5 154.5s-32.5 110.166 -54.5 167.499s-50 114.666 -84 171.999s-72.333 106.333 -115 147v-893h-432v1520h432c82 -74 165.5 -178.5 250.5 -313.5s141.5 -250.5 169.5 -346.5h8c12 46.667 32.5 99.834 61.5 159.501
s63.833 121.5 104.5 185.5s82.834 123.5 126.501 178.5s85.5 100.5 125.5 136.5h432v-1520h-432v893c-39.333 -42 -75.833 -88.833 -109.5 -140.5s-66.834 -119.667 -99.501 -204s-58.667 -183.166 -78 -296.499z" />
    <glyph glyph-name="N" unicode="N" horiz-adv-x="1706" 
d="M123 1520h432.002c62.667 -27.333 132.167 -65.666 208.5 -114.999s147.666 -101.333 213.999 -156s124.166 -107.667 173.499 -159v430h432v-1520h-432v496c-36 44 -78.167 90.667 -126.5 140s-101 98.833 -158 148.5s-110.833 93.667 -161.5 132
s-100.667 72.166 -150 101.499v-1018h-432v1520z" />
    <glyph glyph-name="O" unicode="O" horiz-adv-x="1708" 
d="M66 760c0 128 19.5 241.671 58.5 341.004s94.667 183 167 251s155.833 118.667 250.5 152s198.667 50 312 50c111.333 0 214.666 -16.833 309.999 -50.5s179 -84.334 251 -152.001s127.833 -151 167.5 -250s59.5 -212.833 59.5 -341.5s-19.667 -242.334 -59 -341.001
s-95.166 -181.834 -167.499 -249.501s-156 -118.667 -251 -153s-198.5 -51.5 -310.5 -51.5c-152 0 -287.333 30.667 -406 92s-212 151.666 -280 270.999s-102 263.333 -102 432zM510 760.004c0 -130.667 28.1689 -238.499 84.502 -323.499s142.833 -127.5 259.5 -127.5
c115.333 0 201.5 42.333 258.5 127s85.5 192.667 85.5 324c0 82.667 -11.833 158 -35.5 226s-61.334 122.333 -113.001 163s-116.834 61 -195.501 61c-80.667 0 -146.5 -20 -197.5 -60s-88.167 -93.833 -111.5 -161.5s-35 -143.834 -35 -228.501z" />
    <glyph glyph-name="P" unicode="P" horiz-adv-x="1548" 
d="M123 1520l705.996 -0.00195312c158.667 0 287.167 -28.5 385.5 -85.5s169 -130.5 212 -220.5s64.5 -185.333 64.5 -286c0 -83.333 -13.167 -160.166 -39.5 -230.499s-66.166 -132.333 -119.499 -186s-118.166 -95 -194.499 -124s-163.166 -43.5 -260.499 -43.5
c-82.667 0 -163.334 10.333 -242.001 31v340c46 -20.667 98 -31 156 -31c50 0 94.333 9.16699 133 27.5s68.834 46 90.501 83s32.5 82.167 32.5 135.5c0 30.667 -5.5 63.834 -16.5 99.501s-38.667 69.667 -83 102s-110.166 48.5 -197.499 48.5h-195v-1180h-432v1520z" />
    <glyph glyph-name="Q" unicode="Q" horiz-adv-x="1708" 
d="M1626 123l-285.002 -268.001c-50.667 30 -114 55.167 -190 75.5s-145.667 33.833 -209 40.5c-41.333 -2.66699 -71.333 -4 -90 -4c-133.333 0 -259.666 26.333 -378.999 79s-217 138.5 -293 257.5s-114 271.167 -114 456.5c0 128 19.5 241.667 58.5 341
s94.667 183 167 251s155.833 118.667 250.5 152s198.667 50 312 50c151.333 0 286.833 -30 406.5 -90s213.167 -149.833 280.5 -269.5s101 -264.5 101 -434.5c0 -145.333 -22.167 -262.333 -66.5 -351s-97.166 -160 -158.499 -214c22 -3.33301 59.667 -13.666 113 -30.999
c40 -14 72 -27.667 96 -41zM509.998 761.999c0 -131.333 21.8359 -230.666 65.5029 -297.999s90.667 -110 141 -128s96.166 -27 137.499 -27c116 0 202.333 42.5 259 127.5s85 193.5 85 325.5c0 82.667 -11.833 158 -35.5 226s-61.334 122.333 -113.001 163
s-116.834 61 -195.501 61c-80.667 0 -146.5 -20 -197.5 -60s-88.167 -93.833 -111.5 -161.5s-35 -143.834 -35 -228.501z" />
    <glyph glyph-name="R" unicode="R" horiz-adv-x="1550" 
d="M123 1520l608.001 0.00195312c120 0 233 -10 339 -30s201.667 -70.167 287 -150.5s128 -201.166 128 -362.499c0 -104.667 -21.333 -192.5 -64 -263.5s-96.334 -125.5 -161.001 -163.5s-132.334 -63 -203.001 -75c94.667 -48 172.334 -81.667 233.001 -101
s115.334 -30.666 164.001 -33.999v-375c-66 13.333 -137.5 33.166 -214.5 59.499s-153.167 57.166 -228.5 92.499s-140 68.166 -194 98.499s-114.667 67.166 -182 110.499v393c49.333 -15.333 97.666 -23 144.999 -23c74 0 135.833 19.667 185.5 59s74.5 102.333 74.5 189
c0 71.333 -17.667 124.333 -53 159s-74 56.167 -116 64.5s-86.667 12.5 -134 12.5h-182v-1180h-432v1520z" />
    <glyph glyph-name="S" unicode="S" horiz-adv-x="1217" 
d="M1139 1520l0.00292969 -339.999h-437c-82.667 0 -124 -29.333 -124 -88c0 -20.667 5.83301 -39.834 17.5 -57.501s29.667 -36.5 54 -56.5s64.5 -49.667 120.5 -89c97.333 -69.333 170.666 -124.833 219.999 -166.5s89.166 -89.834 119.499 -144.501
s45.5 -120.334 45.5 -197.001c0 -110 -31.167 -193.333 -93.5 -250s-131.5 -92.667 -207.5 -108s-149.667 -23 -221 -23h-572v340h480c86 0 129 28.667 129 86c0 18 -3.33301 33.833 -10 47.5s-15.334 26.167 -26.001 37.5s-30 28 -58 50l-72 57l-171 133
c-48.667 38.667 -90.334 76.667 -125.001 114s-62.667 80 -84 128s-32 102 -32 162c0 68.667 15.5 130.334 46.5 185.001s81.833 98.334 152.5 131.001s161.334 49 272.001 49h576z" />
    <glyph glyph-name="T" unicode="T" horiz-adv-x="1157" 
d="M0 1520h1157v-340h-362v-1180h-433v1180h-362v340z" />
    <glyph glyph-name="U" unicode="U" horiz-adv-x="1503" 
d="M115 1520l432 0.000976562v-945c0 -72.667 12.333 -135.5 37 -188.5s80.667 -79.5 168 -79.5c86 0 141.5 26.5 166.5 79.5s37.5 115.833 37.5 188.5v945h433v-934c0 -60 -5.33301 -121 -16 -183s-36.5 -127.333 -77.5 -196s-105.833 -126.167 -194.5 -172.5
s-205 -69.5 -349 -69.5c-255.333 0 -425.333 64.167 -510 192.5s-127 271.166 -127 428.499v934z" />
    <glyph glyph-name="V" unicode="V" horiz-adv-x="1442" 
d="M0 1520l451 -0.000976562c40.667 -206 78.834 -369.5 114.501 -490.5s87.5 -260.167 155.5 -417.5c39.333 83.333 76.333 175.166 111 275.499s65 202.333 91 306s48.667 212.5 68 326.5h451c-29.333 -156.667 -71.833 -324.5 -127.5 -503.5s-120.834 -356 -195.501 -531
s-154.667 -336.833 -240 -485.5h-316c-134 250.667 -241 479.834 -321 687.501s-136.333 375.334 -169 503.001s-57 237.5 -73 329.5z" />
    <glyph glyph-name="W" unicode="W" horiz-adv-x="2075" 
d="M0 1520l443.998 0.00390625c12 -114.667 36 -244.834 72 -390.501s73.667 -271.5 113 -377.5h8c32.667 94 61.334 180 86.001 258l33 98l37 113c12 -62.667 22.833 -114.167 32.5 -154.5s22.167 -84.833 37.5 -133.5s29.833 -91.334 43.5 -128.001
s33.167 -84.334 58.5 -143.001c-17.333 -61.333 -39.166 -132 -65.499 -212s-55.833 -161.333 -88.5 -244s-62 -151.334 -88 -206.001h-225c-54.667 110 -105.5 222.167 -152.5 336.5s-94.833 244.333 -143.5 390s-90 285.167 -124 418.5s-60 258.333 -78 375zM1630 1520
l444.999 0.000976562c-20 -110.667 -43.333 -221 -70 -331s-59.167 -226.5 -97.5 -349.5s-86.166 -256 -143.499 -399s-125 -289.833 -203 -440.5h-238c-55.333 121.333 -103.833 233.166 -145.5 335.499s-85 217 -130 344s-87.667 262.5 -128 406.5
s-75.166 288.667 -104.499 434h445c12.667 -77.333 25.667 -149.166 39 -215.499s27.333 -128.833 42 -187.5s32 -119.667 52 -183s41 -124 63 -182h10c17.333 52 34.666 109.667 51.999 173s35.833 144.666 55.5 243.999s38.5 216.333 56.5 351z" />
    <glyph glyph-name="X" unicode="X" horiz-adv-x="1520" 
d="M1520 0l-452.999 -0.00195312c-17.333 62.667 -42.166 128.5 -74.499 197.5s-69 135.167 -110 198.5s-81.833 115.666 -122.5 156.999c-62.667 -67.333 -122.167 -151.166 -178.5 -251.499s-99.166 -200.833 -128.499 -301.5h-453c32 102.667 72.5 203 121.5 301
s105.833 191.5 170.5 280.5s136 168.833 214 239.5c-132.667 146.667 -228.334 277.834 -287.001 393.501s-99.667 217.5 -123 305.5h467c26.667 -91.333 53.5 -166.166 80.5 -224.499s65.833 -120.833 116.5 -187.5c36 46.667 72.167 104.167 108.5 172.5
s65.5 148.166 87.5 239.499h467c-27.333 -113.333 -77.5 -231.333 -150.5 -354s-158.5 -237.667 -256.5 -345c59.333 -53.333 115.166 -113.166 167.499 -179.499s99.666 -135.333 141.999 -207s79.833 -144 112.5 -217s60 -145.5 82 -217.5z" />
    <glyph glyph-name="Y" unicode="Y" horiz-adv-x="1411" 
d="M967 1520l444.003 -0.00683594c-32 -258 -98.833 -501.667 -200.5 -731s-245.334 -420.166 -431.001 -572.499s-410.834 -236.166 -675.501 -251.499v369c60 10 115.667 24.167 167 42.5s100.5 41.5 147.5 69.5s89.167 59.667 126.5 95
c-70 64.667 -134.333 134.834 -193 210.501s-112.334 157.667 -161.001 246s-88.5 175 -119.5 260s-54.833 172.5 -71.5 262.5h453c13.333 -77.333 37.166 -156.166 71.499 -236.499s75 -154.666 122 -222.999s95.833 -126.166 146.5 -173.499
c26.667 48 52.334 109.333 77.001 184s45.5 151.834 62.5 231.501s28.5 152.167 34.5 217.5z" />
    <glyph glyph-name="Z" unicode="Z" horiz-adv-x="1227" 
d="M78 1520h1120c-18.667 -96 -48 -197 -88 -303s-85.833 -208.167 -137.5 -306.5s-111.5 -198.166 -179.5 -299.499s-136.333 -191.666 -205 -270.999h610v-340h-1169v344c54.667 50.667 112.834 110.5 174.501 179.5s120.5 140.667 176.5 215
s106.167 149.166 150.5 224.499s79.833 147.666 106.5 216.999h-559v340z" />
    <glyph glyph-name="bracketleft" unicode="[" horiz-adv-x="858" 
d="M86 1520h657v-183h-317v-1441h317v-183h-657v1807z" />
    <glyph glyph-name="backslash" unicode="\" horiz-adv-x="1112" 
d="M244 1520l897 -1807h-273l-897 1807h273z" />
    <glyph glyph-name="bracketright" unicode="]" horiz-adv-x="858" 
d="M115 1520h657v-1807h-657v183h317v1441h-317v183z" />
    <glyph glyph-name="asciicircum" unicode="^" horiz-adv-x="918" 
d="M459 1333l-152 -151h-186l338 338l338 -338h-187z" />
    <glyph glyph-name="underscore" unicode="_" horiz-adv-x="1348" 
d="M0 -287v205h1348v-205h-1348z" />
    <glyph glyph-name="grave" unicode="`" horiz-adv-x="565" 
d="M29 1520h389l119 -250h-273z" />
    <glyph glyph-name="a" unicode="a" horiz-adv-x="1325" 
d="M211 874l-0.000976562 308c134 16 255.333 24 364 24c161.333 0 307.5 -37.5 438.5 -112.5s196.5 -224.5 196.5 -448.5v-645h-665c-113.333 -0 -221.5 22.333 -324.5 67s-154.5 143 -154.5 295c0 65.333 15.5 127.5 46.5 186.5s82.667 107 155 144s165.5 55.5 279.5 55.5
h160c25.333 -48 38 -115 38 -201v-47h-112c-47.333 0 -87.166 -6.83301 -119.499 -20.5s-48.5 -42.5 -48.5 -86.5c0 -30 11.5 -53.833 34.5 -71.5s53.167 -26.5 90.5 -26.5h233v272c0 63.333 -5.5 118.333 -16.5 165s-41.167 88.167 -90.5 124.5s-124 54.5 -224 54.5
c-91.333 0 -185 -12.333 -281 -37z" />
    <glyph glyph-name="b" unicode="b" horiz-adv-x="1286" 
d="M510 1520v-1225c84 0 156.833 24 218.5 72s92.5 134.667 92.5 260c0 106 -24.333 179 -73 219s-101.334 61.667 -158.001 65v295c120.667 0 221.834 -15 303.501 -45s146.167 -70.5 193.5 -121.5s81.5 -110.833 102.5 -179.5s31.5 -145.667 31.5 -231
c0 -142 -26.333 -256.833 -79 -344.5s-118.834 -151.5 -198.501 -191.5s-158.667 -65.5 -237 -76.5s-160.166 -16.5 -245.499 -16.5h-338v1520h387z" />
    <glyph glyph-name="c" unicode="c" horiz-adv-x="958" 
d="M907 1180v-308c-52 26 -108 39 -168 39c-77.333 0 -142.333 -25 -195 -75s-79 -134 -79 -252c0 -125.333 30.167 -209.333 90.5 -252s124.5 -64 192.5 -64c36.667 0 68.667 2.83301 96 8.5s56 15.834 86 30.501v-307c-36.667 -10.667 -69 -17.834 -97 -21.501
s-63.333 -5.5 -106 -5.5c-113.333 0 -212 16 -296 48s-153 76.5 -207 133.5s-93.833 122.167 -119.5 195.5s-38.5 151.333 -38.5 234c0 79.333 10.833 155 32.5 227s57 138 106 198s114.833 107.833 197.5 143.5s180.667 53.5 294 53.5c82 0 152.333 -8.66699 211 -26z" />
    <glyph glyph-name="d" unicode="d" horiz-adv-x="1317" 
d="M807 1520h387v-1520h-336c-82.667 0 -163 4.5 -241 13.5s-160.167 32.167 -246.5 69.5s-158.666 98.166 -216.999 182.499s-87.5 196.5 -87.5 336.5c0 100.667 17.167 188.834 51.5 264.501s82 138.667 143 189s131.667 88 212 113s165.833 37.5 256.5 37.5v-295
c-76.667 -2 -139.834 -31 -189.501 -87s-74.5 -130.667 -74.5 -224c0 -118.667 34 -199.167 102 -241.5s148 -63.5 240 -63.5v1225z" />
    <glyph glyph-name="e" unicode="e" horiz-adv-x="1354" 
d="M1178 322l0.00195312 -308.001c-122.667 -27.333 -249.667 -41 -381 -41c-112 0 -213.5 14.667 -304.5 44s-168.667 72 -233 128s-112.666 122.167 -144.999 198.5s-48.5 161.166 -48.5 254.499c0 130.667 28.333 241.834 85 333.501s134.167 160.334 232.5 206.001
s209.5 68.5 333.5 68.5c94.667 0 185.667 -15.5 273 -46.5s162.666 -94.333 225.999 -190s95 -231.167 95 -406.5c0 -32.667 -0.666992 -57.334 -2 -74.001h-729c-24.667 34.667 -37 75.667 -37 123c0 41.333 4 76.333 12 105h383c-4 129.333 -75 194 -213 194
c-88 0 -153.667 -26.833 -197 -80.5s-65 -125.167 -65 -214.5c0 -62.667 12.5 -119.667 37.5 -171s69.167 -93.666 132.5 -126.999s148.666 -50 255.999 -50c99.333 0 195.666 18 288.999 54z" />
    <glyph glyph-name="f" unicode="f" horiz-adv-x="729" 
d="M143 0v842h-114v295h114c11.333 99.333 50.333 188 117 266s178 117 334 117h135v-287h-57c-94.667 0 -142 -32 -142 -96h199v-295h-199v-842h-387z" />
    <glyph glyph-name="g" unicode="g" horiz-adv-x="1182" 
d="M1016 1520l0.000976562 -282.994h-39c-91.333 0 -146 -22 -164 -66c55.333 -10.667 104.333 -34.334 147 -71.001s75.667 -80.667 99 -132s35 -104.333 35 -159c0 -70.667 -18.833 -136.334 -56.5 -197.001s-93.834 -108.834 -168.501 -144.501
s-164.334 -53.5 -269.001 -53.5s-194.5 17.833 -269.5 53.5s-131.5 83.667 -169.5 144s-57 126.166 -57 197.499c0 62.667 15.833 123.667 47.5 183s78.834 107.833 141.501 145.5s139 58.5 229 62.5c8.66699 117.333 55.5 199.666 140.5 246.999
s202.833 71.666 353.5 72.999zM600.001 696.006c42.667 0 75.167 11.167 97.5 33.5s33.5 48.833 33.5 79.5c0 34 -12.5 61.667 -37.5 83s-56.167 32 -93.5 32c-30.667 0 -56.167 -5.66699 -76.5 -17s-34.833 -26 -43.5 -44s-13 -36 -13 -54c0 -28 9.66699 -53.833 29 -77.5
s54 -35.5 104 -35.5zM381.001 381.006l0.00292969 -21c0 -15.333 10 -28.666 30 -39.999s44 -17 72 -17c18.667 0 39.5 2.5 62.5 7.5s58.833 14.167 107.5 27.5c74.667 20.667 145 31 211 31c79.333 0 144.666 -20.667 195.999 -62s77 -98 77 -170
c0 -66 -22 -118.333 -66 -157s-100 -58 -168 -58c-31.333 0 -60 3.33301 -86 10c9.33301 4.66699 14 15.667 14 33c0 12.667 -5 22.667 -15 30s-22 11.666 -36 12.999h-30c-44 -2 -93.333 -9.33301 -148 -22c-86.667 -22 -155.667 -33 -207 -33
c-66.667 0 -127.334 11 -182.001 33s-98.334 56.5 -131.001 103.5s-49 105.167 -49 174.5c0 48.667 9.83301 95.167 29.5 139.5s49.5 81.833 89.5 112.5c72.667 -73.333 149 -118.333 229 -135z" />
    <glyph glyph-name="h" unicode="h" horiz-adv-x="1327" 
d="M123 1520h387v-1520h-387v1520zM590 872l0.000976562 295.002c60 24.667 127.667 37 203 37c77.333 0 145.833 -15.5 205.5 -46.5s108.667 -73.667 147 -128s67.333 -117 87 -188s29.5 -148.833 29.5 -233.5c0 -65.333 -8 -146.833 -24 -244.5
s-44.333 -218.834 -85 -363.501h-387c28 88.667 51 184.667 69 288s27 191 27 263c0 79.333 -10 143.666 -30 192.999s-46.333 84.5 -79 105.5s-67.334 31.5 -104.001 31.5c-24 0 -43.667 -3 -59 -9z" />
    <glyph glyph-name="i" unicode="i" horiz-adv-x="633" 
d="M510 1180v-1180h-387v1180h387zM106 1520l420 0.00195312c-12.667 -74.667 -38.167 -138.834 -76.5 -192.501s-82.5 -80.5 -132.5 -80.5c-48.667 0 -92.5 25.667 -131.5 77s-65.5 116.666 -79.5 195.999z" />
    <glyph glyph-name="j" unicode="j" horiz-adv-x="645" 
d="M530 1180l-0.000976562 -830c0 -66 -7.83301 -128.833 -23.5 -188.5s-54 -113.5 -115 -161.5s-151.167 -72 -270.5 -72c-41.333 0 -72.666 1.33301 -93.999 4v295c49.333 0 81 17.833 95 53.5s21 81.5 21 137.5v762h387zM126.999 1520l420 -0.000976562
c-10.667 -54.667 -26.167 -102.167 -46.5 -142.5s-44.833 -72.166 -73.5 -95.499s-59 -35 -91 -35c-36 0 -69.5 14.833 -100.5 44.5s-56 65.5 -75 107.5s-30.167 82.333 -33.5 121z" />
    <glyph glyph-name="k" unicode="k" horiz-adv-x="1241" 
d="M510 1520l0.000976562 -544.998c104 54.667 182.333 123 235 205h482c-25.333 -48 -55.5 -94.833 -90.5 -140.5s-74.167 -89 -117.5 -130s-90 -77.833 -140 -110.5c40.667 -42 80.167 -91.5 118.5 -148.5s71.833 -116.333 100.5 -178s55.167 -132.334 79.5 -212.001
s45.5 -166.5 63.5 -260.5h-401c-11.333 65.333 -29.833 135.666 -55.5 210.999s-56.834 147.5 -93.501 216.5s-78 131.833 -124 188.5c-16 -12 -35 -22 -57 -30v-586h-387v1520h387z" />
    <glyph glyph-name="l" unicode="l" horiz-adv-x="633" 
d="M510 1520v-1520h-387v1520h387z" />
    <glyph glyph-name="m" unicode="m" horiz-adv-x="2028" 
d="M123 1180h387v-1180h-387v1180zM590 872l-0.00292969 295c63.333 24.667 131 37 203 37c70 0 134.167 -15.333 192.5 -46s107.833 -73.167 148.5 -127.5s71.834 -117.5 93.501 -189.5s32.5 -149.667 32.5 -233c0 -49.333 -5 -110.666 -15 -183.999
s-23.667 -147.833 -41 -223.5s-35 -142.5 -53 -200.5h-385c16.667 54 32.334 114.333 47.001 181s26.167 132.5 34.5 197.5s12.5 122.5 12.5 172.5c0 72.667 -10 133.667 -30 183s-46.5 86.166 -79.5 110.499s-68.167 36.5 -105.5 36.5c-21.333 0 -39.666 -3 -54.999 -9z
M1843 0h-385c42.667 124.667 70.834 230.167 84.501 316.5s20.5 158.166 20.5 215.499c0 100 -13.333 175.833 -40 227.5s-55.5 84.834 -86.5 99.501s-57.833 22 -80.5 22c-14 0 -34.667 -3 -62 -9c-30 108.667 -85.333 197.667 -166 267c34.667 18 71.5 33 110.5 45
s79 21.167 120 27.5s81.167 9.5 120.5 9.5c94.667 0 178.667 -27.333 252 -82s130.166 -131 170.499 -229s60.5 -212.333 60.5 -343c0 -58.667 -8 -136.167 -24 -232.5s-47.667 -207.833 -95 -334.5z" />
    <glyph glyph-name="n" unicode="n" horiz-adv-x="1327" 
d="M123 1180h387v-1180h-387v1180zM590 872l0.000976562 295.002c60 24.667 127.667 37 203 37c77.333 0 145.833 -15.5 205.5 -46.5s108.667 -73.667 147 -128s67.333 -117 87 -188s29.5 -148.833 29.5 -233.5c0 -65.333 -8 -146.833 -24 -244.5
s-44.333 -218.834 -85 -363.501h-387c28 88.667 51 184.667 69 288s27 191 27 263c0 79.333 -10 143.666 -30 192.999s-46.333 84.5 -79 105.5s-67.334 31.5 -104.001 31.5c-24 0 -43.667 -3 -59 -9z" />
    <glyph glyph-name="o" unicode="o" horiz-adv-x="1380" 
d="M690 -27c-121.333 0 -229.166 24.167 -323.499 72.5s-168 119.166 -221 212.499s-79.5 204 -79.5 332s26.5 238.667 79.5 332s126.667 164 221 212s202.166 72 323.499 72c122 0 230.167 -24 324.5 -72s168 -118.667 221 -212s79.5 -204 79.5 -332
s-26.5 -238.667 -79.5 -332s-126.5 -164.166 -220.5 -212.499s-202.333 -72.5 -325 -72.5zM690 268c62.667 0 115.832 24.167 159.499 72.5s65.5 131.5 65.5 249.5s-21.667 201 -65 249s-96.666 72 -159.999 72c-56 0 -107.5 -21.5 -154.5 -64.5s-70.5 -128.5 -70.5 -256.5
c0 -127.333 23.5 -212.833 70.5 -256.5s98.5 -65.5 154.5 -65.5z" />
    <glyph glyph-name="p" unicode="p" horiz-adv-x="1346" 
d="M123 1180l564.999 -0.00195312c68 0 144.5 -9.66699 229.5 -29s166.667 -69.666 245 -150.999s117.5 -203.666 117.5 -366.999c0 -112 -23.5 -210.333 -70.5 -295s-109.667 -149.167 -188 -193.5s-163.5 -66.5 -255.5 -66.5c-61.333 0 -120.666 4 -177.999 12v295
c28 -8 56 -12 84 -12c50 0 97.333 17.333 142 52s67 99 67 193c0 178 -94.333 267 -283 267h-88v-953h-387v1248z" />
    <glyph glyph-name="q" unicode="q" horiz-adv-x="1348" 
d="M838 90h-110.997c-128.667 0 -243 19.5 -343 58.5s-178 98.833 -234 179.5s-84 180.334 -84 299.001c0 92 15 173.833 45 245.5s71.167 131.167 123.5 178.5s111.666 82.666 177.999 105.999s137.166 35 212.499 35c43.333 0 87.666 -4 132.999 -12v-295
c-10 1.33301 -25 2 -45 2c-73.333 0 -132 -19.333 -176 -58c-48 -42.667 -72 -104 -72 -184c0 -102 31.5 -169.167 94.5 -201.5s129.167 -48.5 198.5 -48.5h80v785h387v-1248h-387v158z" />
    <glyph glyph-name="r" unicode="r" horiz-adv-x="1106" 
d="M588 885l0.000976562 295c36.667 5.33301 79 8 127 8c85.333 0 155.5 -18.667 210.5 -56s94.667 -84.333 119 -141s36.5 -115.334 36.5 -176.001c0 -34.667 -3.83301 -71.5 -11.5 -110.5s-18.834 -76.5 -33.501 -112.5h-340c14 54.667 21 102.334 21 143.001
c0 60 -12 100 -36 120s-47.667 30 -71 30h-22zM510.001 1180v-1180h-387v1180h387z" />
    <glyph glyph-name="s" unicode="s" horiz-adv-x="1001" 
d="M926 1180l0.000976562 -307.999h-344c-28 0 -48.667 -3 -62 -9s-20 -17.333 -20 -34c0 -21.333 13.667 -41.5 41 -60.5s74.333 -47.833 141 -86.5c52 -31.333 95.5 -61.5 130.5 -90.5s65 -67.333 90 -115s37.5 -103.5 37.5 -167.5c0 -46 -11.5 -92.333 -34.5 -139
s-63.333 -86.667 -121 -120s-134.834 -50 -231.501 -50h-492v307h400c27.333 0 47.166 6.66699 59.499 20s18.5 26.666 18.5 39.999c0 24.667 -14.167 48.167 -42.5 70.5s-73.833 52.5 -136.5 90.5c-75.333 48 -132.5 88.5 -171.5 121.5s-67.833 68 -86.5 105
s-28 80.5 -28 130.5c0 87.333 21.667 152.833 65 196.5s90.833 71 142.5 82s101.834 16.5 150.501 16.5h494z" />
    <glyph glyph-name="t" unicode="t" horiz-adv-x="674" 
d="M143 872h-116v308h116v272h387v-272h117v-308h-117v-872h-387v872z" />
    <glyph glyph-name="u" unicode="u" horiz-adv-x="1327" 
d="M737 309v-294.997c-70 -20 -141.667 -30 -215 -30c-74.667 0 -141 15.167 -199 45.5s-106 72.666 -144 126.999s-66.333 116.833 -85 187.5s-28 147 -28 229c0 164.667 34 367 102 607h391c-34 -122.667 -58.167 -236.834 -72.5 -342.501s-21.5 -193.834 -21.5 -264.501
c0 -96 19.5 -165.333 58.5 -208s88.5 -64 148.5 -64c14 0 35.667 2.66699 65 8zM817 0.00292969v1180h387v-1180h-387z" />
    <glyph glyph-name="v" unicode="v" horiz-adv-x="1155" 
d="M0 1180h380.997c8.66699 -62.667 22.334 -131.5 41.001 -206.5s41.334 -150.167 68.001 -225.5s56 -144.333 88 -207c30 60.667 59 128.667 87 204s51.667 150.833 71 226.5s32 145.167 38 208.5h381c-18 -102.667 -41.167 -203.5 -69.5 -302.5
s-61.166 -196.333 -98.499 -292s-79.833 -191 -127.5 -286s-103.5 -194.833 -167.5 -299.5h-229l-121 213c-40.667 74.667 -84.167 164 -130.5 268s-88.5 215.5 -126.5 334.5s-66.333 240.5 -85 364.5z" />
    <glyph glyph-name="w" unicode="w" horiz-adv-x="1747" 
d="M1339 0l-252 0.000976562c-54 106 -101 203.667 -141 293s-77.833 184.333 -113.5 285s-65.667 199.834 -90 297.501s-45.166 199.167 -62.499 304.5h387c4 -74.667 19.5 -162.167 46.5 -262.5s60.5 -194.5 100.5 -282.5c37.333 86.667 67.333 169.167 90 247.5
s37.167 138 43.5 179s10.5 80.5 12.5 118.5h387c-24.667 -151.333 -54.834 -289.333 -90.501 -414s-79.5 -248.834 -131.5 -372.501s-114 -254.834 -186 -393.501zM659 0.000976562l-248.995 -0.000976562c-49.333 90 -95.5 182.167 -138.5 276.5s-83 193.333 -120 297
s-68.333 206.834 -94 309.501s-44.834 201.667 -57.501 297h387c8 -90 25.5 -183.667 52.5 -281s58.833 -185.333 95.5 -264c47.333 106 84.666 214.667 111.999 326c15.333 -72 31.666 -138.833 48.999 -200.5s38.166 -126.5 62.499 -194.5s50.166 -135 77.499 -201
c-5.33301 -16.667 -12.5 -35.667 -21.5 -57l-30.5 -69c-11.333 -24.667 -27 -56.167 -47 -94.5z" />
    <glyph glyph-name="x" unicode="x" horiz-adv-x="1169" 
d="M1169 0h-389c-10.667 71.333 -31.5 134.833 -62.5 190.5s-74.833 112.834 -131.5 171.501c-108.667 -103.333 -174.334 -224 -197.001 -362h-389c26.667 116.667 71.167 229.167 133.5 337.5s137.166 196.5 224.499 264.5
c-79.333 79.333 -147.166 168.833 -203.499 268.5s-94.166 202.834 -113.499 309.501h375c3.33301 -46 17.833 -96.833 43.5 -152.5s67.834 -114.834 126.501 -177.501c57.333 63.333 98.5 122 123.5 176s39.833 105.333 44.5 154h374
c-18.667 -106 -56.167 -209.167 -112.5 -309.5s-124.5 -189.833 -204.5 -268.5c59.333 -46.667 112.833 -102.167 160.5 -166.5s88.167 -133.833 121.5 -208.5s58.666 -150.334 75.999 -227.001z" />
    <glyph glyph-name="y" unicode="y" horiz-adv-x="1186" 
d="M803 1180l383 0.00195312c-20 -272 -82.667 -502.5 -188 -691.5s-235.5 -329 -390.5 -420s-315.833 -136.5 -482.5 -136.5h-100v324c133.333 1.33301 243 28 329 80c-112.667 127.333 -194.167 258.666 -244.5 393.999s-78.5 285.333 -84.5 450h383
c16 -157.333 44.667 -281.833 86 -373.5s87.666 -163.834 138.999 -216.501c50.667 70 89.834 158.5 117.501 265.5s45.167 215.167 52.5 324.5z" />
    <glyph glyph-name="z" unicode="z" horiz-adv-x="1030" 
d="M80 1180l925.999 0.00195312c-17.333 -90 -47.666 -190 -90.999 -300s-96 -215.833 -158 -317.5s-128.667 -186.834 -200 -255.501h449v-307h-981v307c109.333 74.667 205.333 162.167 288 262.5s138 201.166 166 302.499h-399v308z" />
    <glyph glyph-name="braceleft" unicode="{" horiz-adv-x="877" 
d="M633 1599l43 -87.9951c-34 -16.667 -60 -39.834 -78 -69.501s-27 -65.167 -27 -106.5c0 -12 0.5 -28.667 1.5 -50s2.66699 -47.5 5 -78.5s3.83301 -55.5 4.5 -73.5v-113c-6 -91.333 -27.833 -167 -65.5 -227s-99.167 -110.667 -184.5 -152c62 -28 110.833 -62 146.5 -102
s61 -82.833 76 -128.5s24.167 -95.167 27.5 -148.5v-110c-0.666992 -10.667 -2 -25.334 -4 -44.001s-3.66699 -38.334 -5 -59.001c-1.33301 -22 -2 -55.333 -2 -100c0 -78.667 35 -138 105 -178l-43 -86c-68.667 7.33301 -124 26 -166 56s-73 65.5 -93 106.5
s-32.667 81.667 -38 122s-8 81.166 -8 122.499c0 14.667 0.666992 39.334 2 74.001s2 60 2 76c0 93.333 -11.5 173.5 -34.5 240.5s-74.5 106.167 -154.5 117.5v84c126 10 189 128.667 189 356c0 19.333 -0.666992 45 -2 77s-2 56.333 -2 73c0 50 2.66699 95 8 135
s18 78.667 38 116s50.667 70.166 92 98.499s97 48.166 167 59.499z" />
    <glyph glyph-name="bar" unicode="|" horiz-adv-x="573" 
d="M143 -459v2157h287v-2157h-287z" />
    <glyph glyph-name="braceright" unicode="}" horiz-adv-x="877" 
d="M244 -315l-43 85.998c69.333 40.667 104 100 104 178c0 13.333 -0.5 30.333 -1.5 51s-2.33301 44.334 -4 71.001s-3.16699 53.667 -4.5 81v110c4.66699 82.667 24.834 156.167 60.501 220.5s98.834 117.166 189.501 158.499c-58.667 29.333 -105.334 61.333 -140.001 96
s-60.667 74.834 -78 120.501s-28 99.834 -32 162.501v113c2 34.667 4.66699 68.667 8 102c1.33301 22 2 55.333 2 100c0 40.667 -8.83301 75.834 -26.5 105.501s-43.5 53.167 -77.5 70.5l43 88c91.333 -16 159.166 -45 203.499 -87s72.333 -88.5 84 -139.5
s17.5 -111.833 17.5 -182.5c0 -16.667 -0.666992 -41 -2 -73s-2 -57.667 -2 -77c0 -227.333 62.667 -346 188 -356v-84c-79.333 -11.333 -130.5 -51 -153.5 -119s-34.5 -147.667 -34.5 -239c0 -16 0.666992 -41.333 2 -76s2 -59.334 2 -74.001c0 -62 -6 -120 -18 -174
s-40.333 -103.833 -85 -149.5s-112 -73.5 -202 -83.5z" />
    <glyph glyph-name="asciitilde" unicode="~" horiz-adv-x="1161" 
d="M279 1270h-164.002c2 58 20 115.833 54 173.5s98.333 86.5 193 86.5c46 0 85.833 -3.83301 119.5 -11.5s71.167 -20.834 112.5 -39.501l51.5 -23c17 -7.33301 33.833 -12.833 50.5 -16.5s36.667 -5.5 60 -5.5c81.333 0 124.333 28.667 129 86h162
c-2.66699 -64.667 -21.667 -124.167 -57 -178.5s-97.666 -81.5 -186.999 -81.5c-46.667 0 -83.667 3 -111 9s-64.666 18.667 -111.999 38c-78 31.333 -134.667 47 -170 47c-40.667 0 -71.667 -6.16699 -93 -18.5s-34 -34.166 -38 -65.499z" />
    <glyph glyph-name="afii10051" 
 />
    <glyph glyph-name="afii10052" horiz-adv-x="1157" 
d="M123 0v1520h1034v-340h-602v-1180h-432z" />
    <glyph glyph-name="afii10061" horiz-adv-x="1520" 
d="M123 1520l431.998 -0.000976562v-308c73.333 24 149.333 64.333 228 121s139.334 119 182.001 187h518c-18.667 -38.667 -46.167 -83.167 -82.5 -133.5s-75.666 -98.166 -117.999 -143.499s-88.5 -88.333 -138.5 -129s-100.333 -74.667 -151 -102
c68 -70 130.667 -146 188 -228s108 -166.333 152 -253s82.167 -176 114.5 -268s56.5 -179.667 72.5 -263h-445c-15.333 85.333 -39.5 168.833 -72.5 250.5s-69.833 156.667 -110.5 225s-83.167 131 -127.5 188s-89.5 109.5 -135.5 157.5
c-24 -12.667 -48.667 -22.667 -74 -30v-791h-432v1520z" />
    <glyph glyph-name="afii10060" 
 />
    <glyph glyph-name="afii10145" 
 />
    <glyph glyph-name="afii10099" 
 />
    <glyph glyph-name="afii10109" horiz-adv-x="1260" 
d="M510 1180l-0.00195312 -277c55.333 29.333 111.166 70.166 167.499 122.499s96.833 103.833 121.5 154.5h430c-34 -78 -79.167 -149.667 -135.5 -215s-117.166 -122.666 -182.499 -171.999c55.333 -69.333 107.833 -149.333 157.5 -240s90.834 -183.5 123.501 -278.5
s55.334 -186.5 68.001 -274.5h-402c-7.33301 43.333 -19.166 94.666 -35.499 153.999s-34.166 113.333 -53.499 162s-42.333 97.5 -69 146.5s-55.334 92.167 -86.001 129.5c-30.667 -19.333 -65.334 -37.666 -104.001 -54.999v-537h-387v1180h387z" />
    <glyph glyph-name="afii10108" 
 />
    <glyph glyph-name="afii10062" unicode="&#xa1;" horiz-adv-x="1434" 
d="M1012 1520l421.997 0.000976562c-7.33301 -67.333 -18.5 -141.333 -33.5 -222s-34.833 -168.5 -59.5 -263.5s-55 -190 -91 -285s-74.333 -178.833 -115 -251.5c-48 -85.333 -98.333 -158.333 -151 -219s-117.167 -114.5 -193.5 -161.5s-164.166 -83.5 -263.499 -109.5
s-213.666 -40.333 -342.999 -43v342c63.333 0.666992 120.833 7.5 172.5 20.5s97.5 29.5 137.5 49.5s71.667 38.167 95 54.5s44 32.833 62 49.5c-78 49.333 -152.833 111.333 -224.5 186s-135.334 156.667 -191.001 246s-103.5 185.166 -143.5 287.499
s-70.667 208.833 -92 319.5h444c18.667 -88.667 47.834 -175.667 87.501 -261s87.834 -165.5 144.501 -240.5s116 -139.5 178 -193.5c45.333 113.333 80.5 224 105.5 332s42.5 229 52.5 363zM466.997 1706h557c-10 -56 -41.5 -101 -94.5 -135s-114.5 -51 -184.5 -51
c-69.333 0 -130.5 17 -183.5 51s-84.5 79 -94.5 135z" />
    <glyph glyph-name="afii10110" unicode="&#xa2;" horiz-adv-x="1186" 
d="M803 1180l383 0.00195312c-20 -272 -82.667 -502.5 -188 -691.5s-235.5 -329 -390.5 -420s-315.833 -136.5 -482.5 -136.5h-100v324c133.333 1.33301 243 28 329 80c-112.667 127.333 -194.167 258.666 -244.5 393.999s-78.5 285.333 -84.5 450h383
c16 -157.333 44.667 -281.833 86 -373.5s87.666 -163.834 138.999 -216.501c50.667 70 89.834 158.5 117.501 265.5s45.167 215.167 52.5 324.5zM401 1520l421.998 -0.000976562c-8 -46 -22.167 -90.333 -42.5 -133s-45.166 -76.667 -74.499 -102s-60.666 -38 -93.999 -38
c-48.667 0 -92.5 26.833 -131.5 80.5s-65.5 117.834 -79.5 192.501z" />
    <glyph glyph-name="afii10057" unicode="&#xa3;" horiz-adv-x="903" 
d="M356 1520l432 -0.000976562v-953c0 -125.333 -16 -228.166 -48 -308.499s-74 -141.833 -126 -184.5s-107 -71.5 -165 -86.5s-117.667 -22.5 -179 -22.5c-110.667 0 -210.334 11.667 -299.001 35v340c51.333 -22 105.333 -33 162 -33c48.667 0 88.834 6.33301 120.501 19
s56.667 40.5 75 83.5s27.5 105.833 27.5 188.5v922z" />
    <glyph glyph-name="currency" unicode="&#xa4;" horiz-adv-x="1792" 
d="M143 115l241.999 241.001c-17.333 26 -34 53.833 -50 83.5s-30.833 68.667 -44.5 117s-20.5 101.833 -20.5 160.5c0 128.667 38.333 248.667 115 360l-242 242l144 143l239 -241c60 47.333 121.5 79.5 184.5 96.5s124.5 25.5 184.5 25.5s121.833 -8.66699 185.5 -26
s124.834 -49.333 183.501 -96l241 241l144 -143l-242 -242c26 -34 51.667 -81.833 77 -143.5s38 -133.834 38 -216.501c0 -136 -38.333 -256.333 -115 -361l242 -241l-144 -144l-241 242c-104 -82 -227 -123 -369 -123s-265 41 -369 123l-239 -242zM474.999 717.001
c0 -78 19 -149.001 57 -213.001s89 -114.5 153 -151.5s134 -55.5 210 -55.5c55.333 0 108.5 10.5 159.5 31.5s96.167 50.833 135.5 89.5s70 83.834 92 135.501s33 106.167 33 163.5c0 77.333 -19.167 148.333 -57.5 213s-89.333 115.334 -153 152.001s-133.5 55 -209.5 55
s-145.833 -18.333 -209.5 -55s-114.667 -87.334 -153 -152.001s-57.5 -135.667 -57.5 -213z" />
    <glyph glyph-name="afii10050" unicode="&#xa5;" horiz-adv-x="1157" 
d="M123 0v1520h692v327h342v-667h-602v-1180h-432z" />
    <glyph glyph-name="brokenbar" unicode="&#xa6;" horiz-adv-x="582" 
d="M86 795c0 30 8.1709 60.667 24.5039 92s40.166 57.5 71.499 78.5s67.666 31.5 108.999 31.5s77.666 -10.5 108.999 -31.5s55.166 -47.167 71.499 -78.5s24.5 -62 24.5 -92s-8.16699 -61.167 -24.5 -93.5s-40 -59 -71 -80s-67.5 -31.5 -109.5 -31.5
c-62 0 -111.667 22.167 -149 66.5s-56 90.5 -56 138.5zM86.0039 170c0 33.333 8.66602 65.834 25.999 97.501s41.833 57.5 73.5 77.5s66.834 30 105.501 30c36 0 69.5 -9.16699 100.5 -27.5s56.167 -43.333 75.5 -75s29 -65.834 29 -102.501s-9.66699 -70.834 -29 -102.501
s-44.5 -56.667 -75.5 -75s-64.5 -27.5 -100.5 -27.5s-69.667 9.16699 -101 27.5s-56.5 43.333 -75.5 75s-28.5 65.834 -28.5 102.501z" />
    <glyph glyph-name="section" unicode="&#xa7;" horiz-adv-x="1120" 
d="M104 74l400 -0.000976562c50.667 0 76 19.667 76 59c0 23.333 -11 44.666 -33 63.999c-59.333 50.667 -131.666 106.834 -216.999 168.501s-141 103 -167 124s-49.5 47.833 -70.5 80.5s-31.5 70.667 -31.5 114s11.5 81.666 34.5 114.999s52 61.333 87 84
s71.833 40.334 110.5 53.001c-69.333 50 -117 96.667 -143 140s-39 93 -39 149c0 86.667 21.833 151.834 65.5 195.501s91.5 71.167 143.5 82.5s101.667 17 149 17h494v-308h-381c-11.333 0 -21.666 -5 -30.999 -15s-14 -19.333 -14 -28
c0 -9.33301 6.83301 -21.166 20.5 -35.499s36 -33.166 67 -56.499l116.5 -88c125.333 -94 209.666 -167.5 252.999 -220.5s65 -109.833 65 -170.5c0 -56 -22.333 -103.833 -67 -143.5s-99 -64.167 -163 -73.5c101.333 -73.333 152 -174.333 152 -303
c0 -64.667 -15.833 -120.334 -47.5 -167.001s-76.834 -82.334 -135.501 -107.001s-126 -37 -202 -37h-492v307zM664 519.999l18 -0.000976562c12.667 0 23.667 3.5 33 10.5s14 15.833 14 26.5c0 28.667 -19.333 60.334 -58 95.001s-102.667 83.667 -192 147h-16
c-12.667 0 -23.667 -3.5 -33 -10.5s-14 -15.833 -14 -26.5c0 -24.667 11.5 -49.167 34.5 -73.5s64.5 -58.5 124.5 -102.5c57.333 -42.667 87 -64.667 89 -66z" />
    <glyph glyph-name="afii10023" unicode="&#xa8;" horiz-adv-x="1221" 
d="M1128 1520v-340h-557v-840h594v-340h-1026v1520h989zM1221 1055v-340h-570v340h570zM123 1864l420 0.000976562c-3.33301 -38.667 -14.5 -79 -33.5 -121s-44 -77.833 -75 -107.5s-64.5 -44.5 -100.5 -44.5c-48.667 0 -92.5 25.667 -131.5 77s-65.5 116.666 -79.5 195.999
zM702 1864l420.001 0.000976562c-13.333 -78.667 -39.5 -143.834 -78.5 -195.501s-83.167 -77.5 -132.5 -77.5c-44.667 0 -86.834 24.5 -126.501 73.5s-67.167 115.5 -82.5 199.5z" />
    <glyph glyph-name="copyright" unicode="&#xa9;" horiz-adv-x="1548" 
d="M958 1198l0.00195312 -196.999c-36 16.667 -72 25 -108 25c-74.667 0 -122.667 -23.833 -144 -71.5s-32 -93.5 -32 -137.5c0 -22 3.66699 -48.167 11 -78.5s24.666 -58.666 51.999 -84.999s67 -39.5 119 -39.5c42 0 81 8.33301 117 25v-197c-36 -10.667 -79 -16 -129 -16
c-96 0 -175.833 17.667 -239.5 53s-110.334 82.666 -140.001 141.999s-44.5 124.666 -44.5 195.999c0 109.333 31.667 202.833 95 280.5s166 116.5 308 116.5c51.333 0 96.333 -5.33301 135 -16zM258.002 817.001c0 -91.333 23.001 -176.832 69.001 -256.499
s108.5 -142.834 187.5 -189.501s165.5 -70 259.5 -70c92 0 177.667 23 257 69s142.333 108.5 189 187.5s70 165.5 70 259.5s-23.333 180.5 -70 259.5s-109.667 141.5 -189 187.5s-165 69 -257 69c-91.333 0 -176.833 -23 -256.5 -69s-142.834 -108.5 -189.501 -187.5
s-70 -165.5 -70 -259.5zM86.0029 817.002c0 92.667 17.6641 181.001 52.9971 265.001s84.333 157.5 147 220.5s135.667 112.5 219 148.5s173 54 269 54c96.667 0 186.834 -18 270.501 -54s156.334 -85.333 218.001 -148s110.334 -136.334 146.001 -221.001
s53.5 -173 53.5 -265c0 -123.333 -30.5 -237.666 -91.5 -342.999s-144.5 -189.166 -250.5 -251.499s-221.333 -93.5 -346 -93.5s-240 31.167 -346 93.5s-189.5 146.166 -250.5 251.499s-91.5 219.666 -91.5 342.999z" />
    <glyph glyph-name="afii10053" unicode="&#xaa;" horiz-adv-x="1260" 
d="M1210 1520v-329.999c-76.667 20.667 -151.667 31 -225 31c-98 0 -183 -19.833 -255 -59.5s-126.667 -95.334 -164 -167.001s-56 -155.5 -56 -251.5c0 -87.333 17.667 -164.166 53 -230.499s86.333 -117.5 153 -153.5s146.667 -54 240 -54
c96.667 0 181.334 15.667 254.001 47v-352c-97.333 -23.333 -199 -35 -305 -35c-132 0 -250 19.333 -354 58s-192.333 94 -265 166s-127.5 157.167 -164.5 255.5s-55.5 205.5 -55.5 321.5c0 116.667 19.167 224.5 57.5 323.5s92.666 183.667 162.999 254
s153.333 124.166 249 161.499s200.5 56 314.5 56c73.333 0 142.333 -4.5 207 -13.5s115.667 -18.167 153 -27.5zM1260 977.001v-341.999h-654c-9.33301 30 -14 71.667 -14 125c0 45.333 5.66699 85.166 17 119.499s26 66.833 44 97.5h607z" />
    <glyph glyph-name="guillemotleft" unicode="&#xab;" horiz-adv-x="1116" 
d="M311 1067h295l-256 -459l256 -448h-295l-254 448zM764 1067h295l-256 -459l256 -448h-295l-252 448z" />
    <glyph glyph-name="logicalnot" unicode="&#xac;" horiz-adv-x="1548" 
d="M86 903h1376v-614h-286v327h-1090v287z" />
    <glyph glyph-name="registered" unicode="&#xae;" horiz-adv-x="1548" 
d="M86 1118c0 100.667 19.3301 193.836 57.9971 279.503s91.167 159.167 157.5 220.5s140.5 108 222.5 140s165.333 48 250 48c92 0 180.333 -17.833 265 -53.5s158.334 -84.334 221.001 -146.001s112 -134.334 148 -218.001s54 -173.834 54 -270.501
c0 -96 -18 -185.667 -54 -269s-85.5 -156.333 -148.5 -219s-136.5 -111.667 -220.5 -147s-172.333 -53 -265 -53c-123.333 0 -237.666 30.5 -342.999 91.5s-189.166 144.5 -251.499 250.5s-93.5 221.333 -93.5 346zM296.997 1118c0 -93.333 22.833 -176.5 68.5 -249.5
s105.167 -129.167 178.5 -168.5s150 -59 230 -59c64.667 0 126 12.167 184 36.5s109.5 59 154.5 104s79.667 96.333 104 154s36.5 118.5 36.5 182.5s-12.333 125.167 -37 183.5s-59 109.5 -103 153.5s-94.833 78.333 -152.5 103s-119.834 37 -186.501 37
c-85.333 0 -164.666 -21 -237.999 -63s-131.5 -99.5 -174.5 -172.5s-64.5 -153.5 -64.5 -241.5zM519.997 1427l240.001 0.00195312c79.333 0 149 -13.167 209 -39.5s90 -84.833 90 -175.5c0 -64.667 -18 -111.834 -54 -141.501s-74.667 -48.5 -116 -56.5
c59.333 -33.333 112 -51 158 -53v-148c-54 10 -105.333 26.167 -154 48.5s-106 53.166 -172 92.499v156c16 -5.33301 35.667 -8 59 -8c68.667 0 103 32.667 103 98c0 20 -4.33301 36.833 -13 50.5s-19.834 24 -33.501 31s-26.167 10.5 -37.5 10.5h-109v-467h-170v602z" />
    <glyph glyph-name="afii10056" unicode="&#xaf;" horiz-adv-x="924" 
d="M246 1520h432v-1520h-432v1520zM23 1864h419c-3.33301 -38.667 -14.5 -79 -33.5 -121s-44 -77.833 -75 -107.5s-64.5 -44.5 -100.5 -44.5c-31.333 0 -61.833 11.833 -91.5 35.5s-54.5 56 -74.5 97s-34.667 87.833 -44 140.5zM481 1864h420.001
c-9.33301 -52.667 -24.333 -99.5 -45 -140.5s-45.5 -73.333 -74.5 -97s-59.5 -35.5 -91.5 -35.5c-44.667 0 -86.834 24.5 -126.501 73.5s-67.167 115.5 -82.5 199.5z" />
    <glyph glyph-name="degree" unicode="&#xb0;" horiz-adv-x="586" 
d="M66 1292c0 41.333 10.501 79.668 31.501 115.001s48.833 63 83.5 83s72 30 112 30c41.333 0 79.166 -10.167 113.499 -30.5s61.833 -48 82.5 -83s31 -73.167 31 -114.5c0 -64 -21.833 -117.5 -65.5 -160.5s-97.5 -64.5 -161.5 -64.5c-40.667 0 -78.667 10 -114 30
s-63 47.167 -83 81.5s-30 72.166 -30 113.499zM203.001 1292c0 -24.667 8.49902 -45.832 25.499 -63.499s38.5 -26.5 64.5 -26.5c25.333 0 47 8.66699 65 26s27 38.666 27 63.999c0 26.667 -9.83301 48.667 -29.5 66s-40.5 26 -62.5 26
c-21.333 0 -41.666 -8.66699 -60.999 -26s-29 -39.333 -29 -66z" />
    <glyph glyph-name="plusminus" unicode="&#xb1;" horiz-adv-x="1548" 
d="M924 387h-287v373h-551v287h551v473h287v-473h538v-287h-538v-373zM86 0v287h1376v-287h-1376z" />
    <glyph glyph-name="afii10055" unicode="&#xb2;" horiz-adv-x="678" 
d="M123 1520h432v-1520h-432v1520z" />
    <glyph glyph-name="afii10103" unicode="&#xb3;" horiz-adv-x="633" 
d="M510 1180v-1180h-387v1180h387zM106 1520l420 0.00195312c-12.667 -74.667 -38.167 -138.834 -76.5 -192.501s-82.5 -80.5 -132.5 -80.5c-48.667 0 -92.5 25.667 -131.5 77s-65.5 116.666 -79.5 195.999z" />
    <glyph glyph-name="afii10098" unicode="&#xb4;" horiz-adv-x="965" 
d="M123 1180h547v245h295v-553h-455v-872h-387v1180z" />
    <glyph glyph-name="mu" unicode="&#xb5;" horiz-adv-x="1446" 
d="M1307 1180l-0.000976562 -750.001c0 -29.333 2.83301 -52.666 8.5 -69.999s16.834 -30.5 33.501 -39.5s40.667 -13.5 72 -13.5v-307c-20.667 -8 -45.167 -14.5 -73.5 -19.5s-72.833 -7.5 -133.5 -7.5c-66 0 -119.5 14.833 -160.5 44.5s-64.5 68.167 -70.5 115.5
c-24 -47.333 -57.667 -86.5 -101 -117.5s-92.333 -46.5 -147 -46.5c-101.333 0 -176.333 48 -225 144v-514h-387v1581h387v-629c0 -74.667 16.667 -137 50 -187s85 -75 155 -75c48 0 87.167 12 117.5 36s52.5 56 66.5 96s21 83.333 21 130v629h387z" />
    <glyph glyph-name="paragraph" unicode="&#xb6;" horiz-adv-x="1364" 
d="M791 -287l-287 -0.000976562v1043h-43c-126.667 0 -225.667 33.667 -297 101s-107 158.333 -107 273c0 56.667 9.33301 109.167 28 157.5s45.667 89.833 81 124.5s78 61.334 128 80.001s105.667 28 167 28h330v-1807zM954 1520h287v-1807h-287v1807z" />
    <glyph glyph-name="afii10071" unicode="&#xb8;" horiz-adv-x="1354" 
d="M1178 322l0.00195312 -308.003c-122.667 -27.333 -249.667 -41 -381 -41c-148.667 0 -278.5 25.833 -389.5 77.5s-195.667 124.834 -254 219.501s-87.5 204 -87.5 328c0 130.667 28.333 241.834 85 333.501s134.167 160.334 232.5 206.001s209.5 68.5 333.5 68.5
c94.667 0 185.667 -15.5 273 -46.5s162.666 -94.333 225.999 -190s95 -231.167 95 -406.5c0 -32.667 -0.666992 -57.334 -2 -74.001h-729c-24.667 34.667 -37 75.667 -37 123c0 41.333 4 76.333 12 105h383c-4 129.333 -75 194 -213 194c-89.333 0 -155 -26.5 -197 -79.5
s-63 -124.833 -63 -215.5c0 -89.333 28.5 -169.666 85.5 -240.999s169.833 -107 338.5 -107c99.333 0 195.666 18 288.999 54zM246.002 1520h420c-9.33301 -52.667 -24.333 -99.5 -45 -140.5s-45.5 -73.333 -74.5 -97s-59.5 -35.5 -91.5 -35.5c-46 0 -88.667 24.5 -128 73.5
s-66.333 115.5 -81 199.5zM825.002 1520l419.999 -0.000976562c-13.333 -79.333 -39.5 -144.666 -78.5 -195.999s-83.167 -77 -132.5 -77c-36 0 -69.333 14.667 -100 44s-55.667 65 -75 107s-30.666 82.667 -33.999 122z" />
    <glyph glyph-name="afii61352" unicode="&#xb9;" horiz-adv-x="2689" 
d="M123 1520l432 -0.00195312c64 -29.333 132 -67.166 204 -113.499s141 -96.333 207 -150s127 -109.167 183 -166.5v430h432v-1520h-432v496c-74.667 92 -166.5 185.833 -275.5 281.5s-215.167 175.834 -318.5 240.501v-1018h-432v1520zM1716 888.998
c0 62 11.833 121.001 35.5 177.001s56.5 104.667 98.5 146s90.167 73.5 144.5 96.5s112.5 34.5 174.5 34.5c80.667 0 156 -20.333 226 -61s125.5 -95.667 166.5 -165s61.5 -145.333 61.5 -228s-20.333 -159 -61 -229s-95.334 -125.167 -164 -165.5
c-68.667 -40.333 -145 -60.5 -229 -60.5c-82.667 0 -158.5 19.833 -227.5 59.5s-123.833 94.667 -164.5 165s-61 147.166 -61 230.499zM1966 888.999c0 -36.667 9 -70.832 27 -102.499s42.333 -56.667 73 -75s65 -27.5 103 -27.5c30 0 61.167 8.16699 93.5 24.5s59 40 80 71
s31.5 67.5 31.5 109.5s-10.5 78.5 -31.5 109.5s-47.667 54.667 -80 71s-63.5 24.5 -93.5 24.5c-38 0 -72.5 -9.33301 -103.5 -28s-55.333 -43.834 -73 -75.501s-26.5 -65.5 -26.5 -101.5zM1774 272.001h792v-272h-792v272z" />
    <glyph glyph-name="afii10101" unicode="&#xba;" horiz-adv-x="1073" 
d="M1008 1180l0.00195312 -295c-69.333 17.333 -137 26 -203 26c-79.333 0 -150.833 -16.667 -214.5 -50s-104.167 -80.666 -121.5 -141.999h408v-227h-408c10 -50 31.833 -91.667 65.5 -125s76.667 -58.166 129 -74.499s111.166 -24.5 176.499 -24.5
c58.667 0 114.667 9 168 27v-295c-84 -18 -172.333 -27 -265 -27c-109.333 0 -206.333 16.5 -291 49.5s-156.167 79.667 -214.5 140s-101.5 128.666 -129.5 204.999s-42 157.833 -42 244.5c0 95.333 17.167 180.666 51.5 255.999s82.666 138 144.999 188s134 87.5 215 112.5
s169.5 37.5 265.5 37.5c92 0 180.333 -8.66699 265 -26z" />
    <glyph glyph-name="guillemotright" unicode="&#xbb;" horiz-adv-x="1116" 
d="M352 1067l254 -459l-254 -448h-295l256 448l-256 459h295zM807 1067l252 -459l-252 -448h-295l254 448l-254 459h295z" />
    <glyph glyph-name="afii10105" unicode="&#xbc;" horiz-adv-x="645" 
d="M530 1180l-0.000976562 -830c0 -66 -7.83301 -128.833 -23.5 -188.5s-54 -113.5 -115 -161.5s-151.167 -72 -270.5 -72c-41.333 0 -72.666 1.33301 -93.999 4v295c49.333 0 81 17.833 95 53.5s21 81.5 21 137.5v762h387zM126.999 1520l420 -0.000976562
c-10.667 -54.667 -26.167 -102.167 -46.5 -142.5s-44.833 -72.166 -73.5 -95.499s-59 -35 -91 -35c-36 0 -69.5 14.833 -100.5 44.5s-56 65.5 -75 107.5s-30.167 82.333 -33.5 121z" />
    <glyph glyph-name="afii10054" unicode="&#xbd;" horiz-adv-x="1217" 
d="M1139 1520l0.00292969 -339.999h-437c-82.667 0 -124 -29.333 -124 -88c0 -20.667 5.83301 -39.834 17.5 -57.501s29.667 -36.5 54 -56.5s64.5 -49.667 120.5 -89c97.333 -69.333 170.666 -124.833 219.999 -166.5s89.166 -89.834 119.499 -144.501
s45.5 -120.334 45.5 -197.001c0 -110 -31.167 -193.333 -93.5 -250s-131.5 -92.667 -207.5 -108s-149.667 -23 -221 -23h-572v340h480c86 0 129 28.667 129 86c0 18 -3.33301 33.833 -10 47.5s-15.334 26.167 -26.001 37.5s-30 28 -58 50l-72 57l-171 133
c-48.667 38.667 -90.334 76.667 -125.001 114s-62.667 80 -84 128s-32 102 -32 162c0 68.667 15.5 130.334 46.5 185.001s81.833 98.334 152.5 131.001s161.334 49 272.001 49h576z" />
    <glyph glyph-name="afii10102" unicode="&#xbe;" horiz-adv-x="1001" 
d="M926 1180l0.000976562 -307.999h-344c-28 0 -48.667 -3 -62 -9s-20 -17.333 -20 -34c0 -21.333 13.667 -41.5 41 -60.5s74.333 -47.833 141 -86.5c52 -31.333 95.5 -61.5 130.5 -90.5s65 -67.333 90 -115s37.5 -103.5 37.5 -167.5c0 -46 -11.5 -92.333 -34.5 -139
s-63.333 -86.667 -121 -120s-134.834 -50 -231.501 -50h-492v307h400c27.333 0 47.166 6.66699 59.499 20s18.5 26.666 18.5 39.999c0 24.667 -14.167 48.167 -42.5 70.5s-73.833 52.5 -136.5 90.5c-75.333 48 -132.5 88.5 -171.5 121.5s-67.833 68 -86.5 105
s-28 80.5 -28 130.5c0 87.333 21.667 152.833 65 196.5s90.833 71 142.5 82s101.834 16.5 150.501 16.5h494z" />
    <glyph glyph-name="afii10104" unicode="&#xbf;" horiz-adv-x="922" 
d="M653 1180v-1180h-387v1180h387zM23 1520l417.001 -0.000976562c-3.33301 -38 -14.5 -78.167 -33.5 -120.5s-44.167 -78.333 -75.5 -108s-64.666 -44.5 -99.999 -44.5c-33.333 0 -65.333 13.5 -96 40.5s-56.334 62.333 -77.001 106s-32.334 85.834 -35.001 126.501z
M479.001 1520l419.999 0.00195312c-21.333 -80.667 -48.666 -146.334 -81.999 -197.001s-77 -76 -131 -76c-48.667 0 -93.5 27.167 -134.5 81.5s-65.167 118.166 -72.5 191.499z" />
    <glyph glyph-name="afii10017" unicode="&#xc0;" horiz-adv-x="1477" 
d="M532 1520l412.002 -0.00488281c75.333 -119.333 142 -244.666 200 -375.999s109 -265.166 153 -401.499s80.667 -267.333 110 -393s52.666 -242.167 69.999 -349.5h-433c-5.33301 27.333 -12 65 -20 113c-9.33301 58.667 -18.333 106.334 -27 143.001h-428
c21.333 102 47.333 207.667 78 317h264c-16.667 66.667 -36 129.834 -58 189.501s-43.833 113.334 -65.5 161.001l-46.5 100.5c-48.667 -106 -92.834 -216 -132.501 -330s-74.5 -231.167 -104.5 -351.5s-54 -234.5 -72 -342.5h-432c24 125.333 54.833 259.5 92.5 402.5
s80.667 284.667 129 425s98.5 269.333 150.5 387s105.333 219.5 160 305.5z" />
    <glyph glyph-name="afii10018" unicode="&#xc1;" horiz-adv-x="1554" 
d="M123 1520h1206v-340h-774v-863h211c69.333 0 133 13 191 39s87 78.667 87 158c0 39.333 -9.16699 75 -27.5 107s-45.666 57 -81.999 75s-80.833 27 -133.5 27c-50.667 0 -106 -7 -166 -21v318c76.667 14.667 153.667 22 231 22c98.667 0 186.5 -11.667 263.5 -35
s142.333 -57.333 196 -102s94.334 -99.167 122.001 -163.5s41.5 -136.833 41.5 -217.5c0 -55.333 -8.66699 -112 -26 -170s-50 -114 -98 -168s-116.833 -98.5 -206.5 -133.5s-202.167 -52.5 -337.5 -52.5h-698v1520z" />
    <glyph glyph-name="afii10019" unicode="&#xc2;" horiz-adv-x="1528" 
d="M123 1520l781.999 0.00195312c96.667 0 177.667 -13 243 -39s115.833 -58.833 151.5 -98.5s60.834 -81.834 75.501 -126.501s22 -88.667 22 -132c0 -72.667 -20.667 -134.834 -62 -186.501s-92.333 -91.167 -153 -118.5v-4c104.667 -36.667 177.5 -89 218.5 -157
s61.5 -146.667 61.5 -236c0 -56 -10.667 -109 -32 -159s-54 -94.5 -98 -133.5s-101.833 -70.333 -173.5 -94s-156.167 -35.5 -253.5 -35.5h-782v1520zM634.999 635.002v316.998h158c130.667 0 196 43 196 129c0 51.333 -18.167 84.333 -54.5 99s-87.166 22 -152.499 22h-227
v-885h238c85.333 0 144.166 16.333 176.499 49s48.5 68.334 48.5 107.001c0 68.667 -22.333 112.834 -67 132.501s-99 29.5 -163 29.5h-153z" />
    <glyph glyph-name="afii10020" unicode="&#xc3;" horiz-adv-x="1157" 
d="M123 0v1520h1034v-340h-602v-1180h-432z" />
    <glyph glyph-name="afii10021" unicode="&#xc4;" horiz-adv-x="1690" 
d="M1503 1520l0.000976562 -1180h158v-340h-1661v340h1071v840h-88c-97.333 0 -175.833 -16.167 -235.5 -48.5s-102.834 -74.5 -129.501 -126.5s-42.834 -102.667 -48.501 -152s-8.5 -107.666 -8.5 -174.999c0 -29.333 2 -60 6 -92s9.83301 -66.167 17.5 -102.5
s12.834 -61.5 15.501 -75.5h-430c-16 54.667 -28.833 112.334 -38.5 173.001s-14.5 123.667 -14.5 189c0 82 9.16699 163.833 27.5 245.5s54 161.167 107 238.5s130.833 141 233.5 191s234 75 394 75h624z" />
    <glyph glyph-name="afii10022" unicode="&#xc5;" horiz-adv-x="1204" 
d="M1112 1520v-340h-557v-840h596v-340h-1028v1520h989zM1204 1055v-340h-569v340h569z" />
    <glyph glyph-name="afii10024" unicode="&#xc6;" horiz-adv-x="2206" 
d="M887 1520l432.003 -0.00195312v-363c78.667 24.667 150.167 70.834 214.5 138.501s114.166 142.5 149.499 224.5h490c-42.667 -100 -101.5 -193.667 -176.5 -281s-158.167 -166.666 -249.5 -237.999c60 -57.333 116.833 -124.666 170.5 -201.999
s100.334 -159.166 140.001 -245.499s72.167 -176.666 97.5 -270.999s42.333 -188.5 51 -282.5h-441c-8 61.333 -22.333 128.5 -43 201.5s-46.834 147 -78.501 222s-68.167 146.833 -109.5 215.5s-84.333 126.667 -129 174c-27.333 -14.667 -56 -25.667 -86 -33v-780h-432
v780c-31.333 8 -60 19 -86 33c-60.667 -66 -116.834 -146.833 -168.501 -242.5s-94 -193.334 -127 -293.001s-54.833 -192.167 -65.5 -277.5h-440c14.667 124.667 41 246.667 79 366s89.333 233.666 154 342.999s140 206.666 226 291.999
c-204 156.667 -346 329.667 -426 519h489c25.333 -56 56 -108.167 92 -156.5s77.667 -90.833 125 -127.5s96.666 -63 147.999 -79v363z" />
    <glyph glyph-name="afii10025" unicode="&#xc7;" horiz-adv-x="1239" 
d="M70 1190l-0.000976562 330.001c138 24 265 36 381 36c133.333 0 243.5 -14 330.5 -42s153.167 -64 198.5 -108s76.333 -90.167 93 -138.5s25 -96.833 25 -145.5c0 -82 -21.167 -148 -63.5 -198s-92.166 -87 -149.499 -111c39.333 -13.333 80.833 -34.166 124.5 -62.499
s82 -68.5 115 -120.5s49.5 -115.333 49.5 -190c0 -64.667 -13.833 -125.334 -41.5 -182.001s-70.834 -107.167 -129.501 -151.5s-134.167 -79 -226.5 -104s-200.166 -37.5 -323.499 -37.5c-132.667 0 -264.667 11.667 -396 35v344c100.667 -16 171.667 -26.167 213 -30.5
s87.333 -6.5 138 -6.5c88.667 0 165 12 229 36s96 76.333 96 157c0 53.333 -21.5 91.166 -64.5 113.499s-92.5 33.5 -148.5 33.5h-338v318h318c62.667 0 104.834 13.167 126.501 39.5s32.5 53.833 32.5 82.5c0 22 -7.33301 44.5 -22 67.5s-40.834 42.5 -78.501 58.5
s-88.5 24 -152.5 24c-117.333 0 -229.333 -15.667 -336 -47z" />
    <glyph glyph-name="afii10026" unicode="&#xc8;" horiz-adv-x="1610" 
d="M123 1520l432.001 -0.000976562v-406c65.333 79.333 144.666 157.333 237.999 234s180.666 134 261.999 172h432v-1520h-432v1087c-42 -26.667 -86 -58.667 -132 -96s-92.333 -78.666 -139 -123.999s-89.667 -91 -129 -137s-72.666 -90 -99.999 -132v-598h-432v1520z" />
    <glyph glyph-name="afii10027" unicode="&#xc9;" horiz-adv-x="1608" 
d="M123 1520h432.001v-406c50 65.333 126.167 140.166 228.5 224.499s192.166 144.833 269.499 181.5h432v-1520h-432v1087c-39.333 -24 -83.5 -55.667 -132.5 -95s-95.333 -80.666 -139 -123.999s-85.5 -88.833 -125.5 -136.5s-73.667 -92.167 -101 -133.5v-598h-432v1520z
M522.001 1706h557c-10 -56 -41.5 -101 -94.5 -135s-114.167 -51 -183.5 -51s-130.5 17 -183.5 51s-84.833 79 -95.5 135z" />
    <glyph glyph-name="afii10028" unicode="&#xca;" horiz-adv-x="1520" 
d="M123 1520l431.998 -0.000976562v-308c73.333 24 149.333 64.333 228 121s139.334 119 182.001 187h518c-18.667 -38.667 -46.167 -83.167 -82.5 -133.5s-75.666 -98.166 -117.999 -143.499s-88.5 -88.333 -138.5 -129s-100.333 -74.667 -151 -102
c68 -70 130.667 -146 188 -228s108 -166.333 152 -253s82.167 -176 114.5 -268s56.5 -179.667 72.5 -263h-445c-15.333 85.333 -39.5 168.833 -72.5 250.5s-69.833 156.667 -110.5 225s-83.167 131 -127.5 188s-89.5 109.5 -135.5 157.5
c-24 -12.667 -48.667 -22.667 -74 -30v-791h-432v1520z" />
    <glyph glyph-name="afii10029" unicode="&#xcb;" horiz-adv-x="1563" 
d="M1008 1180l-52 0.000976562c-46 0 -91.833 -5.33301 -137.5 -16s-92 -35.167 -139 -73.5s-87 -100.666 -120 -186.999s-49.5 -197.833 -49.5 -334.5c0 -173.333 11.667 -363 35 -569h-436c-28.667 224 -43 414.333 -43 571c0 190.667 23 350.167 69 478.5
s105 226.166 177 293.499s147.667 113.666 227 138.999s160.333 38 243 38h658v-1520h-432v1180z" />
    <glyph glyph-name="afii10030" unicode="&#xcc;" horiz-adv-x="1956" 
d="M1114 252h-272c-8 48.667 -19.167 100.167 -33.5 154.5s-32.5 110.166 -54.5 167.499s-50 114.666 -84 171.999s-72.333 106.333 -115 147v-893h-432v1520h432c82 -74 165.5 -178.5 250.5 -313.5s141.5 -250.5 169.5 -346.5h8c12 46.667 32.5 99.834 61.5 159.501
s63.833 121.5 104.5 185.5s82.834 123.5 126.501 178.5s85.5 100.5 125.5 136.5h432v-1520h-432v893c-39.333 -42 -75.833 -88.833 -109.5 -140.5s-66.834 -119.667 -99.501 -204s-58.667 -183.166 -78 -296.499z" />
    <glyph glyph-name="afii10031" unicode="&#xcd;" horiz-adv-x="1608" 
d="M123 1520h432v-1520h-432v1520zM1053 1520h432v-1520h-432v750h-418v342h418v428z" />
    <glyph glyph-name="afii10032" unicode="&#xce;" horiz-adv-x="1708" 
d="M66 760c0 128 19.5 241.671 58.5 341.004s94.667 183 167 251s155.833 118.667 250.5 152s198.667 50 312 50c111.333 0 214.666 -16.833 309.999 -50.5s179 -84.334 251 -152.001s127.833 -151 167.5 -250s59.5 -212.833 59.5 -341.5s-19.667 -242.334 -59 -341.001
s-95.166 -181.834 -167.499 -249.501s-156 -118.667 -251 -153s-198.5 -51.5 -310.5 -51.5c-152 0 -287.333 30.667 -406 92s-212 151.666 -280 270.999s-102 263.333 -102 432zM510 760.004c0 -130.667 28.1689 -238.499 84.502 -323.499s142.833 -127.5 259.5 -127.5
c115.333 0 201.5 42.333 258.5 127s85.5 192.667 85.5 324c0 82.667 -11.833 158 -35.5 226s-61.334 122.333 -113.001 163s-116.834 61 -195.501 61c-80.667 0 -146.5 -20 -197.5 -60s-88.167 -93.833 -111.5 -161.5s-35 -143.834 -35 -228.501z" />
    <glyph glyph-name="afii10033" unicode="&#xcf;" horiz-adv-x="1591" 
d="M123 1520h1345v-1520h-432v1180h-481v-1180h-432v1520z" />
    <glyph glyph-name="afii10034" unicode="&#xd0;" horiz-adv-x="1548" 
d="M123 1520l705.996 -0.00195312c158.667 0 287.167 -28.5 385.5 -85.5s169 -130.5 212 -220.5s64.5 -185.333 64.5 -286c0 -83.333 -13.167 -160.166 -39.5 -230.499s-66.166 -132.333 -119.499 -186s-118.166 -95 -194.499 -124s-163.166 -43.5 -260.499 -43.5
c-82.667 0 -163.334 10.333 -242.001 31v340c46 -20.667 98 -31 156 -31c50 0 94.333 9.16699 133 27.5s68.834 46 90.501 83s32.5 82.167 32.5 135.5c0 30.667 -5.5 63.834 -16.5 99.501s-38.667 69.667 -83 102s-110.166 48.5 -197.499 48.5h-195v-1180h-432v1520z" />
    <glyph glyph-name="afii10035" unicode="&#xd1;" horiz-adv-x="1237" 
d="M1194 1520l0.00195312 -330.002c-71.333 20.667 -139.666 31 -204.999 31c-76.667 0 -144.667 -11 -204 -33s-109.333 -53.333 -150 -94s-71.334 -89 -92.001 -145s-31 -117.667 -31 -185c0 -94.667 15 -173 45 -235s68.833 -109.5 116.5 -142.5s96 -55.5 145 -67.5
s94.167 -18 135.5 -18c80.667 0 160.667 13 240 39v-340c-102.667 -23.333 -213.334 -35 -332.001 -35c-186 0 -338.833 38.167 -458.5 114.5s-205.834 174.833 -258.501 295.5s-79 250.334 -79 389.001c0 154.667 33.333 291.834 100 411.501s163.5 212.667 290.5 279
s277.167 99.5 450.5 99.5c94 0 189.667 -11.333 287 -34z" />
    <glyph glyph-name="afii10036" unicode="&#xd2;" horiz-adv-x="1157" 
d="M0 1520h1157v-340h-362v-1180h-433v1180h-362v340z" />
    <glyph glyph-name="afii10037" unicode="&#xd3;" horiz-adv-x="1434" 
d="M1012 1520l421.997 0.000976562c-7.33301 -67.333 -18.5 -141.333 -33.5 -222s-34.833 -168.5 -59.5 -263.5s-55 -190 -91 -285s-74.333 -178.833 -115 -251.5c-48 -85.333 -98.333 -158.333 -151 -219s-117.167 -114.5 -193.5 -161.5s-164.166 -83.5 -263.499 -109.5
s-213.666 -40.333 -342.999 -43v342c63.333 0.666992 120.833 7.5 172.5 20.5s97.5 29.5 137.5 49.5s71.667 38.167 95 54.5s44 32.833 62 49.5c-78 49.333 -152.833 111.333 -224.5 186s-135.334 156.667 -191.001 246s-103.5 185.166 -143.5 287.499
s-70.667 208.833 -92 319.5h444c18.667 -88.667 47.834 -175.667 87.501 -261s87.834 -165.5 144.501 -240.5s116 -139.5 178 -193.5c45.333 113.333 80.5 224 105.5 332s42.5 229 52.5 363z" />
    <glyph glyph-name="afii10038" unicode="&#xd4;" horiz-adv-x="2157" 
d="M862 -68l-0.000976562 1088c-22 4 -50 6 -84 6c-48 0 -92.667 -7.83301 -134 -23.5s-76 -44.834 -104 -87.501s-42 -101.334 -42 -176.001c0 -98 21.333 -167.5 64 -208.5s99 -61.5 169 -61.5c13.333 0 35.333 1.33301 66 4v-317c-52.667 -7.33301 -98.667 -11 -138 -11
c-103.333 0 -199.5 18.833 -288.5 56.5s-162 101 -219 190s-85.5 204.833 -85.5 347.5c0 97.333 15 191 45 281s96 169.167 198 237.5s251 102.5 447 102.5h106v160h432v-160h107c107.333 0 211.666 -14.5 312.999 -43.5s189.5 -89.5 264.5 -181.5s112.5 -224 112.5 -396
c0 -144 -28.167 -260.167 -84.5 -348.5s-129 -151.333 -218 -189s-185.5 -56.5 -289.5 -56.5c-37.333 0 -83.666 3.66699 -138.999 11v317c14.667 -2.66699 36.334 -4 65.001 -4c156 0 234 90 234 270c0 108.667 -28.5 183.667 -85.5 225s-124.167 62 -201.5 62
c-30.667 0 -56.667 -2 -78 -6v-1088h-432z" />
    <glyph glyph-name="afii10039" unicode="&#xd5;" horiz-adv-x="1520" 
d="M1520 0l-452.999 -0.00195312c-17.333 62.667 -42.166 128.5 -74.499 197.5s-69 135.167 -110 198.5s-81.833 115.666 -122.5 156.999c-62.667 -67.333 -122.167 -151.166 -178.5 -251.499s-99.166 -200.833 -128.499 -301.5h-453c32 102.667 72.5 203 121.5 301
s105.833 191.5 170.5 280.5s136 168.833 214 239.5c-132.667 146.667 -228.334 277.834 -287.001 393.501s-99.667 217.5 -123 305.5h467c26.667 -91.333 53.5 -166.166 80.5 -224.499s65.833 -120.833 116.5 -187.5c36 46.667 72.167 104.167 108.5 172.5
s65.5 148.166 87.5 239.499h467c-27.333 -113.333 -77.5 -231.333 -150.5 -354s-158.5 -237.667 -256.5 -345c59.333 -53.333 115.166 -113.166 167.499 -179.499s99.666 -135.333 141.999 -207s79.833 -144 112.5 -217s60 -145.5 82 -217.5z" />
    <glyph glyph-name="afii10040" unicode="&#xd6;" horiz-adv-x="1679" 
d="M127 1520l430.003 -0.00195312c-6 -44.667 -12.833 -111.334 -20.5 -200.001s-14 -173.167 -19 -253.5s-7.5 -149.166 -7.5 -206.499c0 -122 11.667 -220.5 35 -295.5s63.666 -131.167 120.999 -168.5s136.333 -56 237 -56h748v-340h-895c-88 0 -170.333 8.5 -247 25.5
s-148.834 52.833 -216.501 107.5s-122.334 136.834 -164.001 246.501s-62.5 252.834 -62.5 429.501c0 207.333 20.333 444.333 61 711zM1468 1520v-1112h-432v1112h432z" />
    <glyph glyph-name="afii10041" unicode="&#xd7;" horiz-adv-x="1587" 
d="M102 1520l432.998 -0.000976562c-22 -142.667 -33 -291.667 -33 -447c0 -159.333 31 -264 93 -314s135.333 -75 220 -75c54.667 0 100.334 4.66699 137.001 14v-340c-94 -12 -156.667 -18 -188 -18c-283.333 0 -472 69.833 -566 209.5s-141 295.834 -141 468.501
c0 69.333 3.83301 144.333 11.5 225s18.834 173 33.501 277zM1464 1520v-1520h-432v1520h432z" />
    <glyph glyph-name="afii10042" unicode="&#xd8;" horiz-adv-x="2337" 
d="M1782 340l0.00292969 1180h432v-1520h-1458c-86.667 0 -167.834 8.5 -243.501 25.5s-147.834 52.667 -216.501 107s-124.167 137 -166.5 248s-63.5 253.833 -63.5 428.5c0 103.333 4.5 208.5 13.5 315.5s24.167 238.833 45.5 395.5h432c-31.333 -270 -47 -490 -47 -660
c0 -79.333 4.66699 -149.5 14 -210.5s27.666 -114.833 54.999 -161.5s67.5 -83 120.5 -109s120.833 -39 203.5 -39h879zM1374 1520v-1112h-432v1112h432z" />
    <glyph glyph-name="afii10043" unicode="&#xd9;" horiz-adv-x="2423" 
d="M125 1520h432.003c-31.333 -270 -47 -490 -47 -660c0 -79.333 4.66699 -149.5 14 -210.5s27.666 -114.833 54.999 -161.5s67.5 -83 120.5 -109s120.833 -39 203.5 -39h1491v-340h-1638c-86.667 0 -167.834 8.5 -243.501 25.5s-147.834 52.667 -216.501 107
s-124.167 137 -166.5 248s-63.5 253.833 -63.5 428.5c0 103.333 4.5 208.5 13.5 315.5s24.167 238.833 45.5 395.5zM1374 1520v-1112h-432v1112h432zM2214 1520v-1112h-432v1112h432z" />
    <glyph glyph-name="afii10044" unicode="&#xda;" horiz-adv-x="1661" 
d="M684 1520v-1180h131c108 0 192.333 15 253 45s91 94.333 91 193c0 68 -21.333 125.833 -64 173.5s-106.667 71.5 -192 71.5c-50.667 0 -97.667 -10.667 -141 -32v339c82 22 164 33 246 33c121.333 0 227.333 -24.833 318 -74.5s159.667 -118.5 207 -206.5
s71 -188 71 -300c0 -244.667 -73.5 -402.834 -220.5 -474.501s-299.5 -107.5 -457.5 -107.5h-674v1180h-223v340h655z" />
    <glyph glyph-name="afii10045" unicode="&#xdb;" horiz-adv-x="2122" 
d="M123 1520l432 0.000976562v-1180h131c108 0 192.333 15 253 45s91 94.333 91 193c0 43.333 -8.83301 83.5 -26.5 120.5s-45.5 67 -83.5 90s-86.667 34.5 -146 34.5c-50.667 0 -97 -10.667 -139 -32v339c78.667 22 160 33 244 33c122 0 228.333 -24.833 319 -74.5
s159.5 -118.5 206.5 -206.5s70.5 -188 70.5 -300c0 -244.667 -74 -402.834 -222 -474.501s-300 -107.5 -456 -107.5h-674v1520zM1567 1520h432v-1520h-432v1520z" />
    <glyph glyph-name="afii10046" unicode="&#xdc;" horiz-adv-x="1532" 
d="M123 1520l432 0.000976562v-1180h131c108 0 192.333 15 253 45s91 94.333 91 193c0 43.333 -8.83301 83.5 -26.5 120.5s-45.5 67 -83.5 90s-86.667 34.5 -146 34.5c-50.667 0 -97 -10.667 -139 -32v339c78.667 22 160 33 244 33c122 0 228.333 -24.833 319 -74.5
s159.5 -118.5 206.5 -206.5s70.5 -188 70.5 -300c0 -244.667 -74 -402.834 -222 -474.501s-300 -107.5 -456 -107.5h-674v1520z" />
    <glyph glyph-name="afii10047" unicode="&#xdd;" horiz-adv-x="1288" 
d="M78 1182l0.000976562 338c40 9.33301 91.667 18.5 155 27.5s131.666 13.5 204.999 13.5c114.667 0 220.167 -18.667 316.5 -56s179.166 -90.833 248.499 -160.5s123.333 -153.667 162 -252s58 -207.166 58 -326.499c0 -156 -32.833 -294.833 -98.5 -416.5
s-162 -216.167 -289 -283.5s-277.833 -101 -452.5 -101c-65.333 0 -120.5 3 -165.5 9s-91.5 14.667 -139.5 26v344c76.667 -26 161.334 -39 254.001 -39c142 0 251.833 38.5 329.5 115.5s116.5 181.833 116.5 314.5c0 97.333 -20 182.166 -60 254.499
s-95.833 127.5 -167.5 165.5s-154.167 57 -247.5 57c-75.333 0 -150.333 -10 -225 -30zM29.001 975h606c42 -64 63 -135.667 63 -215c0 -47.333 -5.33301 -89 -16 -125h-653v340z" />
    <glyph glyph-name="afii10048" unicode="&#xde;" horiz-adv-x="2370" 
d="M555 1520v-476.003h129c-10.667 -35.333 -19.5 -79.166 -26.5 -131.499s-10.5 -101.166 -10.5 -146.499c0 -27.333 0.666992 -47.666 2 -60.999h-94v-705h-432v1520h432zM727 759.997c0 116.667 17.5 223.333 52.5 320s86.5 180.5 154.5 251.5
s150.833 125.833 248.5 164.5s208.834 58 333.501 58c112.667 0 217 -16.833 313 -50.5s179.5 -84 250.5 -151s126.167 -150.5 165.5 -250.5s59 -214 59 -342s-19.667 -241.833 -59 -341.5s-94.5 -183 -165.5 -250s-154.333 -117.667 -250 -152s-200.167 -51.5 -313.5 -51.5
c-111.333 0 -214.833 17.167 -310.5 51.5s-179.334 85.333 -251.001 153s-127.5 151.5 -167.5 251.5s-60 213 -60 339zM1171 761.996c0 -83.333 12 -159.67 36 -229.003s61.833 -124.333 113.5 -165s116.834 -61 195.501 -61c76.667 0 153.167 28.833 229.5 86.5
s114.5 180.5 114.5 368.5c0 62.667 -6.66699 121.334 -20 176.001s-33.666 102.334 -60.999 143.001s-62.833 72.667 -106.5 96s-95.834 35 -156.501 35c-78.667 0 -143.834 -20.167 -195.501 -60.5s-89.5 -94.666 -113.5 -162.999s-36 -143.833 -36 -226.5z" />
    <glyph glyph-name="afii10049" unicode="&#xdf;" horiz-adv-x="1561" 
d="M1006 1180l-183.001 -0.00195312c-50 0 -98 -4.33301 -144 -13s-87 -29.5 -123 -62.5s-54 -83.833 -54 -152.5c0 -59.333 22.5 -111.666 67.5 -156.999s122.833 -68 233.5 -68c42 0 83 2.66699 123 8v-340c-23.333 -11.333 -57 -32.666 -101 -63.999
s-90.5 -75.833 -139.5 -133.5s-87.167 -123.5 -114.5 -197.5h-458c36.667 93.333 78 171.333 124 234s91.833 112.667 137.5 150s90.834 67.666 135.501 90.999v10c-120 12 -225.5 56.833 -316.5 134.5s-136.5 189.834 -136.5 336.501c0 126 24.833 228.333 74.5 307
s111 136.167 184 172.5s143.5 59.5 211.5 69.5s135.333 15 202 15h709v-1520h-432v1180z" />
    <glyph glyph-name="afii10065" unicode="&#xe0;" horiz-adv-x="1325" 
d="M211 874l-0.000976562 308c134 16 255.333 24 364 24c161.333 0 307.5 -37.5 438.5 -112.5s196.5 -224.5 196.5 -448.5v-645h-665c-113.333 -0 -221.5 22.333 -324.5 67s-154.5 143 -154.5 295c0 65.333 15.5 127.5 46.5 186.5s82.667 107 155 144s165.5 55.5 279.5 55.5
h160c25.333 -48 38 -115 38 -201v-47h-112c-47.333 0 -87.166 -6.83301 -119.499 -20.5s-48.5 -42.5 -48.5 -86.5c0 -30 11.5 -53.833 34.5 -71.5s53.167 -26.5 90.5 -26.5h233v272c0 63.333 -5.5 118.333 -16.5 165s-41.167 88.167 -90.5 124.5s-124 54.5 -224 54.5
c-91.333 0 -185 -12.333 -281 -37z" />
    <glyph glyph-name="afii10066" unicode="&#xe1;" horiz-adv-x="1294" 
d="M66 494c0 75.333 12.167 144.33 36.5 206.997s61.5 117.834 111.5 165.501s111.167 84.5 183.5 110.5s155.5 39 249.5 39c108 0 206.333 -19.5 295 -58.5s158.667 -97.667 210 -176s77 -174.166 77 -287.499c0 -86 -14.667 -161.667 -44 -227
s-70.5 -119.666 -123.5 -162.999s-115.167 -76 -186.5 -98s-147.333 -33 -228 -33c-94 0 -177.167 13 -249.5 39s-133.5 63 -183.5 111s-87.167 103.167 -111.5 165.5s-36.5 130.833 -36.5 205.5zM465 493.997c0 -83.333 18.832 -141.833 56.499 -175.5
s79.5 -50.5 125.5 -50.5s87.833 16.833 125.5 50.5s56.5 92.167 56.5 175.5c0 81.333 -18.5 139.5 -55.5 174.5s-79.167 52.5 -126.5 52.5c-27.333 0 -54.666 -6.16699 -81.999 -18.5s-50.833 -35.833 -70.5 -70.5s-29.5 -80.667 -29.5 -138zM409.999 1069l-0.00195312 -12
c-50 -17.333 -92.167 -34.333 -126.5 -51s-68.166 -40.667 -101.499 -72c-77.333 65.333 -116 149.333 -116 252c0 112.667 36.667 193 110 241s156.666 72 249.999 72c36 0 69.833 -3 101.5 -9s66.834 -14 105.501 -24c65.333 -16 114.333 -24 147 -24
c54.667 0 82 15 82 45c0 12.667 -4.66699 23.667 -14 33c26 6.66699 54.667 10 86 10c71.333 0 128 -19.333 170 -58s63 -91 63 -157c0 -46 -12.167 -86.833 -36.5 -122.5s-57.333 -63.167 -99 -82.5s-87.167 -29 -136.5 -29c-47.333 0 -117.666 11 -210.999 33
c-94 23.333 -150.667 35 -170 35c-38.667 0 -65.667 -8.5 -81 -25.5s-23 -35.167 -23 -54.5z" />
    <glyph glyph-name="afii10067" unicode="&#xe2;" horiz-adv-x="1343" 
d="M123 1180l782 -0.000976562c128 0 218.667 -30.5 272 -91.5s80 -133.167 80 -216.5c0 -77.333 -21 -136.166 -63 -176.499s-94 -67.5 -156 -81.5v-4c39.333 -8 77 -23.5 113 -46.5s66.167 -56.167 90.5 -99.5s36.5 -96.333 36.5 -159
c0 -89.333 -25.833 -156.833 -77.5 -202.5s-105.167 -74.167 -160.5 -85.5s-105 -17 -149 -17h-768v1180zM590 497.999v226.999h151c78 0 117 30 117 90c0 15.333 -3.66699 30 -11 44s-19.5 25.5 -36.5 34.5s-40.167 13.5 -69.5 13.5h-231v-635h235
c41.333 0 74 9.33301 98 28s36 46.334 36 83.001c0 47.333 -15.5 78.333 -46.5 93s-60.167 22 -87.5 22h-155z" />
    <glyph glyph-name="afii10068" unicode="&#xe3;" horiz-adv-x="965" 
d="M965 1180v-308h-455v-872h-387v1180h842z" />
    <glyph glyph-name="afii10069" unicode="&#xe4;" horiz-adv-x="1380" 
d="M1208 1180v-873h148v-307h-1356v307h821v578h-61c-176 0 -264 -112 -264 -336c0 -16 2.83301 -43 8.5 -81l13.5 -93h-383c-17.333 82.667 -26 168 -26 256c0 156 29 274.667 87 356s125.167 133.833 201.5 157.5s155.5 35.5 237.5 35.5h573z" />
    <glyph glyph-name="afii10070" unicode="&#xe5;" horiz-adv-x="1354" 
d="M1178 322l0.00195312 -308.001c-122.667 -27.333 -249.667 -41 -381 -41c-112 0 -213.5 14.667 -304.5 44s-168.667 72 -233 128s-112.666 122.167 -144.999 198.5s-48.5 161.166 -48.5 254.499c0 130.667 28.333 241.834 85 333.501s134.167 160.334 232.5 206.001
s209.5 68.5 333.5 68.5c94.667 0 185.667 -15.5 273 -46.5s162.666 -94.333 225.999 -190s95 -231.167 95 -406.5c0 -32.667 -0.666992 -57.334 -2 -74.001h-729c-24.667 34.667 -37 75.667 -37 123c0 41.333 4 76.333 12 105h383c-4 129.333 -75 194 -213 194
c-88 0 -153.667 -26.833 -197 -80.5s-65 -125.167 -65 -214.5c0 -62.667 12.5 -119.667 37.5 -171s69.167 -93.666 132.5 -126.999s148.666 -50 255.999 -50c99.333 0 195.666 18 288.999 54z" />
    <glyph glyph-name="afii10072" unicode="&#xe6;" horiz-adv-x="1812" 
d="M713 0l0.00488281 528.004c-55.333 35.333 -88.333 56.666 -99 63.999c-30.667 -48 -60.334 -106.667 -89.001 -176s-52.334 -139.833 -71.001 -211.5s-32.667 -139.834 -42 -204.501h-387c13.333 83.333 31.833 168.166 55.5 254.499s57.167 177 100.5 272
s95.666 184.5 156.999 268.5c-67.333 53.333 -129.5 114.666 -186.5 183.999s-99.167 136.333 -126.5 201h432c69.333 -132 154.666 -225.667 255.999 -281v281h387v-281c44 24.667 87.5 58.167 130.5 100.5s84.833 102.5 125.5 180.5h432c-26 -64 -67.833 -131 -125.5 -201
s-120.167 -131.333 -187.5 -184c87.333 -118.667 156.5 -249.5 207.5 -392.5s86.167 -277.167 105.5 -402.5h-387c-10.667 68 -25.334 137.333 -44.001 208s-41.667 139.667 -69 207s-57.333 126.333 -90 177c-18 -12.667 -50.667 -34 -98 -64v-528h-387z" />
    <glyph glyph-name="afii10073" unicode="&#xe7;" horiz-adv-x="971" 
d="M57 872l-0.00195312 308.002c108.667 17.333 216 26 322 26c126 0 224.667 -17.333 296 -52s119.666 -75.667 144.999 -123s38 -95.333 38 -144c0 -66 -18.167 -122.833 -54.5 -170.5s-82.166 -81.834 -137.499 -102.501v-4c63.333 -16 119 -47 167 -93s72 -114 72 -204
c0 -99.333 -32 -174 -96 -224s-133.667 -81.833 -209 -95.5s-149.666 -20.5 -222.999 -20.5c-46.667 0 -79 0.5 -97 1.5s-42.333 3.33301 -73 7l-150 18.5v305l95.5 -20c28.333 -6 52 -10.333 71 -13s44.167 -4 75.5 -4c62.667 0 113.167 7.5 151.5 22.5
s57.5 45.833 57.5 92.5c0 26.667 -9.66699 51.5 -29 74.5s-52.666 34.5 -99.999 34.5h-184v227h186c70.667 0 106 30.667 106 92c0 66.667 -55 100 -165 100c-35.333 0 -80.833 -4.33301 -136.5 -13s-98.5 -17.334 -128.5 -26.001z" />
    <glyph glyph-name="afii10074" unicode="&#xe8;" horiz-adv-x="1360" 
d="M510 1180v-293.001c48.667 59.333 104 115.833 166 169.5s120 94.834 174 123.501h387v-1180h-387v805c-130 -89.333 -243.333 -210.333 -340 -363v-442h-387v1180h387z" />
    <glyph glyph-name="afii10075" unicode="&#xe9;" horiz-adv-x="1360" 
d="M510 1180v-293.001c48.667 59.333 104 115.833 166 169.5s120 94.834 174 123.501h387v-1180h-387v805c-130 -89.333 -243.333 -210.333 -340 -363v-442h-387v1180h387zM469 1520l422 -0.000976562c-8 -47.333 -22.333 -92 -43 -134s-45.5 -75.667 -74.5 -101
s-60.167 -38 -93.5 -38c-48.667 0 -92.5 26.833 -131.5 80.5s-65.5 117.834 -79.5 192.501z" />
    <glyph glyph-name="afii10076" unicode="&#xea;" horiz-adv-x="1260" 
d="M510 1180l-0.00195312 -277c55.333 29.333 111.166 70.166 167.499 122.499s96.833 103.833 121.5 154.5h430c-34 -78 -79.167 -149.667 -135.5 -215s-117.166 -122.666 -182.499 -171.999c55.333 -69.333 107.833 -149.333 157.5 -240s90.834 -183.5 123.501 -278.5
s55.334 -186.5 68.001 -274.5h-402c-7.33301 43.333 -19.166 94.666 -35.499 153.999s-34.166 113.333 -53.499 162s-42.333 97.5 -69 146.5s-55.334 92.167 -86.001 129.5c-30.667 -19.333 -65.334 -37.666 -104.001 -54.999v-537h-387v1180h387z" />
    <glyph glyph-name="afii10077" unicode="&#xeb;" horiz-adv-x="1284" 
d="M774 0l-0.000976562 885c-88 0 -161.5 -35.667 -220.5 -107s-88.5 -192 -88.5 -362c0 -72.667 3.33301 -142.667 10 -210s19 -136 37 -206h-406c-8 40 -15 85.5 -21 136.5s-10.667 106 -14 165s-5 106.5 -5 142.5c0 164.667 24.167 298.167 72.5 400.5
s107.5 177 177.5 224s137.333 77.333 202 91s123.334 20.5 176.001 20.5h467v-1180h-387z" />
    <glyph glyph-name="afii10078" unicode="&#xec;" horiz-adv-x="1851" 
d="M510 0h-387.001v1180h387c55.333 -45.333 110.833 -102.5 166.5 -171.5s104.167 -139.833 145.5 -212.5s75.333 -142.667 102 -210h4c40 104.667 88.667 200 146 286s109.666 153.667 156.999 203s84 84.333 110 105h388v-1180h-388v653
c-40.667 -35.333 -80 -82.833 -118 -142.5s-70.667 -122.667 -98 -189s-48.666 -129.833 -63.999 -190.5h-270c-15.333 60 -38 124.833 -68 194.5s-63.667 133.667 -101 192s-74.666 103.5 -111.999 135.5v-653z" />
    <glyph glyph-name="afii10079" unicode="&#xed;" horiz-adv-x="1407" 
d="M1284 1180v-1180h-387v500h-307v295h307v385h387zM510 1180v-1180h-387v1180h387z" />
    <glyph glyph-name="afii10080" unicode="&#xee;" horiz-adv-x="1380" 
d="M690 -27c-121.333 0 -229.166 24.167 -323.499 72.5s-168 119.166 -221 212.499s-79.5 204 -79.5 332s26.5 238.667 79.5 332s126.667 164 221 212s202.166 72 323.499 72c122 0 230.167 -24 324.5 -72s168 -118.667 221 -212s79.5 -204 79.5 -332
s-26.5 -238.667 -79.5 -332s-126.5 -164.166 -220.5 -212.499s-202.333 -72.5 -325 -72.5zM690 268c62.667 0 115.832 24.167 159.499 72.5s65.5 131.5 65.5 249.5s-21.667 201 -65 249s-96.666 72 -159.999 72c-56 0 -107.5 -21.5 -154.5 -64.5s-70.5 -128.5 -70.5 -256.5
c0 -127.333 23.5 -212.833 70.5 -256.5s98.5 -65.5 154.5 -65.5z" />
    <glyph glyph-name="afii10081" unicode="&#xef;" horiz-adv-x="1393" 
d="M1270 1180v-1180h-387v885h-373v-885h-387v1180h1147z" />
    <glyph glyph-name="afii10082" unicode="&#xf0;" horiz-adv-x="1346" 
d="M123 1180l564.999 -0.00195312c68 0 144.5 -9.66699 229.5 -29s166.667 -69.666 245 -150.999s117.5 -203.666 117.5 -366.999c0 -112 -23.5 -210.333 -70.5 -295s-109.667 -149.167 -188 -193.5s-163.5 -66.5 -255.5 -66.5c-61.333 0 -120.666 4 -177.999 12v295
c28 -8 56 -12 84 -12c50 0 97.333 17.333 142 52s67 99 67 193c0 178 -94.333 267 -283 267h-88v-953h-387v1248z" />
    <glyph glyph-name="afii10083" unicode="&#xf1;" horiz-adv-x="958" 
d="M907 1180v-308c-52 26 -108 39 -168 39c-77.333 0 -142.333 -25 -195 -75s-79 -134 -79 -252c0 -125.333 30.167 -209.333 90.5 -252s124.5 -64 192.5 -64c36.667 0 68.667 2.83301 96 8.5s56 15.834 86 30.501v-307c-36.667 -10.667 -69 -17.834 -97 -21.501
s-63.333 -5.5 -106 -5.5c-113.333 0 -212 16 -296 48s-153 76.5 -207 133.5s-93.833 122.167 -119.5 195.5s-38.5 151.333 -38.5 234c0 79.333 10.833 155 32.5 227s57 138 106 198s114.833 107.833 197.5 143.5s180.667 53.5 294 53.5c82 0 152.333 -8.66699 211 -26z" />
    <glyph glyph-name="afii10084" unicode="&#xf2;" horiz-adv-x="1067" 
d="M1067 1180v-308h-340v-872h-387v872h-340v308h1067z" />
    <glyph glyph-name="afii10085" unicode="&#xf3;" horiz-adv-x="1186" 
d="M803 1180l383 0.00195312c-20 -272 -82.667 -502.5 -188 -691.5s-235.5 -329 -390.5 -420s-315.833 -136.5 -482.5 -136.5h-100v324c133.333 1.33301 243 28 329 80c-112.667 127.333 -194.167 258.666 -244.5 393.999s-78.5 285.333 -84.5 450h383
c16 -157.333 44.667 -281.833 86 -373.5s87.666 -163.834 138.999 -216.501c50.667 70 89.834 158.5 117.501 265.5s45.167 215.167 52.5 324.5z" />
    <glyph glyph-name="afii10086" unicode="&#xf4;" horiz-adv-x="1907" 
d="M760 1520l387 0.00195312v-340h94c213.333 0 366.666 -53.333 459.999 -160s140 -240.667 140 -402c0 -148 -35.5 -261.167 -106.5 -339.5s-151.5 -129.333 -241.5 -153s-178.667 -35.5 -266 -35.5v295c56.667 0 106.667 17.667 150 53s65 101.666 65 198.999
c0 60 -19.167 116.333 -57.5 169s-117.5 79 -237.5 79v-953h-387v953c-120 0 -199.167 -27.167 -237.5 -81.5s-57.5 -109.833 -57.5 -166.5c0 -96 22.167 -162 66.5 -198s93.833 -54 148.5 -54v-295c-56.667 0 -117.667 5.5 -183 16.5s-131.5 34.5 -198.5 70.5
s-122.5 90.167 -166.5 162.5s-66 165.166 -66 278.499c0 144.667 42.333 274.5 127 389.5s242.334 172.5 473.001 172.5h94v340z" />
    <glyph glyph-name="afii10087" unicode="&#xf5;" horiz-adv-x="1169" 
d="M1169 0h-389c-10.667 71.333 -31.5 134.833 -62.5 190.5s-74.833 112.834 -131.5 171.501c-108.667 -103.333 -174.334 -224 -197.001 -362h-389c26.667 116.667 71.167 229.167 133.5 337.5s137.166 196.5 224.499 264.5
c-79.333 79.333 -147.166 168.833 -203.499 268.5s-94.166 202.834 -113.499 309.501h375c3.33301 -46 17.833 -96.833 43.5 -152.5s67.834 -114.834 126.501 -177.501c57.333 63.333 98.5 122 123.5 176s39.833 105.333 44.5 154h374
c-18.667 -106 -56.167 -209.167 -112.5 -309.5s-124.5 -189.833 -204.5 -268.5c59.333 -46.667 112.833 -102.167 160.5 -166.5s88.167 -133.833 121.5 -208.5s58.666 -150.334 75.999 -227.001z" />
    <glyph glyph-name="afii10088" unicode="&#xf6;" horiz-adv-x="1348" 
d="M166 1180l384.999 0.00195312c-2 -10.667 -9 -43.334 -21 -98.001s-23.667 -114 -35 -178s-19.166 -117 -23.499 -159s-6.5 -85 -6.5 -129c0 -93.333 16.833 -162.5 50.5 -207.5s74 -73.167 121 -84.5s103.833 -17 170.5 -17h516v-307h-616
c-74.667 0 -144.5 4.5 -209.5 13.5s-130.667 31.667 -197 68s-122 95.666 -167 177.999s-67.5 191.833 -67.5 328.5c0 71.333 5.33301 142.333 16 213s22.5 133.5 35.5 188.5s29.167 118.5 48.5 190.5zM1188 1180v-805h-387v805h387z" />
    <glyph glyph-name="afii10089" unicode="&#xf7;" horiz-adv-x="1303" 
d="M100 1180l386.999 -0.00195312c-6 -31.333 -12.5 -76.833 -19.5 -136.5s-10.5 -107.834 -10.5 -144.501c0 -208.667 67.333 -313 202 -313c23.333 0 41.333 1.33301 54 4v-295c-49.333 -15.333 -101.333 -23 -156 -23c-110.667 0 -221.667 34 -333 102
s-167 211.667 -167 431c0 32.667 1.66699 69.834 5 111.501s8.83301 88.834 16.5 141.501s14.834 93.334 21.501 122.001zM1180 1180v-1180h-387v1180h387z" />
    <glyph glyph-name="afii10090" unicode="&#xf8;" horiz-adv-x="1968" 
d="M166 1180l384.999 0.00292969l-24.5 -115c-10.333 -48 -21 -102.833 -32 -164.5s-18.667 -113.334 -23 -155.001s-6.5 -84.834 -6.5 -129.501c0 -96.667 17.333 -168.5 52 -215.5s75.834 -76.333 123.501 -88s103.167 -17.5 166.5 -17.5h651v885h387v-1180h-1138
c-74.667 0 -144.5 4.5 -209.5 13.5s-130.667 31.667 -197 68s-122 95.666 -167 177.999s-67.5 191.833 -67.5 328.5c0 71.333 5.33301 142.333 16 213s22.5 133.5 35.5 188.5s29.167 118.5 48.5 190.5zM1188 1180v-818h-387v818h387z" />
    <glyph glyph-name="afii10091" unicode="&#xf9;" horiz-adv-x="2005" 
d="M166 1180l384.999 0.00195312c-2 -10.667 -9 -43.334 -21 -98.001s-23.667 -114 -35 -178s-19.166 -117 -23.499 -159s-6.5 -85 -6.5 -129c0 -93.333 16.833 -162.5 50.5 -207.5s74 -73.167 121 -84.5s103.833 -17 170.5 -17h1173v-307h-1273
c-74.667 0 -144.5 4.5 -209.5 13.5s-130.667 31.667 -197 68s-122 95.666 -167 177.999s-67.5 191.833 -67.5 328.5c0 71.333 5.33301 142.333 16 213s22.5 133.5 35.5 188.5s29.167 118.5 48.5 190.5zM1188 1180v-805h-387v805h387zM1845 1180v-805h-387v805h387z" />
    <glyph glyph-name="afii10092" unicode="&#xfa;" horiz-adv-x="1364" 
d="M547 1180l-0.00195312 -881.001h174c124 0 186 50 186 150c0 33.333 -7.33301 61.5 -22 84.5s-35.167 40.833 -61.5 53.5s-55.166 19 -86.499 19c-41.333 0 -78 -5.33301 -110 -16v295c56 10.667 115.333 16 178 16c106 0 196.833 -18.5 272.5 -55.5
s132.834 -90.333 171.501 -160s58 -150.167 58 -241.5c0 -183.333 -56.5 -303.166 -169.5 -359.499s-223.833 -84.5 -332.5 -84.5h-645v872h-135v308h522z" />
    <glyph glyph-name="afii10093" unicode="&#xfb;" horiz-adv-x="1874" 
d="M510 1180v-880.999h174c124 0 186 50 186 150c0 48 -16 86.167 -48 114.5s-72.667 42.5 -122 42.5c-41.333 0 -78 -5.33301 -110 -16v295c54 10.667 113.333 16 178 16c105.333 0 196 -18.5 272 -55.5s133.333 -90.167 172 -159.5s58 -150 58 -242
c0 -124.667 -40.333 -229.834 -121 -315.501s-207.667 -128.5 -381 -128.5h-645v1180h387zM1751 1180v-1180h-387v1180h387z" />
    <glyph glyph-name="afii10094" unicode="&#xfc;" horiz-adv-x="1327" 
d="M510 1180v-880.999h174c124 0 186 50 186 150c0 48 -16 86.167 -48 114.5s-72.667 42.5 -122 42.5c-41.333 0 -78 -5.33301 -110 -16v295c54 10.667 113.333 16 178 16c105.333 0 196 -18.5 272 -55.5s133.333 -90.167 172 -159.5s58 -150 58 -242
c0 -124.667 -40.333 -229.834 -121 -315.501s-207.667 -128.5 -381 -128.5h-645v1180h387z" />
    <glyph glyph-name="afii10095" unicode="&#xfd;" horiz-adv-x="1057" 
d="M49 885l0.000976562 294.998c78.667 17.333 166 26 262 26c97.333 0 186.833 -12.5 268.5 -37.5s153.5 -62.5 215.5 -112.5s110.167 -112.667 144.5 -188s51.5 -160.666 51.5 -255.999c0 -87.333 -14.333 -169.333 -43 -246s-71.667 -144.667 -129 -204
s-129 -105.666 -215 -138.999s-183.667 -50 -293 -50c-90.667 0 -178 9 -262 27v295c50 -18 106 -27 168 -27c65.333 0 124 8.16699 176 24.5s94.667 41.166 128 74.499s55 75 65 125h-406v227h406c-16.667 62.667 -56.334 110.334 -119.001 143.001s-135 49 -217 49
c-64.667 0 -131.667 -8.66699 -201 -26z" />
    <glyph glyph-name="afii10096" unicode="&#xfe;" horiz-adv-x="1966" 
d="M510 1180l0.000976562 -383h131c-8.66699 -29.333 -15.334 -56 -20.001 -80s-7 -49.333 -7 -76c0 -52 2.33301 -99.667 7 -143h-111v-498h-387v1180h387zM1296 -27c-78.667 0 -154.164 12.1699 -226.497 36.5029s-137 62.166 -194 113.499s-101.833 116 -134.5 194
s-49 169 -49 273s16.333 195.167 49 273.5s77.167 142.666 133.5 192.999s120.166 87.833 191.499 112.5s148 37 230 37c116.667 0 221 -24.333 313 -73s163.667 -119.334 215 -212.001s77 -203 77 -331c0 -127.333 -25.833 -237.833 -77.5 -331.5
s-123.334 -164.667 -215.001 -213s-195.834 -72.5 -312.501 -72.5zM1071 590.003c0 -116.667 22.168 -199.499 66.501 -248.499s97.166 -73.5 158.499 -73.5c56.667 0 108.5 21.833 155.5 65.5s70.5 129.167 70.5 256.5c0 128 -23.5 213.5 -70.5 256.5
s-98.833 64.5 -155.5 64.5c-62 0 -115 -24.333 -159 -73s-66 -131.334 -66 -248.001z" />
    <glyph glyph-name="afii10097" unicode="&#xff;" horiz-adv-x="1323" 
d="M813 883l-136.998 -0.00195312c-136.667 0 -205 -52 -205 -156c0 -54.667 18.333 -95 55 -121s82.667 -39 138 -39c24 0 47 2 69 6v-243c-80 -19.333 -143.333 -60.333 -190 -123s-75.334 -131.667 -86.001 -207h-408c22 92 63 175.667 123 251
s128.333 129.666 205 162.999v8c-86 22 -158.333 59.333 -217 112s-88 127.334 -88 224.001c0 70.667 14.667 138.334 44 203.001s78.166 117.334 146.499 158.001s157.5 61 267.5 61h670v-1180h-387v883z" />
    <glyph glyph-name="afii10059" unicode="&#x152;" 
 />
    <glyph glyph-name="afii10107" unicode="&#x153;" 
 />
    <glyph glyph-name="afii10058" unicode="&#x160;" 
 />
    <glyph glyph-name="afii10106" unicode="&#x161;" 
 />
    <glyph glyph-name="afii10193" unicode="&#x178;" 
 />
    <glyph glyph-name="afii10100" unicode="&#x192;" horiz-adv-x="965" 
d="M965 1180v-308h-455v-872h-387v1180h842z" />
    <glyph glyph-name="emdash" unicode="&#x2013;" horiz-adv-x="1548" 
d="M86 903h1376v-287h-1376v287z" />
    <glyph glyph-name="endash" unicode="&#x2014;" horiz-adv-x="1704" 
d="M57 748h1590v-295h-1590v295z" />
    <glyph glyph-name="quoteleft" unicode="&#x2018;" horiz-adv-x="580" 
d="M221 1554h254.001c-50.667 -56 -85.334 -105 -104.001 -147c40 -11.333 70.5 -33.166 91.5 -65.499s31.5 -65.833 31.5 -100.5c0 -50.667 -17.333 -97.834 -52 -141.501s-85 -65.5 -151 -65.5c-55.333 0 -103.333 19 -144 57s-61 87.333 -61 148c0 52 9.5 99 28.5 141
s41.5 81.667 67.5 119c14.667 18.667 27.667 37 39 55z" />
    <glyph glyph-name="quoteright" unicode="&#x2019;" horiz-adv-x="580" 
d="M356 1034l-254 -0.00292969c50.667 50.667 86.334 99.334 107.001 146.001c-38.667 12 -68.834 32.833 -90.501 62.5s-32.5 64.834 -32.5 105.501c0 62.667 20.333 112.667 61 150s88 56 142 56c46.667 0 85.5 -10.833 116.5 -32.5s53.5 -48.5 67.5 -80.5
s21 -62.333 21 -91c0 -99.333 -46 -204.666 -138 -315.999z" />
    <glyph glyph-name="quotesinglbase" unicode="&#x201a;" horiz-adv-x="580" 
d="M356 -145h-254.002c18.667 16.667 39 39.834 61 69.501s37.333 55.5 46 77.5c-39.333 11.333 -69.666 31.666 -90.999 60.999s-32 64.333 -32 105c0 62 20.333 112 61 150s88 57 142 57c42.667 0 79.334 -9.66699 110.001 -29s54.167 -44.5 70.5 -75.5
s24.5 -64.5 24.5 -100.5c0 -56 -12 -108 -36 -156s-58 -101 -102 -159z" />
    <glyph glyph-name="quotedblleft" unicode="&#x201c;" horiz-adv-x="1077" 
d="M221 1554h254.001c-50.667 -56 -85.334 -105 -104.001 -147c40 -11.333 70.5 -33.166 91.5 -65.499s31.5 -65.833 31.5 -100.5c0 -50.667 -17.333 -97.834 -52 -141.501s-85 -65.5 -151 -65.5c-55.333 0 -103.333 19 -144 57s-61 87.333 -61 148c0 52 9.5 99 28.5 141
s41.5 81.667 67.5 119c14.667 18.667 27.667 37 39 55zM721.001 1554h254.001c-26 -25.333 -48.5 -52 -67.5 -80s-32.167 -50.333 -39.5 -67c37.333 -10 67.166 -30.333 89.499 -61s33.5 -65.667 33.5 -105c0 -56 -19.167 -104.5 -57.5 -145.5s-86.833 -61.5 -145.5 -61.5
c-62 0 -111.5 20.333 -148.5 61s-55.5 88.667 -55.5 144s12 107.5 36 156.5s57.667 101.833 101 158.5z" />
    <glyph glyph-name="quotedblright" unicode="&#x201d;" horiz-adv-x="1077" 
d="M356 1034l-253.998 -0.000976562c20 18.667 40.667 42.5 62 71.5s36.333 54.5 45 76.5c-38.667 10 -68.834 30 -90.501 60s-32.5 65.333 -32.5 106c0 62.667 20.333 112.667 61 150s88 56 142 56c62.667 0 112.5 -20.167 149.5 -60.5s55.5 -88.166 55.5 -143.499
c0 -56 -11.833 -108.167 -35.5 -156.5s-57.834 -101.5 -102.501 -159.5zM856.002 1034l-254 0.000976562c48.667 54 83.667 103.333 105 148c-40 11.333 -70.5 33 -91.5 65s-31.5 65.667 -31.5 101c0 50.667 16.833 97.667 50.5 141s84.167 65 151.5 65
c36.667 0 70.667 -8.5 102 -25.5s56.333 -40.833 75 -71.5s28 -66.334 28 -107.001c0 -83.333 -32 -170 -96 -260c-15.333 -19.333 -28.333 -38 -39 -56z" />
    <glyph glyph-name="quotedblbase" unicode="&#x201e;" horiz-adv-x="1077" 
d="M356 -145h-254.002c18.667 16.667 39 39.834 61 69.501s37.333 55.5 46 77.5c-39.333 11.333 -69.666 31.666 -90.999 60.999s-32 64.333 -32 105c0 62 20.333 112 61 150s88 57 142 57c42.667 0 79.334 -9.66699 110.001 -29s54.167 -44.5 70.5 -75.5
s24.5 -64.5 24.5 -100.5c0 -56 -12 -108 -36 -156s-58 -101 -102 -159zM855.998 -145l-253.999 -0.000976562c46.667 52 81.667 101 105 147c-40 11.333 -70.5 33 -91.5 65s-31.5 65.667 -31.5 101c0 50.667 17 97.834 51 141.501s84.333 65.5 151 65.5
c56.667 0 105 -18.667 145 -56s60 -87 60 -149c0 -54.667 -9.33301 -102.167 -28 -142.5s-41.334 -79.5 -68.001 -117.5c-14.667 -18.667 -27.667 -37 -39 -55z" />
    <glyph glyph-name="dagger" unicode="&#x2020;" horiz-adv-x="1290" 
d="M459 -287l39 1155l-412 -37v373l412 -37l-39 410h372l-36 -410l409 37v-373l-409 37l36 -1155h-372z" />
    <glyph glyph-name="daggerdbl" unicode="&#x2021;" horiz-adv-x="1393" 
d="M43 883l133 0.000976562v88c0 92.667 12.833 175.667 38.5 249s63.167 134.833 112.5 184.5s107.833 87 175.5 112s143.167 37.5 226.5 37.5c47.333 0 96.5 -4.33301 147.5 -13s106.333 -27.334 166 -56.001s118.667 -75 177 -139s106.5 -147.333 144.5 -250l-309 -115
c-20 60.667 -55.167 118.5 -105.5 173.5s-112.833 82.5 -187.5 82.5c-50 0 -96 -19.833 -138 -59.5s-63 -108.5 -63 -206.5v-88h406v-295h-406v-271h762v-317h-1147v588h-133v295z" />
    <glyph glyph-name="bullet" unicode="&#x2022;" horiz-adv-x="602" 
d="M86 760c0 58 20.666 108.333 61.999 151s92.333 64 153 64c38.667 0 74.5 -9.5 107.5 -28.5s59.167 -45 78.5 -78s29 -69.167 29 -108.5c0 -27.333 -5.5 -54.5 -16.5 -81.5s-26.167 -50.167 -45.5 -69.5s-42.166 -34.833 -68.499 -46.5s-54.5 -17.5 -84.5 -17.5
c-60 0 -110.833 21.333 -152.5 64s-62.5 93 -62.5 151z" />
    <glyph glyph-name="ellipsis" unicode="&#x2026;" horiz-adv-x="2083" 
d="M143 170c0 56 19.832 104.166 59.499 144.499s87.5 60.5 143.5 60.5c36.667 0 70.834 -9.5 102.501 -28.5s56.667 -44.167 75 -75.5s27.5 -65 27.5 -101c0 -55.333 -20 -103.333 -60 -144s-88.333 -61 -145 -61c-38 0 -72.333 9.16699 -103 27.5s-55 43.333 -73 75
s-27 65.834 -27 102.501zM837.999 169.999c0 41.333 10.5 77.668 31.5 109.001s47.167 55.166 78.5 71.499s62 24.5 92 24.5s61.167 -8.16699 93.5 -24.5s59 -40 80 -71s31.5 -67.5 31.5 -109.5s-10.5 -78.5 -31.5 -109.5s-47.667 -54.667 -80 -71s-63.5 -24.5 -93.5 -24.5
c-47.333 0 -92.833 18.5 -136.5 55.5s-65.5 86.833 -65.5 149.5zM1532 170.001c0 41.333 10.333 77.666 31 108.999s47.167 55.166 79.5 71.499s63.833 24.5 94.5 24.5c30 0 60.667 -8.16699 92 -24.5s57.5 -40.166 78.5 -71.499s31.5 -67.666 31.5 -108.999
s-10.5 -77.666 -31.5 -108.999s-47.167 -55.166 -78.5 -71.499s-62 -24.5 -92 -24.5c-30.667 0 -62.167 8.16699 -94.5 24.5s-58.833 40.166 -79.5 71.499s-31 67.666 -31 108.999z" />
    <glyph glyph-name="perthousand" unicode="&#x2030;" horiz-adv-x="3494" 
d="M66 1135c0 56.667 10.6689 111.834 32.002 165.501s52 102.167 92 145.5s88 77.666 144 102.999s117.333 38 184 38c62 0 120.667 -11.667 176 -35s104 -56 146 -98s74.667 -90.167 98 -144.5s35 -112.5 35 -174.5c0 -82.667 -20.833 -159 -62.5 -229
s-97.334 -125.167 -167.001 -165.5s-144.834 -60.5 -225.501 -60.5c-79.333 0 -153.833 20.167 -223.5 60.5s-125.167 95.5 -166.5 165.5s-62 146.333 -62 229zM315.002 1135c0 -60.667 20.6699 -110 62.0029 -148s88.333 -57 141 -57c56 0 104.167 19.833 144.5 59.5
s60.5 88.167 60.5 145.5c0 37.333 -9.16699 71.5 -27.5 102.5s-43.333 55.333 -75 73s-65.834 26.5 -102.501 26.5s-70.334 -8.66699 -101.001 -26s-55.334 -41.5 -74.001 -72.5s-28 -65.5 -28 -103.5zM1540 1632h272l-897 -1814h-272zM1483 385
c0 82.667 20.835 158.999 62.502 228.999s97.167 125.167 166.5 165.5s144.333 60.5 225 60.5c79.333 0 153.666 -20.167 222.999 -60.5s125 -95.5 167 -165.5s63 -146.333 63 -229c0 -62 -11.5 -120.167 -34.5 -174.5s-55.333 -102.5 -97 -144.5
s-90.334 -74.833 -146.001 -98.5s-114.167 -35.5 -175.5 -35.5c-82 0 -158 20.5 -228 61.5s-125.167 96.333 -165.5 166s-60.5 144.834 -60.5 225.501zM1733.01 384.999c0 -56.667 20.001 -104.667 60.001 -144s88 -59 144 -59c55.333 0 103 19.333 143 58s60 87 60 145
c0 38 -9 72.667 -27 104s-42.833 56 -74.5 74s-65.5 27 -101.5 27c-56.667 0 -104.834 -19.833 -144.501 -59.5s-59.5 -88.167 -59.5 -145.5zM2521.01 384.999c0 82.667 20.833 159.002 62.5 229.002s97.334 125.167 167 165.5c69.667 40.333 144.834 60.5 225.5 60.5
c79.333 0 153.833 -20.167 223.5 -60.5s125.167 -95.5 166.5 -165.5s62 -146.333 62 -229c0 -81.333 -20.167 -156.833 -60.5 -226.5s-95.166 -124.834 -164.5 -165.501c-69.333 -40.667 -145 -61 -227 -61s-158.167 20.667 -228.5 62s-125.666 96.666 -166 165.999
c-40.333 69.333 -60.5 144.333 -60.5 225zM2771.01 385.001c0 -37.333 9.16699 -71.667 27.5 -103s43.333 -55.833 75 -73.5s65.834 -26.5 102.5 -26.5c36.667 0 70.5 8.83301 101.5 26.5s55.5 42 73.5 73s27 65.5 27 103.5s-9 72.667 -27 104s-42.833 56 -74.5 74
s-65.167 27 -100.5 27c-36.667 0 -71 -9.16699 -103 -27.5s-57 -43 -75 -74s-27 -65.5 -27 -103.5z" />
    <glyph glyph-name="quilsinglleft" unicode="&#x2039;" horiz-adv-x="662" 
d="M309 1067h295l-254 -455l254 -452h-295l-252 452z" />
    <glyph glyph-name="quilsinglright" unicode="&#x203a;" horiz-adv-x="659" 
d="M352 1067l250 -455l-250 -452h-295l254 452l-254 455h295z" />
    <glyph glyph-name="trademark" unicode="&#x2122;" horiz-adv-x="1104" 
d="M86 1806h360v-106h-112v-369h-135v369h-113v106zM793 1409l-86.001 -0.000976562c-4 31.333 -15 67.833 -33 109.5s-36.667 72.167 -56 91.5v-279h-135v475h135c26.667 -24.667 53.334 -57.5 80.001 -98.5s43.334 -77.167 50.001 -108.5h4c4 22 21.333 57.833 52 107.5
s57 82.834 79 99.501h135v-475h-135v279c-18.667 -16.667 -37.334 -46 -56.001 -88s-30 -79.667 -34 -113z" />
    <glyph glyph-name="periodcentered" unicode="&#x2219;" horiz-adv-x="580" 
d="M86 600c0 56 19.833 104.167 59.5 144.5s87.5 60.5 143.5 60.5c35.333 0 69 -9.33301 101 -28s57.333 -43.834 76 -75.501s28 -65.5 28 -101.5c0 -54.667 -20.167 -102.5 -60.5 -143.5s-88.5 -61.5 -144.5 -61.5c-38 0 -72.333 9.16699 -103 27.5s-55 43.333 -73 75
s-27 65.834 -27 102.501z" />
    <glyph glyph-name=".null" 
 />
    <glyph glyph-name="nonmarkingreturn" 
 />
  </font>
</defs>
</svg>
