<?xml version="1.0" standalone="no"?>
<!DOCTYPE svg PUBLIC "-//W3C//DTD SVG 1.1//EN" "http://www.w3.org/Graphics/SVG/1.1/DTD/svg11.dtd" >
<svg>
<metadata>
Created by FontForge 20090914 at Wed Sep 21 13:24:37 2016
 By www-data
Copyright (c) 2011 by CJSC ROSA. All rights reserved.
</metadata>
<defs>
<font id="ROSAArionWC" horiz-adv-x="1139" >
  <font-face 
    font-family="ROSA ArionWC"
    font-weight="400"
    font-stretch="normal"
    units-per-em="2048"
    panose-1="2 11 6 4 2 2 2 2 2 4"
    ascent="1638"
    descent="-410"
    x-height="1077"
    cap-height="1456"
    bbox="-435 -621 2124 1864"
    underline-thickness="150"
    underline-position="-142"
    unicode-range="U+0020-U+FB02"
  />
<missing-glyph horiz-adv-x="1536" 
d="M1280 1077v-1077h-1024v1077h1024zM1200 1015h-864v-953h864v953z" />
    <glyph glyph-name=".notdef" horiz-adv-x="1536" 
d="M1280 1077v-1077h-1024v1077h1024zM1200 1015h-864v-953h864v953z" />
    <glyph glyph-name="space" unicode=" " horiz-adv-x="569" 
 />
    <glyph glyph-name="exclam" unicode="!" horiz-adv-x="569" 
d="M228 427l-46 282v747h205v-747l-46 -282h-113zM352 213c9.33301 0 17.5 -3.16699 24.5 -9.5s10.5 -14.166 10.5 -23.499v-145c0 -9.33301 -3.5 -17.5 -10.5 -24.5s-15.167 -10.5 -24.5 -10.5h-135c-9.33301 0 -17.5 3.5 -24.5 10.5s-10.5 15.167 -10.5 24.5v145
c0 9.33301 3.5 17.166 10.5 23.499s15.167 9.5 24.5 9.5h135z" />
    <glyph glyph-name="quotedbl" unicode="&#x22;" horiz-adv-x="727" 
d="M99 1489h197v-205l-46 -324h-103l-48 324v205zM431 1489h197v-205l-46 -324h-103l-48 324v205z" />
    <glyph glyph-name="numbersign" unicode="#" 
d="M283 563l41 299h-241l20 126h238l63 468h131l-64 -468h268l63 468h132l-62 -468h240l-20 -126h-240l-39 -299h241l-20 -124h-242l-57 -439h-131l59 439h-267l-60 -439h-132l59 439h-236l17 124h239zM682 563l39 299h-266l-39 -299h266z" />
    <glyph glyph-name="dollar" unicode="$" 
d="M831 1077c-20 132.667 -108.999 199.006 -266.999 199.006c-90.667 0 -159 -17.5 -205 -52.5s-69 -84.5 -69 -148.5c0 -33.333 4 -61.5 12 -84.5s22.5 -43.333 43.5 -61s49.833 -33.834 86.5 -48.501s83.667 -29.667 141 -45c68.667 -18.667 128.5 -36.5 179.5 -53.5
s94.667 -34.5 131 -52.5s66 -36.833 89 -56.5s41.333 -41.334 55 -65.001s23 -49.834 28 -78.501s7.5 -61 7.5 -97c0 -54.667 -9.83301 -105.667 -29.5 -153s-47.5 -88.833 -83.5 -124.5s-79.333 -64.667 -130 -87s-107 -35.833 -169 -40.5v-247h-178v247
c-122 16.667 -216 57.667 -282 123s-104 157.666 -114 276.999l4 6h174c8.66699 -86.667 38.5 -151 89.5 -193s128.167 -63 231.5 -63c46 0 88 5.5 126 16.5s70.5 26.667 97.5 47s48 45.333 63 75s22.5 63.5 22.5 101.5c0 34 -3.83301 63 -11.5 87
s-24.167 45.833 -49.5 65.5s-62.5 38.667 -111.5 57s-114.5 39.5 -196.5 63.5c-76 22 -139.833 44.167 -191.5 66.5s-93.167 47.666 -124.5 75.999s-53.833 60.833 -67.5 97.5s-20.5 80.334 -20.5 131.001s8.83301 97.667 26.5 141s42.5 81 74.5 113s70 57.5 114 76.5
s92.667 30.167 146 33.5v200h178v-200c50 -3.33301 95.833 -13.5 137.5 -30.5s78 -40.333 109 -70s56.167 -64.834 75.5 -105.501s31.666 -86.334 36.999 -137.001l-4 -6h-175z" />
    <glyph glyph-name="percent" unicode="%" horiz-adv-x="1821" 
d="M1479 1456l-928 -1456h-197l928 1456h197zM1407 748c50 0 96.667 -9.5 140 -28.5s81 -45.667 113 -80s57.167 -75.333 75.5 -123s27.5 -99.834 27.5 -156.501c0 -58 -9.16699 -110.333 -27.5 -157s-43.5 -86.5 -75.5 -119.5s-69.667 -58.5 -113 -76.5s-90 -27 -140 -27
s-96.667 9 -140 27s-81 43.5 -113 76.5s-57.167 72.833 -75.5 119.5s-27.5 99 -27.5 157c0 56.667 9.16699 108.834 27.5 156.501s43.5 88.667 75.5 123s69.667 61 113 80s90 28.5 140 28.5zM1407 598c-29.333 0 -55 -6 -77 -18s-40.5 -28.5 -55.5 -49.5
s-26.333 -46 -34 -75s-11.5 -60.833 -11.5 -95.5c0 -74.667 15 -131.667 45 -171s74.333 -59 133 -59c60.667 0 105.5 20.167 134.5 60.5s43.5 96.833 43.5 169.5c0 34.667 -3.66699 66.5 -11 95.5s-18.333 54 -33 75s-33.167 37.5 -55.5 49.5s-48.5 18 -78.5 18zM424 1476
c50 0 96.667 -9.66699 140 -29s81 -46 113 -80s57.167 -74.667 75.5 -122s27.5 -99 27.5 -155c0 -58 -9.16699 -110.5 -27.5 -157.5s-43.5 -87 -75.5 -120s-69.667 -58.5 -113 -76.5s-90 -27 -140 -27s-96.667 9 -140 27s-81 43.5 -113 76.5s-57.167 73 -75.5 120
s-27.5 99.5 -27.5 157.5c0 56 9.16699 107.667 27.5 155s43.5 88 75.5 122s69.667 60.667 113 80s90 29 140 29zM424 1326c-29.333 0 -55 -6.00098 -77 -18.001s-40.5 -28.5 -55.5 -49.5s-26.333 -45.833 -34 -74.5s-11.5 -60 -11.5 -94c0 -154 59.333 -231 178 -231
c60.667 0 105.5 19.833 134.5 59.5s43.5 96.834 43.5 171.501c0 34 -3.66699 65.333 -11 94s-18.333 53.5 -33 74.5s-33.167 37.5 -55.5 49.5s-48.5 18 -78.5 18z" />
    <glyph glyph-name="ampersand" unicode="&#x26;" horiz-adv-x="1366" 
d="M1169 684l5.00195 -6.00098c-15.333 -74.667 -34.333 -140.167 -57 -196.5s-49 -106.833 -79 -151.5l284 -324l-2 -6h-243l-153 172c-114 -128 -254.667 -192 -422 -192c-74 0 -140.167 10 -198.5 30s-107.5 48.333 -147.5 85s-70.5 81 -91.5 133
s-31.5 109.667 -31.5 173c0 92 29.333 173.167 88 243.5s148 133.833 268 190.5c-56 64.667 -96.167 123.334 -120.5 176.001s-36.5 101 -36.5 145c0 46 9 88.5 27 127.5s42.833 72.833 74.5 101.5s69.167 51 112.5 67s90.666 24 141.999 24
c46.667 0 90.667 -7.33301 132 -22s77.166 -35.5 107.499 -62.5s54.333 -59.5 72 -97.5s26.5 -80 26.5 -126c0 -133.333 -93 -251.333 -279 -354l268 -335c15.333 32 29 64.667 41 98s21.667 69 29 107h184zM557.002 926.999c62.667 34.667 110.167 71.833 142.5 111.5
s48.5 81.5 48.5 125.5c0 25.333 -4.16699 48 -12.5 68s-20 37 -35 51s-32.667 24.667 -53 32s-42.833 11 -67.5 11c-50.667 0 -90 -13.5 -118 -40.5s-42 -64.5 -42 -112.5c0 -26 6.16699 -54.833 18.5 -86.5s35.5 -66.5 69.5 -104.5zM479.002 719.998
c-172 -97.333 -257.999 -199.333 -257.999 -306c0 -43.333 5.83301 -82.5 17.5 -117.5s29.167 -64.833 52.5 -89.5s52.666 -43.667 87.999 -57s77 -20 125 -20c30.667 0 61 4.33301 91 13s58.5 21 85.5 37s51.833 35.167 74.5 57.5s42 46.833 58 73.5z" />
    <glyph glyph-name="quotesingle" unicode="'" horiz-adv-x="391" 
d="M97 1489h197v-205l-46 -324h-103l-48 324v205z" />
    <glyph glyph-name="parenleft" unicode="(" horiz-adv-x="682" 
d="M434 -420c-49.333 66.667 -94 138.831 -134 216.498s-74 157.667 -102 240s-49.5 165.833 -64.5 250.5s-22.5 167.334 -22.5 248.001s7.5 163.167 22.5 247.5s36.5 167.833 64.5 250.5s62 162.667 102 240s84.667 149.333 134 216h140l3 -6
c-94 -159.333 -163.833 -317.5 -209.5 -474.5s-68.5 -314.833 -68.5 -473.5c0 -159.333 22.833 -317.666 68.5 -474.999s115.5 -315.333 209.5 -474l-3 -6h-140v0z" />
    <glyph glyph-name="parenright" unicode=")" horiz-adv-x="682" 
d="M383 534c0 158.667 -22.833 316.67 -68.5 474.003s-115.5 315.666 -209.5 474.999l3 6h140c49.333 -66.667 94 -138.834 134 -216.501s74 -157.667 102 -240s49.5 -165.833 64.5 -250.5s22.5 -167.334 22.5 -248.001s-7.5 -163.167 -22.5 -247.5
s-36.5 -167.833 -64.5 -250.5s-62 -162.667 -102 -240s-84.667 -149.333 -134 -216h-140l-3 6c94 158.667 163.833 316.5 209.5 473.5s68.5 315.167 68.5 474.5z" />
    <glyph glyph-name="asterisk" unicode="*" horiz-adv-x="797" 
d="M324 1452l34 37h74l33 -37l-19 -229h-106zM651 1352l47 -11l37 -65l-16 -45l-209 -98l-55 90zM68 1231l-17 45l37 65l47 11l197 -129l-56 -90zM463 803l-35 -37h-74l-32 37l18 229h106zM135 903l-47 10l-37 66l17 45l208 100l56 -92zM719 1024l16 -45l-37 -66l-47 -10
l-196 129l55 92z" />
    <glyph glyph-name="plus" unicode="+" horiz-adv-x="1196" 
d="M118 765h390v393h178v-393h392v-158h-392v-393h-178v393h-390v158z" />
    <glyph glyph-name="comma" unicode="," horiz-adv-x="569" 
d="M285 -86c2 3.33301 3.5 8 4.5 14s1.5 11 1.5 15v57h-68c-9.33301 0 -17.5 3.5 -24.5 10.5s-10.5 15.167 -10.5 24.5v147c0 9.33301 3.5 17.166 10.5 23.499s15.167 9.5 24.5 9.5h135c9.33301 0 17.5 -3.16699 24.5 -9.5s10.5 -14.166 10.5 -23.499v-261
c0 -8.66699 -1.83301 -18 -5.5 -28s-9.16699 -19.333 -16.5 -28l-111 -133c-7.33301 -8 -16 -12 -26 -12c-9.33301 0 -17 2.66699 -23 8l-10 8c-4.66699 3.33301 -8 6.33301 -10 9s-3 6.33398 -3 11.001c0 5.33301 2.33301 11.666 7 18.999z" />
    <glyph glyph-name="hyphen" unicode="-" horiz-adv-x="682" 
d="M74 625h534v-158h-534v158z" />
    <glyph glyph-name="period" unicode="." horiz-adv-x="569" 
d="M352 215c9.33301 0 17.5 -3.16699 24.5 -9.5s10.5 -14.166 10.5 -23.499v-147c0 -9.33301 -3.5 -17.5 -10.5 -24.5s-15.167 -10.5 -24.5 -10.5h-135c-9.33301 0 -17.5 3.5 -24.5 10.5s-10.5 15.167 -10.5 24.5v147c0 9.33301 3.5 17.166 10.5 23.499s15.167 9.5 24.5 9.5
h135z" />
    <glyph glyph-name="slash" unicode="/" horiz-adv-x="569" 
d="M-6 -20l452 1509h129l-452 -1509h-129z" />
    <glyph glyph-name="zero" unicode="0" 
d="M1047 731c0 -132.667 -9.49805 -246.332 -28.498 -340.999s-48 -172.334 -87 -233.001s-88.5 -105.334 -148.5 -134.001s-131.333 -43 -214 -43c-83.333 0 -155 14.167 -215 42.5s-109.5 72.833 -148.5 133.5s-67.667 138.334 -86 233.001s-27.5 208.667 -27.5 342
c0 130.667 9.16699 243 27.5 337s46.666 171.167 84.999 231.5s87.666 104.833 147.999 133.5s132.5 43 216.5 43c82.667 0 154.167 -14.333 214.5 -43s110 -73.167 149 -133.5s67.833 -137.5 86.5 -231.5s28 -206.333 28 -337zM869.002 731.002
c0 110.667 -5.49902 203.666 -16.499 278.999s-28.5 135.666 -52.5 180.999s-55 77.833 -93 97.5s-84 29.5 -138 29.5c-54.667 0 -101 -9.83301 -139 -29.5s-68.833 -52.167 -92.5 -97.5s-40.834 -105.666 -51.501 -180.999s-16 -168.333 -16 -279
c0 -111.333 5.5 -204.666 16.5 -279.999s28.5 -136.333 52.5 -183s54.833 -80 92.5 -100s83.5 -30 137.5 -30s100 9.83301 138 29.5s69 52.667 93 99s41.5 107.333 52.5 183s16.5 169.5 16.5 281.5z" />
    <glyph glyph-name="one" unicode="1" 
d="M301 1080l-10 3l-47 123l311 256h115v-1304h272v-158h-731v158h281v999z" />
    <glyph glyph-name="two" unicode="2" 
d="M104 0l0.000976562 30.9951c0 21.333 1.33301 41 4 59s9.5 38 20.5 60s27.833 47.5 50.5 76.5s53.667 65 93 108l147.5 155l215.5 217.5c42.667 42.667 77.667 79.834 105 111.501s49 61.167 65 88.5s27.167 54.5 33.5 81.5s9.5 57.167 9.5 90.5
c0 32.667 -6.33301 63.5 -19 92.5s-30.167 54.333 -52.5 76s-49.166 38.834 -80.499 51.501s-66 19 -104 19c-41.333 0 -79 -6.66699 -113 -20s-63 -31.666 -87 -54.999s-42.5 -51.333 -55.5 -84s-19.5 -68 -19.5 -106v-31h-178v31c0 63.333 10.5 121 31.5 173
s51.167 96.5 90.5 133.5s86.833 65.667 142.5 86s118.5 30.5 188.5 30.5c63.333 0 121.666 -10 174.999 -30s99.166 -47.667 137.499 -83s68.166 -77.166 89.499 -125.499s32 -101.166 32 -158.499c0 -80.667 -19.5 -157.167 -58.5 -229.5s-95.833 -143.833 -170.5 -214.5
l-159 -152.5l-114.5 -111.5l-78 -79c-20.333 -21.333 -37.166 -40 -50.499 -56s-24 -30 -32 -42s-15 -24 -21 -36h711v-158h-949z" />
    <glyph glyph-name="three" unicode="3" 
d="M276 381c24.667 -162 116.999 -242.999 276.999 -242.999c98.667 0 173.834 26.833 225.501 80.5s77.5 136.5 77.5 248.5c0 96.667 -27.833 169 -83.5 217s-137.167 72 -244.5 72h-94l-35 118l373 424h-602v158h819v-158l-352 -397c136 -16 236.167 -60.5 300.5 -133.5
s96.5 -169.833 96.5 -290.5c0 -74.667 -11.333 -142.5 -34 -203.5s-54.834 -113.333 -96.501 -157s-92.167 -77.334 -151.5 -101.001s-125.666 -35.5 -198.999 -35.5c-130 0 -232.5 32.5 -307.5 97.5s-123.833 164.5 -146.5 298.5l4 5h173z" />
    <glyph glyph-name="four" unicode="4" 
d="M700 0v358h-627l-12 156l637 942h212l3 -6l-667 -942h454v465l173 102l5 -4v-563h198v-150h-198v-358h-178z" />
    <glyph glyph-name="five" unicode="5" 
d="M975 1300l-632.001 -0.000976562l-18 -411c40.667 24.667 85.167 43.5 133.5 56.5s99.5 19.5 153.5 19.5c66 0 125.333 -10.333 178 -31s97.334 -50.667 134.001 -90s64.834 -87.166 84.501 -143.499s29.5 -120.5 29.5 -192.5c0 -84 -10.833 -158.833 -32.5 -224.5
s-53 -121 -94 -166s-91.5 -79.167 -151.5 -102.5s-128.333 -35 -205 -35c-134 0 -239.833 35.5 -317.5 106.5s-121.834 172.833 -132.501 305.5l4 5h174c26 -178 116.667 -267 272 -267c203.333 0 305 120.667 305 362c0 215.333 -90.667 323 -272 323
c-66.667 0 -123.167 -9.33301 -169.5 -28s-84.5 -46 -114.5 -82l-157 22l26 731h802v-158z" />
    <glyph glyph-name="six" unicode="6" 
d="M836 1122c-20.667 136 -100.001 203.998 -238.001 203.998c-52.667 0 -98.167 -9.16699 -136.5 -27.5s-70.166 -47.5 -95.499 -87.5s-44.166 -91.833 -56.499 -155.5s-18.5 -140.5 -18.5 -230.5v-20h6c68.667 86.667 175 130 319 130c66 0 125 -10.333 177 -31
s96 -50.667 132 -90s63.5 -87.666 82.5 -144.999s28.5 -122.666 28.5 -195.999c0 -74 -11 -141.333 -33 -202s-53.167 -112.5 -93.5 -155.5s-88.833 -76.333 -145.5 -100s-119.667 -35.5 -189 -35.5c-81.333 0 -151.166 12.5 -209.499 37.5s-106.166 64 -143.499 117
s-64.833 120.333 -82.5 202s-26.5 179.167 -26.5 292.5c0 152 9.16699 281.667 27.5 389s47.166 194.833 86.499 262.5s89.666 117.167 150.999 148.5s134.666 47 219.999 47c126 0 222.333 -28.333 289 -85s106.667 -145 120 -265l-4 -4h-167zM857.999 465.998
c0 56.667 -5.33301 105.167 -16 145.5s-27.5 73.333 -50.5 99s-52.333 44.5 -88 56.5s-78.5 18 -128.5 18c-44.667 0 -84.5 -7 -119.5 -21s-64.667 -34 -89 -60s-43 -57.833 -56 -95.5s-19.5 -80.5 -19.5 -128.5c0 -120.667 23.167 -209.167 69.5 -265.5
s116.5 -84.5 210.5 -84.5c96 0 167.833 27 215.5 81s71.5 139 71.5 255z" />
    <glyph glyph-name="seven" unicode="7" 
d="M1036 1456l0.000976562 -156c-146.667 -250.667 -260.334 -484.334 -341.001 -701.001s-128.667 -416.334 -144 -599.001h-185l-4 4c22.667 180.667 76.167 378.334 160.5 593.001s199.5 448.334 345.5 701.001h-766v158h934z" />
    <glyph glyph-name="eight" unicode="8" 
d="M569 1476c62 0 119.166 -8.66504 171.499 -25.998s97.5 -41.833 135.5 -73.5s67.667 -69.834 89 -114.501s32 -94.667 32 -150c0 -72 -20.333 -134.833 -61 -188.5s-95.667 -95.834 -165 -126.501v-4c39.333 -14 76.5 -34 111.5 -60s65.5 -56 91.5 -90
s46.5 -71.167 61.5 -111.5s22.5 -81.5 22.5 -123.5c0 -64.667 -11.833 -123.334 -35.5 -176.001s-57 -97.667 -100 -135s-94.5 -66.166 -154.5 -86.499s-126.333 -30.5 -199 -30.5s-139 10 -199 30s-111.5 48.667 -154.5 86s-76.333 82.333 -100 135
s-35.5 111.667 -35.5 177c0 42.667 7.33301 84.167 22 124.5s34.834 77.5 60.501 111.5s56 63.833 91 89.5s72.833 45.5 113.5 59.5v4c-75.333 30 -131.833 70.5 -169.5 121.5s-56.5 115.5 -56.5 193.5c0 54.667 10.833 104.5 32.5 149.5s51.667 83.333 90 115
s83.5 56.167 135.5 73.5s108.667 26 170 26zM568.999 860.002c32.667 0 64.168 6.50293 94.501 19.5029s57 30.5 80 52.5s41.333 47.833 55 77.5s20.5 61.167 20.5 94.5s-6.33301 63.666 -19 90.999s-30.167 50.666 -52.5 69.999s-48.833 34.333 -79.5 45s-63.667 16 -99 16
c-34 0 -66 -5.83301 -96 -17.5s-56.5 -27.5 -79.5 -47.5s-41.167 -43.5 -54.5 -70.5s-20 -55.833 -20 -86.5c0 -36 6.16699 -69 18.5 -99s29.666 -55.833 51.999 -77.5s48.833 -38.334 79.5 -50.001s64 -17.5 100 -17.5zM569 710.005c-43.333 0 -83.833 -7.33301 -121.5 -22
s-70.5 -35 -98.5 -61s-50.167 -57.167 -66.5 -93.5s-24.5 -75.833 -24.5 -118.5c0 -44 7.83301 -83.667 23.5 -119s37.167 -65.333 64.5 -90s60 -43.5 98 -56.5s79.667 -19.5 125 -19.5c43.333 0 84 6.83301 122 20.5s71 33 99 58s50 55 66 90s24 73.833 24 116.5
s-8.16699 82.167 -24.5 118.5s-38.5 67.5 -66.5 93.5s-61 46.333 -99 61s-78.333 22 -121 22z" />
    <glyph glyph-name="nine" unicode="9" 
d="M297 334c20 -136 101.336 -203.996 244.003 -203.996c52 0 97.333 9.33301 136 28s70.667 48.167 96 88.5s44.166 92.166 56.499 155.499s18.5 139.666 18.5 228.999v20h-6c-65.333 -87.333 -172 -131 -320 -131c-68 0 -128 10.5 -180 31.5s-95.833 51.5 -131.5 91.5
s-62.5 88.667 -80.5 146s-27 122 -27 194c0 73.333 10.833 140.166 32.5 200.499s52.5 112.166 92.5 155.499s88.333 77 145 101s120 36 190 36c81.333 0 151.166 -12.667 209.499 -38s106.333 -64.333 144 -117s65.334 -120 83.001 -202s26.5 -179.333 26.5 -292
c0 -151.333 -9.16699 -280.5 -27.5 -387.5s-47 -194.5 -86 -262.5s-89.167 -117.833 -150.5 -149.5s-135 -47.5 -221 -47.5c-122.667 0 -219.334 29.167 -290.001 87.5s-112.334 145.833 -125.001 262.5l3 4h168zM281.003 989.004c0 -56 5.33105 -104.167 15.998 -144.5
s27.334 -73.5 50.001 -99.5s51.834 -45 87.501 -57s78.5 -18 128.5 -18c48 0 90 7.5 126 22.5s65.667 35.833 89 62.5s40.833 58.667 52.5 96s17.5 78.666 17.5 123.999c0 120.667 -23.333 209.334 -70 266.001s-117 85 -211 85c-96.667 0 -168.5 -27 -215.5 -81
s-70.5 -139.333 -70.5 -256z" />
    <glyph glyph-name="colon" unicode=":" horiz-adv-x="569" 
d="M182 1042c0 9.33301 3.5 17.5 10.5 24.5s15.167 10.5 24.5 10.5h135c9.33301 0 17.5 -3.5 24.5 -10.5s10.5 -15.167 10.5 -24.5v-147c0 -9.33301 -3.5 -17.166 -10.5 -23.499s-15.167 -9.5 -24.5 -9.5h-135c-9.33301 0 -17.5 3.16699 -24.5 9.5
s-10.5 14.166 -10.5 23.499v147zM182 182c0 9.33301 3.5 17.166 10.5 23.499s15.167 9.5 24.5 9.5h135c9.33301 0 17.5 -3.16699 24.5 -9.5s10.5 -14.166 10.5 -23.499v-147c0 -9.33301 -3.5 -17.5 -10.5 -24.5s-15.167 -10.5 -24.5 -10.5h-135
c-9.33301 0 -17.5 3.5 -24.5 10.5s-10.5 15.167 -10.5 24.5v147z" />
    <glyph glyph-name="semicolon" unicode=";" horiz-adv-x="569" 
d="M182 1042c0 9.33301 3.5 17.5 10.5 24.5s15.167 10.5 24.5 10.5h135c9.33301 0 17.5 -3.5 24.5 -10.5s10.5 -15.167 10.5 -24.5v-147c0 -9.33301 -3.5 -17.166 -10.5 -23.499s-15.167 -9.5 -24.5 -9.5h-135c-9.33301 0 -17.5 3.16699 -24.5 9.5
s-10.5 14.166 -10.5 23.499v147zM279 -66c2 3.33301 3.5 8 4.5 14s1.5 11 1.5 15v37h-68c-9.33301 0 -17.5 3.5 -24.5 10.5s-10.5 15.167 -10.5 24.5v147c0 9.33301 3.5 17.166 10.5 23.499s15.167 9.5 24.5 9.5h135c9.33301 0 17.5 -3.16699 24.5 -9.5
s10.5 -14.166 10.5 -23.499v-241c0 -8.66699 -1.83301 -18 -5.5 -28s-9.16699 -19.333 -16.5 -28l-111 -133c-7.33301 -8 -16 -12 -26 -12c-8 0 -15.667 2.66699 -23 8l-10 8c-9.33301 8 -14 17.333 -14 28c0 5.33301 2.33301 11 7 17z" />
    <glyph glyph-name="less" unicode="&#x3c;" horiz-adv-x="1196" 
d="M147 733l881 410l21 -178l-715 -318l715 -317l-21 -183l-881 418v168z" />
    <glyph glyph-name="equal" unicode="=" horiz-adv-x="1196" 
d="M1053 822h-910v158h910v-158zM1053 384h-910v158h910v-158z" />
    <glyph glyph-name="greater" unicode="&#x3e;" horiz-adv-x="1196" 
d="M862 647l-715 318l21 178l881 -410v-168l-881 -418l-21 183z" />
    <glyph glyph-name="question" unicode="?" 
d="M112 1077l-4.00195 5.99902c21.333 134 70.333 233 147 297s182 96 316 96c312.667 0 469 -124.667 469 -374c0 -34 -3.5 -64.833 -10.5 -92.5s-17.667 -54 -32 -79s-32.166 -49.667 -53.499 -74s-46 -49.833 -74 -76.5l-82 -78c-28 -26 -50.333 -50.333 -67 -73
s-29.667 -43.334 -39 -62.001c-20.667 -42 -31 -97.333 -31 -166v-20h-172v37c0 43.333 3.83301 82 11.5 116s19.334 65.833 35.001 95.5s35 58.334 58 86.001s49.833 56.834 80.5 87.501l81 82c78 78 117 150.333 117 217c0 149.333 -95.667 224 -287 224
c-159.333 0 -255 -83 -287 -249h-176zM632.998 212.999c9.33301 0 17.5 -3.16699 24.5 -9.5s10.5 -14.166 10.5 -23.499v-145c0 -9.33301 -3.5 -17.5 -10.5 -24.5s-15.167 -10.5 -24.5 -10.5h-135c-9.33301 0 -17.5 3.5 -24.5 10.5s-10.5 15.167 -10.5 24.5v145
c0 9.33301 3.5 17.166 10.5 23.499s15.167 9.5 24.5 9.5h135z" />
    <glyph glyph-name="at" unicode="@" horiz-adv-x="2079" 
d="M1620 215c32 24.667 60.6709 53.6709 86.0039 87.0039s46.833 69.833 64.5 109.5s31.167 81.5 40.5 125.5s14 89 14 135c0 96.667 -18 184.167 -54 262.5s-86.833 145 -152.5 200s-144.667 97.333 -237 127s-194.5 44.5 -306.5 44.5
c-123.333 0 -235.333 -18.5 -336 -55.5s-186.834 -89.167 -258.501 -156.5s-127 -148.333 -166 -243s-58.5 -199.334 -58.5 -314.001c0 -122.667 18.833 -232.667 56.5 -330s92.167 -179.833 163.5 -247.5s158.333 -119.5 261 -155.5s218.667 -54 348 -54
c106 0 204.833 13.833 296.5 41.5s177.834 70.834 258.501 129.501l89 -150c-96.667 -56.667 -198.834 -99.334 -306.501 -128.001s-223.5 -43 -347.5 -43c-149.333 0 -285.333 22.167 -408 66.5s-227.667 107.333 -315 189s-154.833 180.167 -202.5 295.5
s-71.5 244 -71.5 386c0 89.333 11 174 33 254s53.667 154.167 95 222.5s91.5 129.666 150.5 183.999s125.167 100.666 198.5 138.999s153.5 67.833 240.5 88.5s178.833 31 275.5 31c137.333 0 263.166 -17.833 377.499 -53.5s212.5 -86.834 294.5 -153.501
s145.833 -147.5 191.5 -242.5s68.5 -201.833 68.5 -320.5c0 -65.333 -7.33301 -128 -22 -188s-35.834 -116.167 -63.501 -168.5s-61.667 -100 -102 -143s-86.5 -80.5 -138.5 -112.5h-355l-18 139c-17.333 -20.667 -38.166 -40 -62.499 -58s-50.5 -33.5 -78.5 -46.5
s-57.5 -23.333 -88.5 -31s-61.5 -11.5 -91.5 -11.5c-64 0 -122.5 10.333 -175.5 31s-98.333 50.5 -136 89.5s-66.834 86.5 -87.501 142.5s-31 119 -31 189c0 64 11 124 33 180s52.5 104.667 91.5 146s85.667 74 140 98s114.166 36 179.499 36
c68.667 0 127.667 -10.5 177 -31.5s92 -50.5 128 -88.5l18 111h153v-754h147zM1295 520.004c0 100.667 -24.1689 177.167 -72.502 229.5s-117.166 78.5 -206.499 78.5c-44.667 0 -84.667 -7.16699 -120 -21.5s-65.166 -34.833 -89.499 -61.5s-43 -59.167 -56 -97.5
s-19.5 -81.5 -19.5 -129.5c0 -201.333 87.333 -302 262 -302c45.333 0 86.5 7.16699 123.5 21.5s68.833 34.833 95.5 61.5s47.167 58.667 61.5 96s21.5 79 21.5 125z" />
    <glyph glyph-name="A" unicode="A" horiz-adv-x="1366" 
d="M1157 0l-145 420h-658l-145 -420h-197l535 1456h272l535 -1456h-197zM688 1333h-8l-270 -755h546z" />
    <glyph glyph-name="B" unicode="B" horiz-adv-x="1366" 
d="M160 1456l556.998 0.000976562c66.667 0 129.167 -7.16699 187.5 -21.5s109.166 -36.5 152.499 -66.5s77.333 -68.5 102 -115.5s37 -103.5 37 -169.5c0 -33.333 -3.33301 -65 -10 -95s-18 -58 -34 -84s-37.167 -50.333 -63.5 -73s-59.5 -43.334 -99.5 -62.001v-7
c42.667 -12 81.334 -28.333 116.001 -49s64.334 -45.334 89.001 -74.001s43.834 -61.167 57.501 -97.5s20.5 -76.166 20.5 -119.499c0 -141.333 -45.333 -247 -136 -317s-227.667 -105 -411 -105h-565v1456zM347.998 829.001l234.001 0.000976562
c66.667 0 126.5 3.5 179.5 10.5s97.667 19.167 134 36.5s64.166 41 83.499 71s29 68 29 114c0 48.667 -7.83301 88.5 -23.5 119.5s-38.5 55.167 -68.5 72.5s-67.167 29.166 -111.5 35.499s-94.833 9.5 -151.5 9.5h-305v-469zM347.999 158.002h377
c118 0 205.833 22.333 263.5 67s86.5 110.334 86.5 197.001c0 50.667 -9.66699 92.667 -29 126s-46 59.666 -80 78.999s-74 32.833 -120 40.5s-96 11.5 -150 11.5h-348v-521z" />
    <glyph glyph-name="C" unicode="C" horiz-adv-x="1479" 
d="M299 730c0 -84.667 8.6709 -163.165 26.0039 -235.498s44.833 -134.833 82.5 -187.5s86.334 -94 146.001 -124s131.834 -45 216.501 -45c58.667 0 113 6.33301 163 19s93.833 32.5 131.5 59.5s68.5 61.833 92.5 104.5s39.333 93.667 46 153h192l5 -7
c-10.667 -82 -33.667 -153.5 -69 -214.5s-80.5 -111.667 -135.5 -152s-118.667 -70.5 -191 -90.5s-150.5 -30 -234.5 -30c-112.667 0 -210.834 17.5 -294.501 52.5s-153.167 85 -208.5 150s-96.666 143.667 -123.999 236s-41 196.166 -41 311.499
c0 112.667 14.667 215 44 307s72.666 170.5 129.999 235.5s128.166 115.167 212.499 150.5s181.5 53 291.5 53c73.333 0 142.666 -8.66699 207.999 -26s124.166 -44.333 176.499 -81s97.166 -83.834 134.499 -141.501s64.333 -126.834 81 -207.501l-4 -7h-190
c-16 53.333 -35.5 99.166 -58.5 137.499s-50.833 70 -83.5 95s-70.667 43.333 -114 55s-93.333 17.5 -150 17.5c-84.667 0 -157.334 -13.833 -218.001 -41.5s-110.5 -67.167 -149.5 -118.5s-67.667 -113.166 -86 -185.499s-27.5 -153.166 -27.5 -242.499z" />
    <glyph glyph-name="D" unicode="D" horiz-adv-x="1479" 
d="M162 1456h540c450 0 675 -239.667 675 -719c0 -115.333 -14 -218.5 -42 -309.5s-70.5 -168.167 -127.5 -231.5s-128.333 -111.833 -214 -145.5s-186.167 -50.5 -301.5 -50.5h-530v1456zM350 158h320c84.667 0 159 13 223 39s117.167 63.667 159.5 113
s74.166 110 95.499 182s32 153.667 32 245c0 92.667 -9.66699 174 -29 244s-49.666 128.5 -90.999 175.5s-94.5 82.333 -159.5 106s-143.167 35.5 -234.5 35.5h-316v-1140z" />
    <glyph glyph-name="E" unicode="E" horiz-adv-x="1366" 
d="M1251 0h-1079v1456h1049v-158h-861v-462h705v-158h-705v-520h891v-158z" />
    <glyph glyph-name="F" unicode="F" horiz-adv-x="1251" 
d="M168 1456h987v-158h-799v-467h654v-158h-654v-673h-188v1456z" />
    <glyph glyph-name="G" unicode="G" horiz-adv-x="1593" 
d="M1257 1024c-14 56 -34.834 102.668 -62.501 140.001s-61.167 67.5 -100.5 90.5s-83.5 39.333 -132.5 49s-101.5 14.5 -157.5 14.5c-88 0 -163.333 -12.5 -226 -37.5s-114.167 -62 -154.5 -111s-70 -110 -89 -183s-28.5 -157.5 -28.5 -253.5
c0 -82.667 9.16699 -160.167 27.5 -232.5s47.5 -135.333 87.5 -189s91.5 -96 154.5 -127s139.167 -46.5 228.5 -46.5c48.667 0 92.834 2 132.501 6s77.167 10.5 112.5 19.5s70.166 21.167 104.499 36.5s70.5 34.666 108.5 57.999v299h-416v158h604v-542
c-40 -26.667 -82.5 -51.667 -127.5 -75s-93.667 -43.833 -146 -61.5s-109.166 -31.5 -170.499 -41.5s-128 -15 -200 -15c-118.667 0 -221.667 17.833 -309 53.5s-159.833 86.167 -217.5 151.5s-100.5 144.5 -128.5 237.5s-42 196.5 -42 310.5c0 120 14.667 226.167 44 318.5
s73.166 170 131.499 233s130.833 110.667 217.5 143s187.334 48.5 302.001 48.5c83.333 0 161.5 -9.66699 234.5 -29s137.5 -47.833 193.5 -85.5s102.5 -84 139.5 -139s61.167 -118.167 72.5 -189.5l-5 -9h-182z" />
    <glyph glyph-name="H" unicode="H" horiz-adv-x="1479" 
d="M166 1456h188v-610h771v610h188v-1456h-188v688h-771v-688h-188v1456z" />
    <glyph glyph-name="I" unicode="I" horiz-adv-x="569" 
d="M190 1456h188v-1456h-188v1456z" />
    <glyph glyph-name="J" unicode="J" horiz-adv-x="1024" 
d="M864 467c0 -165.333 -34.834 -287.834 -104.501 -367.501s-172.834 -119.5 -309.501 -119.5c-61.333 0 -117.166 9 -167.499 27s-93.5 45.333 -129.5 82s-63.833 83.167 -83.5 139.5s-29.5 122.5 -29.5 198.5l4 5h184c0 -101.333 18.333 -175.666 55 -222.999
s92.334 -71 167.001 -71c48 0 86.833 7.33301 116.5 22s52.5 35.667 68.5 63s26.833 60.5 32.5 99.5s8.5 82.5 8.5 130.5v845h-376v158h564v-989z" />
    <glyph glyph-name="K" unicode="K" horiz-adv-x="1366" 
d="M162 1456h188v-608h135l590 608h250v-12l-672 -662l699 -770v-12h-242l-616 690h-144v-690h-188v1456z" />
    <glyph glyph-name="L" unicode="L" 
d="M166 1456h188v-1298h731v-158h-919v1456z" />
    <glyph glyph-name="M" unicode="M" horiz-adv-x="1706" 
d="M160 1456h250l439 -909h6l441 909h250v-1456h-188v1161h-6l-428 -866h-142l-428 866h-6v-1161h-188v1456z" />
    <glyph glyph-name="N" unicode="N" horiz-adv-x="1479" 
d="M160 1456h188l774 -1132h6v1132h188v-1456h-188l-774 1132h-6v-1132h-188v1456z" />
    <glyph glyph-name="O" unicode="O" horiz-adv-x="1593" 
d="M797 138c96 0 175.667 14.833 239 44.5s114 70.667 152 123s64.833 114.5 80.5 186.5s23.5 150.333 23.5 235s-7.83301 163 -23.5 235s-42.5 134.333 -80.5 187s-88.667 94 -152 124s-143 45 -239 45s-175.833 -15 -239.5 -45s-114.5 -71.333 -152.5 -124
s-64.833 -115 -80.5 -187s-23.5 -150.333 -23.5 -235s7.83301 -163 23.5 -235s42.5 -134.167 80.5 -186.5s88.833 -93.333 152.5 -123s143.5 -44.5 239.5 -44.5zM797 1476c124 0 229.667 -18.667 317 -56s158.833 -89.166 214.5 -155.499s96.334 -145.333 122.001 -237
s38.5 -191.834 38.5 -300.501s-12.833 -208.667 -38.5 -300s-66.334 -170.166 -122.001 -236.499s-127.167 -118 -214.5 -155s-193 -55.5 -317 -55.5s-229.833 18.5 -317.5 55.5s-159.334 88.667 -215.001 155s-96.334 145.166 -122.001 236.499s-38.5 191.333 -38.5 300
s12.833 208.834 38.5 300.501s66.334 170.667 122.001 237s127.334 118.166 215.001 155.499s193.5 56 317.5 56z" />
    <glyph glyph-name="P" unicode="P" horiz-adv-x="1366" 
d="M170 1456l514 0.00292969c84.667 0 161.667 -7 231 -21s128.333 -37.833 177 -71.5s86.334 -78.334 113.001 -134.001s40 -124.834 40 -207.501c0 -74 -14 -139.167 -42 -195.5s-66.833 -103.833 -116.5 -142.5s-108.834 -67.834 -177.501 -87.501
s-143.667 -29.5 -225 -29.5h-326v-567h-188v1456zM358 725.003l316.001 0.000976562c122.667 0 215.667 24.833 279 74.5s95 121.167 95 214.5c0 53.333 -9.16699 98.166 -27.5 134.499s-44.333 65.5 -78 87.5s-74.334 37.833 -122.001 47.5s-100.5 14.5 -158.5 14.5h-304
v-573z" />
    <glyph glyph-name="Q" unicode="Q" horiz-adv-x="1593" 
d="M797 145c96 0 175.667 14.5 239 43.5s114 69.167 152 120.5s64.833 112.666 80.5 183.999s23.5 149.333 23.5 234s-7.83301 163 -23.5 235s-42.5 134.333 -80.5 187s-88.667 94 -152 124s-143 45 -239 45s-175.833 -15 -239.5 -45s-114.5 -71.333 -152.5 -124
s-64.833 -115 -80.5 -187s-23.5 -150.333 -23.5 -235s7.83301 -162.667 23.5 -234s42.5 -132.666 80.5 -183.999s88.833 -91.5 152.5 -120.5s143.5 -43.5 239.5 -43.5zM943 -5c1.33301 -26.667 6.66406 -51.165 15.9971 -73.498s23.333 -41.5 42 -57.5s42 -28.5 70 -37.5
s61.667 -13.5 101 -13.5h152l10 -158h-162c-127.333 0 -226 25.5 -296 76.5s-110.667 123.833 -122 218.5l-4 37c-115.333 4.66699 -213.833 26.167 -295.5 64.5s-148.5 90 -200.5 155s-90 141.667 -114 230s-36 185.166 -36 290.499c0 108.667 12.833 208.834 38.5 300.501
s66.334 170.667 122.001 237s127.334 118.166 215.001 155.499s193.5 56 317.5 56s229.667 -18.667 317 -56s158.833 -89.166 214.5 -155.499s96.334 -145.333 122.001 -237s38.5 -191.834 38.5 -300.501c0 -97.333 -10.333 -187.5 -31 -270.5s-53 -156.333 -97 -220
s-100.5 -116.334 -169.5 -158.001s-151.833 -69.5 -248.5 -83.5z" />
    <glyph glyph-name="R" unicode="R" horiz-adv-x="1479" 
d="M171 1456l610.999 -0.00292969c76.667 0 147.667 -8.33301 213 -25s121.833 -41.667 169.5 -75s84.834 -75.166 111.501 -125.499s40 -108.833 40 -175.5c0 -53.333 -7.66699 -103.166 -23 -149.499s-39 -87.666 -71 -123.999s-73.167 -66.833 -123.5 -91.5
s-110.5 -42 -180.5 -52l504 -626v-12h-234l-497 636h-332v-636h-188v1456zM358.999 793.997l398.999 -0.000976562c68.667 0 126.667 6.5 174 19.5s85.5 31 114.5 54s49.833 50.5 62.5 82.5s19 67 19 105c0 44.667 -7.83301 82.334 -23.5 113.001s-38.667 55.667 -69 75
s-67.666 33.333 -111.999 42s-94.833 13 -151.5 13h-413v-504z" />
    <glyph glyph-name="S" unicode="S" horiz-adv-x="1366" 
d="M285 468c0 -111.333 32.667 -194.165 98 -248.498s169 -81.5 311 -81.5c56.667 0 108.667 4.5 156 13.5s88.166 23.167 122.499 42.5s61 44.666 80 75.999s28.5 69.666 28.5 114.999c0 33.333 -4.66699 62.833 -14 88.5s-24.166 48.334 -44.499 68.001
s-46.5 36.834 -78.5 51.501s-70.333 27.334 -115 38.001l-266 63c-61.333 14.667 -117.166 32.834 -167.499 54.501s-93.5 48.167 -129.5 79.5s-64 68.333 -84 111s-30 92 -30 148c0 66 14.667 123.5 44 172.5s68.5 89.5 117.5 121.5s105.167 55.833 168.5 71.5
s129.333 23.5 198 23.5c76 0 147 -7.83301 213 -23.5s123.5 -40.334 172.5 -74.001s87.667 -77 116 -130s42.5 -116.833 42.5 -191.5l-5 -6h-183c0 48 -9.33301 89 -28 123s-44 61.667 -76 83s-69.667 36.833 -113 46.5s-89.666 14.5 -138.999 14.5
c-43.333 0 -85.333 -4.33301 -126 -13s-76.834 -22.334 -108.501 -41.001s-57.167 -42.667 -76.5 -72s-29 -64.333 -29 -105c0 -28.667 6.66699 -54.334 20 -77.001s32.833 -42.834 58.5 -60.501s57 -33.5 94 -47.5s79.167 -26.667 126.5 -38l268 -65
c58.667 -14 110.667 -31.833 156 -53.5s83.166 -48.167 113.499 -79.5s53.333 -68.166 69 -110.499s23.5 -91.5 23.5 -147.5c0 -72 -15.333 -134.667 -46 -188s-72.167 -97.833 -124.5 -133.5s-113 -62.334 -182 -80.001s-141.833 -26.5 -218.5 -26.5
c-98 0 -184.333 9.66699 -259 29s-137.5 48.833 -188.5 88.5s-89.5 89.667 -115.5 150s-39 131.833 -39 214.5l4 6h185z" />
    <glyph glyph-name="T" unicode="T" horiz-adv-x="1251" 
d="M531 1298h-495v158h1179v-158h-496v-1298h-188v1298z" />
    <glyph glyph-name="U" unicode="U" horiz-adv-x="1479" 
d="M350 616c0 -77.333 5.83496 -145.668 17.502 -205.001s32.334 -109.166 62.001 -149.499s69.5 -71 119.5 -92s113.333 -31.5 190 -31.5c77.333 0 141.166 10.333 191.499 31s90.166 51 119.499 91s49.666 89.833 60.999 149.5s17 128.5 17 206.5v840h188v-864
c0 -98.667 -10.5 -186 -31.5 -262s-54.667 -140 -101 -192s-106 -91.333 -179 -118s-161.5 -40 -265.5 -40s-192.667 13.333 -266 40s-133 66 -179 118s-79.5 116 -100.5 192s-31.5 163.333 -31.5 262v864h188v-840z" />
    <glyph glyph-name="V" unicode="V" horiz-adv-x="1366" 
d="M682 158h4l463 1298h201l2 -5l-543 -1451h-252l-543 1451l2 5h201z" />
    <glyph glyph-name="W" unicode="W" horiz-adv-x="1933" 
d="M1063 1456l326 -1232h4l309 1232h195l3 -5l-405 -1451h-199l-327 1203h-4l-328 -1203h-199l-404 1451l3 5h194l310 -1232h4l325 1232h193z" />
    <glyph glyph-name="X" unicode="X" horiz-adv-x="1366" 
d="M281 1456l403 -555l404 555h222v-12l-515 -690l551 -742v-12h-222l-440 614l-440 -614h-221v12l550 742l-514 690v12h222z" />
    <glyph glyph-name="Y" unicode="Y" horiz-adv-x="1366" 
d="M584 633l-539 811v12h219l418 -665l426 665h213v-12l-549 -811v-633h-188v633z" />
    <glyph glyph-name="Z" unicode="Z" horiz-adv-x="1251" 
d="M43 0v151l910 1141l-2 6h-851v158h1085v-151l-911 -1141l2 -6h930v-158h-1163z" />
    <glyph glyph-name="bracketleft" unicode="[" horiz-adv-x="569" 
d="M123 -420v1876h403v-150h-225v-1576h225v-150h-403z" />
    <glyph glyph-name="backslash" unicode="\" horiz-adv-x="569" 
d="M575 -20h-129l-452 1509h129z" />
    <glyph glyph-name="bracketright" unicode="]" horiz-adv-x="569" 
d="M268 1306h-225v150h403v-1876h-403v150h225v1576z" />
    <glyph glyph-name="asciicircum" unicode="^" horiz-adv-x="961" 
d="M911 889h-190l-242 432l-237 -432h-193l346 600h166z" />
    <glyph glyph-name="underscore" unicode="_" 
d="M-12 -270h1163v-150h-1163v150z" />
    <glyph glyph-name="grave" unicode="`" horiz-adv-x="682" 
d="M117 1466l2 10h209l181 -272l-3 -8h-161z" />
    <glyph glyph-name="a" unicode="a" 
d="M824 130l-6.99609 -0.00390625c-44 -49.333 -96.333 -86.666 -157 -111.999s-134.667 -38 -222 -38c-50 0 -95.833 6.33301 -137.5 19s-77.334 31.834 -107.001 57.501s-52.834 57.5 -69.501 95.5s-25 82.333 -25 133c0 48.667 10 94.167 30 136.5
s50.333 79.166 91 110.499s92 56 154 74s134.667 27 218 27h225v100c0 28 -3.83301 55 -11.5 81s-20.667 48.833 -39 68.5s-42.833 35.334 -73.5 47.001s-69 17.5 -115 17.5c-39.333 0 -72.5 -2.33301 -99.5 -7s-50 -13 -69 -25s-34.833 -28.5 -47.5 -49.5
s-24 -47.5 -34 -79.5h-171l-6 6c13.333 52 30.666 97.167 51.999 135.5s48.666 70 81.999 95s74 43.667 122 56s105.667 18.5 173 18.5c72.667 0 135.167 -8 187.5 -24s95.333 -40.667 129 -74s58.5 -75.666 74.5 -126.999s24 -112.666 24 -183.999v-688h-156z
M277.004 297.996c0 -62 15.167 -105.5 45.5 -130.5s75.833 -37.5 136.5 -37.5c49.333 0 95.833 5.5 139.5 16.5s81.667 29.167 114 54.5s57.833 59 76.5 101s28 94 28 156v25h-221c-56 0 -104.167 -3.66699 -144.5 -11s-73.5 -18.5 -99.5 -33.5s-45 -34.167 -57 -57.5
s-18 -51 -18 -83z" />
    <glyph glyph-name="b" unicode="b" 
d="M1063 557c0 -81.333 -9 -157.166 -27 -227.499s-45.333 -131.333 -82 -183s-83 -92.334 -139 -122.001s-121.667 -44.5 -197 -44.5c-60.667 0 -117.667 11.5 -171 34.5s-98 61.5 -134 115.5h-8l-17 -130h-147v1489h178v-375c0 -25.333 -1 -53.5 -3 -84.5
s-3 -58.5 -3 -82.5h6c38 50 84 87.5 138 112.5s111.333 37.5 172 37.5c76 0 141.333 -13.5 196 -40.5s99.667 -64.5 135 -112.5s61.333 -105 78 -171s25 -138 25 -216zM313 549c0 -142.667 25.165 -248.165 75.498 -316.498s122.5 -102.5 216.5 -102.5
c98.667 0 170 36.333 214 109s66 178.667 66 318c0 69.333 -5.83301 128.666 -17.5 177.999s-29.167 89.666 -52.5 120.999s-52.666 54.333 -87.999 69s-77 22 -125 22c-50 0 -93.333 -11.167 -130 -33.5s-66.667 -52 -90 -89s-40.666 -79.5 -51.999 -127.5
s-17 -97.333 -17 -148z" />
    <glyph glyph-name="c" unicode="c" horiz-adv-x="1024" 
d="M977 330l5.99902 -4.99707c-8 -54 -23.167 -102.333 -45.5 -145s-51.666 -78.834 -87.999 -108.501s-79.666 -52.334 -129.999 -68.001s-107.833 -23.5 -172.5 -23.5c-80.667 0 -150.5 12.667 -209.5 38s-107.833 62.333 -146.5 111s-67.5 108.334 -86.5 179.001
s-28.5 151.334 -28.5 242.001c0 86.667 9.33301 164 28 232s47.167 125.333 85.5 172s86.833 82.167 145.5 106.5s128 36.5 208 36.5c57.333 0 110.5 -6 159.5 -18s92.167 -31 129.5 -57s68.166 -59.333 92.499 -100s40.5 -89.334 48.5 -146.001l-5 -6h-167
c-18.667 65.333 -49.5 111.166 -92.5 137.499s-96.833 39.5 -161.5 39.5c-52 0 -96.667 -9.33301 -134 -28s-67.666 -45.334 -90.999 -80.001s-40.5 -76.5 -51.5 -125.5s-16.5 -103.5 -16.5 -163.5c0 -144 24.667 -250 74 -318s123.666 -102 222.999 -102
c74.667 0 133.5 15.667 176.5 47s68.833 82.333 77.5 153h172z" />
    <glyph glyph-name="d" unicode="d" 
d="M837 0l-13 129.998h-6c-36.667 -47.333 -82.167 -84.166 -136.5 -110.499s-111.833 -39.5 -172.5 -39.5c-76 0 -141.333 14.667 -196 44s-99.667 69.333 -135 120s-61.333 110.167 -78 178.5s-25 141.166 -25 218.499c0 74 10 144.5 30 211.5s49.5 126 88.5 177
s86.833 91.667 143.5 122s121.667 45.5 195 45.5c64.667 0 120 -11.667 166 -35s86 -61.666 120 -114.999h6c0 20.667 -1 44.834 -3 72.501s-3 53.5 -3 77.5v392h178v-1489h-159zM253 538.998c0 -54 3.83203 -105.832 11.499 -155.499s21.334 -93.167 41.001 -130.5
s46.5 -67.166 80.5 -89.499s77 -33.5 129 -33.5c56 0 103.5 11 142.5 33s70.833 51.833 95.5 89.5s42.667 82 54 133s17 105.5 17 163.5c0 52.667 -4.83301 103.167 -14.5 151.5s-25.5 90.666 -47.5 126.999s-50.5 65.333 -85.5 87s-77.833 32.5 -128.5 32.5
c-52 0 -96.5 -11.333 -133.5 -34s-67.5 -52.834 -91.5 -90.501s-41.667 -81 -53 -130s-17 -100.167 -17 -153.5z" />
    <glyph glyph-name="e" unicode="e" 
d="M557 947c-37.333 0 -73.333 -7.00195 -108 -21.002s-65.5 -34.667 -92.5 -62s-49.167 -61.666 -66.5 -102.999s-27.333 -89 -30 -143h531c35.333 0 58.833 4.33301 70.5 13s17.5 24.334 17.5 47.001c0 45.333 -7.5 84.833 -22.5 118.5s-36.167 61.667 -63.5 84
s-60 39 -98 50s-80 16.5 -126 16.5h-12zM1051 320.998l5.99902 -8.00293c-30 -110 -83.833 -193 -161.5 -249s-180.167 -84 -307.5 -84c-164 0 -289.333 44.833 -376 134.5s-130 228.167 -130 415.5c0 88.667 11 168.167 33 238.5s54.167 129.833 96.5 178.5
s94.5 85.834 156.5 111.501s132.667 38.5 212 38.5c74.667 0 141.5 -11.167 200.5 -33.5s109 -53.166 150 -92.499s72.333 -86.166 94 -140.499s32.5 -113.5 32.5 -177.5c0 -35.333 -4.83301 -64.666 -14.5 -87.999s-25 -42.333 -46 -57s-48.167 -25 -81.5 -31
s-73.333 -9 -120 -9h-535c0 -45.333 5.33301 -88.5 16 -129.5s28.834 -77 54.501 -108s59.5 -55.5 101.5 -73.5s94.667 -27 158 -27c37.333 0 71.5 3.33301 102.5 10s58.5 17.5 82.5 32.5s44.833 34.667 62.5 59s31.5 54.166 41.5 89.499h172z" />
    <glyph glyph-name="f" unicode="f" horiz-adv-x="569" 
d="M574 1334l-5.99805 -3c-15.333 2.66699 -31 4.66699 -47 6s-30.667 2 -44 2c-25.333 0 -45.833 -3.83301 -61.5 -11.5s-27.834 -19 -36.501 -34s-14.667 -34 -18 -57s-5 -49.5 -5 -79.5v-80h197l-10 -150h-187v-927h-178v927h-160v150h160v94c0 47.333 5 90.5 15 129.5
s25.833 72.5 47.5 100.5s49.167 49.667 82.5 65s73.666 23 120.999 23c19.333 0 40.833 -0.666992 64.5 -2s49.5 -4 77.5 -8z" />
    <glyph glyph-name="g" unicode="g" 
d="M541 1097c14.667 0 31.1689 -0.668945 49.502 -2.00195s36.833 -3.33301 55.5 -6s36.834 -5.83398 54.501 -9.50098s33.5 -7.83398 47.5 -12.501l36 -16l27.5 33c8.33301 10 15.666 20 21.999 30s11.833 20.667 16.5 32s8 24 10 38h198l4 -6
c-6.66699 -24 -15 -44.833 -25 -62.5s-21.833 -33.834 -35.5 -48.501s-28.834 -28.5 -45.501 -41.5s-35 -26.5 -55 -40.5c18.667 -14.667 34.167 -30.667 46.5 -48s22.333 -36.666 30 -57.999s13.167 -45.166 16.5 -71.499s5 -55.833 5 -88.5c0 -63.333 -11 -119 -33 -167
s-53 -88 -93 -120s-88.167 -56 -144.5 -72s-118.833 -24 -187.5 -24c-19.333 0 -39.5 1 -60.5 3s-41.5 4.83301 -61.5 8.5s-38.833 8.33398 -56.5 14.001s-32.834 12.167 -45.501 19.5c-19.333 -20.667 -32 -39.334 -38 -56.001s-9 -33.667 -9 -51
c0 -12 5.33301 -23.5 16 -34.5s25.5 -20.667 44.5 -29s41.833 -15 68.5 -20s56 -7.5 88 -7.5h166c80.667 0 149.334 -5.33301 206.001 -16s102.834 -27 138.501 -49s61.667 -49.833 78 -83.5s24.5 -73.167 24.5 -118.5c0 -49.333 -9.83301 -95.166 -29.5 -137.499
s-51.334 -79.166 -95.001 -110.499s-100.334 -55.833 -170.001 -73.5s-154.5 -26.5 -254.5 -26.5c-95.333 0 -175.5 6.16699 -240.5 18.5s-117.667 30.166 -158 53.499s-69.333 51.666 -87 84.999s-26.5 71 -26.5 113c0 26 4 49.333 12 70s19.667 40.334 35 59.001
s33.833 37 55.5 55s46.167 37.333 73.5 58c-44 16.667 -75.167 39 -93.5 67s-27.5 59 -27.5 93c0 14 1.16699 27.5 3.5 40.5s7.5 27.333 15.5 43s19.5 33.5 34.5 53.5s35.5 44 61.5 72c-16 12.667 -31 28.5 -45 47.5s-26.167 39.833 -36.5 62.5s-18.5 46.834 -24.5 72.501
s-9 51.5 -9 77.5c0 60 10.833 114 32.5 162s52.167 88.833 91.5 122.5s86.5 59.334 141.5 77.001s115.5 26.5 181.5 26.5zM811.002 718.998c0 38 -6.50098 71.1689 -19.501 99.502s-31.333 52 -55 71s-52.167 33.333 -85.5 43s-70 14.5 -110 14.5
c-84.667 0 -149 -20.167 -193 -60.5s-66 -98.833 -66 -175.5c0 -34.667 6 -65.834 18 -93.501s29.167 -51.334 51.5 -71.001s49.5 -34.667 81.5 -45s68 -15.5 108 -15.5c88.667 0 155.834 19.667 201.501 59s68.5 97.333 68.5 174zM371.001 42
c-30 -19.333 -53.833 -36.667 -71.5 -52s-31.167 -30 -40.5 -44s-15.5 -28.167 -18.5 -42.5s-4.5 -29.833 -4.5 -46.5c0 -26 7.33301 -47.833 22 -65.5s36 -32 64 -43s62.167 -18.833 102.5 -23.5s86.5 -7 138.5 -7c60 0 111.5 5.16699 154.5 15.5
s78.167 24.166 105.5 41.499s47.5 37.5 60.5 60.5s19.5 47.5 19.5 73.5c0 20.667 -2.83301 39.334 -8.5 56.001s-16.5 30.667 -32.5 42s-38.667 20 -68 26s-67.333 9 -114 9h-309z" />
    <glyph glyph-name="h" unicode="h" 
d="M319 1097c0 -28 -1.00195 -54.6699 -3.00195 -80.0029s-3 -48.666 -3 -69.999h6c38 54 83.833 92.5 137.5 115.5s116.834 34.5 189.501 34.5c52.667 0 101.167 -7.5 145.5 -22.5s82.333 -38.5 114 -70.5s56.334 -73.167 74.001 -123.5s26.5 -111.166 26.5 -182.499v-698
h-178v686c0 44.667 -5.66699 83.334 -17 116.001s-27 59.667 -47 81s-43.833 37.333 -71.5 48s-57.5 16 -89.5 16c-49.333 0 -92 -10.5 -128 -31.5s-65.5 -48.333 -88.5 -82s-40 -71.667 -51 -114s-16.5 -84.833 -16.5 -127.5v-592h-178v1489h178v-392z" />
    <glyph glyph-name="i" unicode="i" horiz-adv-x="455" 
d="M148 0v927h-130v150h308v-1077h-178zM291 1476c9.33301 0 17.5 -3.5 24.5 -10.5s10.5 -15.167 10.5 -24.5v-145c0 -9.33301 -3.5 -17.5 -10.5 -24.5s-15.167 -10.5 -24.5 -10.5h-135c-9.33301 0 -17.5 3.5 -24.5 10.5s-10.5 15.167 -10.5 24.5v145
c0 9.33301 3.5 17.5 10.5 24.5s15.167 10.5 24.5 10.5h135z" />
    <glyph glyph-name="j" unicode="j" horiz-adv-x="455" 
d="M326 -63c0 -246 -74.6689 -368.999 -224.002 -368.999c-31.333 0 -60.666 1 -87.999 3s-49.666 5 -66.999 9l24 149c15.333 -4.66699 31 -7.66699 47 -9s32.667 -2 50 -2c27.333 0 47 13 59 39c7.33301 15.333 12.5 38.166 15.5 68.499s4.5 67.833 4.5 112.5v989h-135
v150h314v-1140zM290.998 1476c9.33301 0 17.5 -3.5 24.5 -10.5s10.5 -15.167 10.5 -24.5v-145c0 -9.33301 -3.5 -17.5 -10.5 -24.5s-15.167 -10.5 -24.5 -10.5h-135c-9.33301 0 -17.5 3.5 -24.5 10.5s-10.5 15.167 -10.5 24.5v145c0 9.33301 3.5 17.5 10.5 24.5
s15.167 10.5 24.5 10.5h135z" />
    <glyph glyph-name="k" unicode="k" horiz-adv-x="1024" 
d="M141 1489h178v-848h121l330 436h214l2 -6l-396 -500l430 -565l-2 -6h-215l-363 500h-121v-500h-178v1489z" />
    <glyph glyph-name="l" unicode="l" horiz-adv-x="455" 
d="M455 -2c-20.667 -4 -44.4971 -6.99902 -71.4971 -8.99902s-51.833 -3 -74.5 -3c-34 0 -62.333 5.33301 -85 16s-40.834 27 -54.501 49s-23.5 49.667 -29.5 83s-9 72.666 -9 117.999v1237h178v-1238c0 -44 4.16699 -74.167 12.5 -90.5s21.166 -24.5 38.499 -24.5
c11.333 0 23.666 0.666992 36.999 2s28 4.33301 44 9l6 -3z" />
    <glyph glyph-name="m" unicode="m" horiz-adv-x="1706" 
d="M312 947h7.00195c32 52.667 73.167 90.834 123.5 114.501s108.833 35.5 175.5 35.5c76 0 137.5 -14.5 184.5 -43.5s83.167 -75.167 108.5 -138.5c41.333 64 90.166 110.333 146.499 139s115.5 43 177.5 43c109.333 0 193 -29.167 251 -87.5s87 -148.5 87 -270.5v-739
h-178v682c0 52 -3.16699 95 -9.5 129s-17.333 61 -33 81s-36.167 34.167 -61.5 42.5s-57 12.5 -95 12.5c-41.333 0 -77.5 -8.66699 -108.5 -26s-57 -41.666 -78 -72.999s-36.833 -69.333 -47.5 -114s-16 -94 -16 -148v-586h-178v705c0 46 -4.33301 84.5 -13 115.5
s-21.334 55.833 -38.001 74.5s-37.167 32 -61.5 40s-52.5 12 -84.5 12c-36 0 -69.5 -6.5 -100.5 -19.5s-57.667 -33.833 -80 -62.5s-39.833 -65.834 -52.5 -111.501s-19 -100.834 -19 -165.501v-588h-178v1077h158z" />
    <glyph glyph-name="n" unicode="n" 
d="M313 947l6.00293 -0.000976562c23.333 27.333 47 50.5 71 69.5s49.167 34.5 75.5 46.5s53.833 20.667 82.5 26s59.667 8 93 8c64.667 0 120.167 -9 166.5 -27s84 -44.833 113 -80.5s50.333 -79.5 64 -131.5s20.5 -112 20.5 -180v-678h-178v676
c0 54.667 -5.16699 99.667 -15.5 135s-25.333 63 -45 83s-43.334 33.833 -71.001 41.5s-58.834 11.5 -93.501 11.5c-36 0 -70.833 -6.66699 -104.5 -20s-63.834 -34.166 -90.501 -62.499s-48 -65 -64 -110s-24 -99.167 -24 -162.5v-592h-178v1077h158z" />
    <glyph glyph-name="o" unicode="o" 
d="M569 -20c-82 0 -153.667 12.833 -215 38.5s-112.5 62.5 -153.5 110.5s-71.667 106.5 -92 175.5s-30.5 147.167 -30.5 234.5c0 86.667 10.167 164.5 30.5 233.5s51 127.5 92 175.5s92.167 84.833 153.5 110.5s133 38.5 215 38.5s153.667 -12.833 215 -38.5
s112.5 -62.5 153.5 -110.5s71.667 -106.5 92 -175.5s30.5 -146.833 30.5 -233.5c0 -87.333 -10.167 -165.5 -30.5 -234.5s-51 -127.5 -92 -175.5s-92.167 -84.833 -153.5 -110.5s-133 -38.5 -215 -38.5zM569 947c-54 0 -100.167 -10.833 -138.5 -32.5
s-69.666 -51 -93.999 -88s-42.166 -80.167 -53.499 -129.5s-17 -102 -17 -158s5.66699 -108.833 17 -158.5s29.166 -93 53.499 -130s55.666 -66.333 93.999 -88s84.5 -32.5 138.5 -32.5s100.167 10.833 138.5 32.5s69.666 51 93.999 88s42.166 80.333 53.499 130
s17 102.5 17 158.5s-5.66699 108.667 -17 158s-29.166 92.5 -53.499 129.5s-55.666 66.333 -93.999 88s-84.5 32.5 -138.5 32.5z" />
    <glyph glyph-name="p" unicode="p" 
d="M305 947l6.00098 -0.000976562c18.667 28 39.834 51.5 63.501 70.5s49.167 34.5 76.5 46.5s56.166 20.5 86.499 25.5s61.5 7.5 93.5 7.5c74 0 138 -12.167 192 -36.5s98.833 -59.5 134.5 -105.5s62.167 -102.167 79.5 -168.5s26 -141.5 26 -225.5
c0 -75.333 -9 -146.833 -27 -214.5s-45.5 -127.167 -82.5 -178.5s-83.833 -92.166 -140.5 -122.499s-123.667 -45.5 -201 -45.5c-56.667 0 -110.834 11.167 -162.501 33.5s-96.5 57.5 -134.5 105.5h-6c1.33301 -23.333 3.33301 -46.5 6 -69.5s4 -46.167 4 -69.5v-420h-178
v1497h156zM311.001 531.999c0 -53.333 5.33203 -103.167 15.999 -149.5s27.5 -86.666 50.5 -120.999s52.833 -61.5 89.5 -81.5s81 -30 133 -30c54 0 99.167 10.667 135.5 32s65.5 50.666 87.5 87.999s37.833 80.833 47.5 130.5s14.5 103.167 14.5 160.5
c0 62.667 -5.5 118 -16.5 166s-28 88.333 -51 121s-52.667 57.334 -89 74.001s-79.833 25 -130.5 25c-51.333 0 -95.166 -11.833 -131.499 -35.5s-66 -54.834 -89 -93.501s-39.833 -83 -50.5 -133s-16 -101 -16 -153z" />
    <glyph glyph-name="q" unicode="q" 
d="M997 -420l-178.004 -0.00292969v420c0 10.667 0.166992 22.667 0.5 36l1 40c0.333008 13.333 0.833008 26.333 1.5 39s1.66699 24.334 3 35.001h-6c-17.333 -26 -38.666 -48.5 -63.999 -67.5s-52.833 -34.5 -82.5 -46.5s-60.167 -21 -91.5 -27s-62 -9 -92 -9
c-73.333 0 -136.166 14.333 -188.499 43s-95.166 67.834 -128.499 117.501s-57.666 107.834 -72.999 174.501s-23 138 -23 214c0 76.667 9.83301 148.5 29.5 215.5s49 125 88 174s87.333 87.667 145 116s124.5 42.5 200.5 42.5c32 0 60.833 -3 86.5 -9
s49.5 -15.167 71.5 -27.5s42.833 -27.833 62.5 -46.5s39.5 -41 59.5 -67h6l16 130h156v-1497zM828.996 529.997c0 54 -5.50293 105.999 -16.5029 155.999s-28.167 94.333 -51.5 133s-53.166 69.667 -89.499 93s-79.833 35 -130.5 35
c-51.333 0 -95.166 -11.167 -131.499 -33.5s-66 -52 -89 -89s-39.833 -80 -50.5 -129s-16 -99.833 -16 -152.5c0 -58.667 4.83301 -112.167 14.5 -160.5s24.834 -89.666 45.501 -123.999s47.167 -61 79.5 -80s71.166 -28.5 116.499 -28.5
c50.667 0 95.834 9.83301 135.501 29.5s73 46.667 100 81s47.667 74.5 62 120.5s21.5 95.667 21.5 149z" />
    <glyph glyph-name="r" unicode="r" horiz-adv-x="682" 
d="M144 1077l154.003 -0.000976562l18 -147h6c25.333 60.667 57.166 103.834 95.499 129.501s82.166 38.5 131.499 38.5c22.667 0 46.667 -1 72 -3s49.666 -5.33301 72.999 -10l-12 -151l-7 -3c-24 6.66699 -47.333 11.167 -70 13.5s-43.667 3.5 -63 3.5
c-34 0 -64.667 -8.5 -92 -25.5s-50.5 -41.667 -69.5 -74s-33.5 -72 -43.5 -119s-15 -100.5 -15 -160.5v-569h-178v1077z" />
    <glyph glyph-name="s" unicode="s" horiz-adv-x="1024" 
d="M254 330c4.66699 -40 13.502 -73.0039 26.502 -99.0039s30.5 -46.5 52.5 -61.5s48.167 -25.333 78.5 -31s65.5 -8.5 105.5 -8.5c75.333 0 134.833 12.833 178.5 38.5s65.5 66.5 65.5 122.5c0 24.667 -3.16699 45.167 -9.5 61.5s-17.833 31 -34.5 44
s-39.334 25.167 -68.001 36.5s-65.334 24.666 -110.001 39.999l-120 40c-66 22 -119 43.333 -159 64s-71 42.667 -93 66s-36.5 49 -43.5 77s-10.5 60.333 -10.5 97c0 36 6.5 67.833 19.5 95.5s30.167 51.834 51.5 72.501s46 38.167 74 52.5s56.833 25.833 86.5 34.5
s59.334 15 89.001 19s56.834 6 81.501 6c61.333 0 115.5 -5.66699 162.5 -17s87.333 -29.166 121 -53.499s60.5 -56 80.5 -95s33.667 -86.167 41 -141.5l-6 -5h-173c-5.33301 34 -13.833 62.167 -25.5 84.5s-26.834 39.833 -45.501 52.5s-40.834 21.5 -66.501 26.5
s-55.167 7.5 -88.5 7.5c-70.667 0 -125.667 -12.667 -165 -38s-59 -59 -59 -101c0 -23.333 2.66699 -42.666 8 -57.999s15.333 -29 30 -41s35.334 -23.333 62.001 -34s61 -23 103 -37l114 -38c63.333 -21.333 116.166 -42.5 158.499 -63.5s76.333 -44 102 -69
s43.834 -52.5 54.501 -82.5s16 -64.667 16 -104c0 -52.667 -11.667 -98.5 -35 -137.5s-54.5 -71.167 -93.5 -96.5s-84 -44.333 -135 -57s-103.833 -19 -158.5 -19c-66.667 0 -125.834 6.16699 -177.501 18.5s-96 32.333 -133 60s-66.5 63.334 -88.5 107.001
s-36 96.834 -42 159.501l6 5h172z" />
    <glyph glyph-name="t" unicode="t" horiz-adv-x="569" 
d="M170 1364l170.999 41.001l7 -3v-325h197v-150h-197v-650c0 -30.667 1.83301 -55.167 5.5 -73.5s9.33398 -32.5 17.001 -42.5s17.5 -16.667 29.5 -20s26.667 -5 44 -5c22 0 55.667 5.33301 101 16l5 -6l19 -144c-14 -2.66699 -29.667 -5 -47 -7s-34.833 -3.66699 -52.5 -5
s-34.167 -2.33301 -49.5 -3s-27.666 -1 -36.999 -1c-72.667 0 -126.334 23.167 -161.001 69.5s-52 113.166 -52 200.499v671h-143v150h143v287z" />
    <glyph glyph-name="u" unicode="u" 
d="M825 130h-5.99805c-42.667 -55.333 -90.5 -94.166 -143.5 -116.499s-112.833 -33.5 -179.5 -33.5c-121.333 0 -212.166 35.667 -272.499 107s-90.5 179.666 -90.5 324.999v665h178v-661c0 -53.333 4.83301 -98.166 14.5 -134.499s23.667 -65.833 42 -88.5
s40.666 -38.834 66.999 -48.501s56.166 -14.5 89.499 -14.5c54 0 99.667 9.16699 137 27.5s67.666 44 90.999 77s40.333 72.333 51 118s16 95.5 16 149.5v575h178v-1077h-157z" />
    <glyph glyph-name="v" unicode="v" horiz-adv-x="1024" 
d="M18 1071l3 6h184l313 -868h4l299 868h182l3 -6l-404 -1071h-176z" />
    <glyph glyph-name="w" unicode="w" horiz-adv-x="1479" 
d="M965 0l-223 808h-6l-223 -808h-188l-322 1071l5 6h178l229 -846h6l234 846h168l234 -846h6l229 846h178l5 -6l-322 -1071h-188z" />
    <glyph glyph-name="x" unicode="x" horiz-adv-x="1024" 
d="M973 1065l-365 -520l379 -533v-12h-199l-273 417h-6l-273 -417h-199v12l379 533l-365 520v12h201l257 -396h6l257 396h201v-12z" />
    <glyph glyph-name="y" unicode="y" horiz-adv-x="1024" 
d="M176 -272l7.00293 1.99902c20.667 -4.66699 38 -7.83398 52 -9.50098s27.667 -2.5 41 -2.5c12 0 24 1.83301 36 5.5s24.5 13.5 37.5 29.5s27 40.5 42 73.5s31.833 79.167 50.5 138.5l11 33l-439 1073l4 6h183l333 -868h6l302 868h175l3 -6l-416 -1122
c-31.333 -84 -58.333 -151.167 -81 -201.5s-45.334 -88.666 -68.001 -114.999s-47.334 -43.666 -74.001 -51.999s-59.334 -12.5 -98.001 -12.5c-6.66699 0 -15.167 0.333008 -25.5 1s-21.5 1.66699 -33.5 3s-24.167 2.83301 -36.5 4.5s-23.5 3.5 -33.5 5.5z" />
    <glyph glyph-name="z" unicode="z" horiz-adv-x="1024" 
d="M72 0v156l630 765l-2 6h-598v150h823v-144l-639 -777l2 -6h666v-150h-882z" />
    <glyph glyph-name="braceleft" unicode="{" horiz-adv-x="684" 
d="M28 612l18.002 -0.00195312c94.667 0 157.667 39 189 117c20.667 52 31 153 31 303c0 84 5.16699 154.333 15.5 211s25.166 101.334 44.499 134.001c44.667 74.667 135.667 112 273 112h54v-150h-26c-84.667 0 -138 -26 -160 -78c-8.66699 -19.333 -14.667 -50 -18 -92
s-5 -95 -5 -159c0 -146.667 -12.667 -251 -38 -313c-14.667 -36.667 -36.834 -68.167 -66.501 -94.5s-67.5 -49.5 -113.5 -69.5c46 -18 83.667 -39.167 113 -63.5s51.666 -53.5 66.999 -87.5c12.667 -28 22.167 -66.167 28.5 -114.5s9.5 -107.833 9.5 -178.5v-68
c0 -114.667 9.33301 -189 28 -223c24.667 -45.333 76.334 -68 155.001 -68h26v-150h-54c-142 0 -234.333 39 -277 117c-18 32 -31.833 78.5 -41.5 139.5s-14.5 137.833 -14.5 230.5c0 66.667 -3.33301 122.834 -10 168.501s-16 82.5 -28 110.5
c-16.667 38 -39.667 66.833 -69 86.5s-67 29.5 -113 29.5h-18v150z" />
    <glyph glyph-name="bar" unicode="|" horiz-adv-x="532" 
d="M177 -420v1909h178v-1909h-178z" />
    <glyph glyph-name="braceright" unicode="}" horiz-adv-x="684" 
d="M85 1489c137.333 0 228.334 -37.3311 273.001 -111.998c19.333 -32.667 34.166 -77.334 44.499 -134.001s15.5 -127 15.5 -211c0 -150 10.333 -251 31 -303c30.667 -78 93.667 -117 189 -117h18v-150h-18c-46 0 -83.667 -9.83301 -113 -29.5s-52.333 -48.5 -69 -86.5
c-12 -28 -21.333 -64.833 -28 -110.5s-10 -101.834 -10 -168.501c0 -92.667 -4.83301 -169.5 -14.5 -230.5s-23.5 -107.5 -41.5 -139.5c-43.333 -78 -135.666 -117 -276.999 -117h-54v150h26c78.667 0 130.334 22.667 155.001 68c18.667 34 28 108.333 28 223v68
c0 70.667 3.16699 130.167 9.5 178.5s15.833 86.5 28.5 114.5c15.333 34 37.666 63.167 66.999 87.5s67 45.5 113 63.5c-46 20 -83.833 43.167 -113.5 69.5s-51.834 57.833 -66.501 94.5c-25.333 62 -38 166.333 -38 313c0 64 -1.66699 117 -5 159s-9.33301 72.667 -18 92
c-22 52 -75.333 78 -160 78h-26v150h54z" />
    <glyph glyph-name="asciitilde" unicode="~" horiz-adv-x="1196" 
d="M57 725c87.333 95.333 196.668 142.999 328.001 142.999c28 0 61.667 -5.16699 101 -15.5s85 -26.166 137 -47.499c100 -42.667 169.333 -64 208 -64c71.333 0 145.333 38.333 222 115l86 -137c-17.333 -22.667 -37.5 -42.834 -60.5 -60.501s-49.5 -33.167 -79.5 -46.5
c-54 -24.667 -110 -37 -168 -37c-23.333 0 -53.833 5 -91.5 15s-83.5 25.667 -137.5 47c-52.667 20.667 -96.834 36.334 -132.501 47.001s-63.167 16 -82.5 16c-100 0 -186 -38 -258 -114z" />
    <glyph glyph-name="uni00A0" unicode="&#xa0;" horiz-adv-x="569" 
 />
    <glyph glyph-name="exclamdown" unicode="&#xa1;" horiz-adv-x="682" 
d="M397 649l11 -47c9.33301 -43.333 17.5 -86.333 24.5 -129s10.5 -78 10.5 -106v-787h-205v787c0 14 1 30.167 3 48.5s4.5 37.833 7.5 58.5s6.66699 42 11 64s8.83301 43.333 13.5 64l11 47h113zM273 863c-9.33301 0 -17.5 3.16699 -24.5 9.5s-10.5 14.166 -10.5 23.499
v145c0 9.33301 3.5 17.5 10.5 24.5s15.167 10.5 24.5 10.5h135c9.33301 0 17.5 -3.5 24.5 -10.5s10.5 -15.167 10.5 -24.5v-145c0 -9.33301 -3.5 -17.166 -10.5 -23.499s-15.167 -9.5 -24.5 -9.5h-135z" />
    <glyph glyph-name="cent" unicode="&#xa2;" 
d="M515 221c-66 8 -123.828 23.4971 -173.495 46.4971s-91.167 55 -124.5 96s-58.333 91.5 -75 151.5s-25 131 -25 213c0 75.333 9.16699 143.5 27.5 204.5s44.833 114 79.5 159s76.5 81.667 125.5 110s104.167 47.5 165.5 57.5v217h150v-217
c96 -13.333 173.833 -46.5 233.5 -99.5s98.5 -128.833 116.5 -227.5l-7 -10h-170c-15.333 64.667 -44.5 114.5 -87.5 149.5s-93.833 52.5 -152.5 52.5c-56 0 -103.167 -10 -141.5 -30s-69.5 -47.333 -93.5 -82s-41.333 -75.667 -52 -123s-16 -98 -16 -152
c0 -59.333 4.5 -112.333 13.5 -159s24.833 -86 47.5 -118s53.167 -56.333 91.5 -73s86.833 -25 145.5 -25c73.333 0 131.666 16.333 174.999 49s71.666 84.334 84.999 155.001h173l8 -7c-9.33301 -50.667 -23.833 -95 -43.5 -133s-44.834 -70.667 -75.501 -98
s-66.834 -49.666 -108.501 -66.999s-88.834 -30.666 -141.501 -39.999v-241h-150v241z" />
    <glyph glyph-name="sterling" unicode="&#xa3;" 
d="M415 661c5.33301 -15.333 8.83008 -34.167 10.4971 -56.5s2.5 -41.166 2.5 -56.499c0 -28 -2.33301 -55.833 -7 -83.5s-12.667 -55.667 -24 -84s-26.666 -57.333 -45.999 -87s-43.666 -60.834 -72.999 -93.501l2 -5c12.667 3.33301 25.834 6.33301 39.501 9
s27.334 5 41.001 7s26.667 3.5 39 4.5s23.5 1.5 33.5 1.5c26 0 54 -4 84 -12s60.833 -16.667 92.5 -26s63.5 -18 95.5 -26s63 -12 93 -12c12 0 25.667 1.5 41 4.5s32 7.16699 50 12.5s36.667 12.166 56 20.499s38.666 17.833 57.999 28.5l10 -3l47 -158l-16 -6
c-44 -16.667 -87.167 -30.334 -129.5 -41.001s-82.5 -16 -120.5 -16c-43.333 0 -82.166 4.33301 -116.499 13s-67 18.334 -98 29.001s-61.833 20.334 -92.5 29.001s-64 13 -100 13c-22.667 0 -47 -1.83301 -73 -5.5s-52.333 -9.33398 -79 -17.001
s-52.667 -16.834 -78 -27.501s-48.666 -23 -69.999 -37l-67 169c34 19.333 65 42.166 93 68.499s52.167 55.833 72.5 88.5s36.166 68.334 47.499 107.001s17 80 17 124c0 36 -5.66699 77.333 -17 124h-218v150h177l-4 12c-11.333 40 -22 80.667 -32 122s-15 84 -15 128
c0 70 11 130.5 33 181.5s53 92.833 93 125.5s88 56.834 144 72.501s118 23.5 186 23.5c55.333 0 108.166 -8.33301 158.499 -25s94.5 -41 132.5 -73s68.333 -71.167 91 -117.5s34 -99.166 34 -158.499v-25h-173c0 38 -6.16699 72.5 -18.5 103.5s-29.5 57.167 -51.5 78.5
s-48.167 37.833 -78.5 49.5s-63.5 17.5 -99.5 17.5s-70 -5 -102 -15s-60 -24.833 -84 -44.5s-42.833 -43.5 -56.5 -71.5s-20.5 -60 -20.5 -96c0 -77.333 18.333 -173.333 55 -288h306v-150h-275z" />
    <glyph glyph-name="currency" unicode="&#xa4;" 
d="M195 1216l139.001 -139c70.667 48 149.334 72 236.001 72c87.333 0 166 -24 236 -72l139 139l116 -119l-139 -136c23.333 -36.667 41.5 -74.5 54.5 -113.5s19.5 -79.5 19.5 -121.5s-6.5 -82.667 -19.5 -122s-31.167 -77.333 -54.5 -114l139 -136l-116 -119l-139 140
c-68.667 -48.667 -147.334 -73 -236.001 -73c-86.667 0 -165.334 24.333 -236.001 73l-139 -140l-116 119l140 136c-23.333 36.667 -42 74.667 -56 114s-21 80 -21 122s7 82.5 21 121.5s32.667 76.833 56 113.5l-141 136zM320.001 726
c0 -36 6.16895 -70.166 18.502 -102.499s29.666 -60.666 51.999 -84.999s48.666 -43.5 78.999 -57.5s63.5 -21 99.5 -21s69.167 7 99.5 21s56.5 33.167 78.5 57.5s39.333 52.666 52 84.999s19 66.5 19 102.5c0 35.333 -6.16699 69 -18.5 101s-29.5 60.167 -51.5 84.5
s-48.167 43.666 -78.5 57.999s-63.833 21.5 -100.5 21.5c-36 0 -69.167 -7.16699 -99.5 -21.5s-56.5 -33.5 -78.5 -57.5s-39.333 -52 -52 -84s-19 -66 -19 -102z" />
    <glyph glyph-name="yen" unicode="&#xa5;" 
d="M661 464h408v-141h-408v-323h-188v323h-398v141h398v150h-398v141h327l-468 689v12h219l418 -665l426 665h213v-12l-476 -689h335v-141h-408v-150z" />
    <glyph glyph-name="brokenbar" unicode="&#xa6;" horiz-adv-x="532" 
d="M355 684h-178v792h178v-792zM355 -420h-178v792h178v-792z" />
    <glyph glyph-name="section" unicode="&#xa7;" 
d="M775 1135c-10.667 67.333 -33.667 116 -69 146s-88.333 45 -159 45c-34.667 0 -64.667 -4 -90 -12s-46.333 -18.667 -63 -32s-29.167 -28.666 -37.5 -45.999s-12.5 -35.333 -12.5 -54c0 -19.333 3.83301 -37.333 11.5 -54s21 -34.167 40 -52.5
s44.833 -38.166 77.5 -59.499s73.667 -46 123 -74l88 -49c76.667 -42.667 138 -79.5 184 -110.5s81.5 -60 106.5 -87s41.5 -54.333 49.5 -82s12 -59.5 12 -95.5c0 -126.667 -67.333 -221.334 -202 -284.001c40 -32 69.833 -65 89.5 -99s29.5 -74 29.5 -120
c0 -44 -10.167 -84.5 -30.5 -121.5s-47.833 -69 -82.5 -96s-75.5 -48 -122.5 -63s-96.833 -22.5 -149.5 -22.5c-242.667 0 -376.667 112.333 -402 337l4 5h172c4.66699 -36.667 12.167 -67.334 22.5 -92.001s24.333 -44.334 42 -59.001s39.667 -25.167 66 -31.5
s57.5 -9.5 93.5 -9.5c30 0 57.833 3.5 83.5 10.5s47.667 16.833 66 29.5s32.833 27.834 43.5 45.501s16 37.5 16 59.5c0 18.667 -4 35.834 -12 51.501s-21.833 32 -41.5 49s-45.667 35.667 -78 56s-72.833 44.5 -121.5 72.5l-88 51c-74 42.667 -134 79.667 -180 111
s-81.667 60.5 -107 87.5s-42.5 54 -51.5 81s-13.5 58.167 -13.5 93.5c0 117.333 67 212.666 201 285.999c-78 58.667 -117 134.667 -117 228c0 38.667 8.5 76.167 25.5 112.5s41.833 68.5 74.5 96.5s72.5 50.5 119.5 67.5s100.167 25.5 159.5 25.5
c66 0 123.167 -7 171.5 -21s89 -35 122 -63s58.833 -62.833 77.5 -104.5s31 -90.5 37 -146.5l-4 -6h-174zM711 318c51.333 24.667 88.668 51 112.001 79s35 58.333 35 91c0 20.667 -5 41.334 -15 62.001s-26.333 42.334 -49 65.001s-52.167 46.5 -88.5 71.5
s-80.833 52.167 -133.5 81.5l-164 92c-52 -24.667 -89.667 -51.334 -113 -80.001s-35 -58 -35 -88c0 -22.667 4.66699 -44.667 14 -66s25.166 -43.333 47.499 -66s51.833 -46.334 88.5 -71.001s82 -51.667 136 -81z" />
    <glyph glyph-name="dieresis" unicode="&#xa8;" horiz-adv-x="682" 
d="M52 1443c0 9.33301 3.5 17.166 10.5 23.499s15.167 9.5 24.5 9.5h135c9.33301 0 17.5 -3.16699 24.5 -9.5s10.5 -14.166 10.5 -23.499v-147c0 -9.33301 -3.5 -17.5 -10.5 -24.5s-15.167 -10.5 -24.5 -10.5h-135c-9.33301 0 -17.5 3.5 -24.5 10.5s-10.5 15.167 -10.5 24.5
v147zM425 1443c0 9.33301 3.5 17.166 10.5 23.499s15.167 9.5 24.5 9.5h135c9.33301 0 17.5 -3.16699 24.5 -9.5s10.5 -14.166 10.5 -23.499v-147c0 -9.33301 -3.5 -17.5 -10.5 -24.5s-15.167 -10.5 -24.5 -10.5h-135c-9.33301 0 -17.5 3.5 -24.5 10.5
s-10.5 15.167 -10.5 24.5v147z" />
    <glyph glyph-name="copyright" unicode="&#xa9;" horiz-adv-x="1509" 
d="M756 1476c69.333 0 136.003 -9.00098 200.003 -27.001s123.833 -43.333 179.5 -76s106.5 -72 152.5 -118s85.333 -96.5 118 -151.5s58 -114 76 -177s27 -128.167 27 -195.5c0 -70 -9 -137 -27 -201s-43.5 -123.833 -76.5 -179.5s-72.5 -106.334 -118.5 -152.001
s-96.833 -84.667 -152.5 -117s-115.5 -57.333 -179.5 -75s-130.333 -26.5 -199 -26.5c-70.667 0 -138.334 9 -203.001 27s-125 43.333 -181 76s-106.833 71.834 -152.5 117.501s-84.834 96.334 -117.501 152.001s-57.834 115.5 -75.501 179.5s-26.5 130.333 -26.5 199
c0 70.667 9.16699 138.167 27.5 202.5s44 124 77 179s72.667 105 119 150s97.5 83.333 153.5 115s116 56 180 73s130.333 25.5 199 25.5zM756.003 1345c-56 0 -109.667 -7.33398 -161 -22.001s-99.5 -35.334 -144.5 -62.001s-86 -58.667 -123 -96
s-68.667 -78.666 -95 -123.999s-46.666 -94.166 -60.999 -146.499s-21.5 -106.833 -21.5 -163.5c0 -86.667 16 -167.667 48 -243s75.5 -141 130.5 -197s119.167 -100 192.5 -132s151.666 -48 234.999 -48s161.666 16 234.999 48s137.333 76 192 132
s97.834 121.667 129.501 197s47.5 156.333 47.5 243c0 86 -16 166.333 -48 241s-75.5 139.667 -130.5 195s-119.167 98.833 -192.5 130.5s-151 47.5 -233 47.5zM958.003 869.998c-19.333 87.333 -83.3311 130.999 -191.998 130.999c-70.667 0 -126.167 -22.5 -166.5 -67.5
s-60.5 -112.5 -60.5 -202.5c0 -185.333 75.667 -278 227 -278c108 0 172 49 192 147h146c-30.667 -178.667 -143.334 -268 -338.001 -268c-57.333 0 -108.833 9.5 -154.5 28.5s-84.334 46 -116.001 81s-56 77.333 -73 127s-25.5 105.167 -25.5 166.5
c0 60 8.66699 114 26 162s41.833 88.833 73.5 122.5s70 59.5 115 77.5s95.167 27 150.5 27c44.667 0 86.167 -5.83301 124.5 -17.5s72 -28.5 101 -50.5s52.833 -48.667 71.5 -80s31 -66.666 37 -105.999h-138z" />
    <glyph glyph-name="ordfeminine" unicode="&#xaa;" horiz-adv-x="758" 
d="M74 1269c6 34.667 17.666 64.998 34.999 90.998s39.166 47.5 65.499 64.5s56.833 29.833 91.5 38.5s72.334 13 113.001 13c49.333 0 92.666 -4.16699 129.999 -12.5s68.5 -22 93.5 -41s43.833 -44 56.5 -75s19 -68.833 19 -113.5v-485h-117l-13 89
c-81.333 -71.333 -166.666 -107 -255.999 -107c-76.667 0 -136.334 20.333 -179.001 61c-44 40.667 -66 93.334 -66 158.001c0 32.667 5.66699 62.834 17 90.501s29.333 51.5 54 71.5s56.5 35.5 95.5 46.5s86.167 16.5 141.5 16.5h179v31c0 31.333 -2.66699 57 -8 77
s-14.166 35.667 -26.499 47s-28.5 19 -48.5 23s-44.667 6 -74 6c-46 0 -81.667 -8.16699 -107 -24.5s-42.666 -39.833 -51.999 -70.5h-138zM335.999 1076c-44 0 -78.333 -9.83398 -103 -29.501s-37 -46.5 -37 -80.5c0 -38 11.167 -66.667 33.5 -86s54.5 -29 96.5 -29
c22 0 43.667 3.16699 65 9.5s41 15.5 59 27.5s33.5 26.333 46.5 43s22.5 35 28.5 55l3.5 9c1 2.66699 2 6.33398 3 11.001s1.66699 11 2 19s0.5 19 0.5 33v18h-198z" />
    <glyph glyph-name="guillemotleft" unicode="&#xab;" 
d="M567 78h-176l-287 457l287 458h176l-264 -458zM997 78h-176l-286 457l286 458h176l-264 -458z" />
    <glyph glyph-name="logicalnot" unicode="&#xac;" horiz-adv-x="1196" 
d="M911 301v379h-798v158h970v-537h-172z" />
    <glyph glyph-name="uni00AD" unicode="&#xad;" horiz-adv-x="682" 
d="M74 625h534v-158h-534v158z" />
    <glyph glyph-name="registered" unicode="&#xae;" horiz-adv-x="1509" 
d="M756 1476c69.333 0 136.003 -9.00098 200.003 -27.001s123.833 -43.333 179.5 -76s106.5 -72 152.5 -118s85.333 -96.5 118 -151.5s58 -114 76 -177s27 -128.167 27 -195.5c0 -70 -9 -137 -27 -201s-43.5 -123.833 -76.5 -179.5s-72.5 -106.334 -118.5 -152.001
s-96.833 -84.667 -152.5 -117s-115.5 -57.333 -179.5 -75s-130.333 -26.5 -199 -26.5c-70.667 0 -138.334 9 -203.001 27s-125 43.333 -181 76s-106.833 71.834 -152.5 117.501s-84.834 96.334 -117.501 152.001s-57.834 115.5 -75.501 179.5s-26.5 130.333 -26.5 199
c0 70.667 9.16699 138.167 27.5 202.5s44 124 77 179s72.667 105 119 150s97.5 83.333 153.5 115s116 56 180 73s130.333 25.5 199 25.5zM756.003 1345c-56 0 -109.667 -7.33398 -161 -22.001s-99.5 -35.334 -144.5 -62.001s-86 -58.667 -123 -96
s-68.667 -78.666 -95 -123.999s-46.666 -94.166 -60.999 -146.499s-21.5 -106.833 -21.5 -163.5c0 -86.667 16 -167.667 48 -243s75.5 -141 130.5 -197s119.167 -100 192.5 -132s151.666 -48 234.999 -48s161.666 16 234.999 48s137.333 76 192 132
s97.834 121.667 129.501 197s47.5 156.333 47.5 243c0 86 -16 166.333 -48 241s-75.5 139.667 -130.5 195s-119.167 98.833 -192.5 130.5s-151 47.5 -233 47.5zM809.003 1112c38.667 0 73.667 -5.66895 105 -17.002s58 -27.166 80 -47.499s39 -44.666 51 -72.999
s18 -59.5 18 -93.5c0 -118 -58.667 -191 -176 -219l231 -320h-147l-205 303h-143v-303h-119v770h305zM743.003 747.996c37.333 0 68.5 2.16699 93.5 6.5s45 11.5 60 21.5s25.667 23.333 32 40s9.5 37 9.5 61c0 84.667 -55.333 127 -166 127h-149v-256h120z" />
    <glyph glyph-name="macron" unicode="&#xaf;" horiz-adv-x="682" 
d="M29 1326v150h624v-150h-624z" />
    <glyph glyph-name="degree" unicode="&#xb0;" horiz-adv-x="819" 
d="M127 1210c0 38 7.66699 73.166 23 105.499s35.666 60.333 60.999 84s54.833 42.334 88.5 56.001s69.167 20.5 106.5 20.5c36 0 70.5 -6.83301 103.5 -20.5s62.333 -32.5 88 -56.5s46.167 -52.167 61.5 -84.5s23 -67.166 23 -104.499s-7.16699 -72.333 -21.5 -105
s-34 -61.334 -59 -86.001s-54.333 -44.167 -88 -58.5s-69.5 -21.5 -107.5 -21.5c-39.333 0 -75.833 6.83301 -109.5 20.5s-63.167 32.5 -88.5 56.5s-45.166 52.5 -59.499 85.5s-21.5 69.167 -21.5 108.5zM244 1210c0 -24 4.16797 -45.833 12.501 -65.5
s19.833 -36.5 34.5 -50.5s31.834 -24.833 51.501 -32.5s40.834 -11.5 63.501 -11.5s43.667 3.83301 63 11.5s36.166 18.5 50.499 32.5s25.5 30.833 33.5 50.5s12 41.5 12 65.5s-4 45.833 -12 65.5s-19 36.334 -33 50.001s-30.833 24.334 -50.5 32.001
s-40.834 11.5 -63.501 11.5c-23.333 0 -44.833 -3.83301 -64.5 -11.5s-36.834 -18.334 -51.501 -32.001s-26 -30.334 -34 -50.001s-12 -41.5 -12 -65.5z" />
    <glyph glyph-name="plusminus" unicode="&#xb1;" horiz-adv-x="1124" 
d="M650 831h395v-158h-395v-393h-178v393h-393v158h393v394h178v-394zM1045 158v-158h-966v158h966z" />
    <glyph glyph-name="twosuperior" unicode="&#xb2;" horiz-adv-x="682" 
d="M48 1260c9.33301 38.667 21.998 71.667 37.998 99s36.167 49.666 60.5 66.999s53.5 30 87.5 38s73.333 12 118 12c50.667 0 94 -5.33301 130 -16s65.667 -25.167 89 -43.5s40.5 -39.833 51.5 -64.5s16.5 -51 16.5 -79c0 -27.333 -5.33301 -54.333 -16 -81
s-25.667 -52.667 -45 -78c-15.333 -19.333 -39.166 -43.166 -71.499 -71.499s-74.5 -61.5 -126.5 -99.5c-56 -40.667 -95.333 -73 -118 -97h377v-121h-603l-6 8c4.66699 46.667 27.334 93.167 68.001 139.5s101 98.5 181 156.5c96 70 153 115 171 135c26 28 39 56 39 84
c0 32 -13 58.333 -39 79s-62 31 -108 31c-22 0 -41 -1.5 -57 -4.5s-30 -8.5 -42 -16.5s-22.5 -18.667 -31.5 -32s-17.5 -30 -25.5 -50h-132l-6 5v0z" />
    <glyph glyph-name="threesuperior" unicode="&#xb3;" horiz-adv-x="682" 
d="M185 914c4 -23.333 9.66699 -42.667 17 -58s16.5 -27.333 27.5 -36s23.667 -14.667 38 -18s30.5 -5 48.5 -5c44 0 78.667 11.833 104 35.5s38 61.5 38 113.5c0 44 -13.5 75.5 -40.5 94.5s-65.5 28.5 -115.5 28.5h-76l-26 82l181 187h-305v118h509v-102l-175 -181
c67.333 -13.333 117 -39.833 149 -79.5s48 -87.167 48 -142.5c0 -39.333 -6.83301 -75.833 -20.5 -109.5s-33.167 -62.834 -58.5 -87.501s-56 -44.167 -92 -58.5s-76 -21.5 -120 -21.5c-78.667 0 -141.667 18.333 -189 55s-78 95.334 -92 176.001l6 9h144v0z" />
    <glyph glyph-name="acute" unicode="&#xb4;" horiz-adv-x="682" 
d="M176 1196l-3 8l181 272h209l2 -10l-228 -270h-161z" />
    <glyph glyph-name="mu" unicode="&#xb5;" horiz-adv-x="1180" 
d="M1026 0l-142.996 0.000976562l-21 133c-58.667 -88.667 -142 -133 -250 -133c-56.667 0 -106.334 7.66699 -149.001 23c-21.333 9.33301 -42.333 21.333 -63 36s-41.334 33.334 -62.001 56.001v-535h-178v1497h178v-644c0 -43.333 6.16699 -82.333 18.5 -117
s30.333 -64.334 54 -89.001s52.667 -43.667 87 -57s73.166 -20 116.499 -20c71.333 0 128.666 26.667 171.999 80c41.333 49.333 62 108.666 62 177.999v669h178v-1077z" />
    <glyph glyph-name="paragraph" unicode="&#xb6;" horiz-adv-x="1100" 
d="M965 -300l-172 0.00195312v1606h-234v-1606h-172v941c-61.333 2.66699 -116 14 -164 34s-88.5 47.167 -121.5 81.5s-58.167 75.666 -75.5 123.999s-26 102.166 -26 161.499c-0 64.667 10.333 122.5 31 173.5s51 94.333 91 130s89.5 63 148.5 82s126.5 28.5 202.5 28.5
h635v-150h-143v-1606z" />
    <glyph glyph-name="periodcentered" unicode="&#xb7;" horiz-adv-x="569" 
d="M182 732c0 9.33301 3.5 17.5 10.5 24.5s15.167 10.5 24.5 10.5h135c9.33301 0 17.5 -3.5 24.5 -10.5s10.5 -15.167 10.5 -24.5v-147c0 -9.33301 -3.5 -17.166 -10.5 -23.499s-15.167 -9.5 -24.5 -9.5h-135c-9.33301 0 -17.5 3.16699 -24.5 9.5s-10.5 14.166 -10.5 23.499
v147z" />
    <glyph glyph-name="cedilla" unicode="&#xb8;" horiz-adv-x="682" 
d="M384 11l6.00195 -11l-21 -92v-4h15c26.667 0 50.667 -5 72 -15s39.166 -22.667 53.499 -38s25.333 -32 33 -50s11.5 -35.333 11.5 -52c0 -24.667 -4.66699 -48 -14 -70s-24.333 -41.167 -45 -57.5s-47.667 -29.333 -81 -39s-74.333 -14.5 -123 -14.5
c-14 0 -30.5 0.333008 -49.5 1s-38 1.66699 -57 3s-37 2.83301 -54 4.5s-30.5 3.5 -40.5 5.5v109l16 11c8 -2 19.167 -3.83301 33.5 -5.5s28.833 -3.16699 43.5 -4.5s28.167 -2.33301 40.5 -3s21.166 -1 26.499 -1c50 0 86.5 5.33301 109.5 16s34.5 25.667 34.5 45
c0 10.667 -2.66699 20.334 -8 29.001s-14.5 16.167 -27.5 22.5s-30.5 11.166 -52.5 14.499s-49.333 5 -82 5h-9v14l47 177h122z" />
    <glyph glyph-name="onesuperior" unicode="&#xb9;" horiz-adv-x="682" 
d="M106 1296l236 180h108v-744h-144v547l-152 -81h-9z" />
    <glyph glyph-name="ordmasculine" unicode="&#xba;" horiz-adv-x="748" 
d="M373 1476c48 0 92 -8.66895 132 -26.002s74.5 -42.166 103.5 -74.499s51.667 -71.833 68 -118.5s24.5 -99 24.5 -157s-8 -110 -24 -156s-38.5 -85.333 -67.5 -118s-63.5 -57.667 -103.5 -75s-84 -26 -132 -26s-92.167 8.33301 -132.5 25s-75 40.834 -104 72.501
s-51.667 70.5 -68 116.5s-24.5 98.333 -24.5 157c0 60 8 113.5 24 160.5s38.5 86.833 67.5 119.5s63.667 57.5 104 74.5s84.5 25.5 132.5 25.5zM373 1341c-27.333 0 -51.999 -4.50098 -73.999 -13.501s-40.833 -23.167 -56.5 -42.5s-27.834 -44.333 -36.501 -75
s-13 -67.334 -13 -110.001c0 -42 4.5 -78.167 13.5 -108.5s21.5 -55.166 37.5 -74.499s35 -33.666 57 -42.999s46 -14 72 -14c26.667 0 51 4.5 73 13.5s41 23.333 57 43s28.333 45 37 76s13 68.5 13 112.5c0 40.667 -4.5 75.834 -13.5 105.501s-21.5 54.167 -37.5 73.5
s-35 33.666 -57 42.999s-46 14 -72 14z" />
    <glyph glyph-name="guillemotright" unicode="&#xbb;" 
d="M1034 535l-286 -457h-177l265 457l-265 458h177zM604 535l-287 -457h-176l265 457l-265 458h176z" />
    <glyph glyph-name="onequarter" unicode="&#xbc;" horiz-adv-x="1708" 
d="M404 -20h-157l1082 1496h156zM107 1276l237 180h107v-741h-144v544l-149 -86h-10zM1405 262v197l134 99h10v-296h104v-108h-104v-154h-144v154h-362l-21 123l383 479h144v-24l-385 -470h241z" />
    <glyph glyph-name="onehalf" unicode="&#xbd;" horiz-adv-x="1708" 
d="M347 -20h-157l1102 1496h156zM70 1276l237 180h107v-747h-144v550l-149 -86h-10zM1039 8c5.33301 45.333 28.6689 91.498 70.002 138.498s102.333 99.5 183 157.5c48 34.667 86.167 63.167 114.5 85.5s47.166 38.833 56.499 49.5c24.667 27.333 37 55.333 37 84
c0 32 -13.167 58 -39.5 78s-62.5 30 -108.5 30c-22 0 -40.833 -1.66699 -56.5 -5s-29.334 -9.16602 -41.001 -17.499s-21.834 -19.666 -30.501 -33.999s-16.667 -32.833 -24 -55.5h-146l-4 7c10 42 24.167 77.333 42.5 106s40.333 51.667 66 69s55 29.833 88 37.5
s69.167 11.5 108.5 11.5c50.667 0 94.334 -5.33301 131.001 -16s67 -25 91 -43s41.833 -39.333 53.5 -64s17.5 -51 17.5 -79c0 -56.667 -19.667 -109.667 -59 -159c-15.333 -19.333 -38.166 -43 -68.499 -71s-72.5 -61.667 -126.5 -101
c-29.333 -21.333 -53.833 -40 -73.5 -56s-34.834 -29.333 -45.501 -40h373v-121h-603z" />
    <glyph glyph-name="threequarters" unicode="&#xbe;" horiz-adv-x="1708" 
d="M430 -20h-157l1082 1496h156zM1369 262v197l134 99h10v-296h104v-108h-104v-154h-144v154h-352l-31 123l383 474h144v-24l-385 -465h241zM240 924c4 -23.333 9.33105 -43.001 15.998 -59.001s14.834 -28.667 24.501 -38s21.167 -16 34.5 -20s29 -6 47 -6
c44 0 77.833 11.167 101.5 33.5s35.5 59.5 35.5 111.5c0 44 -12.667 75.5 -38 94.5s-63 28.5 -113 28.5h-76l-26 82l181 187h-305v118h509v-102l-175 -181c67.333 -13.333 117.333 -39.833 150 -79.5s49 -87.167 49 -142.5c0 -39.333 -7 -75.333 -21 -108
s-33.667 -60.667 -59 -84s-56.166 -41.666 -92.499 -54.999s-76.5 -20 -120.5 -20c-78.667 0 -141.667 18.667 -189 56s-78 96.333 -92 177l6 7h153z" />
    <glyph glyph-name="questiondown" unicode="&#xbf;" horiz-adv-x="1251" 
d="M716 639c0 -43.333 -3.83105 -81.999 -11.498 -115.999s-19.334 -65.833 -35.001 -95.5s-35 -58.334 -58 -86.001s-49.833 -56.834 -80.5 -87.501l-81 -82c-78 -78 -117 -150.333 -117 -217c0 -150 95.667 -225 287 -225c168.667 0 266 93.333 292 280h178
c-34.667 -286.667 -190 -430 -466 -430c-312.667 0 -469 125 -469 375c0 34 3.5 64.833 10.5 92.5s17.667 54 32 79s32.166 49.667 53.499 74s46 49.833 74 76.5l82 78c27.333 26 49.5 50.333 66.5 73s30.167 43.334 39.5 62.001c10 21.333 17.667 45.833 23 73.5
s8 58.5 8 92.5v30h172v-47zM562.002 863.001c-9.33301 0 -17.5 3.16699 -24.5 9.5s-10.5 14.166 -10.5 23.499v145c0 9.33301 3.5 17.5 10.5 24.5s15.167 10.5 24.5 10.5h135c9.33301 0 17.5 -3.5 24.5 -10.5s10.5 -15.167 10.5 -24.5v-145
c0 -9.33301 -3.5 -17.166 -10.5 -23.499s-15.167 -9.5 -24.5 -9.5h-135z" />
    <glyph glyph-name="Agrave" unicode="&#xc0;" horiz-adv-x="1366" 
d="M1157 0l-145 420h-658l-145 -420h-197l535 1456h272l535 -1456h-197zM688 1333h-8l-270 -755h546zM477 1844l2 10h209l181 -272l-3 -8h-161z" />
    <glyph glyph-name="Aacute" unicode="&#xc1;" horiz-adv-x="1366" 
d="M1157 0l-145 420h-658l-145 -420h-197l535 1456h272l535 -1456h-197zM688 1333h-8l-270 -755h546zM490 1574l-3 8l181 272h209l2 -10l-228 -270h-161z" />
    <glyph glyph-name="Acircumflex" unicode="&#xc2;" horiz-adv-x="1366" 
d="M1157 0l-145 420h-658l-145 -420h-197l535 1456h272l535 -1456h-197zM688 1333h-8l-270 -755h546zM783 1854l211 -254l-2 -5h-170l-133 158h-12l-133 -158h-170l-2 5l211 254h200z" />
    <glyph glyph-name="Atilde" unicode="&#xc3;" horiz-adv-x="1366" 
d="M1157 0l-145 420h-658l-145 -420h-197l535 1456h272l535 -1456h-197zM688 1333h-8l-270 -755h546zM337 1578l-0.000976562 42c0 33.333 5.66699 63 17 89s26.833 48 46.5 66s42.334 31.667 68.001 41s53.167 14 82.5 14c20.667 0 45 -6 73 -18s60 -27 96 -45
c38.667 -20 70 -30 94 -30c21.333 0 38.5 5.16699 51.5 15.5s19.5 30.166 19.5 59.499v42h144v-42c0 -35.333 -5.5 -66.166 -16.5 -92.499s-26 -48.166 -45 -65.499s-41.167 -30.333 -66.5 -39s-52 -13 -80 -13c-41.333 0 -96.666 18.667 -165.999 56
c-46 24.667 -79 37 -99 37c-22.667 0 -40.834 -5.83301 -54.501 -17.5s-20.5 -30.834 -20.5 -57.501v-42h-144z" />
    <glyph glyph-name="Adieresis" unicode="&#xc4;" horiz-adv-x="1366" 
d="M1157 0l-145 420h-658l-145 -420h-197l535 1456h272l535 -1456h-197zM688 1333h-8l-270 -755h546zM394 1821c0 9.33301 3.5 17.166 10.5 23.499s15.167 9.5 24.5 9.5h135c9.33301 0 17.5 -3.16699 24.5 -9.5s10.5 -14.166 10.5 -23.499v-147
c0 -9.33301 -3.5 -17.5 -10.5 -24.5s-15.167 -10.5 -24.5 -10.5h-135c-9.33301 0 -17.5 3.5 -24.5 10.5s-10.5 15.167 -10.5 24.5v147zM767 1821c0 9.33301 3.5 17.166 10.5 23.499s15.167 9.5 24.5 9.5h135c9.33301 0 17.5 -3.16699 24.5 -9.5s10.5 -14.166 10.5 -23.499
v-147c0 -9.33301 -3.5 -17.5 -10.5 -24.5s-15.167 -10.5 -24.5 -10.5h-135c-9.33301 0 -17.5 3.5 -24.5 10.5s-10.5 15.167 -10.5 24.5v147z" />
    <glyph glyph-name="Aring" unicode="&#xc5;" horiz-adv-x="1366" 
d="M1352 5l-2 -5h-193l-145 420h-658l-145 -420h-193l-2 5l510 1387c-32 21.333 -56.667 49.333 -74 84s-26 77 -26 127c0 83.333 22.5 146 67.5 188s109.167 63 192.5 63s147.5 -21 192.5 -63s67.5 -104.667 67.5 -188c0 -50.667 -8.83301 -93.5 -26.5 -128.5
s-42.5 -62.833 -74.5 -83.5zM688 1341h-8l-270 -763h546zM684 1476c41.333 0 73.166 9.33301 95.499 28s33.5 51.667 33.5 99s-11.167 80.166 -33.5 98.499s-54.166 27.5 -95.499 27.5s-73.166 -9.16699 -95.499 -27.5s-33.5 -51.166 -33.5 -98.499s11.667 -80.333 35 -99
s54.666 -28 93.999 -28z" />
    <glyph glyph-name="AE" unicode="&#xc6;" horiz-adv-x="2048" 
d="M977 571v727h-138l-349 -727h487zM414 413l-198 -413h-204l700 1456h1197v-158h-744v-480h662v-158h-662v-502h771v-158h-959v413h-563z" />
    <glyph glyph-name="Ccedilla" unicode="&#xc7;" horiz-adv-x="1479" 
d="M299 730c0 -84.667 8.6709 -163.165 26.0039 -235.498s44.833 -134.833 82.5 -187.5s86.334 -94 146.001 -124s131.834 -45 216.501 -45c58.667 0 113 6.33301 163 19s93.833 32.5 131.5 59.5s68.5 61.833 92.5 104.5s39.333 93.667 46 153h192l5 -7
c-10.667 -82 -33.667 -153.5 -69 -214.5s-80.5 -111.667 -135.5 -152s-118.667 -70.5 -191 -90.5s-150.5 -30 -234.5 -30c-112.667 0 -210.834 17.5 -294.501 52.5s-153.167 85 -208.5 150s-96.666 143.667 -123.999 236s-41 196.166 -41 311.499
c0 112.667 14.667 215 44 307s72.666 170.5 129.999 235.5s128.166 115.167 212.499 150.5s181.5 53 291.5 53c73.333 0 142.666 -8.66699 207.999 -26s124.166 -44.333 176.499 -81s97.166 -83.834 134.499 -141.501s64.333 -126.834 81 -207.501l-4 -7h-190
c-16 53.333 -35.5 99.166 -58.5 137.499s-50.833 70 -83.5 95s-70.667 43.333 -114 55s-93.333 17.5 -150 17.5c-84.667 0 -157.334 -13.833 -218.001 -41.5s-110.5 -67.167 -149.5 -118.5s-67.667 -113.166 -86 -185.499s-27.5 -153.166 -27.5 -242.499zM813.004 11.002
l6.00195 -11l-21 -92v-4h15c26.667 0 50.667 -5 72 -15s39.166 -22.667 53.499 -38s25.333 -32 33 -50s11.5 -35.333 11.5 -52c0 -24.667 -4.66699 -48 -14 -70s-24.333 -41.167 -45 -57.5s-47.667 -29.333 -81 -39s-74.333 -14.5 -123 -14.5c-14 0 -30.5 0.333008 -49.5 1
s-38 1.66699 -57 3s-37 2.83301 -54 4.5s-30.5 3.5 -40.5 5.5v109l16 11c8 -2 19.167 -3.83301 33.5 -5.5s28.833 -3.16699 43.5 -4.5s28.167 -2.33301 40.5 -3s21.166 -1 26.499 -1c50 0 86.5 5.33301 109.5 16s34.5 25.667 34.5 45c0 10.667 -2.66699 20.334 -8 29.001
s-14.5 16.167 -27.5 22.5s-30.5 11.166 -52.5 14.499s-49.333 5 -82 5h-9v14l47 177h122z" />
    <glyph glyph-name="Egrave" unicode="&#xc8;" horiz-adv-x="1366" 
d="M1251 0h-1079v1456h1049v-158h-861v-462h705v-158h-705v-520h891v-158zM487 1844l2 10h209l181 -272l-3 -8h-161z" />
    <glyph glyph-name="Eacute" unicode="&#xc9;" horiz-adv-x="1366" 
d="M1251 0h-1079v1456h1049v-158h-861v-462h705v-158h-705v-520h891v-158zM540 1574l-3 8l181 272h209l2 -10l-228 -270h-161z" />
    <glyph glyph-name="Ecircumflex" unicode="&#xca;" horiz-adv-x="1366" 
d="M1251 0h-1079v1456h1049v-158h-861v-462h705v-158h-705v-520h891v-158zM803 1854l211 -254l-2 -5h-170l-133 158h-12l-133 -158h-170l-2 5l211 254h200z" />
    <glyph glyph-name="Edieresis" unicode="&#xcb;" horiz-adv-x="1366" 
d="M1251 0h-1079v1456h1049v-158h-861v-462h705v-158h-705v-520h891v-158zM410 1821c0 9.33301 3.5 17.166 10.5 23.499s15.167 9.5 24.5 9.5h135c9.33301 0 17.5 -3.16699 24.5 -9.5s10.5 -14.166 10.5 -23.499v-147c0 -9.33301 -3.5 -17.5 -10.5 -24.5
s-15.167 -10.5 -24.5 -10.5h-135c-9.33301 0 -17.5 3.5 -24.5 10.5s-10.5 15.167 -10.5 24.5v147zM783 1821c0 9.33301 3.5 17.166 10.5 23.499s15.167 9.5 24.5 9.5h135c9.33301 0 17.5 -3.16699 24.5 -9.5s10.5 -14.166 10.5 -23.499v-147
c0 -9.33301 -3.5 -17.5 -10.5 -24.5s-15.167 -10.5 -24.5 -10.5h-135c-9.33301 0 -17.5 3.5 -24.5 10.5s-10.5 15.167 -10.5 24.5v147z" />
    <glyph glyph-name="Igrave" unicode="&#xcc;" horiz-adv-x="569" 
d="M190 1456h188v-1456h-188v1456zM60 1844l2 10h209l181 -272l-3 -8h-161z" />
    <glyph glyph-name="Iacute" unicode="&#xcd;" horiz-adv-x="569" 
d="M190 1456h188v-1456h-188v1456zM143 1574l-3 8l181 272h209l2 -10l-228 -270h-161z" />
    <glyph glyph-name="Icircumflex" unicode="&#xce;" horiz-adv-x="569" 
d="M190 1456h188v-1456h-188v1456zM386 1854l211 -254l-2 -5h-170l-133 158h-12l-133 -158h-170l-2 5l211 254h200z" />
    <glyph glyph-name="Idieresis" unicode="&#xcf;" horiz-adv-x="569" 
d="M190 1456h188v-1456h-188v1456zM-3 1821c0 9.33301 3.5 17.166 10.5 23.499s15.167 9.5 24.5 9.5h135c9.33301 0 17.5 -3.16699 24.5 -9.5s10.5 -14.166 10.5 -23.499v-147c0 -9.33301 -3.5 -17.5 -10.5 -24.5s-15.167 -10.5 -24.5 -10.5h-135
c-9.33301 0 -17.5 3.5 -24.5 10.5s-10.5 15.167 -10.5 24.5v147zM370 1821c0 9.33301 3.5 17.166 10.5 23.499s15.167 9.5 24.5 9.5h135c9.33301 0 17.5 -3.16699 24.5 -9.5s10.5 -14.166 10.5 -23.499v-147c0 -9.33301 -3.5 -17.5 -10.5 -24.5s-15.167 -10.5 -24.5 -10.5
h-135c-9.33301 0 -17.5 3.5 -24.5 10.5s-10.5 15.167 -10.5 24.5v147z" />
    <glyph glyph-name="Eth" unicode="&#xd0;" horiz-adv-x="1479" 
d="M-3 797h176v659h479c111.333 0 211.5 -13.667 300.5 -41s164.5 -70 226.5 -128s109.667 -132.5 143 -223.5s50 -200.167 50 -327.5c0 -109.333 -14.333 -209 -43 -299s-71.834 -167.5 -129.501 -232.5s-130.167 -115.333 -217.5 -151s-189.666 -53.5 -306.999 -53.5h-502
v662h-176v135zM361 158h280c83.333 0 158 10 224 30s122 52.667 168 98s81.167 105 105.5 179s36.5 165 36.5 273c0 98.667 -10.333 183.5 -31 254.5s-53 129 -97 174s-99.833 78.167 -167.5 99.5s-148.5 32 -242.5 32h-276v-501h357v-135h-357v-504z" />
    <glyph glyph-name="Ntilde" unicode="&#xd1;" horiz-adv-x="1479" 
d="M160 1456h188l774 -1132h6v1132h188v-1456h-188l-774 1132h-6v-1132h-188v1456zM410 1578l-0.000976562 42c0 33.333 5.66699 63 17 89s26.833 48 46.5 66s42.334 31.667 68.001 41s53.167 14 82.5 14c20.667 0 45 -6 73 -18s60 -27 96 -45c38.667 -20 70 -30 94 -30
c21.333 0 38.5 5.16699 51.5 15.5s19.5 30.166 19.5 59.499v42h144v-42c0 -35.333 -5.5 -66.166 -16.5 -92.499s-26 -48.166 -45 -65.499s-41.167 -30.333 -66.5 -39s-52 -13 -80 -13c-41.333 0 -96.666 18.667 -165.999 56c-46 24.667 -79 37 -99 37
c-22.667 0 -40.834 -5.83301 -54.501 -17.5s-20.5 -30.834 -20.5 -57.501v-42h-144z" />
    <glyph glyph-name="Ograve" unicode="&#xd2;" horiz-adv-x="1593" 
d="M797 138c96 0 175.667 14.833 239 44.5s114 70.667 152 123s64.833 114.5 80.5 186.5s23.5 150.333 23.5 235s-7.83301 163 -23.5 235s-42.5 134.333 -80.5 187s-88.667 94 -152 124s-143 45 -239 45s-175.833 -15 -239.5 -45s-114.5 -71.333 -152.5 -124
s-64.833 -115 -80.5 -187s-23.5 -150.333 -23.5 -235s7.83301 -163 23.5 -235s42.5 -134.167 80.5 -186.5s88.833 -93.333 152.5 -123s143.5 -44.5 239.5 -44.5zM797 1476c124 0 229.667 -18.667 317 -56s158.833 -89.166 214.5 -155.499s96.334 -145.333 122.001 -237
s38.5 -191.834 38.5 -300.501s-12.833 -208.667 -38.5 -300s-66.334 -170.166 -122.001 -236.499s-127.167 -118 -214.5 -155s-193 -55.5 -317 -55.5s-229.833 18.5 -317.5 55.5s-159.334 88.667 -215.001 155s-96.334 145.166 -122.001 236.499s-38.5 191.333 -38.5 300
s12.833 208.834 38.5 300.501s66.334 170.667 122.001 237s127.334 118.166 215.001 155.499s193.5 56 317.5 56zM573 1844l2 10h209l181 -272l-3 -8h-161z" />
    <glyph glyph-name="Oacute" unicode="&#xd3;" horiz-adv-x="1593" 
d="M797 138c96 0 175.667 14.833 239 44.5s114 70.667 152 123s64.833 114.5 80.5 186.5s23.5 150.333 23.5 235s-7.83301 163 -23.5 235s-42.5 134.333 -80.5 187s-88.667 94 -152 124s-143 45 -239 45s-175.833 -15 -239.5 -45s-114.5 -71.333 -152.5 -124
s-64.833 -115 -80.5 -187s-23.5 -150.333 -23.5 -235s7.83301 -163 23.5 -235s42.5 -134.167 80.5 -186.5s88.833 -93.333 152.5 -123s143.5 -44.5 239.5 -44.5zM797 1476c124 0 229.667 -18.667 317 -56s158.833 -89.166 214.5 -155.499s96.334 -145.333 122.001 -237
s38.5 -191.834 38.5 -300.501s-12.833 -208.667 -38.5 -300s-66.334 -170.166 -122.001 -236.499s-127.167 -118 -214.5 -155s-193 -55.5 -317 -55.5s-229.833 18.5 -317.5 55.5s-159.334 88.667 -215.001 155s-96.334 145.166 -122.001 236.499s-38.5 191.333 -38.5 300
s12.833 208.834 38.5 300.501s66.334 170.667 122.001 237s127.334 118.166 215.001 155.499s193.5 56 317.5 56zM693 1574l-3 8l181 272h209l2 -10l-228 -270h-161z" />
    <glyph glyph-name="Ocircumflex" unicode="&#xd4;" horiz-adv-x="1593" 
d="M797 138c96 0 175.667 14.833 239 44.5s114 70.667 152 123s64.833 114.5 80.5 186.5s23.5 150.333 23.5 235s-7.83301 163 -23.5 235s-42.5 134.333 -80.5 187s-88.667 94 -152 124s-143 45 -239 45s-175.833 -15 -239.5 -45s-114.5 -71.333 -152.5 -124
s-64.833 -115 -80.5 -187s-23.5 -150.333 -23.5 -235s7.83301 -163 23.5 -235s42.5 -134.167 80.5 -186.5s88.833 -93.333 152.5 -123s143.5 -44.5 239.5 -44.5zM797 1476c124 0 229.667 -18.667 317 -56s158.833 -89.166 214.5 -155.499s96.334 -145.333 122.001 -237
s38.5 -191.834 38.5 -300.501s-12.833 -208.667 -38.5 -300s-66.334 -170.166 -122.001 -236.499s-127.167 -118 -214.5 -155s-193 -55.5 -317 -55.5s-229.833 18.5 -317.5 55.5s-159.334 88.667 -215.001 155s-96.334 145.166 -122.001 236.499s-38.5 191.333 -38.5 300
s12.833 208.834 38.5 300.501s66.334 170.667 122.001 237s127.334 118.166 215.001 155.499s193.5 56 317.5 56zM906 1854l211 -254l-2 -5h-170l-133 158h-12l-133 -158h-170l-2 5l211 254h200z" />
    <glyph glyph-name="Otilde" unicode="&#xd5;" horiz-adv-x="1593" 
d="M797 138c96 0 175.667 14.833 239 44.5s114 70.667 152 123s64.833 114.5 80.5 186.5s23.5 150.333 23.5 235s-7.83301 163 -23.5 235s-42.5 134.333 -80.5 187s-88.667 94 -152 124s-143 45 -239 45s-175.833 -15 -239.5 -45s-114.5 -71.333 -152.5 -124
s-64.833 -115 -80.5 -187s-23.5 -150.333 -23.5 -235s7.83301 -163 23.5 -235s42.5 -134.167 80.5 -186.5s88.833 -93.333 152.5 -123s143.5 -44.5 239.5 -44.5zM797 1476c124 0 229.667 -18.667 317 -56s158.833 -89.166 214.5 -155.499s96.334 -145.333 122.001 -237
s38.5 -191.834 38.5 -300.501s-12.833 -208.667 -38.5 -300s-66.334 -170.166 -122.001 -236.499s-127.167 -118 -214.5 -155s-193 -55.5 -317 -55.5s-229.833 18.5 -317.5 55.5s-159.334 88.667 -215.001 155s-96.334 145.166 -122.001 236.499s-38.5 191.333 -38.5 300
s12.833 208.834 38.5 300.501s66.334 170.667 122.001 237s127.334 118.166 215.001 155.499s193.5 56 317.5 56zM460 1578l-0.000976562 42c0 33.333 5.66699 63 17 89s26.833 48 46.5 66s42.334 31.667 68.001 41s53.167 14 82.5 14c20.667 0 45 -6 73 -18s60 -27 96 -45
c38.667 -20 70 -30 94 -30c21.333 0 38.5 5.16699 51.5 15.5s19.5 30.166 19.5 59.499v42h144v-42c0 -35.333 -5.5 -66.166 -16.5 -92.499s-26 -48.166 -45 -65.499s-41.167 -30.333 -66.5 -39s-52 -13 -80 -13c-41.333 0 -96.666 18.667 -165.999 56
c-46 24.667 -79 37 -99 37c-22.667 0 -40.834 -5.83301 -54.501 -17.5s-20.5 -30.834 -20.5 -57.501v-42h-144z" />
    <glyph glyph-name="Odieresis" unicode="&#xd6;" horiz-adv-x="1593" 
d="M797 138c96 0 175.667 14.833 239 44.5s114 70.667 152 123s64.833 114.5 80.5 186.5s23.5 150.333 23.5 235s-7.83301 163 -23.5 235s-42.5 134.333 -80.5 187s-88.667 94 -152 124s-143 45 -239 45s-175.833 -15 -239.5 -45s-114.5 -71.333 -152.5 -124
s-64.833 -115 -80.5 -187s-23.5 -150.333 -23.5 -235s7.83301 -163 23.5 -235s42.5 -134.167 80.5 -186.5s88.833 -93.333 152.5 -123s143.5 -44.5 239.5 -44.5zM797 1476c124 0 229.667 -18.667 317 -56s158.833 -89.166 214.5 -155.499s96.334 -145.333 122.001 -237
s38.5 -191.834 38.5 -300.501s-12.833 -208.667 -38.5 -300s-66.334 -170.166 -122.001 -236.499s-127.167 -118 -214.5 -155s-193 -55.5 -317 -55.5s-229.833 18.5 -317.5 55.5s-159.334 88.667 -215.001 155s-96.334 145.166 -122.001 236.499s-38.5 191.333 -38.5 300
s12.833 208.834 38.5 300.501s66.334 170.667 122.001 237s127.334 118.166 215.001 155.499s193.5 56 317.5 56zM523 1821c0 9.33301 3.5 17.166 10.5 23.499s15.167 9.5 24.5 9.5h135c9.33301 0 17.5 -3.16699 24.5 -9.5s10.5 -14.166 10.5 -23.499v-147
c0 -9.33301 -3.5 -17.5 -10.5 -24.5s-15.167 -10.5 -24.5 -10.5h-135c-9.33301 0 -17.5 3.5 -24.5 10.5s-10.5 15.167 -10.5 24.5v147zM896 1821c0 9.33301 3.5 17.166 10.5 23.499s15.167 9.5 24.5 9.5h135c9.33301 0 17.5 -3.16699 24.5 -9.5s10.5 -14.166 10.5 -23.499
v-147c0 -9.33301 -3.5 -17.5 -10.5 -24.5s-15.167 -10.5 -24.5 -10.5h-135c-9.33301 0 -17.5 3.5 -24.5 10.5s-10.5 15.167 -10.5 24.5v147z" />
    <glyph glyph-name="multiply" unicode="&#xd7;" horiz-adv-x="1196" 
d="M286 252l-127 127l312 312l-312 312l127 127l312 -312l312 312l127 -127l-312 -312l312 -312l-127 -127l-312 312z" />
    <glyph glyph-name="Oslash" unicode="&#xd8;" horiz-adv-x="1593" 
d="M1330 1229c32 -48 58.002 -92.1719 78.002 -132.505s35.5 -79.833 46.5 -118.5s18.5 -78 22.5 -118s6 -83.667 6 -131c0 -119.333 -18.5 -225.5 -55.5 -318.5s-87 -171.333 -150 -235s-136.167 -112.167 -219.5 -145.5s-171 -50 -263 -50
c-41.333 0 -79.5 1.83301 -114.5 5.5s-69.833 11 -104.5 22s-70.334 26.333 -107.001 46s-77 45.834 -121 78.501l-166 -186l-98 83l174 195c-33.333 50.667 -60.5 95.834 -81.5 135.501s-37.333 78.334 -49 116.001s-19.667 76.334 -24 116.001s-6.5 84.834 -6.5 135.501
c0 120.667 18.333 227.5 55 320.5s86.5 171.333 149.5 235s136.667 111.834 221 144.501s174.5 49 270.5 49c44.667 0 85.667 -2.5 123 -7.5s73.5 -13.333 108.5 -25s69.667 -27.334 104 -47.001s71.166 -44.5 110.499 -74.5l167 186l98 -83zM1121 1188
c-32 24.667 -61 45.333 -87 62s-51.5 30 -76.5 40s-50.5 17.167 -76.5 21.5s-55 6.5 -87 6.5c-71.333 0 -137.5 -12.333 -198.5 -37s-113.833 -61.5 -158.5 -110.5s-79.667 -110.167 -105 -183.5s-38 -159 -38 -257c0 -35.333 1 -67.5 3 -96.5s6 -57.5 12 -85.5
s14.833 -56.833 26.5 -86.5s27.167 -62.5 46.5 -98.5zM466.002 263.994c28.667 -24 56.168 -44 82.501 -60s52.5 -28.833 78.5 -38.5s52.167 -16.667 78.5 -21s54.166 -6.5 83.499 -6.5c71.333 0 137.333 13.333 198 40s113.167 65.167 157.5 115.5s79 111.833 104 184.5
s37.5 154.667 37.5 246c0 136 -28 256.667 -84 362z" />
    <glyph glyph-name="Ugrave" unicode="&#xd9;" horiz-adv-x="1479" 
d="M350 616c0 -77.333 5.83496 -145.668 17.502 -205.001s32.334 -109.166 62.001 -149.499s69.5 -71 119.5 -92s113.333 -31.5 190 -31.5c77.333 0 141.166 10.333 191.499 31s90.166 51 119.499 91s49.666 89.833 60.999 149.5s17 128.5 17 206.5v840h188v-864
c0 -98.667 -10.5 -186 -31.5 -262s-54.667 -140 -101 -192s-106 -91.333 -179 -118s-161.5 -40 -265.5 -40s-192.667 13.333 -266 40s-133 66 -179 118s-79.5 116 -100.5 192s-31.5 163.333 -31.5 262v864h188v-840zM483.002 1844l2 10h209l181 -272l-3 -8h-161z" />
    <glyph glyph-name="Uacute" unicode="&#xda;" horiz-adv-x="1479" 
d="M350 616c0 -77.333 5.83496 -145.668 17.502 -205.001s32.334 -109.166 62.001 -149.499s69.5 -71 119.5 -92s113.333 -31.5 190 -31.5c77.333 0 141.166 10.333 191.499 31s90.166 51 119.499 91s49.666 89.833 60.999 149.5s17 128.5 17 206.5v840h188v-864
c0 -98.667 -10.5 -186 -31.5 -262s-54.667 -140 -101 -192s-106 -91.333 -179 -118s-161.5 -40 -265.5 -40s-192.667 13.333 -266 40s-133 66 -179 118s-79.5 116 -100.5 192s-31.5 163.333 -31.5 262v864h188v-840zM626.002 1574l-3 8l181 272h209l2 -10l-228 -270h-161z
" />
    <glyph glyph-name="Ucircumflex" unicode="&#xdb;" horiz-adv-x="1479" 
d="M350 616c0 -77.333 5.83496 -145.668 17.502 -205.001s32.334 -109.166 62.001 -149.499s69.5 -71 119.5 -92s113.333 -31.5 190 -31.5c77.333 0 141.166 10.333 191.499 31s90.166 51 119.499 91s49.666 89.833 60.999 149.5s17 128.5 17 206.5v840h188v-864
c0 -98.667 -10.5 -186 -31.5 -262s-54.667 -140 -101 -192s-106 -91.333 -179 -118s-161.5 -40 -265.5 -40s-192.667 13.333 -266 40s-133 66 -179 118s-79.5 116 -100.5 192s-31.5 163.333 -31.5 262v864h188v-840zM845.002 1854l211 -254l-2 -5h-170l-133 158h-12
l-133 -158h-170l-2 5l211 254h200z" />
    <glyph glyph-name="Udieresis" unicode="&#xdc;" horiz-adv-x="1479" 
d="M350 616c0 -77.333 5.83496 -145.668 17.502 -205.001s32.334 -109.166 62.001 -149.499s69.5 -71 119.5 -92s113.333 -31.5 190 -31.5c77.333 0 141.166 10.333 191.499 31s90.166 51 119.499 91s49.666 89.833 60.999 149.5s17 128.5 17 206.5v840h188v-864
c0 -98.667 -10.5 -186 -31.5 -262s-54.667 -140 -101 -192s-106 -91.333 -179 -118s-161.5 -40 -265.5 -40s-192.667 13.333 -266 40s-133 66 -179 118s-79.5 116 -100.5 192s-31.5 163.333 -31.5 262v864h188v-840zM457.002 1821c0 9.33301 3.5 17.166 10.5 23.499
s15.167 9.5 24.5 9.5h135c9.33301 0 17.5 -3.16699 24.5 -9.5s10.5 -14.166 10.5 -23.499v-147c0 -9.33301 -3.5 -17.5 -10.5 -24.5s-15.167 -10.5 -24.5 -10.5h-135c-9.33301 0 -17.5 3.5 -24.5 10.5s-10.5 15.167 -10.5 24.5v147zM830.002 1821
c0 9.33301 3.5 17.166 10.5 23.499s15.167 9.5 24.5 9.5h135c9.33301 0 17.5 -3.16699 24.5 -9.5s10.5 -14.166 10.5 -23.499v-147c0 -9.33301 -3.5 -17.5 -10.5 -24.5s-15.167 -10.5 -24.5 -10.5h-135c-9.33301 0 -17.5 3.5 -24.5 10.5s-10.5 15.167 -10.5 24.5v147z" />
    <glyph glyph-name="Yacute" unicode="&#xdd;" horiz-adv-x="1366" 
d="M584 633l-539 811v12h219l418 -665l426 665h213v-12l-549 -811v-633h-188v633zM570 1574l-3 8l181 272h209l2 -10l-228 -270h-161z" />
    <glyph glyph-name="Thorn" unicode="&#xde;" horiz-adv-x="1366" 
d="M361 1183h314.003c74 0 145 -6.33301 213 -19s128.167 -35.5 180.5 -68.5s94.166 -78.333 125.499 -136s47 -131.5 47 -221.5c0 -80 -12.667 -149.167 -38 -207.5s-61.833 -106.5 -109.5 -144.5s-105.334 -66.333 -173.001 -85s-143.834 -28 -228.501 -28h-331v-273h-188
v1456h188v-273zM695.003 431c62.667 0 116.169 7.83398 160.502 23.501s80.5 37.167 108.5 64.5s48.333 59.166 61 95.499s19 75.5 19 117.5c0 56 -9.5 102.833 -28.5 140.5s-44.833 67.667 -77.5 90s-70.334 38.333 -113.001 48s-87.334 14.5 -134.001 14.5h-330v-594h334z
" />
    <glyph glyph-name="germandbls" unicode="&#xdf;" horiz-adv-x="1251" 
d="M154 999c0 78.667 11.3379 148.503 34.0049 209.503s54.834 112.333 96.501 154s92.167 73.167 151.5 94.5s125.666 32 198.999 32c64 0 123.167 -7.83301 177.5 -23.5s101.166 -38.334 140.499 -68.001s70.166 -65.5 92.499 -107.5s33.5 -89 33.5 -141
c0 -40 -3.33301 -76 -10 -108s-18 -61.5 -34 -88.5s-37.5 -52.333 -64.5 -76s-60.833 -46.834 -101.5 -69.501c61.333 -23.333 112.5 -48.333 153.5 -75s73.667 -56.5 98 -89.5s41.5 -70.5 51.5 -112.5s15 -90 15 -144c0 -48 -7.83301 -96.167 -23.5 -144.5
s-40.167 -91.833 -73.5 -130.5s-75.833 -70.167 -127.5 -94.5s-113.5 -36.5 -185.5 -36.5c-48.667 0 -94.834 7 -138.501 21s-82 33.833 -115 59.5s-59.5 56.334 -79.5 92.001s-30.667 75.5 -32 119.5l7 9h159c4.66699 -30.667 14.667 -55.834 30 -75.501s33 -35 53 -46
s40.833 -18.667 62.5 -23s41.5 -6.5 59.5 -6.5c24 0 48.667 3.83301 74 11.5s48.5 22 69.5 43s38.333 49.667 52 86s20.5 83.166 20.5 140.499c0 52.667 -11.667 98.167 -35 136.5s-55.5 69.833 -96.5 94.5s-89 43 -144 55s-114.167 18 -177.5 18h-39v150h75
c110 0 190.667 21.833 242 65.5s77 108.5 77 194.5c0 38.667 -8.83301 71.667 -26.5 99s-39.834 49.5 -66.501 66.5s-55.834 29.333 -87.501 37s-61.5 11.5 -89.5 11.5c-52.667 0 -97.834 -6.66699 -135.501 -20s-68.667 -34 -93 -62s-42.166 -64 -53.499 -108
s-17 -96.667 -17 -158v-991h-178v999z" />
    <glyph glyph-name="agrave" unicode="&#xe0;" 
d="M824 130l-6.99609 -0.00390625c-44 -49.333 -96.333 -86.666 -157 -111.999s-134.667 -38 -222 -38c-50 0 -95.833 6.33301 -137.5 19s-77.334 31.834 -107.001 57.501s-52.834 57.5 -69.501 95.5s-25 82.333 -25 133c0 48.667 10 94.167 30 136.5
s50.333 79.166 91 110.499s92 56 154 74s134.667 27 218 27h225v100c0 28 -3.83301 55 -11.5 81s-20.667 48.833 -39 68.5s-42.833 35.334 -73.5 47.001s-69 17.5 -115 17.5c-39.333 0 -72.5 -2.33301 -99.5 -7s-50 -13 -69 -25s-34.833 -28.5 -47.5 -49.5
s-24 -47.5 -34 -79.5h-171l-6 6c13.333 52 30.666 97.167 51.999 135.5s48.666 70 81.999 95s74 43.667 122 56s105.667 18.5 173 18.5c72.667 0 135.167 -8 187.5 -24s95.333 -40.667 129 -74s58.5 -75.666 74.5 -126.999s24 -112.666 24 -183.999v-688h-156z
M277.004 297.996c0 -62 15.167 -105.5 45.5 -130.5s75.833 -37.5 136.5 -37.5c49.333 0 95.833 5.5 139.5 16.5s81.667 29.167 114 54.5s57.833 59 76.5 101s28 94 28 156v25h-221c-56 0 -104.167 -3.66699 -144.5 -11s-73.5 -18.5 -99.5 -33.5s-45 -34.167 -57 -57.5
s-18 -51 -18 -83zM353.004 1479l2 10h209l181 -272l-3 -8h-161z" />
    <glyph glyph-name="aacute" unicode="&#xe1;" 
d="M824 130l-6.99609 -0.00390625c-44 -49.333 -96.333 -86.666 -157 -111.999s-134.667 -38 -222 -38c-50 0 -95.833 6.33301 -137.5 19s-77.334 31.834 -107.001 57.501s-52.834 57.5 -69.501 95.5s-25 82.333 -25 133c0 48.667 10 94.167 30 136.5
s50.333 79.166 91 110.499s92 56 154 74s134.667 27 218 27h225v100c0 28 -3.83301 55 -11.5 81s-20.667 48.833 -39 68.5s-42.833 35.334 -73.5 47.001s-69 17.5 -115 17.5c-39.333 0 -72.5 -2.33301 -99.5 -7s-50 -13 -69 -25s-34.833 -28.5 -47.5 -49.5
s-24 -47.5 -34 -79.5h-171l-6 6c13.333 52 30.666 97.167 51.999 135.5s48.666 70 81.999 95s74 43.667 122 56s105.667 18.5 173 18.5c72.667 0 135.167 -8 187.5 -24s95.333 -40.667 129 -74s58.5 -75.666 74.5 -126.999s24 -112.666 24 -183.999v-688h-156z
M277.004 297.996c0 -62 15.167 -105.5 45.5 -130.5s75.833 -37.5 136.5 -37.5c49.333 0 95.833 5.5 139.5 16.5s81.667 29.167 114 54.5s57.833 59 76.5 101s28 94 28 156v25h-221c-56 0 -104.167 -3.66699 -144.5 -11s-73.5 -18.5 -99.5 -33.5s-45 -34.167 -57 -57.5
s-18 -51 -18 -83zM466.004 1209l-3 8l181 272h209l2 -10l-228 -270h-161z" />
    <glyph glyph-name="acircumflex" unicode="&#xe2;" 
d="M824 130l-6.99609 -0.00390625c-44 -49.333 -96.333 -86.666 -157 -111.999s-134.667 -38 -222 -38c-50 0 -95.833 6.33301 -137.5 19s-77.334 31.834 -107.001 57.501s-52.834 57.5 -69.501 95.5s-25 82.333 -25 133c0 48.667 10 94.167 30 136.5
s50.333 79.166 91 110.499s92 56 154 74s134.667 27 218 27h225v100c0 28 -3.83301 55 -11.5 81s-20.667 48.833 -39 68.5s-42.833 35.334 -73.5 47.001s-69 17.5 -115 17.5c-39.333 0 -72.5 -2.33301 -99.5 -7s-50 -13 -69 -25s-34.833 -28.5 -47.5 -49.5
s-24 -47.5 -34 -79.5h-171l-6 6c13.333 52 30.666 97.167 51.999 135.5s48.666 70 81.999 95s74 43.667 122 56s105.667 18.5 173 18.5c72.667 0 135.167 -8 187.5 -24s95.333 -40.667 129 -74s58.5 -75.666 74.5 -126.999s24 -112.666 24 -183.999v-688h-156z
M277.004 297.996c0 -62 15.167 -105.5 45.5 -130.5s75.833 -37.5 136.5 -37.5c49.333 0 95.833 5.5 139.5 16.5s81.667 29.167 114 54.5s57.833 59 76.5 101s28 94 28 156v25h-221c-56 0 -104.167 -3.66699 -144.5 -11s-73.5 -18.5 -99.5 -33.5s-45 -34.167 -57 -57.5
s-18 -51 -18 -83zM699.004 1489l211 -254l-2 -5h-170l-133 158h-12l-133 -158h-170l-2 5l211 254h200z" />
    <glyph glyph-name="atilde" unicode="&#xe3;" 
d="M824 130l-6.99609 -0.00390625c-44 -49.333 -96.333 -86.666 -157 -111.999s-134.667 -38 -222 -38c-50 0 -95.833 6.33301 -137.5 19s-77.334 31.834 -107.001 57.501s-52.834 57.5 -69.501 95.5s-25 82.333 -25 133c0 48.667 10 94.167 30 136.5
s50.333 79.166 91 110.499s92 56 154 74s134.667 27 218 27h225v100c0 28 -3.83301 55 -11.5 81s-20.667 48.833 -39 68.5s-42.833 35.334 -73.5 47.001s-69 17.5 -115 17.5c-39.333 0 -72.5 -2.33301 -99.5 -7s-50 -13 -69 -25s-34.833 -28.5 -47.5 -49.5
s-24 -47.5 -34 -79.5h-171l-6 6c13.333 52 30.666 97.167 51.999 135.5s48.666 70 81.999 95s74 43.667 122 56s105.667 18.5 173 18.5c72.667 0 135.167 -8 187.5 -24s95.333 -40.667 129 -74s58.5 -75.666 74.5 -126.999s24 -112.666 24 -183.999v-688h-156z
M277.004 297.996c0 -62 15.167 -105.5 45.5 -130.5s75.833 -37.5 136.5 -37.5c49.333 0 95.833 5.5 139.5 16.5s81.667 29.167 114 54.5s57.833 59 76.5 101s28 94 28 156v25h-221c-56 0 -104.167 -3.66699 -144.5 -11s-73.5 -18.5 -99.5 -33.5s-45 -34.167 -57 -57.5
s-18 -51 -18 -83zM277.004 1213l-0.000976562 42c0 33.333 5.66699 63 17 89s26.833 48 46.5 66s42.334 31.667 68.001 41s53.167 14 82.5 14c20.667 0 45 -6 73 -18s60 -27 96 -45c38.667 -20 70 -30 94 -30c21.333 0 38.5 5.16699 51.5 15.5s19.5 30.166 19.5 59.499v42
h144v-42c0 -35.333 -5.5 -66.166 -16.5 -92.499s-26 -48.166 -45 -65.499s-41.167 -30.333 -66.5 -39s-52 -13 -80 -13c-41.333 0 -96.666 18.667 -165.999 56c-46 24.667 -79 37 -99 37c-22.667 0 -40.834 -5.83301 -54.501 -17.5s-20.5 -30.834 -20.5 -57.501v-42h-144z
" />
    <glyph glyph-name="adieresis" unicode="&#xe4;" 
d="M824 130l-6.99609 -0.00390625c-44 -49.333 -96.333 -86.666 -157 -111.999s-134.667 -38 -222 -38c-50 0 -95.833 6.33301 -137.5 19s-77.334 31.834 -107.001 57.501s-52.834 57.5 -69.501 95.5s-25 82.333 -25 133c0 48.667 10 94.167 30 136.5
s50.333 79.166 91 110.499s92 56 154 74s134.667 27 218 27h225v100c0 28 -3.83301 55 -11.5 81s-20.667 48.833 -39 68.5s-42.833 35.334 -73.5 47.001s-69 17.5 -115 17.5c-39.333 0 -72.5 -2.33301 -99.5 -7s-50 -13 -69 -25s-34.833 -28.5 -47.5 -49.5
s-24 -47.5 -34 -79.5h-171l-6 6c13.333 52 30.666 97.167 51.999 135.5s48.666 70 81.999 95s74 43.667 122 56s105.667 18.5 173 18.5c72.667 0 135.167 -8 187.5 -24s95.333 -40.667 129 -74s58.5 -75.666 74.5 -126.999s24 -112.666 24 -183.999v-688h-156z
M277.004 297.996c0 -62 15.167 -105.5 45.5 -130.5s75.833 -37.5 136.5 -37.5c49.333 0 95.833 5.5 139.5 16.5s81.667 29.167 114 54.5s57.833 59 76.5 101s28 94 28 156v25h-221c-56 0 -104.167 -3.66699 -144.5 -11s-73.5 -18.5 -99.5 -33.5s-45 -34.167 -57 -57.5
s-18 -51 -18 -83zM314.004 1444c0 9.33301 3.5 17.166 10.5 23.499s15.167 9.5 24.5 9.5h135c9.33301 0 17.5 -3.16699 24.5 -9.5s10.5 -14.166 10.5 -23.499v-147c0 -9.33301 -3.5 -17.5 -10.5 -24.5s-15.167 -10.5 -24.5 -10.5h-135c-9.33301 0 -17.5 3.5 -24.5 10.5
s-10.5 15.167 -10.5 24.5v147zM687.004 1444c0 9.33301 3.5 17.166 10.5 23.499s15.167 9.5 24.5 9.5h135c9.33301 0 17.5 -3.16699 24.5 -9.5s10.5 -14.166 10.5 -23.499v-147c0 -9.33301 -3.5 -17.5 -10.5 -24.5s-15.167 -10.5 -24.5 -10.5h-135
c-9.33301 0 -17.5 3.5 -24.5 10.5s-10.5 15.167 -10.5 24.5v147z" />
    <glyph glyph-name="aring" unicode="&#xe5;" 
d="M824 130l-6.99609 -0.00390625c-44 -49.333 -96.333 -86.666 -157 -111.999s-134.667 -38 -222 -38c-50 0 -95.833 6.33301 -137.5 19s-77.334 31.834 -107.001 57.501s-52.834 57.5 -69.501 95.5s-25 82.333 -25 133c0 48.667 10 94.167 30 136.5
s50.333 79.166 91 110.499s92 56 154 74s134.667 27 218 27h225v100c0 28 -3.83301 55 -11.5 81s-20.667 48.833 -39 68.5s-42.833 35.334 -73.5 47.001s-69 17.5 -115 17.5c-39.333 0 -72.5 -2.33301 -99.5 -7s-50 -13 -69 -25s-34.833 -28.5 -47.5 -49.5
s-24 -47.5 -34 -79.5h-171l-6 6c13.333 52 30.666 97.167 51.999 135.5s48.666 70 81.999 95s74 43.667 122 56s105.667 18.5 173 18.5c72.667 0 135.167 -8 187.5 -24s95.333 -40.667 129 -74s58.5 -75.666 74.5 -126.999s24 -112.666 24 -183.999v-688h-156z
M277.004 297.996c0 -62 15.167 -105.5 45.5 -130.5s75.833 -37.5 136.5 -37.5c49.333 0 95.833 5.5 139.5 16.5s81.667 29.167 114 54.5s57.833 59 76.5 101s28 94 28 156v25h-221c-56 0 -104.167 -3.66699 -144.5 -11s-73.5 -18.5 -99.5 -33.5s-45 -34.167 -57 -57.5
s-18 -51 -18 -83zM357.684 1352.41c0 78.2373 20.8203 137.381 62.4609 177.431s102.82 60.0742 183.539 60.0742s141.898 -20.0244 183.539 -60.0742s62.4609 -99.1934 62.4609 -177.431s-20.8203 -137.381 -62.4609 -177.431s-102.82 -60.0752 -183.539 -60.0752
s-141.898 20.0254 -183.539 60.0752s-62.4609 99.1934 -62.4609 177.431zM603.684 1240.64c37.1562 0 65.0234 8.38281 83.6016 25.1484c18.5781 16.7646 27.8672 45.6377 27.8672 86.6191s-9.28906 69.8545 -27.8672 86.6191s-46.4453 25.1475 -83.6016 25.1475
s-65.0234 -8.38281 -83.6016 -25.1475s-27.8672 -45.6377 -27.8672 -86.6191s9.92969 -69.8545 29.7891 -86.6191c19.8594 -16.7656 47.0859 -25.1484 81.6797 -25.1484z" />
    <glyph glyph-name="ae" unicode="&#xe6;" horiz-adv-x="1821" 
d="M1733 307l8.00391 -9.00391c-34 -112 -90.667 -193 -170 -243s-178.666 -75 -297.999 -75c-86 0 -162 15.667 -228 47s-125 81.333 -177 150c-69.333 -68 -140 -117.667 -212 -149s-149 -47 -231 -47c-57.333 0 -108.166 7.83301 -152.499 23.5s-81.5 37.167 -111.5 64.5
s-52.833 59.5 -68.5 96.5s-23.5 76.5 -23.5 118.5c0 60 12.667 112.167 38 156.5s61.666 81.333 108.999 111s104.333 51.834 171 66.501s141.667 22 225 22h178v82c0 42 -4.5 77.333 -13.5 106s-23.167 51.834 -42.5 69.501s-44.333 30.167 -75 37.5
s-67.334 11 -110.001 11c-44 0 -81.333 -3 -112 -9s-56.334 -16 -77.001 -30s-37.334 -32.5 -50.001 -55.5s-23.334 -51.5 -32.001 -85.5h-173l-7 8c13.333 54.667 31.666 102.334 54.999 143.001s53 74.334 89 101.001s79.333 46.5 130 59.5s110.334 19.5 179.001 19.5
c88.667 0 162.167 -11.5 220.5 -34.5s105.166 -62.167 140.499 -117.5c42.667 46.667 96.834 83.5 162.501 110.5s136.834 40.5 213.501 40.5c56 0 106.167 -7.33301 150.5 -22s83.333 -34.667 117 -60s62.5 -55.166 86.5 -89.499s43.5 -71 58.5 -110s26 -79.667 33 -122
s10.5 -84.5 10.5 -126.5c0 -44.667 -28.667 -67 -86 -67h-690c0 -52.667 6.16699 -101.334 18.5 -146.001s31.333 -83.5 57 -116.5s58.167 -58.833 97.5 -77.5s85.666 -28 138.999 -28c45.333 0 83.666 3.16699 114.999 9.5s57.833 16.5 79.5 30.5s39.667 32.167 54 54.5
s26.833 49.5 37.5 81.5h167zM1566 639.996c-4.66699 47.333 -14.999 89.833 -30.999 127.5s-36.667 69.667 -62 96s-55 46.5 -89 60.5s-71.333 21 -112 21c-42 0 -81.333 -7.16699 -118 -21.5s-68.834 -34.833 -96.501 -61.5s-49.5 -58.667 -65.5 -96s-24 -79.333 -24 -126
h598zM247.005 289.996c0 -46.667 18.332 -84.833 54.999 -114.5s89.334 -44.5 158.001 -44.5c58.667 0 109 9.33301 151 28s76.167 44.334 102.5 77.001s45.666 71.5 57.999 116.5s18.5 94.167 18.5 147.5h-161c-78 0 -141.667 -5.5 -191 -16.5s-88.166 -26 -116.499 -45
s-47.833 -41.333 -58.5 -67s-16 -52.834 -16 -81.501z" />
    <glyph glyph-name="ccedilla" unicode="&#xe7;" horiz-adv-x="1024" 
d="M977 330l5.99902 -4.99707c-8 -54 -23.167 -102.333 -45.5 -145s-51.666 -78.834 -87.999 -108.501s-79.666 -52.334 -129.999 -68.001s-107.833 -23.5 -172.5 -23.5c-80.667 0 -150.5 12.667 -209.5 38s-107.833 62.333 -146.5 111s-67.5 108.334 -86.5 179.001
s-28.5 151.334 -28.5 242.001c0 86.667 9.33301 164 28 232s47.167 125.333 85.5 172s86.833 82.167 145.5 106.5s128 36.5 208 36.5c57.333 0 110.5 -6 159.5 -18s92.167 -31 129.5 -57s68.166 -59.333 92.499 -100s40.5 -89.334 48.5 -146.001l-5 -6h-167
c-18.667 65.333 -49.5 111.166 -92.5 137.499s-96.833 39.5 -161.5 39.5c-52 0 -96.667 -9.33301 -134 -28s-67.666 -45.334 -90.999 -80.001s-40.5 -76.5 -51.5 -125.5s-16.5 -103.5 -16.5 -163.5c0 -144 24.667 -250 74 -318s123.666 -102 222.999 -102
c74.667 0 133.5 15.667 176.5 47s68.833 82.333 77.5 153h172zM593.999 11.0029l6.00195 -11l-21 -92v-4h15c26.667 0 50.667 -5 72 -15s39.166 -22.667 53.499 -38s25.333 -32 33 -50s11.5 -35.333 11.5 -52c0 -24.667 -4.66699 -48 -14 -70s-24.333 -41.167 -45 -57.5
s-47.667 -29.333 -81 -39s-74.333 -14.5 -123 -14.5c-14 0 -30.5 0.333008 -49.5 1s-38 1.66699 -57 3s-37 2.83301 -54 4.5s-30.5 3.5 -40.5 5.5v109l16 11c8 -2 19.167 -3.83301 33.5 -5.5s28.833 -3.16699 43.5 -4.5s28.167 -2.33301 40.5 -3s21.166 -1 26.499 -1
c50 0 86.5 5.33301 109.5 16s34.5 25.667 34.5 45c0 10.667 -2.66699 20.334 -8 29.001s-14.5 16.167 -27.5 22.5s-30.5 11.166 -52.5 14.499s-49.333 5 -82 5h-9v14l47 177h122z" />
    <glyph glyph-name="egrave" unicode="&#xe8;" 
d="M557 947c-37.333 0 -73.333 -7.00195 -108 -21.002s-65.5 -34.667 -92.5 -62s-49.167 -61.666 -66.5 -102.999s-27.333 -89 -30 -143h531c35.333 0 58.833 4.33301 70.5 13s17.5 24.334 17.5 47.001c0 45.333 -7.5 84.833 -22.5 118.5s-36.167 61.667 -63.5 84
s-60 39 -98 50s-80 16.5 -126 16.5h-12zM1051 320.998l5.99902 -8.00293c-30 -110 -83.833 -193 -161.5 -249s-180.167 -84 -307.5 -84c-164 0 -289.333 44.833 -376 134.5s-130 228.167 -130 415.5c0 88.667 11 168.167 33 238.5s54.167 129.833 96.5 178.5
s94.5 85.834 156.5 111.501s132.667 38.5 212 38.5c74.667 0 141.5 -11.167 200.5 -33.5s109 -53.166 150 -92.499s72.333 -86.166 94 -140.499s32.5 -113.5 32.5 -177.5c0 -35.333 -4.83301 -64.666 -14.5 -87.999s-25 -42.333 -46 -57s-48.167 -25 -81.5 -31
s-73.333 -9 -120 -9h-535c0 -45.333 5.33301 -88.5 16 -129.5s28.834 -77 54.501 -108s59.5 -55.5 101.5 -73.5s94.667 -27 158 -27c37.333 0 71.5 3.33301 102.5 10s58.5 17.5 82.5 32.5s44.833 34.667 62.5 59s31.5 54.166 41.5 89.499h172zM338.999 1479l2 10h209
l181 -272l-3 -8h-161z" />
    <glyph glyph-name="eacute" unicode="&#xe9;" 
d="M557 947c-37.333 0 -73.333 -7.00195 -108 -21.002s-65.5 -34.667 -92.5 -62s-49.167 -61.666 -66.5 -102.999s-27.333 -89 -30 -143h531c35.333 0 58.833 4.33301 70.5 13s17.5 24.334 17.5 47.001c0 45.333 -7.5 84.833 -22.5 118.5s-36.167 61.667 -63.5 84
s-60 39 -98 50s-80 16.5 -126 16.5h-12zM1051 320.998l5.99902 -8.00293c-30 -110 -83.833 -193 -161.5 -249s-180.167 -84 -307.5 -84c-164 0 -289.333 44.833 -376 134.5s-130 228.167 -130 415.5c0 88.667 11 168.167 33 238.5s54.167 129.833 96.5 178.5
s94.5 85.834 156.5 111.501s132.667 38.5 212 38.5c74.667 0 141.5 -11.167 200.5 -33.5s109 -53.166 150 -92.499s72.333 -86.166 94 -140.499s32.5 -113.5 32.5 -177.5c0 -35.333 -4.83301 -64.666 -14.5 -87.999s-25 -42.333 -46 -57s-48.167 -25 -81.5 -31
s-73.333 -9 -120 -9h-535c0 -45.333 5.33301 -88.5 16 -129.5s28.834 -77 54.501 -108s59.5 -55.5 101.5 -73.5s94.667 -27 158 -27c37.333 0 71.5 3.33301 102.5 10s58.5 17.5 82.5 32.5s44.833 34.667 62.5 59s31.5 54.166 41.5 89.499h172zM465.999 1209l-3 8l181 272
h209l2 -10l-228 -270h-161z" />
    <glyph glyph-name="ecircumflex" unicode="&#xea;" 
d="M557 947c-37.333 0 -73.333 -7.00195 -108 -21.002s-65.5 -34.667 -92.5 -62s-49.167 -61.666 -66.5 -102.999s-27.333 -89 -30 -143h531c35.333 0 58.833 4.33301 70.5 13s17.5 24.334 17.5 47.001c0 45.333 -7.5 84.833 -22.5 118.5s-36.167 61.667 -63.5 84
s-60 39 -98 50s-80 16.5 -126 16.5h-12zM1051 320.998l5.99902 -8.00293c-30 -110 -83.833 -193 -161.5 -249s-180.167 -84 -307.5 -84c-164 0 -289.333 44.833 -376 134.5s-130 228.167 -130 415.5c0 88.667 11 168.167 33 238.5s54.167 129.833 96.5 178.5
s94.5 85.834 156.5 111.501s132.667 38.5 212 38.5c74.667 0 141.5 -11.167 200.5 -33.5s109 -53.166 150 -92.499s72.333 -86.166 94 -140.499s32.5 -113.5 32.5 -177.5c0 -35.333 -4.83301 -64.666 -14.5 -87.999s-25 -42.333 -46 -57s-48.167 -25 -81.5 -31
s-73.333 -9 -120 -9h-535c0 -45.333 5.33301 -88.5 16 -129.5s28.834 -77 54.501 -108s59.5 -55.5 101.5 -73.5s94.667 -27 158 -27c37.333 0 71.5 3.33301 102.5 10s58.5 17.5 82.5 32.5s44.833 34.667 62.5 59s31.5 54.166 41.5 89.499h172zM695.999 1489l211 -254l-2 -5
h-170l-133 158h-12l-133 -158h-170l-2 5l211 254h200z" />
    <glyph glyph-name="edieresis" unicode="&#xeb;" 
d="M557 947c-37.333 0 -73.333 -7.00195 -108 -21.002s-65.5 -34.667 -92.5 -62s-49.167 -61.666 -66.5 -102.999s-27.333 -89 -30 -143h531c35.333 0 58.833 4.33301 70.5 13s17.5 24.334 17.5 47.001c0 45.333 -7.5 84.833 -22.5 118.5s-36.167 61.667 -63.5 84
s-60 39 -98 50s-80 16.5 -126 16.5h-12zM1051 320.998l5.99902 -8.00293c-30 -110 -83.833 -193 -161.5 -249s-180.167 -84 -307.5 -84c-164 0 -289.333 44.833 -376 134.5s-130 228.167 -130 415.5c0 88.667 11 168.167 33 238.5s54.167 129.833 96.5 178.5
s94.5 85.834 156.5 111.501s132.667 38.5 212 38.5c74.667 0 141.5 -11.167 200.5 -33.5s109 -53.166 150 -92.499s72.333 -86.166 94 -140.499s32.5 -113.5 32.5 -177.5c0 -35.333 -4.83301 -64.666 -14.5 -87.999s-25 -42.333 -46 -57s-48.167 -25 -81.5 -31
s-73.333 -9 -120 -9h-535c0 -45.333 5.33301 -88.5 16 -129.5s28.834 -77 54.501 -108s59.5 -55.5 101.5 -73.5s94.667 -27 158 -27c37.333 0 71.5 3.33301 102.5 10s58.5 17.5 82.5 32.5s44.833 34.667 62.5 59s31.5 54.166 41.5 89.499h172zM309.999 1443
c0 9.33301 3.5 17.166 10.5 23.499s15.167 9.5 24.5 9.5h135c9.33301 0 17.5 -3.16699 24.5 -9.5s10.5 -14.166 10.5 -23.499v-147c0 -9.33301 -3.5 -17.5 -10.5 -24.5s-15.167 -10.5 -24.5 -10.5h-135c-9.33301 0 -17.5 3.5 -24.5 10.5s-10.5 15.167 -10.5 24.5v147z
M682.999 1443c0 9.33301 3.5 17.166 10.5 23.499s15.167 9.5 24.5 9.5h135c9.33301 0 17.5 -3.16699 24.5 -9.5s10.5 -14.166 10.5 -23.499v-147c0 -9.33301 -3.5 -17.5 -10.5 -24.5s-15.167 -10.5 -24.5 -10.5h-135c-9.33301 0 -17.5 3.5 -24.5 10.5
s-10.5 15.167 -10.5 24.5v147z" />
    <glyph glyph-name="igrave" unicode="&#xec;" horiz-adv-x="569" 
d="M199 0v927h-130v150h308v-1077h-178zM0 1479l2 10h209l181 -272l-3 -8h-161z" />
    <glyph glyph-name="iacute" unicode="&#xed;" horiz-adv-x="569" 
d="M199 0v927h-130v150h308v-1077h-178zM123 1209l-3 8l181 272h209l2 -10l-228 -270h-161z" />
    <glyph glyph-name="icircumflex" unicode="&#xee;" horiz-adv-x="569" 
d="M199 0v927h-130v150h308v-1077h-178zM386 1489l211 -254l-2 -5h-170l-133 158h-12l-133 -158h-170l-2 5l211 254h200z" />
    <glyph glyph-name="idieresis" unicode="&#xef;" horiz-adv-x="569" 
d="M199 0v927h-130v150h308v-1077h-178zM-3 1443c0 9.33301 3.5 17.166 10.5 23.499s15.167 9.5 24.5 9.5h135c9.33301 0 17.5 -3.16699 24.5 -9.5s10.5 -14.166 10.5 -23.499v-147c0 -9.33301 -3.5 -17.5 -10.5 -24.5s-15.167 -10.5 -24.5 -10.5h-135
c-9.33301 0 -17.5 3.5 -24.5 10.5s-10.5 15.167 -10.5 24.5v147zM370 1443c0 9.33301 3.5 17.166 10.5 23.499s15.167 9.5 24.5 9.5h135c9.33301 0 17.5 -3.16699 24.5 -9.5s10.5 -14.166 10.5 -23.499v-147c0 -9.33301 -3.5 -17.5 -10.5 -24.5s-15.167 -10.5 -24.5 -10.5
h-135c-9.33301 0 -17.5 3.5 -24.5 10.5s-10.5 15.167 -10.5 24.5v147z" />
    <glyph glyph-name="eth" unicode="&#xf0;" 
d="M81 500c0 86 12.1631 161.171 36.4961 225.504s57.333 117.833 99 160.5s90.334 74.667 146.001 96s115.167 32 178.5 32c40.667 0 83 -5.83301 127 -17.5s88 -30.5 132 -56.5h6c-16.667 46.667 -40.334 94.334 -71.001 143.001s-69.667 95 -117 139l-145 -95l-11 2
l-55 86l137 89c-32 32 -66.5 61.667 -103.5 89s-73.833 50.333 -110.5 69v14h244c18.667 -10.667 37.5 -23.667 56.5 -39l51.5 -43l126 82h13l56 -85l-116 -76c62.667 -65.333 113.334 -130.833 152.001 -196.5s68.834 -131.334 90.501 -197.001
s36.167 -131.334 43.5 -197.001s11 -130.834 11 -195.501c0 -86.667 -12.167 -164 -36.5 -232s-58.166 -125.5 -101.499 -172.5s-94.833 -82.833 -154.5 -107.5s-124.834 -37 -195.501 -37c-67.333 0 -130.666 10 -189.999 30s-111.166 51.167 -155.499 93.5
s-79.333 96.166 -105 161.499s-38.5 143.666 -38.5 234.999zM869.996 511.004c0 64 -7.99902 118.332 -23.999 162.999s-37.833 81 -65.5 109s-60.167 48.5 -97.5 61.5s-77.333 19.5 -120 19.5c-42 0 -81 -6.16699 -117 -18.5s-67 -32.833 -93 -61.5
s-46.5 -66.5 -61.5 -113.5s-22.5 -105.167 -22.5 -174.5c0 -64.667 7.66699 -120.167 23 -166.5s36.5 -84.166 63.5 -113.499s58.667 -51 95 -65s75.833 -21 118.5 -21c42 0 81.167 7.5 117.5 22.5s68.166 38 95.499 69s48.833 70.5 64.5 118.5s23.5 105 23.5 171z" />
    <glyph glyph-name="ntilde" unicode="&#xf1;" 
d="M313 947l6.00293 -0.000976562c23.333 27.333 47 50.5 71 69.5s49.167 34.5 75.5 46.5s53.833 20.667 82.5 26s59.667 8 93 8c64.667 0 120.167 -9 166.5 -27s84 -44.833 113 -80.5s50.333 -79.5 64 -131.5s20.5 -112 20.5 -180v-678h-178v676
c0 54.667 -5.16699 99.667 -15.5 135s-25.333 63 -45 83s-43.334 33.833 -71.001 41.5s-58.834 11.5 -93.501 11.5c-36 0 -70.833 -6.66699 -104.5 -20s-63.834 -34.166 -90.501 -62.499s-48 -65 -64 -110s-24 -99.167 -24 -162.5v-592h-178v1077h158zM263.003 1213
l-0.000976562 42c0 33.333 5.66699 63 17 89s26.833 48 46.5 66s42.334 31.667 68.001 41s53.167 14 82.5 14c20.667 0 45 -6 73 -18s60 -27 96 -45c38.667 -20 70 -30 94 -30c21.333 0 38.5 5.16699 51.5 15.5s19.5 30.166 19.5 59.499v42h144v-42
c0 -35.333 -5.5 -66.166 -16.5 -92.499s-26 -48.166 -45 -65.499s-41.167 -30.333 -66.5 -39s-52 -13 -80 -13c-41.333 0 -96.666 18.667 -165.999 56c-46 24.667 -79 37 -99 37c-22.667 0 -40.834 -5.83301 -54.501 -17.5s-20.5 -30.834 -20.5 -57.501v-42h-144z" />
    <glyph glyph-name="ograve" unicode="&#xf2;" 
d="M569 -20c-82 0 -153.667 12.833 -215 38.5s-112.5 62.5 -153.5 110.5s-71.667 106.5 -92 175.5s-30.5 147.167 -30.5 234.5c0 86.667 10.167 164.5 30.5 233.5s51 127.5 92 175.5s92.167 84.833 153.5 110.5s133 38.5 215 38.5s153.667 -12.833 215 -38.5
s112.5 -62.5 153.5 -110.5s71.667 -106.5 92 -175.5s30.5 -146.833 30.5 -233.5c0 -87.333 -10.167 -165.5 -30.5 -234.5s-51 -127.5 -92 -175.5s-92.167 -84.833 -153.5 -110.5s-133 -38.5 -215 -38.5zM569 947c-54 0 -100.167 -10.833 -138.5 -32.5
s-69.666 -51 -93.999 -88s-42.166 -80.167 -53.499 -129.5s-17 -102 -17 -158s5.66699 -108.833 17 -158.5s29.166 -93 53.499 -130s55.666 -66.333 93.999 -88s84.5 -32.5 138.5 -32.5s100.167 10.833 138.5 32.5s69.666 51 93.999 88s42.166 80.333 53.499 130
s17 102.5 17 158.5s-5.66699 108.667 -17 158s-29.166 92.5 -53.499 129.5s-55.666 66.333 -93.999 88s-84.5 32.5 -138.5 32.5zM343 1479l2 10h209l181 -272l-3 -8h-161z" />
    <glyph glyph-name="oacute" unicode="&#xf3;" 
d="M569 -20c-82 0 -153.667 12.833 -215 38.5s-112.5 62.5 -153.5 110.5s-71.667 106.5 -92 175.5s-30.5 147.167 -30.5 234.5c0 86.667 10.167 164.5 30.5 233.5s51 127.5 92 175.5s92.167 84.833 153.5 110.5s133 38.5 215 38.5s153.667 -12.833 215 -38.5
s112.5 -62.5 153.5 -110.5s71.667 -106.5 92 -175.5s30.5 -146.833 30.5 -233.5c0 -87.333 -10.167 -165.5 -30.5 -234.5s-51 -127.5 -92 -175.5s-92.167 -84.833 -153.5 -110.5s-133 -38.5 -215 -38.5zM569 947c-54 0 -100.167 -10.833 -138.5 -32.5
s-69.666 -51 -93.999 -88s-42.166 -80.167 -53.499 -129.5s-17 -102 -17 -158s5.66699 -108.833 17 -158.5s29.166 -93 53.499 -130s55.666 -66.333 93.999 -88s84.5 -32.5 138.5 -32.5s100.167 10.833 138.5 32.5s69.666 51 93.999 88s42.166 80.333 53.499 130
s17 102.5 17 158.5s-5.66699 108.667 -17 158s-29.166 92.5 -53.499 129.5s-55.666 66.333 -93.999 88s-84.5 32.5 -138.5 32.5zM466 1209l-3 8l181 272h209l2 -10l-228 -270h-161z" />
    <glyph glyph-name="ocircumflex" unicode="&#xf4;" 
d="M569 -20c-82 0 -153.667 12.833 -215 38.5s-112.5 62.5 -153.5 110.5s-71.667 106.5 -92 175.5s-30.5 147.167 -30.5 234.5c0 86.667 10.167 164.5 30.5 233.5s51 127.5 92 175.5s92.167 84.833 153.5 110.5s133 38.5 215 38.5s153.667 -12.833 215 -38.5
s112.5 -62.5 153.5 -110.5s71.667 -106.5 92 -175.5s30.5 -146.833 30.5 -233.5c0 -87.333 -10.167 -165.5 -30.5 -234.5s-51 -127.5 -92 -175.5s-92.167 -84.833 -153.5 -110.5s-133 -38.5 -215 -38.5zM569 947c-54 0 -100.167 -10.833 -138.5 -32.5
s-69.666 -51 -93.999 -88s-42.166 -80.167 -53.499 -129.5s-17 -102 -17 -158s5.66699 -108.833 17 -158.5s29.166 -93 53.499 -130s55.666 -66.333 93.999 -88s84.5 -32.5 138.5 -32.5s100.167 10.833 138.5 32.5s69.666 51 93.999 88s42.166 80.333 53.499 130
s17 102.5 17 158.5s-5.66699 108.667 -17 158s-29.166 92.5 -53.499 129.5s-55.666 66.333 -93.999 88s-84.5 32.5 -138.5 32.5zM690 1489l211 -254l-2 -5h-170l-133 158h-12l-133 -158h-170l-2 5l211 254h200z" />
    <glyph glyph-name="otilde" unicode="&#xf5;" 
d="M569 -20c-82 0 -153.667 12.833 -215 38.5s-112.5 62.5 -153.5 110.5s-71.667 106.5 -92 175.5s-30.5 147.167 -30.5 234.5c0 86.667 10.167 164.5 30.5 233.5s51 127.5 92 175.5s92.167 84.833 153.5 110.5s133 38.5 215 38.5s153.667 -12.833 215 -38.5
s112.5 -62.5 153.5 -110.5s71.667 -106.5 92 -175.5s30.5 -146.833 30.5 -233.5c0 -87.333 -10.167 -165.5 -30.5 -234.5s-51 -127.5 -92 -175.5s-92.167 -84.833 -153.5 -110.5s-133 -38.5 -215 -38.5zM569 947c-54 0 -100.167 -10.833 -138.5 -32.5
s-69.666 -51 -93.999 -88s-42.166 -80.167 -53.499 -129.5s-17 -102 -17 -158s5.66699 -108.833 17 -158.5s29.166 -93 53.499 -130s55.666 -66.333 93.999 -88s84.5 -32.5 138.5 -32.5s100.167 10.833 138.5 32.5s69.666 51 93.999 88s42.166 80.333 53.499 130
s17 102.5 17 158.5s-5.66699 108.667 -17 158s-29.166 92.5 -53.499 129.5s-55.666 66.333 -93.999 88s-84.5 32.5 -138.5 32.5zM243 1213l-0.000976562 42c0 33.333 5.66699 63 17 89s26.833 48 46.5 66s42.334 31.667 68.001 41s53.167 14 82.5 14c20.667 0 45 -6 73 -18
s60 -27 96 -45c38.667 -20 70 -30 94 -30c21.333 0 38.5 5.16699 51.5 15.5s19.5 30.166 19.5 59.499v42h144v-42c0 -35.333 -5.5 -66.166 -16.5 -92.499s-26 -48.166 -45 -65.499s-41.167 -30.333 -66.5 -39s-52 -13 -80 -13c-41.333 0 -96.666 18.667 -165.999 56
c-46 24.667 -79 37 -99 37c-22.667 0 -40.834 -5.83301 -54.501 -17.5s-20.5 -30.834 -20.5 -57.501v-42h-144z" />
    <glyph glyph-name="odieresis" unicode="&#xf6;" 
d="M569 -20c-82 0 -153.667 12.833 -215 38.5s-112.5 62.5 -153.5 110.5s-71.667 106.5 -92 175.5s-30.5 147.167 -30.5 234.5c0 86.667 10.167 164.5 30.5 233.5s51 127.5 92 175.5s92.167 84.833 153.5 110.5s133 38.5 215 38.5s153.667 -12.833 215 -38.5
s112.5 -62.5 153.5 -110.5s71.667 -106.5 92 -175.5s30.5 -146.833 30.5 -233.5c0 -87.333 -10.167 -165.5 -30.5 -234.5s-51 -127.5 -92 -175.5s-92.167 -84.833 -153.5 -110.5s-133 -38.5 -215 -38.5zM569 947c-54 0 -100.167 -10.833 -138.5 -32.5
s-69.666 -51 -93.999 -88s-42.166 -80.167 -53.499 -129.5s-17 -102 -17 -158s5.66699 -108.833 17 -158.5s29.166 -93 53.499 -130s55.666 -66.333 93.999 -88s84.5 -32.5 138.5 -32.5s100.167 10.833 138.5 32.5s69.666 51 93.999 88s42.166 80.333 53.499 130
s17 102.5 17 158.5s-5.66699 108.667 -17 158s-29.166 92.5 -53.499 129.5s-55.666 66.333 -93.999 88s-84.5 32.5 -138.5 32.5zM292 1443c0 9.33301 3.5 17.166 10.5 23.499s15.167 9.5 24.5 9.5h135c9.33301 0 17.5 -3.16699 24.5 -9.5s10.5 -14.166 10.5 -23.499v-147
c0 -9.33301 -3.5 -17.5 -10.5 -24.5s-15.167 -10.5 -24.5 -10.5h-135c-9.33301 0 -17.5 3.5 -24.5 10.5s-10.5 15.167 -10.5 24.5v147zM665 1443c0 9.33301 3.5 17.166 10.5 23.499s15.167 9.5 24.5 9.5h135c9.33301 0 17.5 -3.16699 24.5 -9.5s10.5 -14.166 10.5 -23.499
v-147c0 -9.33301 -3.5 -17.5 -10.5 -24.5s-15.167 -10.5 -24.5 -10.5h-135c-9.33301 0 -17.5 3.5 -24.5 10.5s-10.5 15.167 -10.5 24.5v147z" />
    <glyph glyph-name="divide" unicode="&#xf7;" horiz-adv-x="1124" 
d="M1045 753v-158h-966v158h966zM630 1098c9.33301 0 17.333 -3.5 24 -10.5s10 -15.167 10 -24.5v-147c0 -9.33301 -3.33301 -17.5 -10 -24.5s-14.667 -10.5 -24 -10.5h-136c-9.33301 0 -17.333 3.5 -24 10.5s-10 15.167 -10 24.5v147c0 9.33301 3.33301 17.5 10 24.5
s14.667 10.5 24 10.5h136zM630 467c9.33301 0 17.333 -3.5 24 -10.5s10 -15.167 10 -24.5v-147c0 -9.33301 -3.33301 -17.5 -10 -24.5s-14.667 -10.5 -24 -10.5h-136c-9.33301 0 -17.333 3.5 -24 10.5s-10 15.167 -10 24.5v147c0 9.33301 3.33301 17.5 10 24.5
s14.667 10.5 24 10.5h136z" />
    <glyph glyph-name="oslash" unicode="&#xf8;" horiz-adv-x="1251" 
d="M1005 929c24.667 -34 44.8311 -66.168 60.498 -96.501s28 -60.833 37 -91.5s15.167 -62.5 18.5 -95.5s5 -69.167 5 -108.5c0 -90 -12.5 -169.667 -37.5 -239s-59.667 -127.5 -104 -174.5s-97.333 -82.667 -159 -107s-129.167 -36.5 -202.5 -36.5
c-106 0 -199.667 26.667 -281 80l-105 -135l-94 71l108 141c-24.667 28 -45.167 56.667 -61.5 86s-29.333 60 -39 92s-16.5 65.167 -20.5 99.5s-6 70.5 -6 108.5c0 84.667 10.667 162.334 32 233.001s52.833 131.167 94.5 181.5s93.334 89.5 155.001 117.5
s132.834 42 213.501 42c27.333 0 53.333 -1.83301 78 -5.5s49 -9.16699 73 -16.5s48 -16.5 72 -27.5s49 -23.833 75 -38.5l100 130l96 -70zM815.997 876.999c-60.667 46.667 -124.333 69.999 -191 69.999c-44 0 -85 -8.66699 -123 -26s-71 -43.166 -99 -77.499
s-50.167 -77 -66.5 -128s-24.5 -110.5 -24.5 -178.5c0 -100 17.333 -183.333 52 -250zM441.998 190.998c26 -21.333 53.667 -36.832 83 -46.499s60.333 -14.5 93 -14.5c46 0 88.5 8.5 127.5 25.5s72.833 42.5 101.5 76.5s51 76.5 67 127.5s24 110.5 24 178.5
c0 22.667 -0.5 43.667 -1.5 63s-3 38.166 -6 56.499s-7.66699 37.333 -14 57s-14.833 41.5 -25.5 65.5z" />
    <glyph glyph-name="ugrave" unicode="&#xf9;" 
d="M825 130h-5.99805c-42.667 -55.333 -90.5 -94.166 -143.5 -116.499s-112.833 -33.5 -179.5 -33.5c-121.333 0 -212.166 35.667 -272.499 107s-90.5 179.666 -90.5 324.999v665h178v-661c0 -53.333 4.83301 -98.166 14.5 -134.499s23.667 -65.833 42 -88.5
s40.666 -38.834 66.999 -48.501s56.166 -14.5 89.499 -14.5c54 0 99.667 9.16699 137 27.5s67.666 44 90.999 77s40.333 72.333 51 118s16 95.5 16 149.5v575h178v-1077h-157zM333.002 1479l2 10h209l181 -272l-3 -8h-161z" />
    <glyph glyph-name="uacute" unicode="&#xfa;" 
d="M825 130h-5.99805c-42.667 -55.333 -90.5 -94.166 -143.5 -116.499s-112.833 -33.5 -179.5 -33.5c-121.333 0 -212.166 35.667 -272.499 107s-90.5 179.666 -90.5 324.999v665h178v-661c0 -53.333 4.83301 -98.166 14.5 -134.499s23.667 -65.833 42 -88.5
s40.666 -38.834 66.999 -48.501s56.166 -14.5 89.499 -14.5c54 0 99.667 9.16699 137 27.5s67.666 44 90.999 77s40.333 72.333 51 118s16 95.5 16 149.5v575h178v-1077h-157zM436.002 1209l-3 8l181 272h209l2 -10l-228 -270h-161z" />
    <glyph glyph-name="ucircumflex" unicode="&#xfb;" 
d="M825 130h-5.99805c-42.667 -55.333 -90.5 -94.166 -143.5 -116.499s-112.833 -33.5 -179.5 -33.5c-121.333 0 -212.166 35.667 -272.499 107s-90.5 179.666 -90.5 324.999v665h178v-661c0 -53.333 4.83301 -98.166 14.5 -134.499s23.667 -65.833 42 -88.5
s40.666 -38.834 66.999 -48.501s56.166 -14.5 89.499 -14.5c54 0 99.667 9.16699 137 27.5s67.666 44 90.999 77s40.333 72.333 51 118s16 95.5 16 149.5v575h178v-1077h-157zM681.002 1489l211 -254l-2 -5h-170l-133 158h-12l-133 -158h-170l-2 5l211 254h200z" />
    <glyph glyph-name="udieresis" unicode="&#xfc;" 
d="M825 130h-5.99805c-42.667 -55.333 -90.5 -94.166 -143.5 -116.499s-112.833 -33.5 -179.5 -33.5c-121.333 0 -212.166 35.667 -272.499 107s-90.5 179.666 -90.5 324.999v665h178v-661c0 -53.333 4.83301 -98.166 14.5 -134.499s23.667 -65.833 42 -88.5
s40.666 -38.834 66.999 -48.501s56.166 -14.5 89.499 -14.5c54 0 99.667 9.16699 137 27.5s67.666 44 90.999 77s40.333 72.333 51 118s16 95.5 16 149.5v575h178v-1077h-157zM292.002 1443c0 9.33301 3.5 17.166 10.5 23.499s15.167 9.5 24.5 9.5h135
c9.33301 0 17.5 -3.16699 24.5 -9.5s10.5 -14.166 10.5 -23.499v-147c0 -9.33301 -3.5 -17.5 -10.5 -24.5s-15.167 -10.5 -24.5 -10.5h-135c-9.33301 0 -17.5 3.5 -24.5 10.5s-10.5 15.167 -10.5 24.5v147zM665.002 1443c0 9.33301 3.5 17.166 10.5 23.499
s15.167 9.5 24.5 9.5h135c9.33301 0 17.5 -3.16699 24.5 -9.5s10.5 -14.166 10.5 -23.499v-147c0 -9.33301 -3.5 -17.5 -10.5 -24.5s-15.167 -10.5 -24.5 -10.5h-135c-9.33301 0 -17.5 3.5 -24.5 10.5s-10.5 15.167 -10.5 24.5v147z" />
    <glyph glyph-name="yacute" unicode="&#xfd;" horiz-adv-x="1024" 
d="M176 -272l7.00293 1.99902c20.667 -4.66699 38 -7.83398 52 -9.50098s27.667 -2.5 41 -2.5c12 0 24 1.83301 36 5.5s24.5 13.5 37.5 29.5s27 40.5 42 73.5s31.833 79.167 50.5 138.5l11 33l-439 1073l4 6h183l333 -868h6l302 868h175l3 -6l-416 -1122
c-31.333 -84 -58.333 -151.167 -81 -201.5s-45.334 -88.666 -68.001 -114.999s-47.334 -43.666 -74.001 -51.999s-59.334 -12.5 -98.001 -12.5c-6.66699 0 -15.167 0.333008 -25.5 1s-21.5 1.66699 -33.5 3s-24.167 2.83301 -36.5 4.5s-23.5 3.5 -33.5 5.5zM389.003 1209
l-3 8l181 272h209l2 -10l-228 -270h-161z" />
    <glyph glyph-name="thorn" unicode="&#xfe;" 
d="M315 971c22.667 24.667 47.165 45.333 73.498 62s53.5 29.667 81.5 39s56.5 16 85.5 20s57.5 6 85.5 6c66.667 0 126.167 -12.667 178.5 -38s96.333 -61.333 132 -108s62.834 -103.167 81.501 -169.5s28 -140.5 28 -222.5c0 -87.333 -11 -165.5 -33 -234.5
s-53 -127.667 -93 -176s-88 -85.333 -144 -111s-118 -38.5 -186 -38.5c-25.333 0 -49.666 1.5 -72.999 4.5s-46.5 9.16699 -69.5 18.5s-46.5 22.5 -70.5 39.5s-49.667 39.833 -77 68.5v-551h-178v1876h178v-485zM297.998 545.999
c0 -69.333 7.99609 -128.832 23.9961 -178.499s37.5 -90.667 64.5 -123s58.167 -56.166 93.5 -71.499s72.666 -23 111.999 -23s76 7.16699 110 21.5s63.667 37.833 89 70.5s45.333 75.167 60 127.5s22 116.166 22 191.499c0 72 -7.16699 132.5 -21.5 181.5
s-33.666 88.833 -57.999 119.5s-53.166 52.667 -86.499 66s-69 20 -107 20c-37.333 0 -74.166 -8 -110.499 -24s-68.666 -40.5 -96.999 -73.5s-51.166 -74.833 -68.499 -125.5s-26 -110.334 -26 -179.001z" />
    <glyph glyph-name="ydieresis" unicode="&#xff;" horiz-adv-x="1024" 
d="M176 -272l7.00293 1.99902c20.667 -4.66699 38 -7.83398 52 -9.50098s27.667 -2.5 41 -2.5c12 0 24 1.83301 36 5.5s24.5 13.5 37.5 29.5s27 40.5 42 73.5s31.833 79.167 50.5 138.5l11 33l-439 1073l4 6h183l333 -868h6l302 868h175l3 -6l-416 -1122
c-31.333 -84 -58.333 -151.167 -81 -201.5s-45.334 -88.666 -68.001 -114.999s-47.334 -43.666 -74.001 -51.999s-59.334 -12.5 -98.001 -12.5c-6.66699 0 -15.167 0.333008 -25.5 1s-21.5 1.66699 -33.5 3s-24.167 2.83301 -36.5 4.5s-23.5 3.5 -33.5 5.5zM235.003 1443
c0 9.33301 3.5 17.166 10.5 23.499s15.167 9.5 24.5 9.5h135c9.33301 0 17.5 -3.16699 24.5 -9.5s10.5 -14.166 10.5 -23.499v-147c0 -9.33301 -3.5 -17.5 -10.5 -24.5s-15.167 -10.5 -24.5 -10.5h-135c-9.33301 0 -17.5 3.5 -24.5 10.5s-10.5 15.167 -10.5 24.5v147z
M608.003 1443c0 9.33301 3.5 17.166 10.5 23.499s15.167 9.5 24.5 9.5h135c9.33301 0 17.5 -3.16699 24.5 -9.5s10.5 -14.166 10.5 -23.499v-147c0 -9.33301 -3.5 -17.5 -10.5 -24.5s-15.167 -10.5 -24.5 -10.5h-135c-9.33301 0 -17.5 3.5 -24.5 10.5
s-10.5 15.167 -10.5 24.5v147z" />
    <glyph glyph-name="dotlessi" unicode="&#x131;" horiz-adv-x="569" 
d="M199 0v927h-130v150h308v-1077h-178z" />
    <glyph glyph-name="Lslash" unicode="&#x141;" 
d="M162 595l-145 -123v167l145 124v693h188v-558l302 256v-167l-302 -256v-573h731v-158h-919v595z" />
    <glyph glyph-name="lslash" unicode="&#x142;" horiz-adv-x="455" 
d="M465 0c-10 -2 -21.665 -3.83203 -34.998 -5.49902s-27.166 -3.16699 -41.499 -4.5s-28.333 -2.33301 -42 -3s-26.167 -1 -37.5 -1c-34 0 -62.333 5.33301 -85 16s-40.834 27 -54.501 49s-23.5 49.667 -29.5 83s-9 72.666 -9 117.999v354l-127 -102v158l127 102v725h178
v-581l138 111v-157l-138 -112v-499c0 -44 4.16699 -74.167 12.5 -90.5s21.166 -24.5 38.499 -24.5c11.333 0 24.166 0.833008 38.499 2.5s29.5 5.16699 45.5 10.5z" />
    <glyph glyph-name="OE" unicode="&#x152;" horiz-adv-x="2048" 
d="M1134 0l-0.00292969 205c-45.333 -79.333 -101.5 -136.666 -168.5 -171.999s-145.167 -53 -234.5 -53c-95.333 0 -180.166 17.833 -254.499 53.5s-137.333 86.334 -189 152.001s-91 145 -118 238s-40.5 196.833 -40.5 311.5c0 65.333 4.83301 129.166 14.5 191.499
s24.667 120.833 45 175.5s46.5 105 78.5 151s70.167 85.667 114.5 119s95.5 59.166 153.5 77.499s123.333 27.5 196 27.5c44.667 0 86.334 -3.5 125.001 -10.5s74.834 -18.5 108.501 -34.5s64.5 -36.833 92.5 -62.5s53.667 -57.167 77 -94.5v181h864v-158h-676v-465h605
v-158h-605v-537h707v-138h-895zM729.997 1319c-73.333 0 -135.498 -14.5029 -186.498 -43.5029s-92.667 -69.667 -125 -122s-55.833 -115.333 -70.5 -189s-22 -155.167 -22 -244.5c0 -102 11.167 -189.667 33.5 -263s52.166 -133.666 89.499 -180.999
s80.333 -82.166 129 -104.499s99.334 -33.5 152.001 -33.5s103.334 10.833 152.001 32.5s91.667 56.667 129 105s67.166 111 89.499 188s33.5 170.833 33.5 281.5c0 102.667 -11.333 190.334 -34 263.001s-52.834 132 -90.501 178s-80.834 79.667 -129.501 101
s-98.667 32 -150 32z" />
    <glyph glyph-name="oe" unicode="&#x153;" horiz-adv-x="1933" 
d="M978 174c-50.667 -66.667 -108.664 -115.666 -173.997 -146.999s-139.333 -47 -222 -47c-74 0 -141.667 12.333 -203 37s-114 60.5 -158 107.5s-78.167 104.167 -102.5 171.5s-36.5 144 -36.5 230c0 94.667 12.5 177.667 37.5 249s59.667 131 104 179s97 84 158 108
s127.5 36 199.5 36c46 0 89.333 -5 130 -15s78 -23.667 112 -41s64.167 -38.333 90.5 -63s47.833 -51.334 64.5 -80.001c43.333 62 99.333 110.667 168 146s145 53 229 53c72.667 0 138 -10.667 196 -32s107 -53.833 147 -97.5s70.667 -98.667 92 -165
s32 -144.833 32 -235.5c0 -6 -1.5 -13 -4.5 -21s-8.16699 -15.5 -15.5 -22.5s-17.666 -12.833 -30.999 -17.5s-30.333 -7 -51 -7h-670c0.666992 -55.333 9.16699 -105.833 25.5 -151.5s38.666 -84.667 66.999 -117s61.666 -57.333 99.999 -75s79.5 -26.5 123.5 -26.5
c32.667 0 64.5 3 95.5 9s59 16.5 84 31.5s46.167 35 63.5 60s29 56.167 35 93.5h176c-14 -55.333 -32.5 -104.333 -55.5 -147s-52.333 -78.5 -88 -107.5s-78.834 -51.167 -129.501 -66.5s-110.334 -23 -179.001 -23c-90.667 0 -171.167 16.667 -241.5 50
s-126.5 81.333 -168.5 144zM270.003 541.001c0 -71.333 8.33301 -132.834 25 -184.501s39.167 -94.167 67.5 -127.5s61.333 -58.166 99 -74.499s77.5 -24.5 119.5 -24.5c42.667 0 82.834 9 120.501 27s70.667 44.5 99 79.5s50.666 78.167 66.999 129.5
s24.5 110.333 24.5 177c0 66 -8.16699 124.333 -24.5 175s-38.5 93 -66.5 127s-61 59.667 -99 77s-78.333 26 -121 26c-43.333 0 -83.833 -9.16699 -121.5 -27.5s-70.5 -45 -98.5 -80s-50.167 -77.667 -66.5 -128s-24.5 -107.5 -24.5 -171.5zM1664 641
c0 50.667 -7.66992 95.166 -23.0029 133.499s-36.333 70.333 -63 96s-57.5 45 -92.5 58s-71.833 19.5 -110.5 19.5c-40 0 -77.667 -7.16699 -113 -21.5s-66.666 -34.666 -93.999 -60.999s-49.666 -58.5 -66.999 -96.5s-27.666 -80.667 -30.999 -128h594z" />
    <glyph glyph-name="Scaron" unicode="&#x160;" horiz-adv-x="1366" 
d="M285 468c0 -111.333 32.667 -194.165 98 -248.498s169 -81.5 311 -81.5c56.667 0 108.667 4.5 156 13.5s88.166 23.167 122.499 42.5s61 44.666 80 75.999s28.5 69.666 28.5 114.999c0 33.333 -4.66699 62.833 -14 88.5s-24.166 48.334 -44.499 68.001
s-46.5 36.834 -78.5 51.501s-70.333 27.334 -115 38.001l-266 63c-61.333 14.667 -117.166 32.834 -167.499 54.501s-93.5 48.167 -129.5 79.5s-64 68.333 -84 111s-30 92 -30 148c0 66 14.667 123.5 44 172.5s68.5 89.5 117.5 121.5s105.167 55.833 168.5 71.5
s129.333 23.5 198 23.5c76 0 147 -7.83301 213 -23.5s123.5 -40.334 172.5 -74.001s87.667 -77 116 -130s42.5 -116.833 42.5 -191.5l-5 -6h-183c0 48 -9.33301 89 -28 123s-44 61.667 -76 83s-69.667 36.833 -113 46.5s-89.666 14.5 -138.999 14.5
c-43.333 0 -85.333 -4.33301 -126 -13s-76.834 -22.334 -108.501 -41.001s-57.167 -42.667 -76.5 -72s-29 -64.333 -29 -105c0 -28.667 6.66699 -54.334 20 -77.001s32.833 -42.834 58.5 -60.501s57 -33.5 94 -47.5s79.167 -26.667 126.5 -38l268 -65
c58.667 -14 110.667 -31.833 156 -53.5s83.166 -48.167 113.499 -79.5s53.333 -68.166 69 -110.499s23.5 -91.5 23.5 -147.5c0 -72 -15.333 -134.667 -46 -188s-72.167 -97.833 -124.5 -133.5s-113 -62.334 -182 -80.001s-141.833 -26.5 -218.5 -26.5
c-98 0 -184.333 9.66699 -259 29s-137.5 48.833 -188.5 88.5s-89.5 89.667 -115.5 150s-39 131.833 -39 214.5l4 6h185zM575 1595l-211 254l2 5h170l133 -158h12l133 158h170l2 -5l-211 -254h-200z" />
    <glyph glyph-name="scaron" unicode="&#x161;" horiz-adv-x="1024" 
d="M254 330c4.66699 -40 13.502 -73.0039 26.502 -99.0039s30.5 -46.5 52.5 -61.5s48.167 -25.333 78.5 -31s65.5 -8.5 105.5 -8.5c75.333 0 134.833 12.833 178.5 38.5s65.5 66.5 65.5 122.5c0 24.667 -3.16699 45.167 -9.5 61.5s-17.833 31 -34.5 44
s-39.334 25.167 -68.001 36.5s-65.334 24.666 -110.001 39.999l-120 40c-66 22 -119 43.333 -159 64s-71 42.667 -93 66s-36.5 49 -43.5 77s-10.5 60.333 -10.5 97c0 36 6.5 67.833 19.5 95.5s30.167 51.834 51.5 72.501s46 38.167 74 52.5s56.833 25.833 86.5 34.5
s59.334 15 89.001 19s56.834 6 81.501 6c61.333 0 115.5 -5.66699 162.5 -17s87.333 -29.166 121 -53.499s60.5 -56 80.5 -95s33.667 -86.167 41 -141.5l-6 -5h-173c-5.33301 34 -13.833 62.167 -25.5 84.5s-26.834 39.833 -45.501 52.5s-40.834 21.5 -66.501 26.5
s-55.167 7.5 -88.5 7.5c-70.667 0 -125.667 -12.667 -165 -38s-59 -59 -59 -101c0 -23.333 2.66699 -42.666 8 -57.999s15.333 -29 30 -41s35.334 -23.333 62.001 -34s61 -23 103 -37l114 -38c63.333 -21.333 116.166 -42.5 158.499 -63.5s76.333 -44 102 -69
s43.834 -52.5 54.501 -82.5s16 -64.667 16 -104c0 -52.667 -11.667 -98.5 -35 -137.5s-54.5 -71.167 -93.5 -96.5s-84 -44.333 -135 -57s-103.833 -19 -158.5 -19c-66.667 0 -125.834 6.16699 -177.501 18.5s-96 32.333 -133 60s-66.5 63.334 -88.5 107.001
s-36 96.834 -42 159.501l6 5h172zM419.002 1230l-211 254l2 5h170l133 -158h12l133 158h170l2 -5l-211 -254h-200z" />
    <glyph glyph-name="Ydieresis" unicode="&#x178;" horiz-adv-x="1366" 
d="M584 633l-539 811v12h219l418 -665l426 665h213v-12l-549 -811v-633h-188v633zM394 1821c0 9.33301 3.5 17.166 10.5 23.499s15.167 9.5 24.5 9.5h135c9.33301 0 17.5 -3.16699 24.5 -9.5s10.5 -14.166 10.5 -23.499v-147c0 -9.33301 -3.5 -17.5 -10.5 -24.5
s-15.167 -10.5 -24.5 -10.5h-135c-9.33301 0 -17.5 3.5 -24.5 10.5s-10.5 15.167 -10.5 24.5v147zM767 1821c0 9.33301 3.5 17.166 10.5 23.499s15.167 9.5 24.5 9.5h135c9.33301 0 17.5 -3.16699 24.5 -9.5s10.5 -14.166 10.5 -23.499v-147
c0 -9.33301 -3.5 -17.5 -10.5 -24.5s-15.167 -10.5 -24.5 -10.5h-135c-9.33301 0 -17.5 3.5 -24.5 10.5s-10.5 15.167 -10.5 24.5v147z" />
    <glyph glyph-name="Zcaron" unicode="&#x17d;" horiz-adv-x="1251" 
d="M43 0v151l910 1141l-2 6h-851v158h1085v-151l-911 -1141l2 -6h930v-158h-1163zM565 1595l-211 254l2 5h170l133 -158h12l133 158h170l2 -5l-211 -254h-200z" />
    <glyph glyph-name="zcaron" unicode="&#x17e;" horiz-adv-x="1024" 
d="M72 0v156l630 765l-2 6h-598v150h823v-144l-639 -777l2 -6h666v-150h-882zM445 1230l-211 254l2 5h170l133 -158h12l133 158h170l2 -5l-211 -254h-200z" />
    <glyph glyph-name="florin" unicode="&#x192;" 
d="M579 1180c11.333 52.667 23.668 97.833 37.001 135.5s30.5 68.5 51.5 92.5s47 41.5 78 52.5s70.167 16.5 117.5 16.5c48 0 119.667 -12.667 215 -38l-35 -136c-69.333 16 -120.666 24 -153.999 24c-18 0 -33.333 -2 -46 -6s-24 -12.333 -34 -25s-19 -30.667 -27 -54
s-16.333 -54 -25 -92l-16 -73h211v-150h-238l-185 -1073c-8.66699 -50 -20.334 -91.833 -35.001 -125.5s-32.5 -60.5 -53.5 -80.5s-45.667 -34.167 -74 -42.5s-60.833 -12.5 -97.5 -12.5c-32 0 -66.333 2.16699 -103 6.5s-77 10.833 -121 19.5l35 147
c34 -7.33301 63.5 -13 88.5 -17s46.167 -6 63.5 -6c18 0 33.833 2.33301 47.5 7s25.5 13.167 35.5 25.5s18.667 28.833 26 49.5s13.666 47 18.999 79l171 1023h-203v150h229z" />
    <glyph glyph-name="circumflex" unicode="&#x2c6;" horiz-adv-x="682" 
d="M441 1476l211 -254l-2 -5h-170l-133 158h-12l-133 -158h-170l-2 5l211 254h200z" />
    <glyph glyph-name="caron" unicode="&#x2c7;" horiz-adv-x="682" 
d="M241 1217l-211 254l2 5h170l133 -158h12l133 158h170l2 -5l-211 -254h-200z" />
    <glyph glyph-name="breve" unicode="&#x2d8;" horiz-adv-x="682" 
d="M647 1476l-0.00585938 -33c0 -43.333 -7.83301 -80.5 -23.5 -111.5s-37.167 -56.5 -64.5 -76.5s-59.666 -34.667 -96.999 -44s-77.666 -14 -120.999 -14s-83.666 4.66699 -120.999 14s-69.666 24 -96.999 44s-48.833 45.5 -64.5 76.5s-23.5 68.167 -23.5 111.5v33h144
v-33c0 -21.333 4 -39.833 12 -55.5s19.333 -28.5 34 -38.5s31.834 -17.333 51.501 -22s41.167 -7 64.5 -7s44.833 2.33301 64.5 7s36.834 12 51.501 22s26 22.833 34 38.5s12 34.167 12 55.5v33h144z" />
    <glyph glyph-name="dotaccent" unicode="&#x2d9;" horiz-adv-x="682" 
d="M238 1443c0 9.33301 3.5 17.166 10.5 23.499s15.167 9.5 24.5 9.5h135c9.33301 0 17.5 -3.16699 24.5 -9.5s10.5 -14.166 10.5 -23.499v-147c0 -9.33301 -3.5 -17.5 -10.5 -24.5s-15.167 -10.5 -24.5 -10.5h-135c-9.33301 0 -17.5 3.5 -24.5 10.5
s-10.5 15.167 -10.5 24.5v147v0z" />
    <glyph glyph-name="ring" unicode="&#x2da;" horiz-adv-x="682" 
d="M85 1335c0 84 21.667 147.5 65 190.5s107 64.5 191 64.5s147.667 -21.5 191 -64.5s65 -106.5 65 -190.5s-21.667 -147.5 -65 -190.5s-107 -64.5 -191 -64.5s-147.667 21.5 -191 64.5s-65 106.5 -65 190.5zM341 1215c38.667 0 67.667 9 87 27s29 49 29 93
s-9.66699 75 -29 93s-48.333 27 -87 27s-67.667 -9 -87 -27s-29 -49 -29 -93s10.333 -75 31 -93s49 -27 85 -27z" />
    <glyph glyph-name="ogonek" unicode="&#x2db;" horiz-adv-x="682" 
d="M341 17l6.99707 -11c-13.333 -28 -23.333 -55.833 -30 -83.5s-10 -53.167 -10 -76.5c0 -21.333 3.66699 -40.5 11 -57.5s17.333 -31.333 30 -43s27.834 -20.667 45.501 -27s36.834 -9.5 57.501 -9.5c25.333 0 50.666 2.66699 75.999 8s53.333 15.333 84 30l8 -2v-115
c-17.333 -8 -35.666 -15 -54.999 -21s-38.666 -11.167 -57.999 -15.5s-38.166 -7.66602 -56.499 -9.99902s-34.833 -3.5 -49.5 -3.5c-32 0 -62.333 4.66699 -91 14s-53.834 22.833 -75.501 40.5s-38.834 39.167 -51.501 64.5s-19 54 -19 86
c0 25.333 3.83301 56.166 11.5 92.499s19.834 76.5 36.501 120.5l7 19h122z" />
    <glyph glyph-name="tilde" unicode="&#x2dc;" horiz-adv-x="682" 
d="M-5 1200l-0.000976562 42c0 33.333 5.66699 63 17 89s26.833 48 46.5 66s42.334 31.667 68.001 41s53.167 14 82.5 14c20.667 0 45 -6 73 -18s60 -27 96 -45c38.667 -20 70 -30 94 -30c21.333 0 38.5 5.16699 51.5 15.5s19.5 30.166 19.5 59.499v42h144v-42
c0 -35.333 -5.5 -66.166 -16.5 -92.499s-26 -48.166 -45 -65.499s-41.167 -30.333 -66.5 -39s-52 -13 -80 -13c-41.333 0 -96.666 18.667 -165.999 56c-46 24.667 -79 37 -99 37c-22.667 0 -40.834 -5.83301 -54.501 -17.5s-20.5 -30.834 -20.5 -57.501v-42h-144z" />
    <glyph glyph-name="hungarumlaut" unicode="&#x2dd;" horiz-adv-x="682" 
d="M15 1197l-3 8l181 272h198l2 -10l-217 -270h-161zM363 1197l-3 8l181 272h198l2 -10l-217 -270h-161z" />
    <glyph glyph-name="afii10023" unicode="&#x401;" horiz-adv-x="1366" 
d="M1251 158h-891v520h705v158h-705v462h861v158h-1049v-1456h1079v158zM394 1821c0 9.33301 3.5 17.166 10.5 23.499s15.167 9.5 24.5 9.5h135c9.33301 0 17.5 -3.16699 24.5 -9.5s10.5 -14.166 10.5 -23.499v-147c0 -9.33301 -3.5 -17.5 -10.5 -24.5
s-15.167 -10.5 -24.5 -10.5h-135c-9.33301 0 -17.5 3.5 -24.5 10.5s-10.5 15.167 -10.5 24.5v147zM767 1821c0 9.33301 3.5 17.166 10.5 23.499s15.167 9.5 24.5 9.5h135c9.33301 0 17.5 -3.16699 24.5 -9.5s10.5 -14.166 10.5 -23.499v-147
c0 -9.33301 -3.5 -17.5 -10.5 -24.5s-15.167 -10.5 -24.5 -10.5h-135c-9.33301 0 -17.5 3.5 -24.5 10.5s-10.5 15.167 -10.5 24.5v147z" />
    <glyph glyph-name="afii10051" unicode="&#x402;" horiz-adv-x="1772" 
d="M741 834c66 22.667 133.503 40.4951 202.503 53.4951s141.5 19.5 217.5 19.5c74 0 142 -11.667 204 -35s115.5 -55.666 160.5 -96.999s80.167 -90.5 105.5 -147.5s38 -118.833 38 -185.5c0 -67.333 -10.833 -129.333 -32.5 -186s-52.334 -105.5 -92.001 -146.5
s-87 -72.833 -142 -95.5s-115.5 -34 -181.5 -34c-54 0 -102.333 1.5 -145 4.5s-80.334 8.16699 -113.001 15.5l24 159c23.333 -7.33301 50.666 -12.666 81.999 -15.999s67 -5 107 -5c46 0 87.833 6.83301 125.5 20.5s69.667 33.334 96 59.001s46.833 57 61.5 94
s22 78.5 22 124.5c0 50 -8 94.833 -24 134.5s-39.667 73.334 -71 101.001s-69.833 48.834 -115.5 63.501s-97.834 22 -156.501 22c-105.333 0 -229.666 -27.333 -372.999 -82v-675h-188v1298h-496v158h1180v-158h-496v-464z" />
    <glyph glyph-name="afii10052" unicode="&#x403;" horiz-adv-x="1109" 
d="M1094 1298h-740v-1298h-188v1456h928v-158zM458 1575l-3 8l181 272h209l2 -10l-228 -270h-161z" />
    <glyph glyph-name="afii10053" unicode="&#x404;" horiz-adv-x="1473" 
d="M1410 474l5.00586 -6.99316c-10.667 -82 -33.667 -153.5 -69 -214.5s-80.5 -111.667 -135.5 -152s-118.667 -70.5 -191 -90.5s-150.5 -30 -234.5 -30c-112.667 0 -210.834 17.5 -294.501 52.5s-153.167 85 -208.5 150s-96.666 143.667 -123.999 236
s-41 196.166 -41 311.499c0 112.667 14.667 215 44 307s72.666 170.5 129.999 235.5s128.166 115.167 212.499 150.5s181.5 53 291.5 53c73.333 0 142.666 -8.66699 207.999 -26s124.166 -44.333 176.499 -81s97.166 -83.834 134.499 -141.501s64.333 -126.834 81 -207.501
l-4 -7h-190c-16 53.333 -35.5 99.166 -58.5 137.499s-50.833 70 -83.5 95s-70.667 43.333 -114 55s-93.333 17.5 -150 17.5c-76 0 -142.333 -11.333 -199 -34s-104.5 -55 -143.5 -97s-69.333 -92.833 -91 -152.5s-35.834 -126.834 -42.501 -201.501h624v-158h-627
c3.33301 -78 14.666 -149.833 33.999 -215.5s47.833 -122.334 85.5 -170.001s85.334 -84.834 143.001 -111.501s126.5 -40 206.5 -40c58.667 0 113 6.33301 163 19s94 32.5 132 59.5s69.167 61.833 93.5 104.5s39.833 93.667 46.5 153h190z" />
    <glyph glyph-name="afii10054" unicode="&#x405;" horiz-adv-x="1366" 
d="M285 468c0 -111.333 32.667 -194.165 98 -248.498s169 -81.5 311 -81.5c56.667 0 108.667 4.5 156 13.5s88.166 23.167 122.499 42.5s61 44.666 80 75.999s28.5 69.666 28.5 114.999c0 33.333 -4.66699 62.833 -14 88.5s-24.166 48.334 -44.499 68.001
s-46.5 36.834 -78.5 51.501s-70.333 27.334 -115 38.001l-266 63c-61.333 14.667 -117.166 32.834 -167.499 54.501s-93.5 48.167 -129.5 79.5s-64 68.333 -84 111s-30 92 -30 148c0 66 14.667 123.5 44 172.5s68.5 89.5 117.5 121.5s105.167 55.833 168.5 71.5
s129.333 23.5 198 23.5c76 0 147 -7.83301 213 -23.5s123.5 -40.334 172.5 -74.001s87.667 -77 116 -130s42.5 -116.833 42.5 -191.5l-5 -6h-183c0 48 -9.33301 89 -28 123s-44 61.667 -76 83s-69.667 36.833 -113 46.5s-89.666 14.5 -138.999 14.5
c-43.333 0 -85.333 -4.33301 -126 -13s-76.834 -22.334 -108.501 -41.001s-57.167 -42.667 -76.5 -72s-29 -64.333 -29 -105c0 -28.667 6.66699 -54.334 20 -77.001s32.833 -42.834 58.5 -60.501s57 -33.5 94 -47.5s79.167 -26.667 126.5 -38l268 -65
c58.667 -14 110.667 -31.833 156 -53.5s83.166 -48.167 113.499 -79.5s53.333 -68.166 69 -110.499s23.5 -91.5 23.5 -147.5c0 -72 -15.333 -134.667 -46 -188s-72.167 -97.833 -124.5 -133.5s-113 -62.334 -182 -80.001s-141.833 -26.5 -218.5 -26.5
c-98 0 -184.333 9.66699 -259 29s-137.5 48.833 -188.5 88.5s-89.5 89.667 -115.5 150s-39 131.833 -39 214.5l4 6h185z" />
    <glyph glyph-name="afii10055" unicode="&#x406;" horiz-adv-x="569" 
d="M190 1456h188v-1456h-188v1456z" />
    <glyph glyph-name="afii10056" unicode="&#x407;" horiz-adv-x="569" 
d="M190 1456h188v-1456h-188v1456zM-3 1821c0 9.33301 3.5 17.166 10.5 23.499s15.167 9.5 24.5 9.5h135c9.33301 0 17.5 -3.16699 24.5 -9.5s10.5 -14.166 10.5 -23.499v-147c0 -9.33301 -3.5 -17.5 -10.5 -24.5s-15.167 -10.5 -24.5 -10.5h-135
c-9.33301 0 -17.5 3.5 -24.5 10.5s-10.5 15.167 -10.5 24.5v147zM370 1821c0 9.33301 3.5 17.166 10.5 23.499s15.167 9.5 24.5 9.5h135c9.33301 0 17.5 -3.16699 24.5 -9.5s10.5 -14.166 10.5 -23.499v-147c0 -9.33301 -3.5 -17.5 -10.5 -24.5s-15.167 -10.5 -24.5 -10.5
h-135c-9.33301 0 -17.5 3.5 -24.5 10.5s-10.5 15.167 -10.5 24.5v147z" />
    <glyph glyph-name="afii10057" unicode="&#x408;" horiz-adv-x="1024" 
d="M864 467c0 -165.333 -34.834 -287.834 -104.501 -367.501s-172.834 -119.5 -309.501 -119.5c-61.333 0 -117.166 9 -167.499 27s-93.5 45.333 -129.5 82s-63.833 83.167 -83.5 139.5s-29.5 122.5 -29.5 198.5l4 5h184c0 -101.333 18.333 -175.666 55 -222.999
s92.334 -71 167.001 -71c48 0 86.833 7.33301 116.5 22s52.5 35.667 68.5 63s26.833 60.5 32.5 99.5s8.5 82.5 8.5 130.5v845h-376v158h564v-989z" />
    <glyph glyph-name="afii10058" unicode="&#x409;" horiz-adv-x="2165" 
d="M1182 1456l-0.00292969 -602.002h325c88.667 0 167.334 -9.5 236.001 -28.5s126.667 -46.833 174 -83.5s83.333 -81.834 108 -135.501s37 -115.167 37 -184.5s-13 -130.166 -39 -182.499s-63.5 -96.333 -112.5 -132s-108.5 -62.5 -178.5 -80.5s-149 -27 -237 -27h-501
v1298h-492v-362c0 -187.333 -5.33301 -343 -16 -467s-26.667 -217.667 -48 -281c-46 -134.667 -135.333 -202 -268 -202c-23.333 0 -49.666 1 -78.999 3s-54.666 5.66699 -75.999 11l30 158c15.333 -5.33301 31.166 -9 47.499 -11s33.166 -3 50.499 -3
c22.667 0 42.834 3.5 60.501 10.5s32.834 20.833 45.501 41.5s23.167 49.834 31.5 87.501s15 87 20 148s8.5 135.333 10.5 223s3 191.834 3 312.501v489h868zM1182 157.998h313c246.667 0 370 89.333 370 268c0 180 -126 270 -378 270h-305v-538z" />
    <glyph glyph-name="afii10059" unicode="&#x40a;" horiz-adv-x="2068" 
d="M1169 1456l-0.00195312 -604h279c88 0 166.333 -9.16699 235 -27.5s126.667 -45.5 174 -81.5s83.5 -80.5 108.5 -133.5s37.5 -114.5 37.5 -184.5c0 -68 -12.833 -128.333 -38.5 -181s-62.667 -97 -111 -133s-107.666 -63.5 -177.999 -82.5s-150.166 -28.5 -239.499 -28.5
h-455v694h-631v-694h-188v1456h188v-604h631v604h188zM1169 158h267c124.667 0 217.5 23.167 278.5 69.5s91.5 113.5 91.5 201.5c0 92.667 -30.5 160 -91.5 202s-156.833 63 -287.5 63h-258v-536z" />
    <glyph glyph-name="afii10060" unicode="&#x40b;" horiz-adv-x="1749" 
d="M741 821c78.667 23.333 153.166 40.5 223.499 51.5s137.833 16.5 202.5 16.5c302 0 453 -162 453 -486v-403h-188v401c0 59.333 -6.16699 110 -18.5 152s-31.666 76.167 -57.999 102.5s-60 45.5 -101 57.5s-90.5 18 -148.5 18c-54.667 0 -112.5 -5.83301 -173.5 -17.5
s-124.833 -30.5 -191.5 -56.5v-657h-188v1298h-508v158h1204v-158h-508v-477z" />
    <glyph glyph-name="afii10061" unicode="&#x40c;" horiz-adv-x="1193" 
d="M353 0h-188v1456h188v-614h148l444 614h231v-12l-505 -666l525 -766v-12h-238l-451 684h-154v-684zM473 1574l-3 8l181 272h209l2 -10l-228 -270h-161z" />
    <glyph glyph-name="afii10062" unicode="&#x40e;" horiz-adv-x="1301" 
d="M52 1456l210.999 0.000976562l405 -880h6l384 880h205l-516 -1116c-24 -52 -45.667 -96.833 -65 -134.5s-37.166 -69.5 -53.499 -95.5s-32.166 -47.167 -47.499 -63.5s-31.166 -29 -47.499 -38s-33.5 -15 -51.5 -18s-38.333 -4.5 -61 -4.5c-8 0 -20.333 0.166992 -37 0.5
s-33.5 1 -50.5 2s-32.333 2.5 -46 4.5s-21.834 4.33301 -24.501 7l18 156l9 2c5.33301 -2 12.5 -3.83301 21.5 -5.5s18.667 -3.16699 29 -4.5s20.666 -2.33301 30.999 -3s19.166 -1 26.499 -1c17.333 0 32.5 1.83301 45.5 5.5s25.5 12.5 37.5 26.5s24.833 34.667 38.5 62
s29.834 64.666 48.501 111.999l6 15zM976.999 1854l-0.00585938 -33c0 -43.333 -7.83301 -80.5 -23.5 -111.5s-37.167 -56.5 -64.5 -76.5s-59.666 -34.667 -96.999 -44s-77.666 -14 -120.999 -14s-83.666 4.66699 -120.999 14s-69.666 24 -96.999 44
s-48.833 45.5 -64.5 76.5s-23.5 68.167 -23.5 111.5v33h144v-33c0 -21.333 4 -39.833 12 -55.5s19.333 -28.5 34 -38.5s31.834 -17.333 51.501 -22s41.167 -7 64.5 -7s44.833 2.33301 64.5 7s36.834 12 51.501 22s26 22.833 34 38.5s12 34.167 12 55.5v33h144z" />
    <glyph glyph-name="afii10145" unicode="&#x40f;" horiz-adv-x="1473" 
d="M1112 1456h188v-1456h-470v-300h-188v300h-470v1456h188v-1298h752v1298z" />
    <glyph glyph-name="afii10017" unicode="&#x410;" horiz-adv-x="1366" 
d="M1157 0l-145 420h-658l-145 -420h-197l535 1456h272l535 -1456h-197zM688 1333h-8l-270 -755h546z" />
    <glyph glyph-name="afii10018" unicode="&#x411;" horiz-adv-x="1344" 
d="M350 858h352c76.667 0 148.667 -8 216 -24s126.166 -41.333 176.499 -76s90 -79.667 119 -135s43.5 -122.333 43.5 -201c0 -73.333 -14 -136.5 -42 -189.5s-67.167 -96.833 -117.5 -131.5s-110.166 -60.167 -179.499 -76.5s-145.333 -24.5 -228 -24.5h-528v1456h981v-158
h-793v-440zM350 158h340.001c118.667 0 210 21.667 274 65s96 111 96 203c0 94.667 -30.833 164 -92.5 208s-156.834 66 -285.501 66h-332v-542z" />
    <glyph glyph-name="afii10019" unicode="&#x412;" horiz-adv-x="1366" 
d="M160 1456l556.998 0.000976562c66.667 0 129.167 -7.16699 187.5 -21.5s109.166 -36.5 152.499 -66.5s77.333 -68.5 102 -115.5s37 -103.5 37 -169.5c0 -33.333 -3.33301 -65 -10 -95s-18 -58 -34 -84s-37.167 -50.333 -63.5 -73s-59.5 -43.334 -99.5 -62.001v-7
c42.667 -12 81.334 -28.333 116.001 -49s64.334 -45.334 89.001 -74.001s43.834 -61.167 57.501 -97.5s20.5 -76.166 20.5 -119.499c0 -141.333 -45.333 -247 -136 -317s-227.667 -105 -411 -105h-565v1456zM347.998 829.001l234.001 0.000976562
c66.667 0 126.5 3.5 179.5 10.5s97.667 19.167 134 36.5s64.166 41 83.499 71s29 68 29 114c0 48.667 -7.83301 88.5 -23.5 119.5s-38.5 55.167 -68.5 72.5s-67.167 29.166 -111.5 35.499s-94.833 9.5 -151.5 9.5h-305v-469zM347.999 158.002h377
c118 0 205.833 22.333 263.5 67s86.5 110.334 86.5 197.001c0 50.667 -9.66699 92.667 -29 126s-46 59.666 -80 78.999s-74 32.833 -120 40.5s-96 11.5 -150 11.5h-348v-521z" />
    <glyph glyph-name="afii10020" unicode="&#x413;" horiz-adv-x="1109" 
d="M1094 1298h-740v-1298h-188v1456h928v-158z" />
    <glyph glyph-name="afii10021" unicode="&#x414;" horiz-adv-x="1387" 
d="M1327 -300l-178.003 0.00195312v302h-965v-302h-178v456l31 4c44.667 6 83.334 33.333 116.001 82s59.834 113.167 81.501 193.5s37.834 173.666 48.501 279.999s16 220.166 16 341.499v399h870v-1296h158v-460zM980.997 1298h-504v-276
c0 -102 -3.33301 -195.833 -10 -281.5s-17.167 -164 -31.5 -235s-33 -135.167 -56 -192.5s-50.5 -108.333 -82.5 -153h684v1138z" />
    <glyph glyph-name="afii10022" unicode="&#x415;" horiz-adv-x="1366" 
d="M1251 0h-1079v1456h1049v-158h-861v-462h705v-158h-705v-520h891v-158z" />
    <glyph glyph-name="afii10024" unicode="&#x416;" horiz-adv-x="1891" 
d="M851 1456h188v-618h150l441 618h226v-12l-499 -668l526 -764v-12h-223l-463 688h-158v-688h-188v688h-158l-463 -688h-222v12l525 764l-498 668v12h225l441 -618h150v618z" />
    <glyph glyph-name="afii10025" unicode="&#x417;" horiz-adv-x="1237" 
d="M477 846l122.995 0.00390625c102.667 0 181.334 18.167 236.001 54.5s82 94.5 82 174.5c0 38.667 -7.16699 73 -21.5 103s-34.666 55.5 -60.999 76.5s-58 37 -95 48s-77.833 16.5 -122.5 16.5c-54.667 0 -100.834 -3.66699 -138.501 -11s-69 -20 -94 -38
s-45 -42.333 -60 -73s-27.167 -69.334 -36.5 -116.001h-172l-5 7c10.667 76 29.5 139.167 56.5 189.5s62 90.166 105 119.499s93.5 50 151.5 62s123.333 18 196 18c74 0 141 -8.66699 201 -26s111 -42.833 153 -76.5s74.333 -75 97 -124s34 -104.833 34 -167.5
c0 -68 -17.667 -126.667 -53 -176s-85.333 -93 -150 -131v-6c40 -10.667 75.667 -27 107 -49s57.833 -48.333 79.5 -79s38.334 -65 50.001 -103s17.5 -78.333 17.5 -121c0 -76.667 -15.167 -142.834 -45.5 -198.501s-71 -101.667 -122 -138s-109.833 -63.166 -176.5 -80.499
s-136.334 -26 -209.001 -26c-78.667 0 -150.834 8.66699 -216.501 26s-122.167 44.166 -169.5 80.499s-84.166 82.5 -110.499 138.5s-39.5 122.667 -39.5 200l7 6h181c0 -52.667 9.33301 -97.5 28 -134.5s43.834 -67.333 75.501 -91s68.334 -40.834 110.001 -51.501
s85.834 -16 132.501 -16c50.667 0 98.334 5 143.001 15s83.667 26 117 48s59.5 50.667 78.5 86s28.5 78 28.5 128c0 88.667 -30.5 157.167 -91.5 205.5s-152.833 72.5 -275.5 72.5h-125v158z" />
    <glyph glyph-name="afii10026" unicode="&#x418;" horiz-adv-x="1473" 
d="M158 1456l188.001 0.000976562v-872c0 -44 -1 -92 -3 -144s-5 -105 -9 -159h6l787 1175h188v-1456h-188v872c0 12.667 0.333008 32.167 1 58.5s1.5 54.666 2.5 84.999s2.16699 60 3.5 89s2.66602 52.167 3.99902 69.5h-7l-787 -1174h-186v1456z" />
    <glyph glyph-name="afii10027" unicode="&#x419;" horiz-adv-x="1473" 
d="M1315 0l-187.999 0.000976562v872c0 12.667 0.333008 32.167 1 58.5s1.5 54.666 2.5 84.999s2.16699 60 3.5 89s2.66602 52.167 3.99902 69.5h-7l-787 -1174h-186v1456h188v-872c0 -44 -1 -92 -3 -144s-5 -105 -9 -159h6l787 1175h188v-1456zM1058 1854l-0.000976562 -21
c0 -46 -8 -86.333 -24 -121s-38.333 -63.5 -67 -86.5s-62.667 -40.167 -102 -51.5s-82.333 -17 -129 -17s-89.667 5.66699 -129 17s-73.166 28.5 -101.499 51.5s-50.5 51.833 -66.5 86.5s-24 75 -24 121v21h169v-21c0 -48 13.333 -83.5 40 -106.5s64 -34.5 112 -34.5
c46 0 82.833 11.5 110.5 34.5s41.5 58.5 41.5 106.5v21h170z" />
    <glyph glyph-name="afii10028" unicode="&#x41a;" horiz-adv-x="1193" 
d="M353 0h-188v1456h188v-614h148l444 614h231v-12l-505 -666l525 -766v-12h-238l-451 684h-154v-684z" />
    <glyph glyph-name="afii10029" unicode="&#x41b;" horiz-adv-x="1344" 
d="M983 1298h-491.997v-231c0 -168.667 -4.16699 -319.5 -12.5 -452.5s-24.5 -245.5 -48.5 -337.5s-57.667 -162.167 -101 -210.5s-99.666 -72.5 -168.999 -72.5c-24.667 0 -50.834 1.33301 -78.501 4s-52.834 6 -75.501 10l20 156l7 2
c13.333 -4 28.166 -7.33301 44.499 -10s32.166 -4 47.499 -4c22.667 0 43 5.66699 61 17s34 30.833 48 58.5s26 64.5 36 110.5s18.167 103.667 24.5 173s11 151.333 14 246s4.5 204.667 4.5 330v369h858v-1456h-188v1298z" />
    <glyph glyph-name="afii10030" unicode="&#x41c;" horiz-adv-x="1706" 
d="M160 1456h250l439 -909h6l441 909h250v-1456h-188v1161h-6l-428 -866h-142l-428 866h-6v-1161h-188v1456z" />
    <glyph glyph-name="afii10031" unicode="&#x41d;" horiz-adv-x="1479" 
d="M166 1456h188v-610h771v610h188v-1456h-188v688h-771v-688h-188v1456z" />
    <glyph glyph-name="afii10032" unicode="&#x41e;" horiz-adv-x="1593" 
d="M797 138c96 0 175.667 14.833 239 44.5s114 70.667 152 123s64.833 114.5 80.5 186.5s23.5 150.333 23.5 235s-7.83301 163 -23.5 235s-42.5 134.333 -80.5 187s-88.667 94 -152 124s-143 45 -239 45s-175.833 -15 -239.5 -45s-114.5 -71.333 -152.5 -124
s-64.833 -115 -80.5 -187s-23.5 -150.333 -23.5 -235s7.83301 -163 23.5 -235s42.5 -134.167 80.5 -186.5s88.833 -93.333 152.5 -123s143.5 -44.5 239.5 -44.5zM797 1476c124 0 229.667 -18.667 317 -56s158.833 -89.166 214.5 -155.499s96.334 -145.333 122.001 -237
s38.5 -191.834 38.5 -300.501s-12.833 -208.667 -38.5 -300s-66.334 -170.166 -122.001 -236.499s-127.167 -118 -214.5 -155s-193 -55.5 -317 -55.5s-229.833 18.5 -317.5 55.5s-159.334 88.667 -215.001 155s-96.334 145.166 -122.001 236.499s-38.5 191.333 -38.5 300
s12.833 208.834 38.5 300.501s66.334 170.667 122.001 237s127.334 118.166 215.001 155.499s193.5 56 317.5 56z" />
    <glyph glyph-name="afii10033" unicode="&#x41f;" horiz-adv-x="1472" 
d="M1300 0h-188v1298h-752v-1298h-188v1456h1128v-1456z" />
    <glyph glyph-name="afii10034" unicode="&#x420;" horiz-adv-x="1366" 
d="M170 1456l514 0.00292969c84.667 0 161.667 -7 231 -21s128.333 -37.833 177 -71.5s86.334 -78.334 113.001 -134.001s40 -124.834 40 -207.501c0 -74 -14 -139.167 -42 -195.5s-66.833 -103.833 -116.5 -142.5s-108.834 -67.834 -177.501 -87.501
s-143.667 -29.5 -225 -29.5h-326v-567h-188v1456zM358 725.003l316.001 0.000976562c122.667 0 215.667 24.833 279 74.5s95 121.167 95 214.5c0 53.333 -9.16699 98.166 -27.5 134.499s-44.333 65.5 -78 87.5s-74.334 37.833 -122.001 47.5s-100.5 14.5 -158.5 14.5h-304
v-573z" />
    <glyph glyph-name="afii10035" unicode="&#x421;" horiz-adv-x="1479" 
d="M299 730c0 -84.667 8.6709 -163.165 26.0039 -235.498s44.833 -134.833 82.5 -187.5s86.334 -94 146.001 -124s131.834 -45 216.501 -45c58.667 0 113 6.33301 163 19s93.833 32.5 131.5 59.5s68.5 61.833 92.5 104.5s39.333 93.667 46 153h192l5 -7
c-10.667 -82 -33.667 -153.5 -69 -214.5s-80.5 -111.667 -135.5 -152s-118.667 -70.5 -191 -90.5s-150.5 -30 -234.5 -30c-112.667 0 -210.834 17.5 -294.501 52.5s-153.167 85 -208.5 150s-96.666 143.667 -123.999 236s-41 196.166 -41 311.499
c0 112.667 14.667 215 44 307s72.666 170.5 129.999 235.5s128.166 115.167 212.499 150.5s181.5 53 291.5 53c73.333 0 142.666 -8.66699 207.999 -26s124.166 -44.333 176.499 -81s97.166 -83.834 134.499 -141.501s64.333 -126.834 81 -207.501l-4 -7h-190
c-16 53.333 -35.5 99.166 -58.5 137.499s-50.833 70 -83.5 95s-70.667 43.333 -114 55s-93.333 17.5 -150 17.5c-84.667 0 -157.334 -13.833 -218.001 -41.5s-110.5 -67.167 -149.5 -118.5s-67.667 -113.166 -86 -185.499s-27.5 -153.166 -27.5 -242.499z" />
    <glyph glyph-name="afii10036" unicode="&#x422;" horiz-adv-x="1251" 
d="M531 1298h-495v158h1179v-158h-496v-1298h-188v1298z" />
    <glyph glyph-name="afii10037" unicode="&#x423;" horiz-adv-x="1301" 
d="M52 1456l210.999 0.000976562l405 -880h6l384 880h205l-516 -1116c-24 -52 -45.667 -96.833 -65 -134.5s-37.166 -69.5 -53.499 -95.5s-32.166 -47.167 -47.499 -63.5s-31.166 -29 -47.499 -38s-33.5 -15 -51.5 -18s-38.333 -4.5 -61 -4.5c-8 0 -20.333 0.166992 -37 0.5
s-33.5 1 -50.5 2s-32.333 2.5 -46 4.5s-21.834 4.33301 -24.501 7l18 156l9 2c5.33301 -2 12.5 -3.83301 21.5 -5.5s18.667 -3.16699 29 -4.5s20.666 -2.33301 30.999 -3s19.166 -1 26.499 -1c17.333 0 32.5 1.83301 45.5 5.5s25.5 12.5 37.5 26.5s24.833 34.667 38.5 62
s29.834 64.666 48.501 111.999l6 15z" />
    <glyph glyph-name="afii10038" unicode="&#x424;" horiz-adv-x="1557" 
d="M684 208h-33.9941c-94.667 0 -178.834 11.833 -252.501 35.5s-135.834 58.334 -186.501 104.001s-89.334 102 -116.001 169s-40 144.167 -40 231.5c0 182 49.833 315.5 149.5 400.5s248.167 127.5 445.5 127.5h34v200h188v-200h34c196.667 0 345 -42.5 445 -127.5
s150 -218.5 150 -400.5c0 -87.333 -13.333 -164.5 -40 -231.5s-65.334 -123.333 -116.001 -169s-112.834 -80.334 -186.501 -104.001s-157.834 -35.5 -252.501 -35.5h-34v-228h-188v228zM872.006 358l34 -0.000976562c72 0 133.667 7.66699 185 23s93.5 38.833 126.5 70.5
s57.167 72 72.5 121s23 107.5 23 175.5c0 67.333 -6.66699 124.833 -20 172.5s-35.833 86.834 -67.5 117.501s-73.5 53 -125.5 67s-116.667 21 -194 21h-34v-768zM684.006 1126l-34 0.000976562c-77.333 0 -142 -7 -194 -21s-93.833 -36.333 -125.5 -67
s-54.167 -69.834 -67.5 -117.501s-20 -105.167 -20 -172.5c0 -68 7.66699 -126.5 23 -175.5s39.5 -89.333 72.5 -121s75.167 -55.167 126.5 -70.5s113 -23 185 -23h34v768z" />
    <glyph glyph-name="afii10039" unicode="&#x425;" horiz-adv-x="1366" 
d="M281 1456l403 -555l404 555h222v-12l-515 -690l551 -742v-12h-222l-440 614l-440 -614h-221v12l550 742l-514 690v12h222z" />
    <glyph glyph-name="afii10040" unicode="&#x426;" horiz-adv-x="1515" 
d="M1113 158v1298h189v-1298h143v-458h-178v300h-1096v1456h188v-1298h754z" />
    <glyph glyph-name="afii10041" unicode="&#x427;" horiz-adv-x="1365" 
d="M1006 627c-121.333 -60 -254.667 -90 -400 -90c-155.333 0 -271.5 37.5 -348.5 112.5s-115.5 190.167 -115.5 345.5v461h188v-449c0 -213.333 97 -320 291 -320c132 0 260.333 36.333 385 109v660h188v-1456h-188v627z" />
    <glyph glyph-name="afii10042" unicode="&#x428;" horiz-adv-x="1877" 
d="M352 158h492v1298h188v-1298h492v1298h188v-1456h-1548v1456h188v-1298z" />
    <glyph glyph-name="afii10043" unicode="&#x429;" horiz-adv-x="1920" 
d="M360 158h492v1298h188v-1298h492v1298h188v-1298h144v-458h-178v300h-1514v1456h188v-1298z" />
    <glyph glyph-name="afii10044" unicode="&#x42a;" horiz-adv-x="1621" 
d="M454 1298l-379.001 -0.000976562v158h567v-602h326c76 0 147.667 -7.66699 215 -23s126 -40.166 176 -74.499s89.667 -79 119 -134s44 -121.833 44 -200.5c0 -73.333 -14 -136.5 -42 -189.5s-67.167 -96.833 -117.5 -131.5s-110.166 -60.167 -179.499 -76.5
s-145.333 -24.5 -228 -24.5h-501v1298zM641.999 157.999h322c118.667 0 210 21.667 274 65s96 111 96 203c0 94 -31.167 162.5 -93.5 205.5s-157.5 64.5 -285.5 64.5h-313v-538z" />
    <glyph glyph-name="afii10045" unicode="&#x42b;" horiz-adv-x="1813" 
d="M1254 422c0 -78 -13.501 -144.001 -40.501 -198.001s-64.833 -97.5 -113.5 -130.5s-107 -56.833 -175 -71.5s-143.333 -22 -226 -22h-509v1456h188v-602h326c76 0 147.5 -7.66699 214.5 -23s125.333 -40.166 175 -74.499s88.834 -79 117.501 -134s43 -121.833 43 -200.5z
M377.999 157.999h317c118.667 0 210.167 21.667 274.5 65s96.5 111 96.5 203c0 94 -31.167 162.5 -93.5 205.5s-157.5 64.5 -285.5 64.5h-309v-538zM1434 1456h188v-1456h-188v1456z" />
    <glyph glyph-name="afii10046" unicode="&#x42c;" horiz-adv-x="1344" 
d="M360 1456l0.00195312 -602.001h326c76 0 147.667 -7.66699 215 -23s126.166 -40.166 176.499 -74.499s90.166 -79 119.499 -134s44 -121.833 44 -200.5c0 -73.333 -13.5 -136.5 -40.5 -189.5s-65 -96.833 -114 -131.5s-107.667 -60.167 -176 -76.5
s-143.833 -24.5 -226.5 -24.5h-512v1456h188zM360.002 157.999h322c118.667 0 210.167 21 274.5 63s96.5 109 96.5 201c0 94.667 -31 164 -93 208s-157.333 66 -286 66h-314v-538z" />
    <glyph glyph-name="afii10047" unicode="&#x42d;" horiz-adv-x="1472" 
d="M146 1033l-3.99707 6.99707c20 83.333 48.833 152.833 86.5 208.5s82 100.334 133 134.001s107.833 57.667 170.5 72s129 21.5 199 21.5c114 0 211 -16.833 291 -50.5s145.167 -82.334 195.5 -146.001s87 -141.167 110 -232.5s34.5 -194.666 34.5 -309.999
c0 -117.333 -12.333 -222.666 -37 -315.999s-63.334 -172.666 -116.001 -237.999s-119.834 -115.5 -201.501 -150.5s-179.834 -52.5 -294.501 -52.5c-49.333 0 -98 3.16699 -146 9.5s-93.333 17 -136 32s-82.667 34.667 -120 59s-70 54.5 -98 90.5s-51.333 78.167 -70 126.5
s-30.667 104.166 -36 167.499l7 8h181c0 -56 11.5 -104.833 34.5 -146.5s53.667 -76.5 92 -104.5s82.833 -49 133.5 -63s104 -21 160 -21c77.333 0 144.666 12.667 201.999 38s105 61.5 143 108.5s66.5 103.667 85.5 170s28.5 140.833 28.5 223.5h-561v158h561
c0 156.667 -37.333 276.167 -112 358.5s-183.667 123.5 -327 123.5c-54 0 -102.667 -5.16699 -146 -15.5s-81.666 -26.833 -114.999 -49.5s-61.833 -52.167 -85.5 -88.5s-43.167 -80.166 -58.5 -131.499h-184z" />
    <glyph glyph-name="afii10048" unicode="&#x42e;" horiz-adv-x="2069" 
d="M170 1456l187.999 0.00195312v-634h285c4 94 22.167 180.833 54.5 260.5s76.833 148.667 133.5 207s124.334 104 203.001 137s166 49.5 262 49.5c110 0 206.667 -18.833 290 -56.5s152.833 -89.667 208.5 -156s97.5 -144.833 125.5 -235.5s42 -189 42 -295
c0 -106.667 -13.667 -205.834 -41 -297.501s-68.833 -171.334 -124.5 -239.001s-125.334 -120.667 -209.001 -159s-181.5 -57.5 -293.5 -57.5c-101.333 0 -191.166 17.167 -269.499 51.5s-144.833 82 -199.5 143s-97.167 133.167 -127.5 216.5s-47.833 174.333 -52.5 273
h-287v-664h-188v1456zM1765 731.002c0 80.667 -8.33398 156.667 -25.001 228s-43.5 133.5 -80.5 186.5s-85 95 -144 126s-130.833 46.5 -215.5 46.5c-81.333 0 -151.5 -16 -210.5 -48s-107.667 -75.167 -146 -129.5s-66.666 -117.666 -84.999 -189.999
s-27.5 -148.833 -27.5 -229.5s9.16699 -156.334 27.5 -227.001s46.5 -132.5 84.5 -185.5s86.333 -94.833 145 -125.5s128 -46 208 -46c85.333 0 157.833 15.5 217.5 46.5s108.167 73.5 145.5 127.5s64.333 117 81 189s25 149 25 231z" />
    <glyph glyph-name="afii10049" unicode="&#x42f;" horiz-adv-x="1479" 
d="M1308 0l-188.001 -0.000976562v629h-318l-467 -629h-229l-2 7l480 626c-118 24 -209.333 69.667 -274 137s-97 155.333 -97 264c0 68 13.167 128.167 39.5 180.5s62.333 96.333 108 132s98.834 62.834 159.501 81.501s125 28 193 28h595v-1456zM1120 1298
l-361.999 -0.000976562c-114 0 -202 -20.667 -264 -62s-93 -106.666 -93 -195.999c0 -38 5.5 -73.333 16.5 -106s30.667 -61.167 59 -85.5s67.166 -43.5 116.499 -57.5s112.333 -21 189 -21h338v528z" />
    <glyph glyph-name="afii10065" unicode="&#x430;" 
d="M824 130l-6.99609 -0.00390625c-44 -49.333 -96.333 -86.666 -157 -111.999s-134.667 -38 -222 -38c-50 0 -95.833 6.33301 -137.5 19s-77.334 31.834 -107.001 57.501s-52.834 57.5 -69.501 95.5s-25 82.333 -25 133c0 48.667 10 94.167 30 136.5
s50.333 79.166 91 110.499s92 56 154 74s134.667 27 218 27h225v100c0 28 -3.83301 55 -11.5 81s-20.667 48.833 -39 68.5s-42.833 35.334 -73.5 47.001s-69 17.5 -115 17.5c-39.333 0 -72.5 -2.33301 -99.5 -7s-50 -13 -69 -25s-34.833 -28.5 -47.5 -49.5
s-24 -47.5 -34 -79.5h-171l-6 6c13.333 52 30.666 97.167 51.999 135.5s48.666 70 81.999 95s74 43.667 122 56s105.667 18.5 173 18.5c72.667 0 135.167 -8 187.5 -24s95.333 -40.667 129 -74s58.5 -75.666 74.5 -126.999s24 -112.666 24 -183.999v-688h-156z
M277.004 297.996c0 -62 15.167 -105.5 45.5 -130.5s75.833 -37.5 136.5 -37.5c49.333 0 95.833 5.5 139.5 16.5s81.667 29.167 114 54.5s57.833 59 76.5 101s28 94 28 156v25h-221c-56 0 -104.167 -3.66699 -144.5 -11s-73.5 -18.5 -99.5 -33.5s-45 -34.167 -57 -57.5
s-18 -51 -18 -83z" />
    <glyph glyph-name="afii10066" unicode="&#x431;" horiz-adv-x="1173" 
d="M1086 535c0 -83.333 -10.167 -158.997 -30.5 -226.997s-50.666 -126.333 -90.999 -175s-91.166 -86.334 -152.499 -113.001s-133 -40 -215 -40c-98 0 -179.5 13.333 -244.5 40s-116.833 70 -155.5 130s-66 138.667 -82 236s-24 217 -24 359c0 94 5.5 175.667 16.5 245
s27 128.333 48 177s47.167 88.667 78.5 120s67.666 55.666 108.999 72.999s87.166 29.333 137.499 36s105.5 10 165.5 10c48.667 0 87.167 1.33301 115.5 4s50 6.66699 65 12s25 12.5 30 21.5s8.83301 19.833 11.5 32.5h178v-8c0 -45.333 -8 -81.833 -24 -109.5
s-40.333 -49 -73 -64s-74.167 -25.167 -124.5 -30.5s-109.833 -8 -178.5 -8c-78 0 -141.333 -9.16699 -190 -27.5s-86.834 -44.5 -114.501 -78.5s-46.334 -75.333 -56.001 -124s-14.5 -103.334 -14.5 -164.001h7c38.667 66 87.834 112.333 147.501 139
s127.834 40 204.501 40c68.667 0 131 -11.333 187 -34s104 -55.667 144 -99s70.833 -96.333 92.5 -159s32.5 -134 32.5 -214zM609 891.003c-56 0 -104.332 -10.1641 -144.999 -30.4971s-74 -48.333 -100 -84s-45.167 -77.334 -57.5 -125.001s-18.5 -98.834 -18.5 -153.501
c0 -66 6.5 -122.333 19.5 -169s32.5 -84.834 58.5 -114.501s58.167 -51.167 96.5 -64.5s83.166 -20 134.499 -20c96.667 0 171 32.833 223 98.5s78 166.167 78 301.5c0 54.667 -6.16699 104.167 -18.5 148.5s-30.5 82.333 -54.5 114s-54 56 -90 73s-78 25.5 -126 25.5z" />
    <glyph glyph-name="afii10067" unicode="&#x432;" horiz-adv-x="1088" 
d="M137 1077l414.004 -0.000976562c61.333 0 116.166 -6.33301 164.499 -19s89.166 -31.167 122.499 -55.5s58.666 -54.5 75.999 -90.5s26 -77.333 26 -124c0 -46 -13 -87.167 -39 -123.5s-59.333 -65.5 -100 -87.5v-6c26 -9.33301 51.333 -21.666 76 -36.999
s46.5 -33.5 65.5 -54.5s34.333 -45 46 -72s17.5 -57.167 17.5 -90.5c0 -52 -9.33301 -97.833 -28 -137.5s-45.834 -72.667 -81.501 -99s-79.167 -46.333 -130.5 -60s-109.333 -20.5 -174 -20.5h-455v1077zM315.004 623.999h232.001c66 0 118.333 13 157 39s58 65.667 58 119
c0 52.667 -19.833 90 -59.5 112s-96.834 33 -171.501 33h-216v-303zM315.005 149.999l256.999 -0.00195312c78.667 0 139.334 13.833 182.001 41.5s64 70.834 64 129.501c0 39.333 -7.16699 69.833 -21.5 91.5s-33.833 37.834 -58.5 48.501s-53 17 -85 19s-66 3 -102 3h-236
v-333z" />
    <glyph glyph-name="afii10068" unicode="&#x433;" horiz-adv-x="747" 
d="M137 1077h608v-150h-430v-927h-178v1077z" />
    <glyph glyph-name="afii10069" unicode="&#x434;" horiz-adv-x="1195" 
d="M15 -243v392.999l21 2c28.667 2.66699 54.167 9.5 76.5 20.5s41.833 27.833 58.5 50.5s30.667 52 42 88s20.333 80.833 27 134.5s11.5 116.834 14.5 189.501s4.5 156.667 4.5 252v190h751v-925l117 -5v-390h-172v245h-768v-245h-172zM832 926.999l-401 0.000976562v-55
c0 -80 -1.16699 -150.833 -3.5 -212.5s-5.66602 -116.167 -9.99902 -163.5s-9.66602 -88.333 -15.999 -123s-13.833 -65.167 -22.5 -91.5s-18.334 -49.333 -29.001 -69s-22.334 -37.834 -35.001 -54.501l1 -6h516v775z" />
    <glyph glyph-name="afii10070" unicode="&#x435;" 
d="M557 947c-37.333 0 -73.333 -7.00195 -108 -21.002s-65.5 -34.667 -92.5 -62s-49.167 -61.666 -66.5 -102.999s-27.333 -89 -30 -143h531c35.333 0 58.833 4.33301 70.5 13s17.5 24.334 17.5 47.001c0 45.333 -7.5 84.833 -22.5 118.5s-36.167 61.667 -63.5 84
s-60 39 -98 50s-80 16.5 -126 16.5h-12zM1051 320.998l5.99902 -8.00293c-30 -110 -83.833 -193 -161.5 -249s-180.167 -84 -307.5 -84c-164 0 -289.333 44.833 -376 134.5s-130 228.167 -130 415.5c0 88.667 11 168.167 33 238.5s54.167 129.833 96.5 178.5
s94.5 85.834 156.5 111.501s132.667 38.5 212 38.5c74.667 0 141.5 -11.167 200.5 -33.5s109 -53.166 150 -92.499s72.333 -86.166 94 -140.499s32.5 -113.5 32.5 -177.5c0 -35.333 -4.83301 -64.666 -14.5 -87.999s-25 -42.333 -46 -57s-48.167 -25 -81.5 -31
s-73.333 -9 -120 -9h-535c0 -45.333 5.33301 -88.5 16 -129.5s28.834 -77 54.501 -108s59.5 -55.5 101.5 -73.5s94.667 -27 158 -27c37.333 0 71.5 3.33301 102.5 10s58.5 17.5 82.5 32.5s44.833 34.667 62.5 59s31.5 54.166 41.5 89.499h172z" />
    <glyph glyph-name="afii10072" unicode="&#x436;" horiz-adv-x="1370" 
d="M774 618h131l269 459h196v-10l-295 -477l-28 -27l28 -28l307 -523v-12h-192l-283 477h-133v-477h-178v477h-133l-283 -477h-192v12l307 523l28 28l-28 27l-295 477v10h194l271 -459h131v459h178v-459z" />
    <glyph glyph-name="afii10073" unicode="&#x437;" horiz-adv-x="939" 
d="M81 789c5.33301 55.333 16.999 102.502 34.999 141.502s42.833 71 74.5 96s70.667 43.167 117 54.5s100.166 17 161.499 17c52 0 100.5 -5 145.5 -15s84 -26.333 117 -49s59 -51.834 78 -87.501s28.5 -79.5 28.5 -131.5c0 -56.667 -13.167 -106.334 -39.5 -149.001
s-64.5 -75.334 -114.5 -98.001c28 -10 53.667 -23.167 77 -39.5s43.333 -35.5 60 -57.5s29.667 -46.5 39 -73.5s14 -55.833 14 -86.5c0 -56.667 -11 -105.834 -33 -147.501s-51.833 -76 -89.5 -103s-81.667 -47.167 -132 -60.5s-103.833 -20 -160.5 -20
c-55.333 0 -106.666 4.5 -153.999 13.5s-89 25.333 -125 49s-65.167 56.167 -87.5 97.5s-36.166 94.333 -41.499 159l3 7h174c2.66699 -35.333 9 -64.333 19 -87s24.333 -40.5 43 -53.5s42.167 -22.167 70.5 -27.5s62.5 -8 102.5 -8c80.667 0 139.667 14.667 177 44
s56 74.333 56 135s-17.833 103.834 -53.5 129.501s-91.5 38.5 -167.5 38.5h-153v150h141c62.667 0 111.167 14.833 145.5 44.5s51.5 72.834 51.5 129.501c0 56 -16.5 94.5 -49.5 115.5s-80.833 31.5 -143.5 31.5c-29.333 0 -56.333 -1.83301 -81 -5.5s-46.167 -11 -64.5 -22
s-33.333 -27 -45 -48s-19.5 -48.833 -23.5 -83.5h-172z" />
    <glyph glyph-name="afii10074" unicode="&#x438;" horiz-adv-x="1144" 
d="M139 1077h178v-782h6l505 782h178v-1077h-178v782h-6l-505 -782h-178v1077z" />
    <glyph glyph-name="afii10075" unicode="&#x439;" horiz-adv-x="1144" 
d="M139 1077h178v-782h6l505 782h178v-1077h-178v782h-6l-505 -782h-178v1077zM888 1476l-0.00585938 -33c0 -43.333 -7.83301 -80.5 -23.5 -111.5s-37.167 -56.5 -64.5 -76.5s-59.666 -34.667 -96.999 -44s-77.666 -14 -120.999 -14s-83.666 4.66699 -120.999 14
s-69.666 24 -96.999 44s-48.833 45.5 -64.5 76.5s-23.5 68.167 -23.5 111.5v33h144v-33c0 -21.333 4 -39.833 12 -55.5s19.333 -28.5 34 -38.5s31.834 -17.333 51.501 -22s41.167 -7 64.5 -7s44.833 2.33301 64.5 7s36.834 12 51.501 22s26 22.833 34 38.5
s12 34.167 12 55.5v33h144z" />
    <glyph glyph-name="afii10076" unicode="&#x43a;" horiz-adv-x="896" 
d="M137 0v1077h178v-451h86l289 451h198v-12l-338 -503l365 -550v-12h-199l-315 485h-86v-485h-178z" />
    <glyph glyph-name="afii10077" unicode="&#x43b;" horiz-adv-x="1195" 
d="M1048 0l-177.999 -0.00195312v927h-399v-140c0 -151.333 -4 -278.166 -12 -380.499s-22.667 -184.666 -44 -246.999s-50.5 -106.833 -87.5 -133.5s-84.167 -40 -141.5 -40c-18 0 -37.333 1 -58 3s-41.334 5.66699 -62.001 11l12 146l6 2c12.667 -4 26 -7 40 -9
s26.667 -3 38 -3c18 0 34 2 48 6s26.167 13.167 36.5 27.5s18.833 35.333 25.5 63s12 65.5 16 113.5s6.83301 107.5 8.5 178.5s2.5 156.833 2.5 257.5v295h749v-1077z" />
    <glyph glyph-name="afii10078" unicode="&#x43c;" horiz-adv-x="1408" 
d="M144 1077h198l359 -702h6l359 702h198v-1077h-178v744h-6l-298 -579h-156l-298 579h-6v-744h-178v1077z" />
    <glyph glyph-name="afii10079" unicode="&#x43d;" horiz-adv-x="1131" 
d="M139 1077h178v-452h497v452h178v-1077h-178v475h-497v-475h-178v1077z" />
    <glyph glyph-name="afii10080" unicode="&#x43e;" 
d="M569 -20c-82 0 -153.667 12.833 -215 38.5s-112.5 62.5 -153.5 110.5s-71.667 106.5 -92 175.5s-30.5 147.167 -30.5 234.5c0 86.667 10.167 164.5 30.5 233.5s51 127.5 92 175.5s92.167 84.833 153.5 110.5s133 38.5 215 38.5s153.667 -12.833 215 -38.5
s112.5 -62.5 153.5 -110.5s71.667 -106.5 92 -175.5s30.5 -146.833 30.5 -233.5c0 -87.333 -10.167 -165.5 -30.5 -234.5s-51 -127.5 -92 -175.5s-92.167 -84.833 -153.5 -110.5s-133 -38.5 -215 -38.5zM569 947c-54 0 -100.167 -10.833 -138.5 -32.5
s-69.666 -51 -93.999 -88s-42.166 -80.167 -53.499 -129.5s-17 -102 -17 -158s5.66699 -108.833 17 -158.5s29.166 -93 53.499 -130s55.666 -66.333 93.999 -88s84.5 -32.5 138.5 -32.5s100.167 10.833 138.5 32.5s69.666 51 93.999 88s42.166 80.333 53.499 130
s17 102.5 17 158.5s-5.66699 108.667 -17 158s-29.166 92.5 -53.499 129.5s-55.666 66.333 -93.999 88s-84.5 32.5 -138.5 32.5z" />
    <glyph glyph-name="afii10081" unicode="&#x43f;" horiz-adv-x="1109" 
d="M139 1077h831v-1077h-178v927h-475v-927h-178v1077z" />
    <glyph glyph-name="afii10082" unicode="&#x440;" 
d="M305 947l6.00098 -0.000976562c18.667 28 39.834 51.5 63.501 70.5s49.167 34.5 76.5 46.5s56.166 20.5 86.499 25.5s61.5 7.5 93.5 7.5c74 0 138 -12.167 192 -36.5s98.833 -59.5 134.5 -105.5s62.167 -102.167 79.5 -168.5s26 -141.5 26 -225.5
c0 -75.333 -9 -146.833 -27 -214.5s-45.5 -127.167 -82.5 -178.5s-83.833 -92.166 -140.5 -122.499s-123.667 -45.5 -201 -45.5c-56.667 0 -110.834 11.167 -162.501 33.5s-96.5 57.5 -134.5 105.5h-6c1.33301 -23.333 3.33301 -46.5 6 -69.5s4 -46.167 4 -69.5v-420h-178
v1497h156zM311.001 531.999c0 -53.333 5.33203 -103.167 15.999 -149.5s27.5 -86.666 50.5 -120.999s52.833 -61.5 89.5 -81.5s81 -30 133 -30c54 0 99.167 10.667 135.5 32s65.5 50.666 87.5 87.999s37.833 80.833 47.5 130.5s14.5 103.167 14.5 160.5
c0 62.667 -5.5 118 -16.5 166s-28 88.333 -51 121s-52.667 57.334 -89 74.001s-79.833 25 -130.5 25c-51.333 0 -95.166 -11.833 -131.499 -35.5s-66 -54.834 -89 -93.501s-39.833 -83 -50.5 -133s-16 -101 -16 -153z" />
    <glyph glyph-name="afii10083" unicode="&#x441;" horiz-adv-x="1024" 
d="M977 330l5.99902 -4.99707c-8 -54 -23.167 -102.333 -45.5 -145s-51.666 -78.834 -87.999 -108.501s-79.666 -52.334 -129.999 -68.001s-107.833 -23.5 -172.5 -23.5c-80.667 0 -150.5 12.667 -209.5 38s-107.833 62.333 -146.5 111s-67.5 108.334 -86.5 179.001
s-28.5 151.334 -28.5 242.001c0 86.667 9.33301 164 28 232s47.167 125.333 85.5 172s86.833 82.167 145.5 106.5s128 36.5 208 36.5c57.333 0 110.5 -6 159.5 -18s92.167 -31 129.5 -57s68.166 -59.333 92.499 -100s40.5 -89.334 48.5 -146.001l-5 -6h-167
c-18.667 65.333 -49.5 111.166 -92.5 137.499s-96.833 39.5 -161.5 39.5c-52 0 -96.667 -9.33301 -134 -28s-67.666 -45.334 -90.999 -80.001s-40.5 -76.5 -51.5 -125.5s-16.5 -103.5 -16.5 -163.5c0 -144 24.667 -250 74 -318s123.666 -102 222.999 -102
c74.667 0 133.5 15.667 176.5 47s68.833 82.333 77.5 153h172z" />
    <glyph glyph-name="afii10084" unicode="&#x442;" horiz-adv-x="938" 
d="M33 927v150h874v-150h-348v-927h-178v927h-348z" />
    <glyph glyph-name="afii10085" unicode="&#x443;" horiz-adv-x="1024" 
d="M176 -272l7.00293 1.99902c20.667 -4.66699 38 -7.83398 52 -9.50098s27.667 -2.5 41 -2.5c12 0 24 1.83301 36 5.5s24.5 13.5 37.5 29.5s27 40.5 42 73.5s31.833 79.167 50.5 138.5l11 33l-439 1073l4 6h183l333 -868h6l302 868h175l3 -6l-416 -1122
c-31.333 -84 -58.333 -151.167 -81 -201.5s-45.334 -88.666 -68.001 -114.999s-47.334 -43.666 -74.001 -51.999s-59.334 -12.5 -98.001 -12.5c-6.66699 0 -15.167 0.333008 -25.5 1s-21.5 1.66699 -33.5 3s-24.167 2.83301 -36.5 4.5s-23.5 3.5 -33.5 5.5z" />
    <glyph glyph-name="afii10086" unicode="&#x444;" horiz-adv-x="1685" 
d="M753 31c-12 -4 -26.666 -7.83398 -43.999 -11.501s-35.5 -7 -54.5 -10s-37.833 -5.33301 -56.5 -7s-35.334 -2.5 -50.001 -2.5c-81.333 0 -151.333 13 -210 39s-107.167 62.667 -145.5 110s-66.666 104 -84.999 170s-27.5 138.667 -27.5 218
c0 80.667 8.83301 154.167 26.5 220.5s45.167 123.166 82.5 170.499s85.333 84 144 110s129 39 211 39c14 0 30.5 -1 49.5 -3s38.333 -4.5 58 -7.5s38.5 -6.16699 56.5 -9.5s33 -6.66602 45 -9.99902v409h178v-409c12 3.33301 27 6.83301 45 10.5s36.667 7 56 10
s38.5 5.33301 57.5 7s35.833 2.5 50.5 2.5c82 0 152.333 -13 211 -39s106.667 -62.667 144 -110s64.833 -104.166 82.5 -170.499s26.5 -139.833 26.5 -220.5c0 -79.333 -9.33301 -152 -28 -218s-47.167 -122.667 -85.5 -170s-87 -84 -146 -110s-128.5 -39 -208.5 -39
c-14.667 -0 -31.334 0.833008 -50.001 2.5s-37.5 4 -56.5 7s-37.167 6.33301 -54.5 10s-32 7.5 -44 11.5v-463h-178v463zM552.001 149.999c14.667 0 31.666 1.16895 50.999 3.50195s38.333 5.66602 57 9.99902s36.334 9.16602 53.001 14.499s30 11 40 17v685
c-10.667 6 -24.5 11.833 -41.5 17.5s-35 10.667 -54 15s-38.167 7.83301 -57.5 10.5s-36.666 4 -51.999 4c-52 0 -96.5 -9.5 -133.5 -28.5s-67 -45.5 -90 -79.5s-39.833 -74.333 -50.5 -121s-16 -97.667 -16 -153c0 -136 24.167 -235.833 72.5 -299.5
s122.166 -95.5 221.499 -95.5zM1132 150.001c98.667 0 172.332 31.8311 220.999 95.498s73 163.5 73 299.5c0 55.333 -5.33301 106.333 -16 153s-27.5 87 -50.5 121s-53 60.5 -90 79.5s-81.5 28.5 -133.5 28.5c-15.333 0 -32.666 -1.33301 -51.999 -4
s-38.5 -6.16699 -57.5 -10.5s-37 -9.33301 -54 -15s-30.833 -11.5 -41.5 -17.5v-685c10 -6 23.167 -11.667 39.5 -17s34 -10.166 53 -14.499s38 -7.66602 57 -9.99902s36.167 -3.5 51.5 -3.5z" />
    <glyph glyph-name="afii10087" unicode="&#x445;" horiz-adv-x="1024" 
d="M973 1065l-365 -520l379 -533v-12h-199l-273 417h-6l-273 -417h-199v12l379 533l-365 520v12h201l257 -396h6l257 396h201v-12z" />
    <glyph glyph-name="afii10088" unicode="&#x446;" horiz-adv-x="1173" 
d="M976 150h110v-393h-172v243h-770v1077h178v-927h476v927h178v-927z" />
    <glyph glyph-name="afii10089" unicode="&#x447;" horiz-adv-x="1067" 
d="M924 0l-178 -0.000976562v446c-23.333 -9.33301 -47.5 -17.166 -72.5 -23.499s-49.5 -11.5 -73.5 -15.5s-47 -7 -69 -9s-42 -3 -60 -3c-122 0 -214 30 -276 90s-93 149 -93 267v325h178v-315c0 -45.333 4.66699 -82 14 -110s23.333 -50 42 -66s41.5 -26.833 68.5 -32.5
s58.167 -8.5 93.5 -8.5c12.667 0 28.5 0.833008 47.5 2.5s39.5 4.66699 61.5 9s45 9.83301 69 16.5s47.333 15 70 25v479h178v-1077z" />
    <glyph glyph-name="afii10090" unicode="&#x448;" horiz-adv-x="1643" 
d="M151 1077h178v-927h403v927h178v-927h404v927h178v-1077h-1341v1077z" />
    <glyph glyph-name="afii10091" unicode="&#x449;" horiz-adv-x="1685" 
d="M329 1077v-927h403v927h178v-927h404v927h178v-927h115v-393h-172v243h-1284v1077h178z" />
    <glyph glyph-name="afii10092" unicode="&#x44a;" horiz-adv-x="1280" 
d="M346 927l-289 0.000976562v150h467v-425h260c56.667 0 109.5 -5.83301 158.5 -17.5s91.5 -30.334 127.5 -56.001s64.333 -59 85 -100s31 -90.833 31 -149.5c0 -106.667 -34 -188.167 -102 -244.5s-168 -84.5 -300 -84.5h-438v927zM524 150.001l240.001 -0.000976562
c80.667 0 141.5 14.667 182.5 44s61.5 74.333 61.5 135c0 36 -6.16699 65.333 -18.5 88s-29.5 40.334 -51.5 53.001s-47.833 21.167 -77.5 25.5s-61.834 6.5 -96.501 6.5h-240v-352z" />
    <glyph glyph-name="afii10093" unicode="&#x44b;" horiz-adv-x="1472" 
d="M1141 1077h178v-1077h-178v1077zM153 1077l178.001 0.00195312v-425h250c56.667 0 109.667 -5.66699 159 -17s92.166 -29.833 128.499 -55.5s65 -58.834 86 -99.501s31.5 -90.334 31.5 -149.001c0 -106.667 -34.5 -188.5 -103.5 -245.5s-169.5 -85.5 -301.5 -85.5h-428
v1077zM331.001 150.002l233.001 0.00195312c80.667 0 141.5 15 182.5 45s61.5 75.333 61.5 136c0 36 -6.16699 65.167 -18.5 87.5s-29.5 39.666 -51.5 51.999s-47.833 20.666 -77.5 24.999s-61.834 6.5 -96.501 6.5h-233v-352z" />
    <glyph glyph-name="afii10094" unicode="&#x44c;" horiz-adv-x="1067" 
d="M146 1077l178 0.000976562v-425h256c56.667 0 109.5 -5.83301 158.5 -17.5s91.5 -30.334 127.5 -56.001s64.167 -59 84.5 -100s30.5 -90.833 30.5 -149.5c0 -106.667 -33.833 -188.167 -101.5 -244.5s-167.5 -84.5 -299.5 -84.5h-434v1077zM324 150.001
l235.001 -0.000976562c80.667 0 141.5 14.667 182.5 44s61.5 74.333 61.5 135c0 36 -6.16699 65.333 -18.5 88s-29.5 40.334 -51.5 53.001s-47.833 21.167 -77.5 25.5s-61.834 6.5 -96.501 6.5h-235v-352z" />
    <glyph glyph-name="afii10095" unicode="&#x44d;" horiz-adv-x="1044" 
d="M297 617l3.99609 5l324 -7l126 7c0 50 -5.83301 95 -17.5 135s-29.334 74.167 -53.001 102.5s-53 50 -88 65s-75.833 22.5 -122.5 22.5c-32 0 -62.167 -3 -90.5 -9s-54 -16 -77 -30s-42.833 -32.333 -59.5 -55s-29.667 -50.334 -39 -83.001h-167l-5 6
c8 56.667 24.667 105.334 50 146.001s57.333 74 96 100s82.834 45 132.501 57s102.834 18 159.501 18c80.667 0 149.834 -12.167 207.501 -36.5s105.167 -59.833 142.5 -106.5s64.833 -104 82.5 -172s26.5 -145.333 26.5 -232c0 -90.667 -9 -171.334 -27 -242.001
s-46 -130.334 -84 -179.001s-86.167 -85.667 -144.5 -111s-127.833 -38 -208.5 -38c-64.667 0 -122.5 7.83301 -173.5 23.5s-95.167 38.334 -132.5 68.001s-67.5 65.834 -90.5 108.501s-38.5 91 -46.5 145l6 5h172c8.66699 -70.667 35.834 -121.667 81.501 -153
s105.834 -47 180.501 -47c44.667 0 85 6.66699 121 20s66.333 34 91 62s43.667 63.5 57 106.5s20 94.167 20 153.5l-126 7l-324 -7l-4 5v140z" />
    <glyph glyph-name="afii10096" unicode="&#x44e;" horiz-adv-x="1536" 
d="M139 1077l178 0.00195312v-450h216c4.66699 70.667 17.667 135 39 193s50.833 107.667 88.5 149s83 73.166 136 95.499s113.833 33.5 182.5 33.5c78.667 0 148 -14 208 -42s110 -66.667 150 -116s70.167 -107.833 90.5 -175.5s30.5 -140.834 30.5 -219.501
c0 -82 -9.16699 -157.5 -27.5 -226.5s-46.833 -128.667 -85.5 -179s-88 -89.5 -148 -117.5s-131.333 -42 -214 -42c-71.333 0 -134.333 12.333 -189 37s-100.667 59.167 -138 103.5s-66.333 96.833 -87 157.5s-32.667 127 -36 199h-216v-477h-178v1077zM983 130.002
c97.333 0 171.167 32.832 221.5 98.499s75.5 166.834 75.5 303.501c0 140.667 -24.833 245.167 -74.5 313.5s-121.167 102.5 -214.5 102.5c-51.333 0 -94.833 -10.333 -130.5 -31s-64.5 -48.834 -86.5 -84.501s-38 -77.167 -48 -124.5s-15 -97.666 -15 -150.999
c0 -145.333 22.5 -252.833 67.5 -322.5s113.167 -104.5 204.5 -104.5z" />
    <glyph glyph-name="afii10097" unicode="&#x44f;" horiz-adv-x="1109" 
d="M964 0h-178v423h-221l-295 -423h-211l-3 6l320 421c-46 9.33301 -85.833 23.5 -119.5 42.5s-61.5 41.833 -83.5 68.5s-38.167 56.334 -48.5 89.001s-15.5 67.667 -15.5 105c0 46.667 8.5 91 25.5 133s43.167 78.667 78.5 110s80.333 56.166 135 74.499
s119.667 27.5 195 27.5h421v-1077zM786 927h-235c-53.333 0 -96.5 -5.83301 -129.5 -17.5s-58.833 -26.5 -77.5 -44.5s-31.167 -38.167 -37.5 -60.5s-9.5 -43.833 -9.5 -64.5c0 -34 4.33301 -62.333 13 -85s24.167 -40.667 46.5 -54s52.5 -22.833 90.5 -28.5
s86.333 -8.5 145 -8.5h194v363z" />
    <glyph glyph-name="afii10071" unicode="&#x451;" 
d="M569 947c46 0 88 -5.49805 126 -16.498s70.667 -27.667 98 -50s48.5 -50.333 63.5 -84s22.5 -73.167 22.5 -118.5c0 -22.667 -5.83301 -38.334 -17.5 -47.001s-35.167 -13 -70.5 -13h-531c2.66699 54 12.667 101.667 30 143s39.5 75.666 66.5 102.999s57.833 48 92.5 62
s70.667 21 108 21h12zM432 157.002c-32 13.333 -58.999 30.6699 -80.999 52.0029s-39.667 45.5 -53 72.5s-23 56.333 -29 88s-9 64.5 -9 98.5h535c46.667 0 86.667 3 120 9s60.5 16.333 81.5 31s36.333 33.667 46 57s14.5 52.666 14.5 87.999
c0 64 -10.833 123.167 -32.5 177.5s-53 101.166 -94 140.499s-91 70.166 -150 92.499s-125.833 33.5 -200.5 33.5c-79.333 0 -150 -12.833 -212 -38.5s-114.167 -62.834 -156.5 -111.501s-74.5 -108.167 -96.5 -178.5s-33 -149.833 -33 -238.5
c0 -187.333 43.333 -325.833 130 -415.5s212 -134.5 376 -134.5c127.333 0 229.833 28 307.5 84s131.5 139 161.5 249l-6 8h-172c-10 -35.333 -23.833 -65.166 -41.5 -89.499s-38.5 -44 -62.5 -59s-51.5 -25.833 -82.5 -32.5s-65.167 -10 -102.5 -10
c-62.667 0 -115.334 9 -158.001 27zM310.001 1443.01c0 9.33301 3.5 17.166 10.5 23.499s15.167 9.5 24.5 9.5h135c9.33301 0 17.5 -3.16699 24.5 -9.5s10.5 -14.166 10.5 -23.499v-147c0 -9.33301 -3.5 -17.5 -10.5 -24.5s-15.167 -10.5 -24.5 -10.5h-135
c-9.33301 0 -17.5 3.5 -24.5 10.5s-10.5 15.167 -10.5 24.5v147zM683.001 1443.01c0 9.33301 3.5 17.166 10.5 23.499s15.167 9.5 24.5 9.5h135c9.33301 0 17.5 -3.16699 24.5 -9.5s10.5 -14.166 10.5 -23.499v-147c0 -9.33301 -3.5 -17.5 -10.5 -24.5
s-15.167 -10.5 -24.5 -10.5h-135c-9.33301 0 -17.5 3.5 -24.5 10.5s-10.5 15.167 -10.5 24.5v147z" />
    <glyph glyph-name="afii10099" unicode="&#x452;" 
d="M152 1188l-157.998 0.000976562v141h158v160h178v-160h243v-141h-243v-291c76.667 102.667 183.667 154 321 154c243.333 0 365 -139.667 365 -419v-451c0 -140.667 -25.5 -246.5 -76.5 -317.5s-123.833 -106.5 -218.5 -106.5c-42 0 -79.333 1.66699 -112 5s-58 8 -76 14
l40 145c16.667 -5.33301 35.334 -9 56.001 -11s43.667 -3 69 -3c24.667 0 45.834 4.66699 63.501 14s32.167 24.5 43.5 45.5s19.666 48.333 24.999 82s8 74.5 8 122.5v457c0 47.333 -4.16699 88.166 -12.5 122.499s-21.5 62.666 -39.5 84.999s-41.333 38.833 -70 49.5
s-63.334 16 -104.001 16c-42.667 0 -81.334 -7.66699 -116.001 -23s-64.334 -37.166 -89.001 -65.499s-43.667 -62.5 -57 -102.5s-20 -84.333 -20 -133v-577h-178v1188z" />
    <glyph glyph-name="afii10100" unicode="&#x453;" horiz-adv-x="747" 
d="M137 1077h608v-150h-430v-927h-178v1077zM290 1209l-3 8l181 272h209l2 -10l-228 -270h-161z" />
    <glyph glyph-name="afii10101" unicode="&#x454;" horiz-adv-x="1044" 
d="M659 476l-385.001 0.00195312c8 -118.667 36.5 -206 85.5 -262s118.833 -84 209.5 -84c74.667 0 133.5 15.667 176.5 47s68.833 82.333 77.5 153h174l4 -6c-8 -54 -23.167 -102.167 -45.5 -144.5s-51.666 -78.333 -87.999 -108s-79.666 -52.334 -129.999 -68.001
s-107.833 -23.5 -172.5 -23.5c-80.667 0 -150.5 12.667 -209.5 38s-107.833 62.333 -146.5 111s-67.5 108.334 -86.5 179.001s-28.5 151.334 -28.5 242.001c0 86.667 9.33301 164 28 232s47.167 125.333 85.5 172s86.833 82.167 145.5 106.5s128 36.5 208 36.5
c57.333 0 110.5 -6 159.5 -18s92.167 -31 129.5 -57s68.166 -59.333 92.499 -100s40.5 -89.334 48.5 -146.001l-5 -6h-167c-18.667 65.333 -49.5 111.166 -92.5 137.499s-96.833 39.5 -161.5 39.5c-46.667 0 -87.167 -7.5 -121.5 -22.5s-63.333 -36.333 -87 -64
s-42.167 -61.334 -55.5 -101.001s-22 -84.167 -26 -133.5h384v-150z" />
    <glyph glyph-name="afii10102" unicode="&#x455;" horiz-adv-x="1024" 
d="M254 330c4.66699 -40 13.502 -73.0039 26.502 -99.0039s30.5 -46.5 52.5 -61.5s48.167 -25.333 78.5 -31s65.5 -8.5 105.5 -8.5c75.333 0 134.833 12.833 178.5 38.5s65.5 66.5 65.5 122.5c0 24.667 -3.16699 45.167 -9.5 61.5s-17.833 31 -34.5 44
s-39.334 25.167 -68.001 36.5s-65.334 24.666 -110.001 39.999l-120 40c-66 22 -119 43.333 -159 64s-71 42.667 -93 66s-36.5 49 -43.5 77s-10.5 60.333 -10.5 97c0 36 6.5 67.833 19.5 95.5s30.167 51.834 51.5 72.501s46 38.167 74 52.5s56.833 25.833 86.5 34.5
s59.334 15 89.001 19s56.834 6 81.501 6c61.333 0 115.5 -5.66699 162.5 -17s87.333 -29.166 121 -53.499s60.5 -56 80.5 -95s33.667 -86.167 41 -141.5l-6 -5h-173c-5.33301 34 -13.833 62.167 -25.5 84.5s-26.834 39.833 -45.501 52.5s-40.834 21.5 -66.501 26.5
s-55.167 7.5 -88.5 7.5c-70.667 0 -125.667 -12.667 -165 -38s-59 -59 -59 -101c0 -23.333 2.66699 -42.666 8 -57.999s15.333 -29 30 -41s35.334 -23.333 62.001 -34s61 -23 103 -37l114 -38c63.333 -21.333 116.166 -42.5 158.499 -63.5s76.333 -44 102 -69
s43.834 -52.5 54.501 -82.5s16 -64.667 16 -104c0 -52.667 -11.667 -98.5 -35 -137.5s-54.5 -71.167 -93.5 -96.5s-84 -44.333 -135 -57s-103.833 -19 -158.5 -19c-66.667 0 -125.834 6.16699 -177.501 18.5s-96 32.333 -133 60s-66.5 63.334 -88.5 107.001
s-36 96.834 -42 159.501l6 5h172z" />
    <glyph glyph-name="afii10103" unicode="&#x456;" horiz-adv-x="455" 
d="M148 0v927h-130v150h308v-1077h-178zM291 1476c9.33301 0 17.5 -3.5 24.5 -10.5s10.5 -15.167 10.5 -24.5v-145c0 -9.33301 -3.5 -17.5 -10.5 -24.5s-15.167 -10.5 -24.5 -10.5h-135c-9.33301 0 -17.5 3.5 -24.5 10.5s-10.5 15.167 -10.5 24.5v145
c0 9.33301 3.5 17.5 10.5 24.5s15.167 10.5 24.5 10.5h135z" />
    <glyph glyph-name="afii10104" unicode="&#x457;" horiz-adv-x="569" 
d="M201 928h-129v149h307v-1077h-178v928zM170 1476c9.33301 0 17.5 -3.5 24.5 -10.5s10.5 -15.167 10.5 -24.5v-145c0 -9.33301 -3.5 -17.5 -10.5 -24.5s-15.167 -10.5 -24.5 -10.5h-135c-9.33301 0 -17.5 3.5 -24.5 10.5s-10.5 15.167 -10.5 24.5v145
c0 9.33301 3.5 17.5 10.5 24.5s15.167 10.5 24.5 10.5h135zM529 1476c9.33301 0 17.333 -3.5 24 -10.5s10 -15.167 10 -24.5v-145c0 -9.33301 -3.33301 -17.5 -10 -24.5s-14.667 -10.5 -24 -10.5h-136c-9.33301 0 -17.333 3.5 -24 10.5s-10 15.167 -10 24.5v145
c0 9.33301 3.33301 17.5 10 24.5s14.667 10.5 24 10.5h136z" />
    <glyph glyph-name="afii10105" unicode="&#x458;" horiz-adv-x="455" 
d="M326 -63c0 -246 -74.667 -368.999 -224 -368.999c-62 0 -110.333 4 -145 12l14 151c28.667 -8.66699 61 -13 97 -13c27.333 0 47 13 59 39c7.33301 15.333 12.5 38.166 15.5 68.499s4.5 67.833 4.5 112.5v989h-135v150h314v-1140zM291 1476
c9.33301 0 17.5 -3.5 24.5 -10.5s10.5 -15.167 10.5 -24.5v-145c0 -9.33301 -3.5 -17.5 -10.5 -24.5s-15.167 -10.5 -24.5 -10.5h-135c-9.33301 0 -17.5 3.5 -24.5 10.5s-10.5 15.167 -10.5 24.5v145c0 9.33301 3.5 17.5 10.5 24.5s15.167 10.5 24.5 10.5h135z" />
    <glyph glyph-name="afii10106" unicode="&#x459;" horiz-adv-x="1856" 
d="M1059 1077v-428.999h303c271.333 0 407 -108 407 -324c0 -106.667 -34.833 -187.334 -104.5 -242.001s-170.5 -82 -302.5 -82h-481v927h-424v-139c0 -156 -5 -285.667 -15 -389s-26.333 -185.5 -49 -246.5s-52.334 -104 -89.001 -129s-81.334 -37.5 -134.001 -37.5
c-23.333 0 -47.666 1 -72.999 3s-47.666 5.66699 -66.999 11l31 156c19.333 -6.66699 43.333 -10 72 -10c32 0 58 9 78 27s35.5 51 46.5 99s18.333 114 22 198s5.5 191.667 5.5 323v284h774zM1059 150.001l288 -0.000976562c82.667 0 144 13.5 184 40.5s60 71.5 60 133.5
c0 60.667 -20 104.834 -60 132.501s-101.333 41.5 -184 41.5h-288v-348z" />
    <glyph glyph-name="afii10107" unicode="&#x45a;" horiz-adv-x="1664" 
d="M136 1077h178.001v-441h490v441h178v-441h209c275.333 0 413 -104 413 -312c0 -52 -9.5 -98.167 -28.5 -138.5s-46.333 -74.333 -82 -102s-79.334 -48.5 -131.001 -62.5s-110.167 -21 -175.5 -21h-383v486h-490v-486h-178v1077zM982.001 150l184 -0.000976562
c39.333 0 75 3.5 107 10.5s59.333 17.833 82 32.5s40.167 32.834 52.5 54.501s18.5 47.167 18.5 76.5s-4.33301 54.333 -13 75s-23 37.5 -43 50.5s-46.5 22.333 -79.5 28s-73.833 8.5 -122.5 8.5h-186v-336z" />
    <glyph glyph-name="afii10108" unicode="&#x45b;" 
d="M152 1188l-157.998 -0.00195312v141h158v160h178v-160h273v-141h-273v-291c76.667 102.667 183.667 154 321 154c243.333 0 365 -139.667 365 -419v-632h-178v628c0 94.667 -18.833 163.834 -56.5 207.501s-97.167 65.5 -178.5 65.5
c-42.667 0 -80.834 -7.66699 -114.501 -23s-62.334 -37.166 -86.001 -65.499s-41.667 -62.5 -54 -102.5s-18.5 -84.333 -18.5 -133v-577h-178v1188z" />
    <glyph glyph-name="afii10109" unicode="&#x45c;" horiz-adv-x="896" 
d="M137 0v1077h178v-451h86l289 451h198v-12l-338 -503l365 -550v-12h-199l-315 485h-86v-485h-178zM385 1209l-3 8l181 272h209l2 -10l-228 -270h-161z" />
    <glyph glyph-name="afii10110" unicode="&#x45e;" horiz-adv-x="1024" 
d="M166 -272l7.00391 1.99902c20.667 -4.66699 39.667 -7.83398 57 -9.50098s32.666 -2.5 45.999 -2.5c12 0 24 1.83301 36 5.5s24.5 13.5 37.5 29.5s27 40.5 42 73.5s31.833 79.167 50.5 138.5l11 33l-439 1073l4 6h183l333 -868h6l302 868h175l3 -6l-416 -1122
c-31.333 -84 -58.333 -151.167 -81 -201.5s-45.334 -88.666 -68.001 -114.999s-47.334 -43.666 -74.001 -51.999s-59.334 -12.5 -98.001 -12.5c-6.66699 0 -15.167 0.333008 -25.5 1s-21.5 1.66699 -33.5 3s-24.167 2.83301 -36.5 4.5s-23.5 3.5 -33.5 5.5zM844.004 1489
l-0.00585938 -33c0 -43.333 -7.83301 -80.5 -23.5 -111.5s-37.167 -56.5 -64.5 -76.5s-59.666 -34.667 -96.999 -44s-77.666 -14 -120.999 -14s-83.666 4.66699 -120.999 14s-69.666 24 -96.999 44s-48.833 45.5 -64.5 76.5s-23.5 68.167 -23.5 111.5v33h144v-33
c0 -21.333 4 -39.833 12 -55.5s19.333 -28.5 34 -38.5s31.834 -17.333 51.501 -22s41.167 -7 64.5 -7s44.833 2.33301 64.5 7s36.834 12 51.501 22s26 22.833 34 38.5s12 34.167 12 55.5v33h144z" />
    <glyph glyph-name="afii10193" unicode="&#x45f;" horiz-adv-x="1131" 
d="M813 1077h178v-1077h-337v-243h-178v243h-337v1077h178v-925h496v925z" />
    <glyph glyph-name="afii10050" unicode="&#x490;" horiz-adv-x="1001" 
d="M778 1456v232h178v-390h-608v-1298h-188v1456h618z" />
    <glyph glyph-name="afii10098" unicode="&#x491;" horiz-adv-x="842" 
d="M627 1077v242h172v-392h-486v-927h-178v1077h492z" />
    <glyph glyph-name="endash" unicode="&#x2013;" 
d="M-4 461v150h1147v-150h-1147z" />
    <glyph glyph-name="emdash" unicode="&#x2014;" horiz-adv-x="2048" 
d="M100 461v150h1848v-150h-1848z" />
    <glyph glyph-name="quoteleft" unicode="&#x2018;" horiz-adv-x="455" 
d="M154 1057c-9.33301 0 -17.501 3.49902 -24.501 10.499s-10.5 15.167 -10.5 24.5v188c0 16.667 2.16699 29.5 6.5 38.5s12.5 20.833 24.5 35.5l102 123c6.66699 8 15.334 12 26.001 12c8 0 15.667 -2.66699 23 -8l10 -8c8.66699 -6.66699 13 -15.334 13 -26.001
c0 -8.66699 -2.33301 -15.667 -7 -21l-90 -133c-4 -7.33301 -6 -15.666 -6 -24.999v-10h68c9.33301 0 17.5 -3.16699 24.5 -9.5s10.5 -14.166 10.5 -23.499v-133c0 -9.33301 -3.5 -17.5 -10.5 -24.5s-15.167 -10.5 -24.5 -10.5h-135z" />
    <glyph glyph-name="quoteright" unicode="&#x2019;" horiz-adv-x="455" 
d="M301 1489c9.33301 0 17.5 -3.50195 24.5 -10.502s10.5 -15.167 10.5 -24.5v-188c0 -16 -2.16699 -28.667 -6.5 -38s-12.5 -21.333 -24.5 -36l-102 -123c-7.33301 -8 -16 -12 -26 -12c-8 0 -15.667 2.66699 -23 8l-11 8c-8.66699 6.66699 -13 15.334 -13 26.001
c0 8.66699 2.33301 15.667 7 21l90 133c4 6.66699 6 14.334 6 23.001v10h-67c-9.33301 0 -17.5 3.5 -24.5 10.5s-10.5 15.167 -10.5 24.5v133c0 9.33301 3.5 17.5 10.5 24.5s15.167 10.5 24.5 10.5h135z" />
    <glyph glyph-name="quotesinglbase" unicode="&#x201a;" horiz-adv-x="455" 
d="M301 201c9.33301 0 17.5 -3.16699 24.5 -9.5s10.5 -14.166 10.5 -23.499v-191c0 -16 -2 -28.667 -6 -38s-12.333 -20.333 -25 -33l-102 -123c-7.33301 -8 -16 -12 -26 -12c-8 0 -15.667 2.66699 -23 8l-11 8c-8.66699 6 -13 14.333 -13 25c0 8 2.33301 14.667 7 20
l90 133c2 3.33301 3.5 7.33301 4.5 12s1.5 9 1.5 13v10h-67c-9.33301 0 -17.5 3.5 -24.5 10.5s-10.5 15.167 -10.5 24.5v133c0 9.33301 3.5 17.166 10.5 23.499s15.167 9.5 24.5 9.5h135z" />
    <glyph glyph-name="quotedblleft" unicode="&#x201c;" horiz-adv-x="682" 
d="M106 1057c-9.33301 0 -17.334 3.49902 -24.001 10.499s-10 15.167 -10 24.5v188c0 16.667 2 29.667 6 39s12 21 24 35l103 123c6.66699 8 15.334 12 26.001 12c8 0 15.667 -2.66699 23 -8l10 -8c8.66699 -6.66699 13 -15.334 13 -26.001
c0 -8.66699 -2.33301 -15.667 -7 -21l-90 -133c-4 -7.33301 -6 -15.666 -6 -24.999v-10h68c9.33301 0 17.333 -3.16699 24 -9.5s10 -14.166 10 -23.499v-133c0 -9.33301 -3.33301 -17.5 -10 -24.5s-14.667 -10.5 -24 -10.5h-136zM427.999 1057
c-9.33301 0 -17.501 3.49902 -24.501 10.499s-10.5 15.167 -10.5 24.5v188c0 16.667 2.16699 29.5 6.5 38.5s12.5 20.833 24.5 35.5l102 123c6.66699 8 15.334 12 26.001 12c8 0 15.667 -2.66699 23 -8l11 -8c8.66699 -6.66699 13 -15.334 13 -26.001
c0 -8.66699 -2.33301 -15.667 -7 -21l-90 -133c-4 -7.33301 -6 -15.666 -6 -24.999v-10h67c9.33301 0 17.5 -3.16699 24.5 -9.5s10.5 -14.166 10.5 -23.499v-133c0 -9.33301 -3.5 -17.5 -10.5 -24.5s-15.167 -10.5 -24.5 -10.5h-135z" />
    <glyph glyph-name="quotedblright" unicode="&#x201d;" horiz-adv-x="682" 
d="M254 1489c9.33301 0 17.5 -3.50195 24.5 -10.502s10.5 -15.167 10.5 -24.5v-188c0 -16 -2.16699 -28.667 -6.5 -38s-12.5 -21.333 -24.5 -36l-102 -123c-7.33301 -8 -16.333 -12 -27 -12c-8 0 -15.667 2.66699 -23 8l-10 8c-8.66699 6.66699 -13 15.334 -13 26.001
c0 8.66699 2.33301 15.667 7 21l90 133c4 6.66699 6 14.334 6 23.001v10h-67c-9.33301 0 -17.5 3.5 -24.5 10.5s-10.5 15.167 -10.5 24.5v133c0 9.33301 3.5 17.5 10.5 24.5s15.167 10.5 24.5 10.5h135zM575 1489c9.33301 0 17.5 -3.50195 24.5 -10.502
s10.5 -15.167 10.5 -24.5v-188c0 -16.667 -2 -29.5 -6 -38.5s-12 -20.833 -24 -35.5l-103 -123c-7.33301 -8 -16 -12 -26 -12c-8 0 -15.667 2.66699 -23 8l-10 8c-8.66699 6.66699 -13 15.334 -13 26.001c0 8.66699 2.33301 15.667 7 21l90 133c4 6.66699 6 14.334 6 23.001
v10h-68c-9.33301 0 -17.333 3.5 -24 10.5s-10 15.167 -10 24.5v133c0 9.33301 3.33301 17.5 10 24.5s14.667 10.5 24 10.5h135z" />
    <glyph glyph-name="quotedblbase" unicode="&#x201e;" horiz-adv-x="682" 
d="M248 205c9.33301 0 17.5 -3.16699 24.5 -9.5s10.5 -14.166 10.5 -23.499v-195c0 -16 -2.33301 -28.333 -7 -37s-12.667 -20 -24 -34l-102 -123c-7.33301 -8 -16.333 -12 -27 -12c-8 0 -15.667 2.66699 -23 8l-10 8c-8.66699 6 -13 14.333 -13 25c0 8 2.33301 14.667 7 20
l90 133c2 3.33301 3.5 7.33301 4.5 12s1.5 9 1.5 13v10h-67c-9.33301 0 -17.5 3.5 -24.5 10.5s-10.5 15.167 -10.5 24.5v137c0 9.33301 3.5 17.166 10.5 23.499s15.167 9.5 24.5 9.5h135zM559 205c9.33301 0 17.5 -3.16602 24.5 -9.49902s10.5 -14.166 10.5 -23.499v-195
c0 -16 -2.33301 -28.5 -7 -37.5s-12.667 -20.167 -24 -33.5l-102 -123c-7.33301 -8 -16 -12 -26 -12c-8 0 -15.667 2.66699 -23 8l-11 8c-8.66699 6 -13 14.333 -13 25c0 8 2.33301 14.667 7 20l90 133c4.66699 7.33301 7 15.666 7 24.999v10h-68
c-9.33301 0 -17.5 3.5 -24.5 10.5s-10.5 15.167 -10.5 24.5v137c0 9.33301 3.5 17.166 10.5 23.499s15.167 9.5 24.5 9.5h135z" />
    <glyph glyph-name="dagger" unicode="&#x2020;" 
d="M470 1497h197v-376h-44v-88h88v44h360v-158h-360v44h-88v-88h44v-1118h-197v1118h44v88h-88v-44h-359v158h359v-44h88v88h-44v376z" />
    <glyph glyph-name="daggerdbl" unicode="&#x2021;" 
d="M667 -300h-197v372h44v88h-88v-44h-360v158h360v-44h88v88h-44v553h44v88h-88v-44h-359v158h359v-44h88v88h-44v372h197v-372h-44v-88h88v44h360v-158h-360v44h-88v-88h44v-553h-44v-88h88v44h359v-158h-359v44h-88v-88h44v-372z" />
    <glyph glyph-name="bullet" unicode="&#x2022;" horiz-adv-x="717" 
d="M133 721c0 80 18 137.833 54 173.5s94.333 53.5 175 53.5s139.167 -17.833 175.5 -53.5s54.5 -93.5 54.5 -173.5s-18.167 -138.167 -54.5 -174.5s-94.833 -54.5 -175.5 -54.5c-152.667 0 -229 76.333 -229 229z" />
    <glyph glyph-name="ellipsis" unicode="&#x2026;" horiz-adv-x="2048" 
d="M411 215c9.33301 0 17.333 -3.16699 24 -9.5s10 -14.166 10 -23.499v-147c0 -9.33301 -3.33301 -17.5 -10 -24.5s-14.667 -10.5 -24 -10.5h-137c-9.33301 0 -17.333 3.5 -24 10.5s-10 15.167 -10 24.5v147c0 9.33301 3.33301 17.166 10 23.499s14.667 9.5 24 9.5h137z
M1094 215c9.33301 0 17.333 -3.16699 24 -9.5s10 -14.166 10 -23.499v-147c0 -9.33301 -3.33301 -17.5 -10 -24.5s-14.667 -10.5 -24 -10.5h-137c-9.33301 0 -17.333 3.5 -24 10.5s-10 15.167 -10 24.5v147c0 9.33301 3.33301 17.166 10 23.499s14.667 9.5 24 9.5h137z
M1777 215c9.33301 0 17.333 -3.16699 24 -9.5s10 -14.166 10 -23.499v-147c0 -9.33301 -3.33301 -17.5 -10 -24.5s-14.667 -10.5 -24 -10.5h-137c-9.33301 0 -17.333 3.5 -24 10.5s-10 15.167 -10 24.5v147c0 9.33301 3.33301 17.166 10 23.499s14.667 9.5 24 9.5h137z" />
    <glyph glyph-name="perthousand" unicode="&#x2030;" horiz-adv-x="2048" 
d="M148 0l856 1456h147l-855 -1456h-148zM983 655c44 0 85.333 -8.33301 124 -25s72.5 -40 101.5 -70s52 -65.833 69 -107.5s25.5 -87.5 25.5 -137.5c0 -51.333 -8.5 -97.5 -25.5 -138.5s-40 -76.167 -69 -105.5s-62.833 -51.833 -101.5 -67.5s-80 -23.5 -124 -23.5
s-85.333 7.83301 -124 23.5s-72.5 38.167 -101.5 67.5s-51.833 64.5 -68.5 105.5s-25 87.167 -25 138.5c0 50 8.33301 95.833 25 137.5s39.5 77.5 68.5 107.5s62.833 53.333 101.5 70s80 25 124 25zM983 520c-25.333 0 -48 -4.83008 -68 -14.4971s-37 -23.334 -51 -41.001
s-24.667 -38.834 -32 -63.501s-11 -52 -11 -82c0 -64.667 14 -114.834 42 -150.501s68 -53.5 120 -53.5c53.333 0 93.666 18.5 120.999 55.5s41 86.5 41 148.5c0 60 -13.667 108.5 -41 145.5s-67.666 55.5 -120.999 55.5zM1726 655.003c44 0 85.5 -8.33301 124.5 -25
s73 -40 102 -70s51.833 -65.833 68.5 -107.5s25 -87.5 25 -137.5c0 -51.333 -8.33301 -97.5 -25 -138.5s-39.5 -76.167 -68.5 -105.5s-63 -51.833 -102 -67.5s-80.5 -23.5 -124.5 -23.5s-85.333 7.83301 -124 23.5s-72.5 38.167 -101.5 67.5s-51.833 64.5 -68.5 105.5
s-25 87.167 -25 138.5c0 50 8.33301 95.833 25 137.5s39.5 77.5 68.5 107.5s62.833 53.333 101.5 70s80 25 124 25zM1726 520.003c-25.333 0 -48 -4.83008 -68 -14.4971s-36.833 -23.334 -50.5 -41.001s-24.167 -38.834 -31.5 -63.501s-11 -52 -11 -82
c0 -64.667 13.833 -114.834 41.5 -150.501s67.5 -53.5 119.5 -53.5c53.333 0 93.666 18.5 120.999 55.5s41 86.5 41 148.5c0 60 -13.667 108.5 -41 145.5s-67.666 55.5 -120.999 55.5zM319 1476.01c44 0 85.5 -8.5 124.5 -25.5s73 -40.5 102 -70.5
s51.833 -65.833 68.5 -107.5s25 -87.167 25 -136.5c0 -50.667 -8.33301 -96.667 -25 -138s-39.5 -76.666 -68.5 -105.999s-63 -52 -102 -68s-80.5 -24 -124.5 -24s-85.333 8 -124 24s-72.5 38.667 -101.5 68s-51.833 64.666 -68.5 105.999s-25 87.333 -25 138
c-0 49.333 8.33301 94.833 25 136.5s39.5 77.5 68.5 107.5s62.833 53.5 101.5 70.5s80 25.5 124 25.5zM319 1341.01c-50.667 0 -90.167 -18.333 -118.5 -55s-42.5 -85.334 -42.5 -146.001c0 -66.667 13.833 -117.5 41.5 -152.5s67.5 -52.5 119.5 -52.5
c54 0 94.5 18 121.5 54s40.5 86.333 40.5 151c0 60.667 -13.5 109.334 -40.5 146.001s-67.5 55 -121.5 55z" />
    <glyph glyph-name="guilsinglleft" unicode="&#x2039;" horiz-adv-x="682" 
d="M407 72l-315 455l315 457h149l-265 -457l265 -455h-149z" />
    <glyph glyph-name="guilsinglright" unicode="&#x203a;" horiz-adv-x="682" 
d="M241 984l304 -448l-304 -464h-149l265 458l-265 454h149z" />
    <glyph glyph-name="fraction" unicode="&#x2044;" horiz-adv-x="342" 
d="M-278 -20h-157l1055 1496h157z" />
    <glyph glyph-name="Euro" unicode="&#x20ac;" 
d="M334 508c21.333 -127.333 67.6641 -222.163 138.997 -284.496s169.666 -93.5 294.999 -93.5c72.667 0 135.334 5.5 188.001 16.5s94.334 26.833 125.001 47.5l8 -2l37 -147c-40 -21.333 -93.167 -37.5 -159.5 -48.5s-139.5 -16.5 -219.5 -16.5
c-89.333 0 -169.666 10.833 -240.999 32.5s-133 54.5 -185 98.5s-93.667 99 -125 165s-51.333 143.333 -60 232h-165l28 135h131v171h-159l28 135h137c12.667 90 36.167 168.167 70.5 234.5s78.333 121.166 132 164.499s116 75.666 187 96.999s149.833 32 236.5 32
c74.667 0 141.834 -4.33301 201.501 -13s114.5 -26.334 164.5 -53.001l-34 -154l-8 -4c-40 22 -84.5 38.5 -133.5 49.5s-105.833 16.5 -170.5 16.5c-58 0 -112.333 -8.66699 -163 -26s-95.5 -42 -134.5 -74s-71.167 -70.833 -96.5 -116.5s-41.333 -96.834 -48 -153.501h680
l-27 -135h-666v-171h633l-24 -135h-602z" />
    <glyph glyph-name="afii61352" unicode="&#x2116;" horiz-adv-x="2197" 
d="M1401 714c0 58.667 8.66797 111.499 26.001 158.499s41.666 87.167 72.999 120.5s69.333 59 114 77s94.667 27 150 27c54.667 0 104.167 -9.16699 148.5 -27.5s82.166 -44.666 113.499 -78.999s55.5 -75.833 72.5 -124.5s25.5 -103.334 25.5 -164.001
s-8.66699 -115.5 -26 -164.5s-42 -90.667 -74 -125s-70.667 -60.833 -116 -79.5s-95.666 -28 -150.999 -28c-52.667 0 -100.834 9.16699 -144.501 27.5s-81.167 44.833 -112.5 79.5s-55.666 77.334 -72.999 128.001s-26 108.667 -26 174zM1579 707.999
c0 -84.667 16.167 -147.999 48.5 -189.999s76.833 -63 133.5 -63s101.667 21.5 135 64.5s50 103.833 50 182.5c0 84 -16.5 145.833 -49.5 185.5s-78.833 59.5 -137.5 59.5c-26 0 -50 -4.83301 -72 -14.5s-41 -24.334 -57 -44.001s-28.5 -44.5 -37.5 -74.5
s-13.5 -65.333 -13.5 -106zM1419 170h682v-150h-682v150zM1254 0h-211l-688 1132h-6v-1132h-189v1456h213l688 -1132h5v1132h188v-1456z" />
    <glyph glyph-name="trademark" unicode="&#x2122;" horiz-adv-x="2048" 
d="M489 659v697h-264v120h666v-120h-266v-697h-136zM981 659v817h168l237 -485l236 485h168v-817h-135v607l-213 -418h-119l-207 418v-607h-135z" />
    <glyph glyph-name="estimated" unicode="&#x212e;" horiz-adv-x="1229" 
d="M321 531l-0.000976562 -371c80 -80.667 179.333 -121 298 -121c169.333 0 301 82 395 246l72 -43c-40.667 -58 -80 -105 -118 -141s-76 -64 -114 -84s-76.333 -33.5 -115 -40.5s-78.667 -10.5 -120 -10.5c-79.333 0 -151.5 14.333 -216.5 43s-120.667 68.167 -167 118.5
s-82.166 110 -107.499 179s-38 143.833 -38 224.5c0 82 12.833 157.5 38.5 226.5s61.834 128.5 108.501 178.5s102.5 89.167 167.5 117.5s136.5 42.5 214.5 42.5c70.667 0 137.334 -11.833 200.001 -35.5s117.667 -59 165 -106s85.666 -105.833 114.999 -176.5
s45.666 -153 48.999 -247h-827zM916.999 605v297c-84.667 80.667 -184.667 121 -300 121c-116 0 -214.667 -40.667 -296 -122v-296h596z" />
    <glyph glyph-name="minus" unicode="&#x2212;" horiz-adv-x="1152" 
d="M45 511v150h1062v-150h-1062z" />
    <glyph glyph-name="approxequal" unicode="&#x2248;" horiz-adv-x="1124" 
d="M51 738l0.000976562 205.001c70.667 80 163.334 120 278.001 120c39.333 0 81 -5.66699 125 -17c22 -5.33301 48.667 -14 80 -26s67.666 -26.667 108.999 -44c46.667 -20 81 -33 103 -39c24.667 -5.33301 48 -8 70 -8c43.333 0 88 13 134 39c46 25.333 87.333 58 124 98
v-212c-42.667 -40 -85.834 -69 -129.501 -87s-92.834 -27 -147.501 -27c-41.333 0 -79.333 4.33301 -114 13c-18 4.66699 -41.333 12.667 -70 24s-63 25.666 -103 42.999c-79.333 36 -145.333 54 -198 54c-43.333 0 -83.666 -9.33301 -120.999 -28
c-38 -18 -84.667 -54 -140 -108zM51.001 376.001l0.000976562 205c70.667 80 163.334 120 278.001 120c39.333 0 81 -5.66699 125 -17c22 -5.33301 48.667 -14 80 -26s67.666 -26.667 108.999 -44l60.5 -23.5c17 -6.33301 31.167 -11.166 42.5 -14.499
c22.667 -6 46 -9 70 -9c43.333 0 88 13 134 39c46 25.333 87.333 58 124 98v-212c-42.667 -40 -85.834 -69 -129.501 -87s-92.834 -27 -147.501 -27c-38.667 0 -76.667 4.66699 -114 14c-18 4.66699 -41.333 12.667 -70 24s-63 25.666 -103 42.999
c-80 35.333 -146 53 -198 53c-43.333 0 -83.666 -9.33301 -120.999 -28c-38 -18 -84.667 -54 -140 -108z" />
    <glyph glyph-name="notequal" unicode="&#x2260;" horiz-adv-x="1124" 
d="M495 417l-194 -445h-136l195 445h-282v168h356l122 277h-478v168h551l196 444h134l-195 -444h282v-168h-356l-121 -277h477v-168h-551z" />
    <glyph glyph-name="SF440000" unicode="&#x256c;" horiz-adv-x="1451" 
d="M1473 724h-645v1140h175v-965h470v-175zM622 1864v-1140h-645v175h470v965h175zM-23 519h645v-1140h-175v965h-470v175zM828 -621v1140h645v-175h-470v-965h-175z" />
    <glyph glyph-name="fi" unicode="&#xfb01;" horiz-adv-x="1024" 
d="M23 1077l160.001 0.00195312v75c0 105.333 22.667 185.666 68 240.999s117 83 215 83c34 0 67.667 -0.666992 101 -2s64 -4.33301 92 -9l-28 -148c-17.333 3.33301 -35.833 5.66602 -55.5 6.99902s-36.834 2 -51.501 2c-34 0 -61.667 -4 -83 -12s-38 -20 -50 -36
s-20 -36.167 -24 -60.5s-6 -52.833 -6 -85.5v-55h228v-150h-228v-927h-178v927h-160v150zM707.001 1077h178v-1077h-178v1077zM693.001 1443c0 9.33301 3.5 17.166 10.5 23.499s15.167 9.5 24.5 9.5h135c9.33301 0 17.5 -3.16699 24.5 -9.5s10.5 -14.166 10.5 -23.499v-147
c0 -9.33301 -3.5 -17.5 -10.5 -24.5s-15.167 -10.5 -24.5 -10.5h-135c-9.33301 0 -17.5 3.5 -24.5 10.5s-10.5 15.167 -10.5 24.5v147z" />
    <glyph glyph-name="fl" unicode="&#xfb02;" horiz-adv-x="1024" 
d="M23 1077l160.001 0.000976562v75c0 105.333 22.667 185.666 68 240.999s117 83 215 83c34 0 69.333 -1.66699 106 -5s69 -8.66602 97 -15.999l-28 -140c-18.667 3.33301 -39.334 6 -62.001 8s-41 3 -55 3c-34 0 -61.667 -4 -83 -12s-38 -20.167 -50 -36.5
s-20 -36.833 -24 -61.5s-6 -53.334 -6 -86.001v-53h218v-150h-218v-927h-178v927h-160v150zM883.001 0.000976562h-178v1476h178v-1476z" />
    <glyph glyph-name=".null" horiz-adv-x="0" 
 />
    <glyph glyph-name="nonmarkingreturn" horiz-adv-x="569" 
 />
    </font>
</defs>
</svg>
